<svg width="1200" height="760" viewBox="0 0 1200 760" fill="none" xmlns="http://www.w3.org/2000/svg" role="img" aria-labelledby="title desc">
  <title id="title">Chico codeando de perfil en una computadora de escritorio</title>
  <desc id="desc">Ilustración cyberpunk de un desarrollador de perfil frente a un monitor con líneas de código.</desc>
  <defs>
    <radialGradient id="halo" cx="0" cy="0" r="1" gradientUnits="userSpaceOnUse" gradientTransform="translate(626 280) rotate(90) scale(384 520)">
      <stop stop-color="#d7ff34" stop-opacity="0.55"/>
      <stop offset="0.38" stop-color="#21ffc4" stop-opacity="0.18"/>
      <stop offset="1" stop-color="#050814" stop-opacity="0"/>
    </radialGradient>
    <linearGradient id="screen" x1="281" y1="102" x2="909" y2="514" gradientUnits="userSpaceOnUse">
      <stop stop-color="#0f172a"/>
      <stop offset="0.55" stop-color="#07111f"/>
      <stop offset="1" stop-color="#020617"/>
    </linearGradient>
    <linearGradient id="desk" x1="96" y1="591" x2="1106" y2="591" gradientUnits="userSpaceOnUse">
      <stop stop-color="#0d1b2a"/>
      <stop offset="0.5" stop-color="#10291f"/>
      <stop offset="1" stop-color="#0d1b2a"/>
    </linearGradient>
    <filter id="glow" x="-40%" y="-40%" width="180%" height="180%" color-interpolation-filters="sRGB">
      <feGaussianBlur stdDeviation="11" result="blur"/>
      <feColorMatrix in="blur" type="matrix" values="0 0 0 0 0.75 0 0 0 0 1 0 0 0 0 0.13 0 0 0 0.8 0"/>
      <feBlend in="SourceGraphic" mode="screen"/>
    </filter>
    <filter id="soft" x="-20%" y="-20%" width="140%" height="140%">
      <feDropShadow dx="0" dy="18" stdDeviation="18" flood-color="#000" flood-opacity="0.45"/>
    </filter>
  </defs>
  <rect width="1200" height="760" rx="42" fill="#060a16"/>
  <rect x="1.5" y="1.5" width="1197" height="757" rx="40.5" stroke="#d7ff34" stroke-opacity="0.28" stroke-width="3"/>
  <circle cx="600" cy="323" r="480" fill="url(#halo)"/>
  <g opacity="0.48">
    <path d="M96 128H233M960 116H1103M77 641H217M949 632H1133" stroke="#d7ff34" stroke-width="3" stroke-linecap="round"/>
    <path d="M129 177H176M1002 172H1050M150 682H197M991 682H1038" stroke="#24ffc8" stroke-width="3" stroke-linecap="round"/>
  </g>
  <g filter="url(#soft)">
    <rect x="262" y="92" width="676" height="418" rx="28" fill="#050914" stroke="#cfff36" stroke-opacity="0.55" stroke-width="4"/>
    <rect x="292" y="124" width="616" height="340" rx="18" fill="url(#screen)" stroke="#21ffc4" stroke-opacity="0.38" stroke-width="2"/>
    <circle cx="328" cy="155" r="8" fill="#ff5f56"/>
    <circle cx="354" cy="155" r="8" fill="#ffbd2e"/>
    <circle cx="380" cy="155" r="8" fill="#27c93f"/>
    <path d="M340 210H515M340 251H590M340 292H478M340 333H640M340 374H542" stroke="#d7ff34" stroke-width="12" stroke-linecap="round" filter="url(#glow)"/>
    <path d="M625 210H804M680 251H842M586 292H820M703 333H862M626 374H776" stroke="#21ffc4" stroke-width="10" stroke-linecap="round" opacity="0.82"/>
    <path d="M312 420H888" stroke="#cfff36" stroke-opacity="0.28" stroke-width="2" stroke-dasharray="10 18"/>
  </g>
  <path d="M546 510H654L679 599H521L546 510Z" fill="#101828" stroke="#d7ff34" stroke-opacity="0.35" stroke-width="3"/>
  <rect x="451" y="585" width="298" height="34" rx="17" fill="#111827" stroke="#21ffc4" stroke-opacity="0.35" stroke-width="3"/>
  <rect x="94" y="602" width="1012" height="76" rx="28" fill="url(#desk)" stroke="#d7ff34" stroke-opacity="0.35" stroke-width="3"/>
  <g filter="url(#soft)">
    <path d="M573 339C632 337 683 376 699 430L748 600H540L523 450C517 394 526 350 573 339Z" fill="#101624" stroke="#21ffc4" stroke-opacity="0.42" stroke-width="3"/>
    <path d="M590 224C631 210 676 229 689 269C702 309 681 348 641 360C612 368 576 356 560 329C540 296 552 237 590 224Z" fill="#d7b48f"/>
    <path d="M666 274C692 278 711 290 727 309C705 315 687 314 668 305Z" fill="#d7b48f"/>
    <path d="M610 219C656 217 690 244 694 285C665 266 626 264 585 283C578 257 584 231 610 219Z" fill="#111827"/>
    <path d="M657 309C665 314 676 314 684 309" stroke="#111827" stroke-width="5" stroke-linecap="round"/>
    <circle cx="656" cy="286" r="5" fill="#111827"/>
    <path d="M563 444C504 476 462 521 421 594" stroke="#d7b48f" stroke-width="34" stroke-linecap="round"/>
    <path d="M681 439C733 470 771 519 812 594" stroke="#d7b48f" stroke-width="34" stroke-linecap="round"/>
  </g>
  <rect x="356" y="534" width="488" height="106" rx="18" fill="#07111f" stroke="#d7ff34" stroke-opacity="0.58" stroke-width="3"/>
  <rect x="386" y="562" width="210" height="12" rx="6" fill="#d7ff34" opacity="0.9"/>
  <rect x="386" y="592" width="316" height="12" rx="6" fill="#21ffc4" opacity="0.78"/>
  <rect x="386" y="622" width="138" height="12" rx="6" fill="#ffffff" opacity="0.72"/>
  <text x="600" y="712" text-anchor="middle" fill="#d7ff34" font-family="monospace" font-size="34" letter-spacing="6">NUEVOS PROYECTOS</text>
</svg>
