<?xml version="1.0" standalone="no"?>
<!DOCTYPE svg PUBLIC "-//W3C//DTD SVG 20010904//EN"
 "http://www.w3.org/TR/2001/REC-SVG-20010904/DTD/svg10.dtd">
<svg version="1.0" xmlns="http://www.w3.org/2000/svg"
 width="1000.000000pt" height="1000.000000pt" viewBox="0 0 1000.000000 1000.000000"
 preserveAspectRatio="xMidYMid meet">

<g transform="translate(0.000000,1000.000000) scale(0.100000,-0.100000)"
fill="#000000" stroke="none">
<path d="M4720 8969 c-1560 -105 -2928 -1140 -3464 -2621 -385 -1064 -289
-2281 258 -3265 747 -1343 2181 -2141 3694 -2055 985 57 1863 440 2566 1122
1011 980 1424 2422 1090 3800 -43 174 -124 423 -191 580 l-49 115 22 150 c121
831 133 915 140 948 l6 27 -469 0 -469 0 -39 41 c-65 67 -235 219 -336 300
-775 620 -1756 925 -2759 858z m1120 -1749 c342 -12 565 -30 775 -65 134 -23
291 -57 300 -67 3 -3 -81 -593 -100 -705 l-6 -33 424 0 425 0 11 -45 c20 -80
41 -297 41 -425 0 -263 -16 -392 -223 -1855 l-152 -1070 -758 -3 c-650 -2
-757 0 -757 12 0 8 16 108 35 222 20 115 34 214 33 222 -2 8 -45 -28 -103 -88
-259 -263 -453 -355 -870 -413 -150 -20 -197 -22 -745 -22 -495 0 -608 3 -738
18 -500 58 -772 159 -954 356 -157 169 -225 431 -198 765 14 187 62 506 94
633 193 760 645 963 2146 963 886 0 1278 -83 1526 -322 39 -37 76 -68 82 -68
12 0 13 8 42 275 40 362 38 458 -13 569 -29 62 -76 109 -142 143 -126 65 -203
74 -692 80 -455 6 -657 -4 -826 -38 -251 -51 -343 -133 -391 -351 l-6 -28
-730 0 -729 0 4 28 c2 15 12 77 21 137 68 462 252 749 590 918 278 140 707
217 1369 247 418 19 837 23 1215 10z"/>
<path d="M4600 4753 c-383 -26 -560 -69 -659 -159 -23 -20 -53 -56 -66 -78
-53 -91 -98 -351 -75 -437 35 -134 142 -198 395 -237 93 -14 194 -17 645 -17
558 0 656 5 829 46 165 38 256 102 306 213 34 73 75 268 75 351 0 96 -14 139
-63 189 -72 74 -201 106 -502 126 -142 9 -768 11 -885 3z"/>
</g>
</svg>
