<svg xmlns="http://www.w3.org/2000/svg" width="1000" height="1000"><path fill="#252422" d="M0 0h1000v1000H0z"/><path fill="#fefefe" d="M0 0h1000v1000H0zm442 106-3.43.518c-70.628 10.672-137.045 40.581-191.953 86.31a374 374 0 0 1-5.734 4.656l-3.07 2.453-2.793 2.215L233 204v2l-1.654.67c-3.09 1.752-5.408 4.106-7.889 6.607l-1.6 1.594a1089 1089 0 0 0-3.346 3.357 991 991 0 0 1-5.029 5.016c-5.848 5.84-11.34 11.793-16.491 18.27a163 163 0 0 1-5.612 6.603C178.972 262.175 168.696 278.004 159 294l-1.55 2.548c-15.76 26.15-29.339 54.463-37.47 83.944a115 115 0 0 1-2.543 8.008c-1.723 4.995-2.826 10.151-3.992 15.299l-.48 2.115-.418 1.874c-.453 1.83-.976 3.644-1.517 5.45-1.095 3.999-1.827 7.938-2.468 12.028l-.379 2.369C105.266 446.04 102.592 464.348 102 483l-.074 2.212c-1.1 34.39 1.328 68.538 9.42 102.07a651 651 0 0 1 1.986 8.581c6.958 29.95 17.884 60.13 32.668 87.137l1.461 2.67C153.908 697.38 160.53 708.913 168 720c.42.63.84 1.258 1.271 1.907 8.973 13.436 18.812 25.99 29.319 38.253a177 177 0 0 1 4.414 5.399c2.181 2.667 4.548 5.015 6.996 7.441q2.677 2.71 5.352 5.422 2.336 2.358 4.675 4.715 1.584 1.6 3.164 3.205c6.931 7.042 14.045 13.522 21.809 19.658a800 800 0 0 1 3.977 3.3c36.45 30.194 79.922 55.028 125.375 68.56 2.557.799 5.004 1.638 7.496 2.6 16.085 6.125 33.227 9.112 50.123 12.013 2.604.453 5.2.934 7.795 1.433 20.118 3.79 40.508 4.275 60.921 4.282l2.553.003c15.881-.003 31.502-.805 47.26-2.941l3.899-.525c11.999-1.678 23.802-3.99 35.601-6.725l2.253-.515A354 354 0 0 0 606 884l2.148-.58C647.723 872.604 686.07 855.033 720 832l4.105-2.742c13.464-9.054 25.982-19.11 38.195-29.779a358 358 0 0 1 3.473-2.982c5.793-4.958 11.202-10.286 16.59-15.675a1380 1380 0 0 1 4.705-4.666C793.5 769.761 799.344 763.101 805 756q1.419-1.672 2.863-3.32c6.825-7.815 12.86-16.043 18.716-24.603a918 918 0 0 1 3.98-5.757c7.147-10.386 13.33-21.3 19.441-32.32l1.23-2.194C865.597 662.1 876.167 634.344 884 606l.757-2.723C889.39 586.382 892.463 569.324 895 552l.505-3.32c3.037-20.5 2.892-40.953 2.529-61.618-.03-1.773-.048-3.546-.065-5.319-.305-29.609-5.9-60.327-13.969-88.743l-1.035-3.754c-1.498-5.372-3.06-10.63-5.053-15.843-1.12-2.951-2.203-5.915-3.287-8.88l-1.297-3.53a3708 3708 0 0 1-2.656-7.259l-1.297-3.523-1.164-3.178c-1.173-3.092-1.173-3.092-2.841-6.124-3.322-7.055-1.134-15.352.317-22.721 1.942-10.462 3.424-20.955 4.813-31.5 1.46-11.06 2.965-22.103 4.688-33.125l.495-3.17.91-5.8q.851-5.418 1.657-10.843c.15-.995.3-1.99.453-3.016.318-2.931.316-5.788.297-8.734l-3.52.05q-16.482.218-32.966.232c-5.65.008-11.296.039-16.945.126a832 832 0 0 1-16.378.078q-3.113.002-6.223.074c-17.928.39-17.928.39-24.906-6.132a91 91 0 0 1-5.86-6.93c-1.6-1.994-3.428-3.616-5.39-5.248-2.012-1.704-3.99-3.415-5.921-5.21-67.967-63.178-164.835-96.597-262.328-97.352l-2.971-.008c-18.16-.006-35.667 1.487-53.592 4.32"/><path fill="#fefefe" d="M530.235 277.743c5.755.009 11.51.002 17.265-.007q8.508-.014 17.015-.006 5.006.006 10.012-.003c17.91-.025 35.627.755 53.473 2.273l2.44.204c20.317 1.706 41.265 3.903 60.56 10.796-.736 16.696-.736 16.696-2.477 24.29-.674 3.493-.989 6.98-1.335 10.523-1.532 13.135-3.941 26.155-6.188 39.187h85c1.35 4.722 2.391 8.784 3.063 13.563l.472 3.253c1.336 11.062 1.689 22.176 1.715 33.309l.005 2.07c.002 13.237-1.126 26.235-2.819 39.365-.4 3.152-.77 6.306-1.132 9.462-1.134 9.87-2.477 19.704-3.866 29.54q-.383 2.717-.763 5.432l-1.705 12.116q-1.485 10.547-2.96 21.095l-2.102 14.985-1.177 8.401c-1.834 13.09-3.671 26.178-5.653 39.246-1.524 10.067-2.954 20.146-4.39 30.226l-.452 3.163a17358 17358 0 0 0-6.996 49.516q-.54 3.847-1.076 7.696l-.315 2.238c-.708 5.104-1.28 10.198-1.849 15.324H582c0-7.875 0-7.875.643-11.467l.424-2.425.464-2.542.471-2.66q.743-4.173 1.498-8.343l1.012-5.686A5701 5701 0 0 1 589 658a537 537 0 0 0-8.68 8.82C566.897 680.668 553.6 691.058 536 699l-3.324 1.559c-4.586 1.798-9.193 2.912-13.988 4.004l-2.686.63c-2.664.62-5.328 1.229-8.002 1.807l-2.103.463c-27.067 5.72-55.11 5.042-82.617 4.983q-6.694-.014-13.386.02c-122.32.623-122.32.623-161.144-36.278-17.192-17.847-21.581-41.762-21.375-65.688l.006-2.536c.069-14.043 1.348-27.816 3.307-41.714l.369-2.648c2.297-16.105 5.468-32.393 11.38-47.602l.901-2.366c10.364-26.723 27.387-44.82 53.158-57.114 28.395-12.314 60.353-15.496 90.927-17.303a897 897 0 0 0 7.233-.468c11.143-.748 22.245-.912 33.41-.917l5.674-.01q5.91-.009 11.822-.007 5.982 0 11.964-.02c42.49-.144 42.49-.144 62.474 2.205l4.56.502c3.824.437 7.63.953 11.44 1.498l2.048.268c26.85 3.537 52.094 11.915 71.007 31.912 1.909 2.04 1.909 2.04 4.945 2.82l.136-1.667q.334-4.042.677-8.083l.26-3.103c.599-6.905 1.334-13.783 2.142-20.665 3.547-28.627 3.547-28.627-3.902-55.92C603.87 377.102 589.556 373.37 576 372l-2.315-.248c-9.464-.912-18.89-.916-28.388-.92l-5.426-.01a6547 6547 0 0 0-11.347-.007q-5.742 0-11.484-.02c-50.098-2.534-50.098-2.534-95.282 15.014-6.926 7.149-9.407 16.789-11.758 26.191H264c2.365-21.285 2.365-21.285 4.188-29.437l.649-2.915c4.59-19.683 12.48-38.519 26.163-53.648l2.195-2.477C325.275 293.591 371.237 286.24 410 282l2.54-.28c6.81-.722 13.63-1.234 20.46-1.72l3.63-.259c31.177-2.115 62.373-2.05 93.605-1.998"/><path fill="#252422" d="m479.11 523.867 5.46-.003q5.692-.002 11.386.006 7.217.006 14.434-.004 5.633-.005 11.264 0l5.314-.002c31.207-.033 31.207-.033 46.407 2.886l2.807.534c10.17 2.045 18.771 4.335 25.513 12.654 6.604 10.439 3.726 25.033 1.18 36.437-2.969 12.347-6.672 23.43-17.875 30.625-27.993 14.63-64.604 11.332-95.2 11.26-4.939-.01-9.878-.004-14.817.008-39.775.078-39.775.078-56.983-2.268l-2.29-.304c-11.239-1.522-23.412-4.484-31.397-13.196-1.27-1.777-1.27-1.777-2.313-3.5l-1.875-3.062c-4.505-12.273-.384-30.88 4.23-42.704 5.447-11.623 13.73-17.813 25.645-22.234 11.65-3.652 23.88-4.984 36-6l2.847-.253c10.098-.819 20.137-.893 30.262-.88"/><path fill="#fe4b4c" d="M728 222h151c-.736 8.826-1.63 17.49-2.812 26.25l-.263 1.969a759 759 0 0 1-4.492 29.065c-1.206 7.052-2.15 14.113-2.995 21.216-.948 7.964-2.103 15.81-3.692 23.672-1.024 5.256-1.866 10.546-2.746 15.828H711c.63-9.452 1.35-18.513 2.813-27.812l.535-3.514q.817-5.34 1.652-10.674l1.938-12.437.487-3.127c1.738-11.283 3.287-22.591 4.825-33.903 3.195-23.422 3.195-23.422 4.75-26.533"/><path fill="#301e14" d="M712 277c2.68 4.019 2.156 6.242 2 11h3v-5l2-1c-2.42 19.366-5.24 38.68-8 58h151l1-3 1 4c-3.808.887-7.339 1.13-11.244 1.14l-3.812.018-4.158.003-4.396.015q-5.96.019-11.919.024l-7.443.012q-11.64.02-23.28.027-13.446.007-26.892.05-10.393.033-20.785.034-6.21 0-12.418.025-5.832.023-11.664.01-2.145-.002-4.289.013a534 534 0 0 1-5.837-.004l-3.304.005L710 342c-2.366-3.549-2.109-4.576-1.625-8.687l.336-3.012L709 328h2l-.5-3c-.894-6.949-.576-14.009-.5-21l-3-1 3-15h2z"/><path fill="#f34d4d" d="M786 223h93a594 594 0 0 1-2.812 25.188l-.263 1.976a752 752 0 0 1-4.492 29.12c-1.377 8.049-2.391 16.12-3.352 24.227-.998 8.247-2.395 16.356-4.081 24.489h-1q-.079-3.375-.125-6.75l-.07-3.797c.188-3.337.646-4.63 2.195-7.453.986-4.782 1.271-9.561 1.5-14.426l.25-4.85q.189-3.798.375-7.597.183-3.683.375-7.365l.107-2.314c.28-5.335.28-5.335 1.393-6.448.234-1.849.413-3.705.563-5.562l.253-3.067L870 256l-2-1h2v-31h-84z"/><path fill="#fc4b4b" d="M728 222h57v2c-6.139.926-11.99 1.065-18.187.879l-2.858-.072q-4.478-.116-8.955-.244l-6.105-.159q-7.448-.193-14.895-.404l.063 3.75c.003 2.945-.237 5.414-1.063 8.25a99 99 0 0 0-.316 4.547l-.127 2.558-.12 2.645-.13 2.691q-.159 3.28-.307 6.559l2 1h-2v10h-2l-1-10h-4l.125 3.625c0 3.865-.855 6.707-2.125 10.375-.534 3.124-1 6.251-1.437 9.39C721 282 721 282 719 284c-.147-5.54.411-10.758 1.242-16.23l.39-2.642q.616-4.158 1.243-8.315l.816-5.526C726.62 224.763 726.62 224.763 728 222"/><path fill="#fcfcfa" d="M560 615v3l-3.246.184-4.192.254-2.142.119c-3.507-.08-3.507-.08-6.42 1.443l2 2h-2v2h-32v-4h-62l1 3c-3.775.872-7.315 1.163-11.187 1.188l-3.168.042C434 624 434 624 432 622a104 104 0 0 1-2-5l3.559.013q16.766.062 33.53.09 8.616.015 17.23.048 8.346.032 16.69.039 3.153.005 6.304.021c12.295.062 24.417-.336 36.66-1.51 5.377-.514 10.626-.802 16.027-.701"/><path fill="#3f3e3d" d="M448 272h15l1 3-2 1c10.215.204 19.957.205 30-2v-1h12v1l13 1v1l59 1v1l-3.733.031q-17.644.15-35.289.308-9.065.083-18.13.158-10.486.087-20.973.187l-3.445.03c-10.868.101-21.732.214-32.594.615l-2.286.083c-3.35.125-6.696.268-10.043.437-6.82.293-12.888-.121-19.507-1.849v-1h6v-3l12 1z"/><path fill="#cf474c" d="M862 332h1l-1 8H711v-7l1.138 1.968c1.71 2.27 1.71 2.27 4.464 2.54l3.188.011 3.658.042 4.02-.015q2.113.014 4.227.031c3.829.028 7.657.031 11.485.03 4 .004 8 .03 12 .052 7.575.041 15.15.061 22.726.074 8.624.016 17.247.055 25.871.095 17.741.083 35.482.137 53.223.172l1-2v2h2z"/><path fill="#272223" d="M712 277c2.68 4.019 2.156 6.242 2 11h3v-5l2-1c-1.525 12.694-3.3 25.346-5.125 38l-.84 5.852Q712.02 332.926 711 340h-1v-36l-3-1 3-15h2z"/><path fill="#f8f7f5" d="m237 533 1 3h2c.116 3.27.187 6.54.25 9.813l.102 2.814.039 2.705.063 2.491C240 556 240 556 238.101 557.792 236 559 236 559 234 559v4l2-3h2c1.752 3.772 2.225 6.667 2.125 10.813l-.055 2.957L240 576h-9l-1 2c.955-9.409 2.038-18.78 3.5-28.125l.359-2.327c.791-4.932 1.87-9.717 3.141-14.548"/><path fill="#fce8e7" d="M876 242h1l-.016 1.697q-.029 3.808-.047 7.615l-.025 2.67-.01 2.569-.016 2.364c.033 2.281.033 2.281 1.114 5.085.128 2.674.044 5.321 0 8l-4 1-1 15h-2l.035 2.484.028 3.266.035 3.234C871 300 871 300 870.5 301.945c-.824 3.388-.602 6.84-.562 10.305l.013 2.258q.02 2.745.049 5.492h-3v6h-2l-1 12h-1c-.22-6.845.366-13.106 1.688-19.812 1.94-10.462 3.424-20.955 4.812-31.5 1.97-14.93 4.121-29.817 6.5-44.688"/><path fill="#fd4a4e" d="M876 236h1c-.46 10.352-1.71 20.371-3.468 30.574-.699 4.059-1.373 8.12-2.044 12.184l-.4 2.421c-1.248 7.64-2.212 15.301-3.108 22.989-.953 8.027-2.339 15.917-3.98 23.832h-1q-.079-3.375-.125-6.75l-.07-3.797c.188-3.337.646-4.63 2.195-7.453.986-4.782 1.271-9.561 1.5-14.426l.25-4.85q.189-3.798.375-7.597.183-3.683.375-7.365l.107-2.314c.28-5.335.28-5.335 1.393-6.448.234-1.849.413-3.705.563-5.562l.253-3.067L870 256l-2-1h2v-6h2v-5h2z"/><path fill="#3c3937" d="M520 102v1l-42 1 2 2v6h-15l-1-3-11-1v-2h-5v-1c23.949-3.738 47.833-3.31 72-3"/><path fill="#f7f7f5" d="M580.438 655.875C584 656 584 656 586 657c1.666.04 3.334.044 5 0 .75 2.688.75 2.688 1 6-1.937 2.875-1.937 2.875-4 5l1-10a1171 1171 0 0 0-9.031 9.102l-4.469 4.523-2.262 2.313-2.207 2.226-1.982 2.014c-2.204 1.96-4.482 3.383-7.049 4.822-2.215-5.415-2.215-5.415-1.125-8.375L562 673l7 1 1-3c1.375-1.687 1.375-1.687 3-3h3l-3-2 3-1-.062-3.937A59 59 0 0 1 576 657c1-1 1-1 4.438-1.125"/><path fill="#e3e2e1" d="M451.128 437.863c5.084.02 10.167.03 15.25.04q14.812.031 29.622.097v1h-80v3q-8.49.325-16.98.592-2.89.096-5.78.207c-2.764.106-5.529.193-8.295.275l-2.62.113c-2.426.062-2.426.062-6.325-.187l-2-3c25.728-1.956 51.335-2.255 77.128-2.137"/><path fill="#fbfbf9" d="M226 792c5.383.15 8.433 3.628 12.188 7.063q1.989 1.775 3.984 3.546l1.963 1.752c3.831 3.366 7.842 6.506 11.865 9.639-5.002 3.084-10.3 2.124-16 2v-13h-4v-3l-3-1a100 100 0 0 1-4-3v2l2 1-3 1c-2.187-1.437-2.187-1.437-4-3 .875-3.875.875-3.875 2-5"/><path fill="#fcfef6" d="M771 208h13c-1.875 4.75-1.875 4.75-3 7 3.599 1.2 6.836 1.096 10.577 1.038l2.331-.025q3.815-.043 7.631-.099l5.294-.064q5.546-.069 11.09-.147 7.125-.097 14.25-.178 5.463-.065 10.927-.139 2.627-.034 5.255-.065 3.664-.043 7.327-.1l2.213-.022c3.338.23 3.338.23 6.105-1.199 2.697-.073 5.367-.092 8.063-.062l2.298.013q2.82.02 5.639.049v2c-10.564.77-21.084 1.17-31.675 1.26q-3.714.034-7.429.077-9.195.102-18.392.19-7.838.075-15.677.165-3.654.038-7.31.068l-4.454.05-3.925.039c-3.715.179-5.484.497-8.138 3.151a3032 3032 0 0 1-6-5.937l-1.734-1.71A287 287 0 0 1 771 209z"/><path fill="#3f3c3a" d="m395.383 711.902 5.001.005q6.535.006 13.07.024 6.687.014 13.374.02 13.086.016 26.172.049v1l-56 1v1l-2.336.113-3.039.2-3.023.175L386 716l-2 3c-5.637 1.166-10.343.91-16 0v-6c9.133-1.153 18.197-1.128 27.383-1.098"/><path fill="#fefefc" d="M261 482c2 3 2 3 1.625 6.188L262 491l-2-2-2 2-2 1v2l3 1-3 2a62 62 0 0 0-.187 7.625l.04 2.14c.036 1.746.09 3.49.147 5.235l-9 1-1 3h-3c3.823-12.743 10.253-23.327 18-34"/><path fill="#f4f4f2" d="M894 552c2.094 3.402 2.18 6.053 2 10h-2l1 5h1v25h-7l-2 2c.677-7.311 2-14.379 3.5-21.562 1.414-6.802 2.763-13.527 3.5-20.438"/><path fill="#e8e7e6" d="M681 365h85l-2 4-2-1-1 3v-4l-2.858.058q-13.331.268-26.662.489c-4.57.076-9.139.157-13.708.252q-6.612.136-13.227.233-2.524.042-5.047.1c-2.356.053-4.711.087-7.067.117l-2.11.06c-4.559.031-5.427-.389-9.321-3.309"/><path fill="#edecea" d="m340.25 703.875 2.703.055L345 704v3h3l1-1c3.69-2.46 5.67-2.268 10.063-2.25l3.785-.016C366 704 366 704 368 706l-1 2h-5v-2l-3 3h9v1l5 1v1c-16.11-.5-32.003-2.065-48-4v-1l2.75-.375c3.117-.427 3.117-.427 5.125-1.656 2.607-1.189 4.524-1.169 7.375-1.094"/><path fill="#fcfcfa" d="M696 847c-1 3-1 3-3.062 4.188L691 852v2h-2l-1 10c-12.125 0-12.125 0-17-1l1-2-2-2 3.473-1.61 4.59-2.14 2.279-1.055c3.62-1.692 7.146-3.434 10.592-5.46C694 847 694 847 696 847"/><path fill="#c7c6c4" d="m430 617 87 1v1l-67 1 1 3c-3.775.872-7.315 1.163-11.187 1.188l-3.168.042C434 624 434 624 432 622z"/><path fill="#f7f7f5" d="M103 534h1q.506 4.28 1 8.563c.095.8.19 1.6.29 2.423 1.47 12.874 1.47 12.874-1.29 17.014v-2h-8q-.04-3.72-.062-7.437l-.026-2.143c-.009-1.807.036-3.614.088-5.42 1-1 1-1 4.063-1.062L103 544z"/><path fill="#fdfdfb" d="M326.438 304.25 328 305l-1.937 1.813c-2.266 2.095-2.266 2.095-3.063 5.187h-2l-1 8h-18c4.77-4.77 9.42-8.312 15-12l2.063-1.371c4.322-2.692 4.322-2.692 7.375-2.379"/><path fill="#f6f6f4" d="m346 867 1.86.687q4.257 1.566 8.515 3.125l2.926 1.08A273 273 0 0 0 378 878l-1.937.438c-2.038.372-2.038.372-3.063 1.562-1.52.072-3.042.084-4.562.063l-2.504-.028L364 880v-2h-2v2h-10l-1-8h-5z"/><path fill="#f7f7f5" d="M132 653c2.417 2.996 4.054 5.99 5.625 9.5.425.938.85 1.877 1.29 2.844.91 2.228 1.587 4.308 2.085 6.656l-5-2v2h-8a336 336 0 0 1-.25-6.687l-.14-3.762c.449-4.086 1.568-5.646 4.39-8.551"/><path fill="#f9f9f7" d="M864 673v15l-2.59.148-3.347.227-3.34.21L852 689l-1 2c0-4.496 1.332-7.293 3.313-11.187l.935-1.944c2.276-4.538 3.474-6.628 8.752-4.869"/><path fill="#f7f7f6" d="m655 128 9 3 1-3h7l.148 2.336.227 3.039c.07.998.14 1.995.21 3.023.179 2.757.179 2.757 2.415 4.602-2 1-2 1-3.88.38l-2.253-1.032-2.441-1.104-2.551-1.181-2.574-1.17Q658.145 135.456 655 134l1-2z"/><path fill="#f5f5f3" d="M275 688h13v9l4 1v2c-8.11-1.59-18.492-4.526-24-11h7z"/><path fill="#f9f8f7" d="M608 380c1.938.313 1.938.313 4 1l1 3h11c.134 10.179.134 10.179-1 14l-5 1-.77-1.793c-3.101-7.484-3.101-7.484-7.918-13.894L608 382z"/><path fill="#f1f0ee" d="M613 279c14.39.71 28.686 2.407 43 4v1h-5v2l-3.395-.254-4.418-.308-2.236-.17c-3.319-.226-5.763-.33-8.951.732l1 2h-9v-5h-8v-2z"/><path fill="#cd4a4c" d="M728 222h57v2c-6.491 1-12.724 1.055-19.281.879l-3.194-.072q-5.013-.116-10.025-.244l-6.828-.159q-8.337-.193-16.672-.404l-1 8h-1c-.125-7.75-.125-7.75 1-10"/><path fill="#fafaf8" d="M575 452c7.056 1.943 12.865 5.043 19 9-4.401 2.276-7.72 3.12-12.687 3.063l-3.012-.028L576 464c-.125-6.75-.125-6.75 1-9l-2-1z"/><path fill="#cdccca" d="m476.328 367.844 2.595.024c3.026.033 6.051.082 9.077.132l7.35.102c7.434.106 14.867.232 22.3.362l10.643.18q10.354.176 20.707.356v1l-2.498.031q-11.78.15-23.559.308-6.053.083-12.105.158c-24.437.25-24.437.25-48.838 1.503 1-2 1-2 3.042-3.115 3.8-1.137 7.362-1.115 11.286-1.041"/><path fill="#f3f3f1" d="m362 292-9 2-1 10c-6.836.195-6.836.195-9 0l-2-2 1-1c-2.925-.224-2.925-.224-5 1v-2l-2-1c21.267-8.433 21.267-8.433 27-7"/><path fill="#fdfdfb" d="M271 371c1.013 3.37 1.166 6.489 1.188 10l.042 3.125c-.227 2.84-.765 4.466-2.23 6.875l2 1c.37 6.523.37 6.523-1.5 8.938L269 402l-1-1-.375 1.813C267 405 267 405 265 408c-.353-7.346.988-14.128 2.438-21.312l.697-3.573c1.7-8.621 1.7-8.621 2.865-12.115"/><path fill="#404040" d="M460 524h84v1l-39 1v2h-10l1-3h-36z"/><path fill="#fbfbf9" d="M421 282v3h-3v-2h-3v2c-3.603 1.612-6.695 2.333-10.625 2.625l-2.852.227A94 94 0 0 1 396 288l-2.375.07-2.625.055-2.625.07C386 288 386 288 383 286c4.269-.68 8.54-1.342 12.813-2l3.623-.578c7.254-1.107 14.227-1.692 21.564-1.422"/><path fill="#f0f0f0" d="M806 754v10h-5l1 3-2.312.313c-2.907.743-3.887 1.346-5.688 3.687l-1 3 2 1-6 5-1-1-1 4-5-2c2.986-3.569 5.963-7.018 9.313-10.25 3.932-3.854 7.33-8.102 10.769-12.395C804 756 804 756 806 754"/><path fill="#fdfcfa" d="m762.688 191.875 3.011.055L768 192l-.621 2.324c-.714 2.869-.714 2.869 1.558 5.488L771 202l-2 1 2 2-2 3-1.875-1.937c-4.197-4.21-8.69-8.11-13.125-12.063 3.42-2.28 4.682-2.22 8.688-2.125"/><path fill="#fcfbf9" d="M201 764c3.249 1.083 3.747 1.632 5.813 4.188 5.634 6.67 11.98 12.682 18.187 18.812l-4 1-1-3c-4.481-.723-4.481-.723-9-1h-3l1-7h2l-2.75-2.125c-3.106-2.584-5.219-5.36-7.25-8.875z"/><path fill="#d34e52" d="M726 232h1v16h-2l.07 3.29q.029 2.167.055 4.335l.05 2.16c.042 4.52-.598 7.93-2.175 12.215-.56 3.123-1 6.249-1.437 9.39C721 282 721 282 719 284c-.155-5.633.437-10.947 1.277-16.512l.397-2.699q.414-2.808.835-5.614.642-4.295 1.27-8.591l1.193-8.06.364-2.417.316-2.117c.355-2.028.825-4 1.348-5.99"/><path fill="#ebebe9" d="M560 615v3l-3.246.184-4.192.254-2.142.119c-3.507-.08-3.507-.08-6.42 1.443l2 2h-2v2h-8v-3h2v-2l-10-1v-1q5.75-.507 11.5-1l3.266-.29c5.77-.492 11.443-.822 17.234-.71"/><path fill="#2c2c2c" d="M432 434v3h40v1q-9.788.038-19.574.055-3.318.008-6.636.02c-12.97.05-25.853-.088-38.79-1.075 7.59-3.968 16.62-3.143 25-3"/><path fill="#f5f4f2" d="m304 456-2 1 2 1c.043 1.666.04 3.334 0 5-1 1-1 1-2.858 1.114l-2.396-.016-2.588-.01-2.72-.026-2.733-.013q-3.353-.018-6.705-.049c3.149-2.513 6.42-4.406 10-6.25l3.125-1.64c2.953-1.14 4.009-1.295 6.875-.11m193 248c1.719 0 3.438-.014 5.156-.07l2.344-.055 2.344-.07C509 704 509 704 512 706c-10.067 2.501-19.669 3.61-30 4l1-5a76 76 0 0 1 14-1"/><path fill="#f6f6f4" d="m543.063 443 3.2.578q3.87.7 7.737 1.422c-2.682 2.208-3.753 2.972-7.312 3.375-3.126-.318-4.655-.67-7.375-1.937-3.092-1.678-3.092-1.678-5.75-1.125L532 446v2h-5v-5l-6 1-1-2c6.519-3.26 16.257-.27 23.063 1"/><path fill="#f2f2f0" d="M119 376h3c-.18.575-.36 1.15-.544 1.744-2.118 6.906-3.918 13.868-5.644 20.881l-.826 3.332q-.996 4.02-1.986 8.043h-1q-.04-3.094-.062-6.187l-.036-3.481c.086-2.925.52-5.48 1.098-8.332l-1-1q-.061-3.5 0-7h4l2-5h2z"/><path fill="#f7f6f4" d="m423.09 890.277 2.382.332L428 891l2.602.372c2.656.382 5.308.784 7.96 1.19A4768 4768 0 0 1 448 894c-3.216 1.746-5.32 2.204-9 2v-2l-2.168.977c-5.247 1.896-11.05 2.026-16.324.125-1.883-.945-3.704-2.013-5.508-3.102 2.954-1.723 4.711-2.22 8.09-1.723"/><path fill="#f4f3f1" d="m613.125 111.938 2.285.013q2.795.02 5.59.049l-2 4 2 3c-4.612 1.402-7.772.463-12.312-.937l-3.801-1.153L602 116l1-3c3.188-1.594 6.629-1.102 10.125-1.062"/><path fill="#2c2b2a" d="m398 608 2.688.563c3.164.417 5.26.245 8.312-.563l-1 3c.978.09.978.09 1.977.184 4.71.451 9.365.958 14.023 1.816v2l5 1c-2.975.906-5.166 1.024-8.23.547l-2.436-.379-2.522-.418-2.462-.371c-5.676-.912-10.955-2.403-16.35-4.379z"/><path fill="#431e17" d="M725 222h3a7608 7608 0 0 1-5.125 35.375L720 277h-1c-.31-9.023 1.168-17.628 2.578-26.52 1.1-7.23 1.691-14.167 1.422-21.48h1z"/><path fill="#f7f7f5" d="M114 598c2.245 3.843 3.103 7.964 4.125 12.25A1475 1475 0 0 1 120 618l-3 2v-4h-2l-.375 2.313C114 621 114 621 112 624q-.04-3.594-.062-7.187l-.026-2.042c-.018-3.738.267-7.13 1.088-10.771v-3z"/><path fill="#272322" d="M632 272h8v5l-3 1-1 3-17-1v-1l1.898-.332 2.477-.48 2.46-.458c2.523-.605 2.523-.605 4.165-3.73h2z"/><path fill="#f4f3f2" d="M261 482c2 3 2 3 1.625 6.188L262 491l-2-2-2 2-2 1v2l3 1-3 2c-.25 3.584-.25 3.584 0 7l-1.75-.562c-2.457-.478-3.894-.195-6.25.562 1.512-4.192 3.586-7.784 5.938-11.562l2.09-3.38c1.574-2.441 3.187-4.77 4.972-7.058"/><path fill="#fcfbf9" d="m742 627 2 1q-.463 4.845-.937 9.688l-.264 2.763-.264 2.686-.238 2.46c-.31 2.501-.773 4.938-1.297 7.403l-1-3-4 2v-12h3v-5h3z"/><path fill="#eeeeec" d="M560 102v2l6.055 1.367C568 106 568 106 570 108a1801 1801 0 0 1-34-4v-1c7.975-1.33 15.942-1.088 24-1"/><path fill="#401f1a" d="M713 304h2c-.493 12.164-2.044 23.992-4 36h-1c-.088-4.312-.14-8.625-.187-12.937l-.077-3.674c-.058-7.164.534-12.748 3.264-19.389"/><path fill="#2f2e2c" d="M286 164v3l-3 1c-.61 1.857-.61 1.857-1 4a88 88 0 0 1-2 4c-2 .043-4 .04-6 0l-1-1-2 5h-7c3.79-4.289 8.499-7.147 13.25-10.25l2.547-1.68A1849 1849 0 0 1 286 164"/><path fill="#f2f1f0" d="M591 669a334 334 0 0 1 .625 5.188l.352 2.917c.025 3.136-.633 5.09-1.977 7.895l-3-1-2 8c-1.217-4.867-.532-8.323.313-13.187l.396-2.522c.356-2.11.816-4.204 1.291-6.291 2-1 2-1 4-1"/><path fill="#feefeb" d="M876 242h1l-.016 1.697q-.029 3.808-.047 7.615l-.025 2.67-.01 2.569-.016 2.364c.033 2.281.033 2.281 1.114 5.085.128 2.674.044 5.321 0 8l-5 1c-.174-7.006.482-13.636 1.5-20.562l.434-3.057q.525-3.691 1.066-7.381"/><path fill="#f6f5f3" d="M831 720c1.442 2.884 1.094 5.417 1.063 8.625l-.028 3.602L832 735h-5a449 449 0 0 0-6 1c3-5.631 6.188-10.88 10-16"/><path fill="#f7f6f4" d="M757 522h2c-.512 6.029-1.07 12.02-2 18h-2l-1 3c-2.592-4.86-2.187-9.653-2-15h4z"/><path fill="#efeeec" d="m358 443 1 2c-7.502 3.052-13.946 3.336-22 3l-1-3c7.411-1.283 14.473-2.255 22-2"/><path fill="#f8f7f5" d="m271 171 4 1-19 14c-1-2-1-2 .063-5.5 1.358-2.997 1.749-3.408 4.875-4.937C264 175 264 175 268 175v-2h3z"/><path fill="#e6e5e4" d="m634 875-1 4-2.555.332-3.32.48-3.305.458c-3.132.477-3.132.477-4.82 3.73-2.023.582-2.023.582-4.375.813l-2.336.269c-2.6-.093-4.022-.867-6.289-2.082l1.74-.519q3.944-1.176 7.885-2.356l2.738-.816c3.74-1.12 7.463-2.25 11.16-3.504C632 875 632 875 634 875"/><path fill="#f9f8f6" d="M226 792c5.196.218 8.125 3.27 11.813 6.563l1.81 1.576A619 619 0 0 1 244 804l-4 1v-2h-4v-3l-3-1a100 100 0 0 1-4-3v2l2 1-3 1c-2.187-1.437-2.187-1.437-4-3 .875-3.875.875-3.875 2-5"/><path fill="#363636" d="m381 566 3 2c.221 2.627.282 5.009.188 7.625l-.042 2.14c-.035 1.746-.089 3.49-.146 5.235l-2 1c-.465 1.895-.465 1.895-.625 4.063L381 592h-2c-.237-8.915.206-17.256 2-26"/><path fill="#fbfaf8" d="M619 426h2l2 6h1c.082 1.582.14 3.166.188 4.75l.105 2.672c-.344 3.025-1.295 4.334-3.293 6.578v-4h-2c-.936-3.793-.983-6.937-.562-10.812l.308-2.958z"/><path fill="#2e2d2d" d="M588 272h6v5h19l-1 2-36-1v-1l16-1-5-1z"/><path fill="#fbfbfa" d="M771 208h13c-1.875 4.75-1.875 4.75-3 7l6 2-4 4a3032 3032 0 0 1-6-5.937l-1.734-1.71A287 287 0 0 1 771 209z"/><path fill="#f9f8f6" d="M348 128h3l3 2a2764 2764 0 0 1-7.875 3.5l-2.262 1.012-2.168.957-2 .888C338 137 338 137 336 137c-.364-4.49-.364-4.49 1.25-6.75 3.403-2.43 6.673-2.355 10.75-2.25"/><path fill="#e0dfdd" d="M769 386h1c.905 10.323 1.125 20.523 1.063 30.875l-.014 4.434q-.017 5.345-.049 10.691h-1l-1-20h-1c-.097-8.726-.167-17.33 1-26"/><path fill="#e5e5e3" d="m617 444 3 1c1.216 9.876 1.03 14.988-5 23 .543-8.015 1.135-16.013 2-24"/><path fill="#464646" d="m224 591 4 2v30l-3-2c-.432-2.981-.432-2.981-.512-6.758l-.054-2.01a641 641 0 0 1-.121-6.357q-.05-2.154-.104-4.309c-.085-3.522-.152-7.044-.209-10.566"/><path fill="#ea5c62" d="M876 236h1c-.423 13.199-2.68 26.021-5 39h-1q-.04-2.97-.062-5.937l-.036-3.34C871 263 871 263 872 262c.086-1.343.107-2.69.098-4.035l-.01-2.451-.025-2.577-.014-2.587q-.02-3.175-.049-6.35h2z"/><path fill="#2d2c2b" d="M317.188 847.813 320 848v2l2 1q1.531 1.468 3 3v-2l2 1-1 4h3v2c-4.36-1.348-8.313-3.05-12.375-5.125l-3.21-1.633L311 851c2.233-2.555 2.61-2.977 6.188-3.187"/><path fill="#ececec" d="M781 781c0 3 0 3-1.715 4.973l-2.222 2.09c-2.927 2.674-2.927 2.674-5.063 5.937h-2l-1 4h2l1-2v2l2 1c-2.812.625-2.812.625-6 1l-3-2v3c-5.273 3.223-5.273 3.223-7 4l-2-1 2.676-2.238c7.82-6.593 15.222-13.399 22.324-20.762"/><path fill="#e7e6e4" d="M464 279v3l-20 1v-2h-11v-1c10.349-.65 20.627-1.165 31-1"/><path fill="#f34e4f" d="M724 272c1.142 3.427.909 5.611.563 9.188l-.31 3.292L724 287l-5 1 .125 3.875c.07 2.18.07 2.18-.125 4.125l-2 2q.174-2.876.375-5.75c.07-1.067.14-2.135.21-3.234.395-2.873 1.084-4.5 2.415-7.016.337-2.062.337-2.062.438-4.125L721 274z"/><path fill="#f9f9f7" d="M193 754c3.26 3.17 6.222 6.4 9 10l-2 2-2-2 1 4-6-1c-.597-2.763-1-5.16-1-8l2-1z"/><path fill="#393836" d="M762 498h1l1 7h-2l2 7h3c-1 2-1 2-3 4l-.375 3.438C763 523 763 523 760.961 524.723L759 526a287 287 0 0 1 3-28"/><path fill="#f2f1ef" d="M98 461c3.286 3.137 4.952 5.07 5.195 9.793q-.02 2.198-.07 4.394l-.027 2.272c-.024 1.847-.06 3.694-.098 5.541h-1l-1-10-2 1-2-1c-.414-2.066-.414-2.066-.625-4.562l-.227-2.504L96 464h2z"/><path fill="#fbfaf8" d="m372 441-4 2v2l2 1c-2 2-2 2-4.383 2.195l-2.742-.07-2.758-.055L358 448l2-5-2-1c4.763-.953 9.167-1.083 14-1"/><path fill="#30302f" d="m307 316-1.469 1.215c-5.345 4.533-9.987 9.455-14.531 14.785-2-3.75-2-3.75-2-6l1.875-.812c2.425-1.144 2.425-1.144 4.125-4.188h2l1-4 1 1 1-2c2.974-1.09 3.884-1.039 7 0"/><path fill="#edecec" d="m299.188 152.938 2.73.027L304 153c-2.716 3.086-6.087 5.073-9.562 7.188l-1.788 1.115C288.252 164 288.252 164 286 164l-1-3c2.647-1.46 3.894-2 7-2l-1-5c3.015-1.005 5.042-1.103 8.188-1.062"/><path fill="#31312d" d="M399 881v3l2.5-1.562c4.49-1.844 6.796-1.33 11.5-.438v1h-5c.752 3.278.752 3.278 4 5-5.268-.658-10.301-1.733-15.437-3.062l-2.217-.565Q391.67 883.691 389 883v-1c3.406-.778 6.508-1.1 10-1"/><path fill="#f5f5f3" d="m237 645 3 2c.398 2.531.398 2.531.375 5.5l.023 2.969L240 658l-3 2a753 753 0 0 1-2.562-5.875l-1.442-3.305L232 648l1-2h2z"/><path fill="#f6f6f4" d="M400 528q3.344-.04 6.688-.062l3.761-.036c3.013.083 5.634.39 8.551 1.098v1l-2.195.586c-4.985 1.343-9.93 2.701-14.805 4.414-2-3-2-3-2-7"/><path fill="#2f2f2e" d="m337 856 6 2-2 1c-2.125-.937-2.125-.937-4-2zm4 3v3l9 2-1 4c-5.467-1.748-10.758-3.658-16-6v-2c5.75-1 5.75-1 8-1"/><path fill="#e6e6e4" d="M605 550h1l.184 2.344.52 6.484c.234 2.51.567 4.94.984 7.422.373 4.478-.39 7.476-1.688 11.75l-4-2 .402-1.879c1.603-8.037 2.179-15.95 2.598-24.121"/><path fill="#f6f5f3" d="m146 304 3 1v2l3 1-6 11h-2a515 515 0 0 1-.125-5.812l-.07-3.27C144 307 144 307 146 304"/><path fill="#e7e6e4" d="M879 620c2.293 4.003 2.003 6.486 1 11l-2 2 .063 2.938C878 639 878 639 876.688 640.875 875 642 875 642 872 642c2.16-7.394 4.53-14.704 7-22"/><path fill="#fbfbf9" d="M876.563 351.938 880 352l-1 3 1 2-2 3v-2h-2v6l-2 1a211 211 0 0 1-1.562-3.75l-.88-2.11c-.642-2.462-.418-3.77.442-6.14 1-1 1-1 4.563-1.062"/><path fill="#f8f7f6" d="m390.063 111.688 2.597-.051c2.761.428 3.618 1.223 5.34 3.363-3.825 2.39-7.597 2.56-12 3l-1-2c-2.017-1.134-2.017-1.134-4-2 3.118-1.816 5.465-2.296 9.063-2.312"/><path fill="#ebeae8" d="M896 423q.039 2.375.063 4.75l.035 2.672c-.132 3.48-1 6.285-2.098 9.578l2 1-1 7h-1l-3-23c4-2 4-2 5-2"/><path fill="#2b2a29" d="M566 609c2.25 2.063 2.25 2.063 4 4-6.022 1.466-10.904 2.325-17 1v-2l5-1v-2c3.048-.98 5.004-1.217 8 0"/><path fill="#f4f3f1" d="M601 580c1.063 1.875 1.063 1.875 2 4l-1 2h6v6h-3q-3.005.47-6 1c-1.188-3.43-.802-5.378.438-8.75l.87-2.422z"/><path fill="#f7f7f5" d="M320 856c3.85.604 6.861 1.768 10.313 3.563l2.675 1.378L335 862c-3.08.857-6.068 1.27-9.25 1.563l-2.703.253L321 864l1-4h-2z"/><path fill="#faf9f7" d="M736 823c.2 3.716.152 4.772-2 8-1.945.293-1.945.293-4.125.188L726 831c0-4 0-4 1.426-5.52l1.886-1.293 1.864-1.332C733 822 733 822 736 823"/><path fill="#2b2b2b" d="m185 736 5 2v11c-3.255-3.165-6.32-6.328-9-10v-2l3 1z"/><path fill="#fafaf9" d="m683 289 8 2-1 17c-1.872-3.744-2.24-4.84-2.125-8.75l.055-2.422L688 295l-6-3z"/><path fill="#f3f3f2" d="m398 885 20 4-4 2-2 2v-2l-2.555-.148-3.32-.227c-1.09-.07-2.181-.14-3.305-.21C400 890 400 890 398 888z"/><path fill="#f7f7f7" d="M556 520c3.25.813 3.25.813 6 2l-1 3c-10.253.221-19.897-.032-30-2v-1c6.293-.123 12.32.174 18.555 1.074 3.064-.093 4.081-1.23 6.445-3.074"/><path fill="#2c2b2a" d="M883 393h1l3 14c-4 1-4 1-6 1v-4a261 261 0 0 0-.5-5.25l-.281-2.703L880 394l3 1z"/><path fill="#f5f5f5" d="M127 356c1.685 4.077.17 6.83-1.437 10.75l-1.434 3.547L123 373l-2-1c-.25-6.625-.25-6.625 2-10l-2-2 1-3h4z"/><path fill="#e95e62" d="M868 288h1c-.365 13.589-2.455 26.66-5 40h-1q-.079-3.375-.125-6.75l-.07-3.797c.192-3.392.738-4.545 2.195-7.453.43-2.05.43-2.05.598-4.187l.24-2.368.225-2.445q.232-2.407.472-4.812l.2-2.145c.269-2.072.719-4.027 1.265-6.043"/><path fill="#f6f6f5" d="M478 704c2.125.375 2.125.375 4 1-1.152 2.468-2.048 4.048-4 6-2.242.266-2.242.266-4.875.25l-2.617.016c-2.613-.277-4.258-.947-6.508-2.266v-2l2.555-.148 3.32-.227 3.305-.21c2.95-.148 2.95-.148 4.82-2.415"/><path fill="#faf9f7" d="m619 399 3 1q.356 2.848.707 5.695.289 2.276.617 4.547c.782 5.546.782 5.546-.324 7.758h-3z"/><path fill="#f2f1ef" d="m576 891 2 2h-2v3c-10.558.369-10.558.369-15-2v-1c9.997-2.488 9.997-2.488 15-2"/><path fill="#ececea" d="M498 439c2.977-.328 2.977-.328 6.625-.25l3.797.078c3.92.188 7.705.552 11.578 1.172v1c-4.915 1.292-9.773 1.111-14.812 1.063l-2.678-.014q-3.255-.02-6.51-.049z"/><path fill="#302f2d" d="M413 112c-.25 1.875-.25 1.875-1 4-2.865 1.814-5.78 3.244-9.187 2.563L401 118v-2l-2-1c9.41-3.444 9.41-3.444 14-3"/><path fill="#303130" d="M864 340c2.283 2.84 3.86 5.57 5.25 8.938l1.078 2.527c.767 2.895.469 4.68-.328 7.535-3.345-3.669-4.364-6.121-5-11l-2-3c-.625-2.187-.625-2.187-1-4z"/><path fill="#f4f3f3" d="M203 235a466 466 0 0 1-2.75 3.813l-1.547 2.144c-1.728 2.073-3.488 3.517-5.703 5.043-1.056-2.746-.963-4.186-.375-7.125C194 236 194 236 196.375 234.563c2.736-.587 4.003-.327 6.625.437"/><path fill="#fbd7d2" d="M872 268h1v20h-2l-2 12c-1.034-4.136-.846-6.358-.223-10.516l.557-3.789.604-3.945.591-3.992q.726-4.88 1.471-9.758"/><path fill="#f6f5f3" d="M137 336c-1.72 5.449-3.847 10.712-6 16l-3-1 .563-1.812c.658-2.352.658-2.352-.563-5.188l2-1 1-3h2v-3c2-1 2-1 4-1"/><path fill="#d14f53" d="M716 298h1q.04 3.719.063 7.438l.025 2.142c.009 1.807-.036 3.614-.088 5.42l-1 1a123 123 0 0 0-.437 5.125c-.37 4.565-1.118 8.54-2.563 12.875h-1c-.082-4.637.173-9.007.875-13.59l.547-3.623.578-3.724.578-3.807q.705-4.629 1.422-9.256"/><path fill="#333230" d="M757 539h1q.254 2.593.5 5.188l.281 2.917c.2 2.647.258 5.243.219 7.895l-3-1-1 4c-1.383-3.867-.73-7.188-.125-11.187l.555-3.793C756 540 756 540 757 539"/><path fill="#2f302c" d="m553.625 105.438 2.14.158q2.618.196 5.235.404v1l-2.937.938c-2.904.757-2.904.757-4.063 2.062a84 84 0 0 1-5.062-.437l-2.786-.31L544 109v-3c3.098-1.549 6.262-.832 9.625-.562"/><path fill="#3d3d3d" d="M568 526v1c-3.458.2-6.916.383-10.375.563l-2.926.17c-6.342.319-12.403.096-18.699-.733v-1c10.62-1.09 21.449-2.008 32 0"/><path fill="#47211c" d="M718 282c.94 3.039.999 5.207.441 8.328l-.42 2.422-.458 2.5-.448 2.547c-.364 2.069-.739 4.136-1.115 6.203h-1c-.917-5.385-1.111-10.542-1-16h3l-.062-2.437C717 283 717 283 718 282"/><path fill="#e7e7e5" d="M201 764c3.335 1.112 4.104 1.995 6.313 4.625l1.835 2.164L211 773q1.717 2.001 3.438 4l2.562 3-3 1-1.426-1.645-1.887-2.168-1.863-2.144c-1.558-1.745-3.166-3.395-4.824-5.043-3-3.667-3-3.667-3-6"/><path fill="#3b3a38" d="M520 704v2l-1.937.875c-2.215.953-2.215.953-3.063 3.125-5.22.18-9.073-.03-14-2v-1a3381 3381 0 0 1 7.813-1.5l2.236-.434c3.029-.575 5.86-1.066 8.951-1.066"/><path fill="#323232" d="m752 603-.5 3.125A63 63 0 0 0 751 616l-2-1 1-4h-2v6h-2l1-13c3-1 3-1 5-1"/><path fill="#efeeec" d="m237 533 1 3h2v9l-4 2-2 3c.515-5.853 1.454-11.33 3-17"/><path fill="#2d2c2b" d="M181 261c2 2 2 2 2.125 4.625L183 268h-3v3l-2.437.875c-2.696.858-2.696.858-3.563 3.125.303-6.055 3.278-9.515 7-14"/><path fill="#302f2d" d="M381 284v2l2 1q-2.374.506-4.75 1l-2.672.563C373 289 373 289 369 289v-4c3.981-1.327 7.85-1.07 12-1"/><path fill="#fee4e2" d="M879 222h2c.554 13.633.554 13.633-3 20h-1c-.264-6.865.742-13.258 2-20"/><path fill="#2e2e2e" d="M376 122c1.688 1.313 1.688 1.313 3 3v3h-9l-2-4c2.906-1.257 4.796-2 8-2"/><path fill="#f3f3f1" d="M161 709c2.957 3.467 5.078 6.869 7 11l-2.312-.562c-2.778-.666-2.778-.666-5.688.562a585 585 0 0 1-.062-4.375l-.036-2.46C160 711 160 711 161 709"/><path fill="#faf9f8" d="m380 594 2 3a836 836 0 0 0 4.66 6.063C388 605 388 605 389 608c-3.117-1.501-6.155-3.024-9-5v-3l-2-1v-4z"/><path fill="#f9f8f6" d="M651 284h11l2 4h-3v-2l-1.937 1c-4.075 1.33-7.815 1.167-12.063 1v-2h4z"/><path fill="#2f2f2f" d="M227 627c2.495 2.495 2.36 3.673 2.625 7.125l.227 2.758L230 639l-4 1c-1.478-2.957-1.06-5.742-1-9h2z"/><path fill="#353535" d="m398 608 9 1-2 1v2l3.375-.187L412 612l2 3c-6.048-.55-11.306-1.904-17-4z"/><path fill="#f0f0f0" d="m460 525-20 1 1-3c6.947-1.303 12.508-1.246 19 2"/><path fill="#f34e57" d="M869 272h2c.097 5.447.129 10.639-1 16h-2l-1 4q.212-3.876.438-7.75l.119-2.21c.204-3.467.528-6.693 1.443-10.04"/><path fill="#2c2b29" d="M329 141v2l-2 1-1 3h-2v3l2 1-6-1v-2l-3-2q2.434-1.256 4.875-2.5l2.742-1.406C327 141 327 141 329 141"/><path fill="#f5f5f3" d="m849 690 2 3-1.437 2.688c-1.374 2.911-1.974 5.196-2.563 8.312l-2 3v-3l-3-1z"/><path fill="#ecebea" d="m282 344 1 2c2.527.656 2.527.656 5 1-.687 1.875-.687 1.875-2 4-2.375 1.063-2.375 1.063-5 2a70 70 0 0 0-4 3c1.31-4.234 2.944-8.074 5-12"/><path fill="#f9f8f6" d="M304 144c4.314.48 6.166 1.746 9 5l-6 3-3-2c-.187-3.125-.187-3.125 0-6"/><path fill="#e8e8e7" d="M647 870c-.613 2.962-1.254 4.38-3 7l-10-2c2.457-1.638 4.346-2.62 7.063-3.625.692-.26 1.384-.52 2.097-.79C645 870 645 870 647 870"/><path fill="#f5f4f2" d="M286 836c4.776 1.642 8.794 4.265 13 7l-1 2c-6.099-.24-6.099-.24-8.578-2.332C286 838.627 286 838.627 286 836"/><path fill="#edecea" d="M430 617h10l-2 5 2 2c-2.875.125-2.875.125-6 0-2.222-2.222-2.926-4.085-4-7"/><path fill="#e1e0de" d="M267 389c2.425 2.425 2.686 3.62 3 7-.875 2.563-.875 2.563-2 5l-.5 2.125C267 405 267 405 265 408c-.248-6.57.676-12.57 2-19"/><path fill="#f5f5f3" d="M432 281v1l-8 1v3l2 1c-1 1-1 1-3.875 1.25-3.125-.25-3.125-.25-5-1.75L416 285l4-2 1.75-1.125c3.437-1.337 6.579-.997 10.25-.875"/><path fill="#353433" d="M349 132c-.125 1.875-.125 1.875-1 4-2.625 1.125-2.625 1.125-6 2a934 934 0 0 0-3.875 1.125L335 140l-2-2q3.435-1.506 6.875-3c.976-.43.976-.43 1.973-.867C346.773 132 346.773 132 349 132"/><path fill="#302d2b" d="M462 104v2h2v3l-11-1v-2h-5v-1c4.724-.652 9.22-1.12 14-1"/><path fill="#ececec" d="m379 556 4 1-2 17h-1l-1-8h-1c-.125-6.625-.125-6.625 1-10"/><path fill="#2b2a28" d="M582 450h3v2l1.875.25c2.125.75 2.125.75 3.375 2.813L591 457l-2 2-8-4c0-3 0-3 1-5"/><path fill="#eae9e8" d="M758 197c9.714 1.714 9.714 1.714 13 5l-2 1 2 2-2 3-2.125-2.187c-1.973-1.984-4.019-3.796-6.187-5.563L758 198z"/><path fill="#282828" d="M660 864a53 53 0 0 1-7.5 4.188l-2.344 1.105C648 870 648 870 645 869l1-3c4.76-1.809 8.937-2.207 14-2"/><path fill="#eee" d="M168 720c2.357 2.191 4.02 4.44 5.688 7.188l1.324 2.167L176 731c-3.719 1.11-3.719 1.11-6.25.125-2.763-3.355-2.066-6.945-1.75-11.125"/><path fill="#323230" d="M587 658h2l-1 12c-4-4-4-4-5-7 1.813-2.687 1.813-2.687 4-5M104 456h1l2 8h-1l.105 2.3.082 3.012.106 2.989C106 475 106 475 104.488 476.855L103 478c-.115-7.41.088-14.642 1-22"/><path fill="#2b2b27" d="m105 448 2 3h2v2h2c1.23 5.415 1.23 5.415.063 8.375L110 463c-2-3-2-3-2-7h-2c-1.354-2.709-1.065-5.01-1-8"/><path fill="#f4f3f1" d="M447 374v1l-5.25 1.438-2.953.808c-2.26.61-4.523 1.196-6.797 1.754l-1-2 1-3c5.376-.849 9.654-1.002 15 0"/><path fill="#eeedeb" d="M363 876c5.419-.226 9.775.533 15 2l-1.937.438c-2.038.372-2.038.372-3.063 1.562-1.52.072-3.042.084-4.562.063l-2.504-.028L364 880z"/><path fill="#efeeed" d="m742 627 2 1-2 20h-1l-2-13h3z"/><path fill="#313131" d="M110 417c2.421 3.632 2.21 5.383 2.125 9.688l-.055 3.574L112 433l-4-1a669 669 0 0 1 2-15"/><path fill="#322f2d" d="M436 274c1.938.313 1.938.313 4 1l1 3 10 1v1c-7.29.25-13.907-.277-21-2v-1h6z"/><path fill="#2c2b2a" d="M671 141c4.234 1.31 8.074 2.944 12 5-1.687 1.625-1.687 1.625-4 3-2.687-.625-2.687-.625-5-2l-1-3-2-1z"/><path fill="#31302e" d="M422 529v4c-3.674 1.176-7.17 1.074-11 1l-1-3a909 909 0 0 1 4.313-1l2.425-.562C419 529 419 529 422 529"/><path fill="#3d3d3d" d="M683 346h1v6h2v8h-4c-.083-4.833.047-9.237 1-14"/><path fill="#f4f4f4" d="M806 754v10h-5l1 3-4-2 1.25-1.625c1.34-1.82 2.622-3.682 3.875-5.562C805 755 805 755 806 754"/><path fill="#353432" d="M632 278h4v3l-17-1v-1a311 311 0 0 1 4.25-1.062l2.39-.598c2.511-.362 3.951-.029 6.36.66"/><path fill="#f8f7f5" d="m738 653 2 1-1 13-1-2h-2v-9h2z"/><path fill="#e4e4e4" d="M122 626c1.907 2.861 3.004 5.353 4.188 8.563l1.105 2.94C128 640 128 640 127 642c-2.344-3.327-4.147-6.019-5-10l-2-2z"/><path fill="#2d2b29" d="M551 612v2l-7 2v1h-8v-3l3.75-.437c3.812-.471 7.418-1.563 11.25-1.563"/><path fill="#343230" d="m229 561 3 2-1 11h-3z"/><path fill="#eaeae8" d="m102 448 3 1-1 17h-1c-.896-6.048-1.113-11.89-1-18"/><path fill="#31302e" d="M550 443c5.527-.194 9.756.252 15 2-2.769 1.883-4.026 1.998-7.437 1.688L554 446l-2.937-.562L549 445z"/><path fill="#f0efee" d="M586 368c3 0 3 0 4.563 1.25C592 371 592 371 594 375l-10-2c1-4 1-4 2-5"/><path fill="#3f3e3c" d="m455.688 891.438 2.449.308L460 892l-4 2 4 2c-4.161.082-7.947-.018-12-1v-3c3.095-1.032 4.526-.975 7.688-.562"/><path fill="#302f2d" d="M355 866v2l5 1v3c-3.95-.551-7.35-1.39-11-3 2.625-3 2.625-3 6-3"/><path fill="#f8f7f5" d="m251 672 4 1c.8 3.287 1.097 4.71 0 8l-7-6 3-1zm1 2 1 3 2-1-1-2z"/><path fill="#2b2a29" d="m304 448 4 1-2 5-7 1v-3h4z"/><path fill="#d4d3d1" d="M421 282v3h-3v-2h-3v2l-13-1v-1c6.374-.962 12.56-1.107 19-1"/><path fill="#2e2d2b" d="m171 275 1 2 2 1c-1.485 4.704-1.485 4.704-4.062 6.188L168 285l-1 2c-.652-1.734-.652-1.734-1-4 .996-2.14.996-2.14 2.438-4.25l1.433-2.14z"/><path fill="#f5f5f4" d="m172 266 3 1c-.531 4.515-2.366 7.347-5 11-.976-2.928-1.082-4.956-1-8l2-1z"/><path fill="#efeeee" d="m212 221 3 2-9 9-1-4h2l2-5h3z"/><path fill="#2f2f2f" d="m432 108 1 3c-5.346 1.002-9.624.849-15 0v-1q2.374-.506 4.75-1l2.672-.562C428 108 428 108 432 108"/><path fill="#f0efed" d="m679 855 2 1c-1.312 2-1.312 2-3 4h-3l1 4-5-1 1-2-2-2a419 419 0 0 1 4.375-2.062l2.46-1.16z"/><path fill="#ececea" d="M574 669h2c-1.382 3.21-2.924 5.05-5.625 7.25l-1.914 1.578L567 679v-5h2l1-3h4z"/><path fill="#363533" d="M753 563c2.834 2.834 2.676 5.05 3 9-.26 2.343-.574 4.682-1 7-2.8-4.2-3.083-5.65-2.562-10.625l.308-3.04z"/><path fill="#2d2d2d" d="M685 336h3c.125 6.625.125 6.625-1 10h-3z"/><path fill="#f0efed" d="M448 102c5.458-.111 10.615.083 16 1v1l-16 1z"/><path fill="#e2e2e2" d="M295 698c3.25.188 3.25.188 7 1l4 5-13-3 2-1z"/><path fill="#f0efed" d="M593 599c0 3.38-.875 5.835-2 9h-5c0-3 0-3 1.531-4.605l1.969-1.582 1.969-1.606z"/><path fill="#e9e9e9" d="m749 576 2 2c-.023 3.258-.023 3.258-.375 7.125l-.336 3.883L750 592h-1l-.437-2.25c-.469-2.637-.469-2.637-1.25-4.625-.485-3.296.668-6.008 1.687-9.125"/><path fill="#2d2c2a" d="M889 538c1.5 1.313 1.5 1.313 3 3v3h2c1.354 2.709 1.065 5.01 1 8l-2-4h-2v-2h-2c-.981-3.053-.981-4.947 0-8"/><path fill="#2f2d2c" d="m612 456 2 1-1 9h2v7h-1l-1-5-2 1c-.222-1.79-.427-3.582-.625-5.375l-.352-3.023L610 458z"/><path fill="#353534" d="M128 357c.981 3.439.768 5.503 0 9a99 99 0 0 0 0 5h-3c-1.371-3.69-.6-5.709.938-9.25l1.152-2.703z"/><path fill="#2e2d2b" d="m309 150 2 1-.562 2.875c-.725 3.024-.725 3.024.562 5.125l-4-1v-2l-4-2zm368 700 3 1h2l3 1c-2.386 1.892-4.072 3.024-7 4l-2-3-4 1c1.634-1.708 2.87-2.935 5-4"/><path fill="#2f2e2c" d="M749 810c-4.75 4.875-4.75 4.875-7 6v-2l-2-1v-3c3.325-1.108 5.622-.845 9 0"/><path fill="#2f2f2f" d="m742 184 8 6-1 2-9-2 3-1z"/><path fill="#f3f3f3" d="m299.188 152.938 2.73.027L304 153c-1.344 1.492-1.344 1.492-3 3-2.5.125-2.5.125-5 0l-3 1-2-1v-2c3.015-1.005 5.042-1.103 8.188-1.062"/><path fill="#e9e8e6" d="M894 552c1.996 3.991 2.195 5.7 2 10h-2l.688 1.75C895 566 895 566 892 570z"/><path fill="#e2e2e2" d="M766 467h1c-.452 5.915-1.158 11.352-3 17h-3v-4h2l.402-1.828.535-2.422.528-2.39c.483-2.129.997-4.245 1.535-6.36"/><path fill="#efeeec" d="m617 444 3 1q.079 2.156.125 4.313l.07 2.425C620 454 620 454 618 457c-1.005-3.015-1.103-5.042-1.062-8.187l.027-2.731z"/><path fill="#343331" d="M358 441v2l-14 1v-3l6.055.098c7.085-.356 7.085-.356 7.945-.098"/><path fill="#dbdad8" d="m474.313 368.875 3.238.617L480 370v1l-18 1c1-2 1-2 3.168-3.18 3.437-.995 5.651-.636 9.144.055"/><path fill="#383735" d="M135 340h2l-3 11h-2v3h-2a949 949 0 0 1 1.375-4.75l.773-2.672c.773-2.339 1.688-4.412 2.852-6.578"/><path fill="#343434" d="m142 325 2 1-2 9h-3v2h-2c1.31-4.234 2.944-8.074 5-12"/><path fill="#f2f1ef" d="M309 313h2v2l-2 2v2l2 1h-9z"/><path fill="#ededec" d="m230 208-8 8-1-4 3-1v-3c2-1 2-1 6 0"/><path fill="#f6f6f4" d="m762 192 1 3-2 2c-2.5-.187-2.5-.187-5-1l-2-3c2.928-.976 4.956-1.082 8-1"/><path fill="#dbdbd9" d="M430 892c12.67.964 12.67.964 18 2-3.135 1.858-5.375 2.201-9 2v-2l-5 1v-2z"/><path fill="#f1f1f1" d="m620 882-1 2c-1.926.484-1.926.484-4.312.75l-2.364.297c-2.625-.053-4.089-.717-6.324-2.047a588 588 0 0 1 5.313-1.062l2.988-.598C617 881 617 881 620 882"/><path fill="#2c2c2b" d="M594 588h5a274 274 0 0 1-1.312 3.813l-.739 2.144c-1.016 2.188-2.157 3.452-3.949 5.043-.125-7.625-.125-7.625 1-11"/><path fill="#353434" d="m568 448 9 1v2h3l1 3-4.812-1.437-2.708-.81A216 216 0 0 1 568 450z"/><path fill="#f4f3f1" d="M896 413v7h-4c.375-2.937.375-2.937 1-6 2-1 2-1 3-1m-6 7 2 1-2 3z"/><path fill="#2d2c2b" d="M729 817h9c-2.25 4.5-2.25 4.5-6 6l-1-3-2-1z"/><path fill="#f0efed" d="M751 808c1 4 1 4 1 6l-6 2-2-2z"/><path fill="#ededeb" d="M586 657h5c.75 2.688.75 2.688 1 6-1.937 2.875-1.937 2.875-4 5l1-10z"/><path fill="#363636" d="M763 490h1v6l4-2v6h-2l-2 2c-1.327-3.981-1.07-7.85-1-12"/><path fill="#e4e4e4" d="M261 482c2 3 2 3 1.625 6.188L262 491l-2-2-5 2z"/><path fill="#dedddb" d="m114 395 2 1-3 14h-1c-.054-2.125-.093-4.25-.125-6.375l-.07-3.586C112 397 112 397 114 395"/><path fill="#343434" d="M382 120v2l2 2v4c-3.481-1.393-4.479-2.632-6-6l-2-1c3-1 3-1 6-1"/><path fill="#232120" d="M462 104h10v3c-7.75.125-7.75.125-10-1z"/><path fill="#e8e8e7" d="M217 780q1.724 1.432 3.438 2.875l1.933 1.617C224 786 224 786 225 788l-5-1v-2l-5-2 2-1z"/><path fill="#2c2c2c" d="m789 768 3 3-7 6v-5l4-2z"/><path fill="#ececec" d="M593 530h5l.375 1.813c.58 2.45.58 2.45 2.625 5.187-3.999 0-5.802-1.726-9-4z"/><path fill="#f2f1ef" d="m620 410 4 2-1 6h-3z"/><path fill="#ededec" d="M328 305c-4.625 3-4.625 3-8 3l-1 3-4-2c1.408-.87 2.826-1.72 4.25-2.562l2.39-1.442c2.668-1.126 3.705-1.013 6.36.004"/><path fill="#eaeae9" d="M727 173c5.75.875 5.75.875 8 2v2h2l1 4a1562 1562 0 0 1-5.5-3.437c-1.02-.639-2.042-1.277-3.094-1.934L727 174z"/><path fill="#f4f4f4" d="M326 137c2.625.375 2.625.375 5 1v2l-7 3c0-4 0-4 2-6"/><path fill="#2d2c2b" d="M253 683c2.375-.437 2.375-.437 5 0 2.313 2 2.313 2 4 4-2.85 0-5.219-.444-8-1h-3z"/><path fill="#f6f6f6" d="M138 673h3c1.688 2 1.688 2 3 4l-2 3-3-1v-2l-2-1z"/><path fill="#2b2b2a" d="m241 507 5 1-3 9-2-1z"/><path fill="#2e2d2b" d="m598 457 2 4-3 3a250 250 0 0 1-6-4v-1z"/><path fill="#383634" d="M446 375v2l-1.937.313L442 378l-1 3-5-4c3.62-1.316 6.096-2 10-2"/><path fill="#e9e8e6" d="M876 365c3.977 3.856 3.977 3.856 4.043 7.113-.263 1.976-.646 3.934-1.043 5.887h-1a972 972 0 0 1-1.562-5.937l-.88-3.34L875 366z"/><path fill="#f0efed" d="M287 336c.828 3.312 1.093 5.66 1 9l-5-1z"/><path fill="#eaeaea" d="m692 146 3 1 1 5-2 1a101 101 0 0 1-6-3z"/><path fill="#2c2c2a" d="m661 136 8 3-1 3c-2.062.688-2.062.688-4 1v-3l-4-1z"/><path fill="#e5e5e5" d="M413 108c4.602-.177 6.784-.108 11 2l-12 2-1-2h2z"/><path fill="#2f2f2f" d="m592 882 5 1v2l3 1-9 1-1-3h2z"/><path fill="#f4f4f4" d="M264 822c3.796.542 5.472 2.201 8 5a88 88 0 0 1-5 1l-3-3z"/><path fill="#ebebea" d="M235 798c3.817 1.555 6.192 4.036 9 7h-4v-2h-4z"/><path fill="#f2f2f2" d="m820 736 2 2c-.375 2.625-.375 2.625-1 5h-4c0-3.517.824-4.371 3-7"/><path fill="#d3d3d3" d="m897 470 4 2-1 3h-1l-1 10h-1z"/><path fill="#302f2e" d="M768 459c1.513 2.403 2.037 3.633 1.75 6.5-.705 2.351-1.627 4.327-2.75 6.5q-.04-2.97-.062-5.937l-.036-3.34C767 460 767 460 768 459"/><path fill="#f0f0f0" d="m294 327 2 3-2 4-1-1-1 2-3-1z"/><path fill="#efeeed" d="m161 284 4 1-4 7-2-2z"/><path fill="#e5e4e2" d="m394 285 1 3q-2.156.079-4.312.125l-2.426.07C386 288 386 288 383 286c3.734-.879 7.168-1.09 11-1"/><path fill="#3f3d3b" d="M459 276v2h13v1a901 901 0 0 1-7.812.125c-.738.017-1.476.034-2.237.05-3.863.036-5.66.019-8.951-2.175 3-1 3-1 6-1"/><path fill="#f2f2f0" d="M679 144h10l-1 5-9-4z"/><path fill="#2a2a2a" d="M445 106v3h-2v2c-2.716-.905-5.348-1.925-8-3v-1c6.625-1 6.625-1 10-1"/><path fill="#efefef" d="m382 880 10 3-2 2c-3.38-.356-6.043-1.357-9-3z"/><path fill="#2f2e2c" d="m721 824 7 2-5 4-3-2z"/><path fill="#e6e6e6" d="m523 699 9 1c-3.188 2.125-5.265 2.502-9 3z"/><path fill="#2e2e2c" d="M135 658h3l3 6-3 3z"/><path fill="#e1e0de" d="M114 598c2.12 3.534 2.532 6.944 3 11l-3-1c-1.312-2.812-1.312-2.812-2-6 .875-2.375.875-2.375 2-4"/><path fill="#2c2c2c" d="M592 533c4.875 1.75 4.875 1.75 6 4l-1 2 2 1-2 3c-2-3.75-2-3.75-2-6l-3-2z"/><path fill="#31302e" d="m576 528 8 1-3 4-5-1z"/><path fill="#e9e9e9" d="m274 362 4 2c-.187 1.875-.187 1.875-1 4-2.562 1.25-2.562 1.25-5 2z"/><path fill="#2c2b29" d="m336 295 4 2c-2.986 1.991-5.597 2.941-9 4l-1-3 2.438-.375L335 297z"/><path fill="#f6f5f3" d="m181 258 2 2-4 4-3-1 1-4c1.875-.625 1.875-.625 4-1"/><path fill="#e9e8e6" d="M777 214c3.412.853 6.675 1.866 10 3l-4 4z"/><path fill="#3b3b3b" d="m399 881-1 4-9-2v-1c3.406-.778 6.508-1.1 10-1"/><path fill="#31302e" d="m297 842 10 1-2 1 1 3c-3.65-1.318-5.79-2.592-9-5"/><path fill="#2f2f2f" d="m536 698 2 1 1 3-1 2h-3l-2-5z"/><path fill="#494947" d="M745 618c2 3 2 3 2 6l3 1-4 1v5h-2z"/><path fill="#f4f3f2" d="M758 512h2v8h-4z"/><path fill="#efeeec" d="M586 457c3.375 1.186 5.647 2.276 8 5-1.75.75-1.75.75-4 1-2.25-1.812-2.25-1.812-4-4z"/><path fill="#f2f2f0" d="m872 356 4 2v6l-2 1c-1.498-3.371-2-5.204-2-9"/><path fill="#f5f5f3" d="m608 279 10 1c-2 2-2 2-3.945 2.195L608 282z"/><path fill="#eeeded" d="m271 171 4 1-9 6-1-3h3v-2h3z"/><path fill="#f2f2f2" d="M336 863c5.75 1.75 5.75 1.75 8 4h-4v2l-4-2h2v-2h-2z"/><path fill="#e9e9e8" d="m711 838-1 3-2-1 1 4-6-1c4.839-5 4.839-5 8-5"/><path fill="#2c2b29" d="m829 719 3 1-4 6-3-1c1.152-2.468 2.048-4.048 4-6"/><path fill="#2b2a28" d="m360.688 710.813 2.449.082L365 711v1h-5v2h-7c2.419-2.983 3.898-3.352 7.688-3.187"/><path fill="#2c2b29" d="m165 706 2 1-.5 2.813c-.577 3.143-.577 3.143-.5 6.187l-4-5z"/><path fill="#f0f0f0" d="m155 699 4 5-1 2-5-2v-4z"/><path fill="#ebebeb" d="M544.688 692.375 547 693c-2.622 2.154-4.644 3.4-8 4v-3c3-2 3-2 5.688-1.625"/><path fill="#e7e6e4" d="m589 669 2 1-1 6h-2l-2 3q.173-2.22.375-4.437c.07-.824.14-1.648.21-2.497L587 670z"/><path fill="#f0f0ee" d="M619 426h2c1.23 5.415 1.23 5.415.063 8.375L620 436c-1-1-1-1-1.098-3.066l.035-2.497.028-2.503z"/><path fill="#f7f7f6" d="m412 396 2 2-2 6h-2l-1 2 1-8h2z"/><path fill="#2f2e2c" d="m420 387 1 2h2l-1 3c-3.062 1.188-3.062 1.188-6 2a56.5 56.5 0 0 1 4-7"/><path fill="#33302e" d="m435 378 1 4-5 2-2-4c3.75-2 3.75-2 6-2"/><path fill="#d7d7d5" d="M271 371c1.176 3.674 1.074 7.17 1 11l-3 1q.214-2.157.438-4.312c.08-.801.162-1.602.246-2.426C270 374 270 374 271 371"/><path fill="#f0f0ee" d="M579.063 368.313C581 369 581 369 583 370v2c-3.375.125-3.375.125-7 0l-2-2c3-2 3-2 5.063-1.687"/><path fill="#31302e" d="M152 306c2 3 2 3 2 5h-2l-2 4h-2c1.199-3.083 2.477-6.063 4-9"/><path fill="#e8e7e5" d="M689 296h2l-1 12c-2.113-4.225-2.261-6.38-2-11z"/><path fill="#32312f" d="m263 180 2 2-4 2v2h-5c4.75-4.875 4.75-4.875 7-6"/><path fill="#f0f0ee" d="M655 128c2.915 1.074 4.778 1.778 7 4-3 2-3 2-5 3l-2-2z"/><path fill="#434240" d="M464 103h12l1 3h-5v-2h-8z"/><path fill="#2d2c2a" d="M663 858h5l1 3-6 2v-2l-3-1h3z"/><path fill="#eeeeec" d="m733 822 3 1-2 4-4-1-1 2v-3c1.813-1.75 1.813-1.75 4-3"/><path fill="#353535" d="M265 819c2.063.438 2.063.438 4 1v2l3 1-1 2c-2.884-1.293-4.872-2.66-7-5z"/><path fill="#f2f1ef" d="m193 754 5 5-4 3-2-4h2z"/><path fill="#ebeae8" d="m826 727 2 3-2 1-1 3 2 1-6 1z"/><path fill="#2f2e2c" d="m176 730 7 2-1 3-3 1c-3-3.75-3-3.75-3-6"/><path fill="#2c2b29" d="M467 711h16v1l-3.375.438c-3.446.346-3.446.346-5.625 1.562a140 140 0 0 1-7-2z"/><path fill="#333230" d="m306 704 8 1c-2.762 2.762-5.207 2.579-9 3z"/><path fill="#32312f" d="m553 689 1 2 2 1-1 2h-6l-1-2z"/><path fill="#e0e0e0" d="M871 642c2 3 2 3 1.688 5l-.688 2-1 3h-3z"/><path fill="#2d2c2a" d="m878 624-2 8c-1.562-1.812-1.562-1.812-3-4l1-3c2-1 2-1 4-1"/><path fill="#2d2d2c" d="m107 553 2 2c-.375 3.625-.375 3.625-1 7-2-2-2-2-2.187-5.062C106 554 106 554 107 553m2 0h2l-1 4z"/><path fill="#373634" d="M600 542h3c1.498 3.371 2 5.204 2 9h-2z"/><path fill="#d5d4d2" d="m235 541 4 2c-1 3-1 3-3 4l-2 3z"/><path fill="#f4f4f4" d="M139 321h5l-2 6h-2z"/><path fill="#2d2c2a" d="M593 114h7l1 2c-2.709 1.354-5.01 1.065-8 1z"/><path fill="#e5e5e4" d="m764 797 2 1c-1.116 3.347-1.513 3.62-4.437 5.25L758 805l-2-1z"/><path fill="#eeeeec" d="m876 636 2 1-2 5h-3l-1-2 1-3z"/><path fill="#ececec" d="M380 594a56.5 56.5 0 0 1 4 7l-6-1v-5z"/><path fill="#e7e6e5" d="M246 507c2 4 2 4 1.125 6.75L246 516h-3z"/><path fill="#edecea" d="m269 474 2 3-2 3c-2.625.188-2.625.188-5 0z"/><path fill="#2c2b29" d="M114 402a91 91 0 0 1 4 4v2h-2l-1 2c-2.125-4.625-2.125-4.625-1-8"/><path fill="#edecea" d="M715 161c3 2 3 2 5 5l-3 1c-2.687-1.937-2.687-1.937-5-4z"/><path fill="#e9e9e9" d="m364 122 2 4-8 2v-3z"/><path fill="#31302e" d="M544 891h5l-1 3 4 1c-5.75.125-5.75.125-8-1z"/><path fill="#d6d5d3" d="M594 888c-7.286 3.571-7.286 3.571-12 2 4.102-2.735 7.264-3.579 12-2"/><path fill="#302f2d" d="m382 875 1 3-1 2c-1.937-.312-1.937-.312-4-1l-1-3c3-1 3-1 5-1"/><path fill="#2e2e2e" d="M660 864c-2.986 1.991-5.597 2.941-9 4v-3c2.957-1.478 5.742-1.06 9-1"/><path fill="#e4e3e3" d="m849 690 2 3a125 125 0 0 1-4 6h-2c1.199-3.083 2.477-6.063 4-9"/><path fill="#efefee" d="m245 666 2 1c.828 2.484 1 4.352 1 7l-5-5z"/><path fill="#2c2b2a" d="m862 656 4 1-3 7h-1z"/><path fill="#31302f" d="m236 520 5 1-1 5-3-1z"/><path fill="#ececec" d="M880 382h3l2 7h-3z"/><path fill="#e0dfdd" d="m345 297-6 3v2h-2v-2l-2-1c6.625-3.125 6.625-3.125 10-2"/><path fill="#ececec" d="M158 294c0 3.576-1.088 5.053-3 8l-2-4 3-1v-2zm217-5c-1 1.563-1 1.563-3 3-2.766-.033-5.26-.506-8-1 3.5-1.944 7.194-3.903 11-2"/><path fill="#2d2d2c" d="m255 186 1 3c2.015.733 2.015.733 4 1-3.375.625-3.375.625-7 1l-2-2z"/><path fill="#e8e7e6" d="M286 836c3.375 1.186 5.647 2.276 8 5-4.517.366-4.517.366-6.812-1.375C286 838 286 838 286 836"/><path fill="#2a2a2a" d="M710 832h3l1 4-4 2c-1.125-3.75-1.125-3.75 0-6"/><path fill="#f2f2f0" d="m251 811 5 3-4 2-4-3h3z"/><path fill="#343433" d="m817 736 2 3-5 5v-5h2z"/><path fill="#eee" d="m179 736 5 5-2 2-4-2z"/><path fill="#e4e4e4" d="M149 688c1.892 2.386 3.024 4.072 4 7h-3v-2l-3-1z"/><path fill="#363533" d="m248 675 6 5-2 2-5-5z"/><path fill="#dad9d8" d="m414 615 11 1v1l-2.375.438c-2.59.44-2.59.44-4.625 1.562l-2-1v-2z"/><path fill="#eae9e7" d="m546 444 8 1c-1.75 1.563-1.75 1.563-4 3-2.25-.312-2.25-.312-4-1z"/><path fill="#e0dfdd" d="M364 441h8c-3.061 2.624-3.732 3-8 3z"/><path fill="#3d3c3a" d="m112 410 3 1 1 5h-5z"/><path fill="#3c3b39" d="m411 404 1 4h2v2h-2v3l-3-1z"/><path fill="#31302e" d="m185 256 1 2 2 1-2 5-1-3-3-1z"/><path fill="#2f2f2f" d="m205 232 3 1-1 6c-1.562-1.25-1.562-1.25-3-3 .313-2.187.313-2.187 1-4"/><path fill="#e4e4e4" d="m219 215 2 2-6 5c.313-2.375.313-2.375 1-5z"/><path fill="#eaeaea" d="M771 208h4c2.25 2.5 2.25 2.5 4 5l-3 1z"/><path fill="#ebeae8" d="m350 128 4 2-9 3v-2c2.25-1.75 2.25-1.75 5-3"/><path fill="#d5d5d5" d="M436.14 104.926 442 106v1l-12 1c4-3 4-3 6.14-3.074"/><path fill="#e1e1e1" d="m696 847-1 3c-3.562 1.188-3.562 1.188-7 2v-2c5.75-3 5.75-3 8-3"/><path fill="#e8e7e7" d="M786 776c.687 2.49 1 4.379 1 7l-5-2z"/><path fill="#302f2f" d="M167 718c2.438.75 2.438.75 5 2 .813 2.125.813 2.125 1 4l-2 1z"/><path fill="#f3f3f1" d="M545 688c2.875-.125 2.875-.125 6 0l2 2-4 2z"/><path fill="#e8e8e6" d="M752 552h3l-1 11h-1z"/><path fill="#e9e9e9" d="M460 524v1q-2.187.079-4.375.125l-2.46.07C451 525 451 525 449 523c4.25-1.417 6.719-.193 11 1"/><path fill="#32312f" d="M334 443v2l2 1-7 1-1-2c3.75-2 3.75-2 6-2"/><path fill="#2d2c29" d="M520 438v2h-8v-2c3.287-.8 4.71-1.097 8 0"/><path fill="#2b2b2b" d="m110 434 2 3-1 3-4-1 1-4v2h2z"/><path fill="#474644" d="M887 408c1.43 2.354 2.087 3.48 1.625 6.25L888 416c-2.125-4.625-2.125-4.625-1-8m-3 5h2l-1 3z"/><path fill="#f2f2f0" d="M272 382v5l-4 1c.375-2.437.375-2.437 1-5 2-1 2-1 3-1"/><path fill="#343332" d="m286 334 3 1-5 8c-1-4-1-4 .438-6.75z"/><path fill="#f0f0ee" d="m392 112 5 1 1 3h-6z"/></svg>