<svg xmlns="http://www.w3.org/2000/svg" viewBox="0 0 400 266" fill="currentColor">
  <g transform="translate(0,266) scale(0.1,-0.1)" stroke="none">
    <path d="M0 1330 l0 -1330 2000 0 2000 0 0 1330 0 1330 -2000 0 -2000 0 0 -1330z m2359 920 l340 -195 0 -405 0 -405 -344 -197 -344 -198 -343 198 -343 198 0 404 0 404 340 197 c187 108 343 196 347 196 4 -1 161 -90 347 -197z m-1026 -1564 c47 -17 77 -43 77 -66 0 -29 -26 -30 -61 -4 -59 43 -152 25 -184 -36 -8 -16 -15 -52 -15 -80 0 -43 5 -55 33 -86 46 -50 105 -57 161 -19 42 28 66 27 66 -4 0 -59 -141 -92 -224 -51 -149 71 -124 313 36 348 59 13 67 13 111 -2z m197 -61 c0 -36 3 -65 8 -65 4 1 18 7 32 15 14 8 44 14 67 15 33 0 46 -5 63 -27 18 -24 20 -37 18 -132 -3 -98 -4 -106 -23 -106 -18 0 -21 9 -26 99 -6 111 -19 132 -73 122 -55 -11 -65 -29 -68 -130 -3 -83 -5 -91 -23 -91 -19 0 -20 8 -23 170 -1 93 0 175 2 182 3 7 15 13 26 13 18 0 20 -6 20 -65z m1155 35 c0 -18 -6 -26 -23 -28 -24 -4 -38 18 -28 44 3 9 15 14 28 12 17 -2 23 -10 23 -28z m-327 -37 c3 -26 8 -32 30 -35 38 -4 38 -42 0 -46 -28 -3 -28 -4 -28 -81 0 -79 9 -101 42 -101 11 0 18 -7 18 -20 0 -17 -7 -20 -39 -20 -62 0 -71 16 -71 125 0 89 -1 94 -22 97 -15 2 -23 10 -23 23 0 13 8 21 23 23 18 3 22 10 22 38 0 31 3 35 23 32 17 -2 23 -11 25 -35z m-367 -63 c30 -29 30 -30 27 -132 -3 -98 -4 -103 -25 -106 -16 -2 -23 2 -23 12 0 20 -9 20 -34 1 -56 -42 -150 1 -150 68 0 69 66 103 139 73 21 -9 40 -14 42 -12 3 3 2 18 -2 35 -8 39 -37 55 -84 47 -66 -11 -74 -11 -78 1 -7 20 49 42 105 43 46 0 58 -4 83 -30z m146 10 c5 -19 6 -19 33 2 30 22 60 19 60 -7 0 -9 -8 -18 -17 -21 -65 -19 -68 -23 -73 -124 -5 -87 -7 -95 -25 -95 -19 0 -20 8 -23 119 -1 66 0 126 2 133 8 20 37 15 43 -7z m551 -142 c2 -153 2 -157 -22 -184 -19 -23 -32 -29 -65 -29 -26 0 -45 6 -51 15 -13 21 -3 30 35 30 24 0 38 6 45 19 5 11 10 82 10 159 0 76 3 142 7 146 4 4 14 5 23 4 13 -3 15 -28 18 -160z m253 143 c18 -15 21 -22 13 -31 -9 -9 -17 -9 -33 0 -12 6 -41 10 -64 8 -37 -3 -42 -6 -42 -27 0 -22 7 -27 55 -39 83 -21 115 -61 94 -117 -21 -54 -188 -61 -208 -8 -8 20 21 28 50 14 56 -25 125 -4 111 33 -3 8 -32 22 -64 31 -72 21 -93 39 -93 81 0 48 38 74 105 74 37 0 60 -6 76 -19z m-410 -197 c17 -21 0 -49 -32 -49 -18 0 -25 6 -27 24 -6 38 34 55 59 25z"/>
    <path d="M1698 2177 l-298 -172 3 -354 c1 -226 6 -355 12 -357 6 -2 27 29 49 69 126 235 265 375 334 338 32 -17 37 -14 62 40 32 66 80 109 125 109 53 0 90 -40 147 -158 l51 -106 20 25 c10 13 33 51 49 83 68 135 102 166 180 166 55 0 96 -25 147 -90 l41 -52 0 144 0 143 -299 173 c-164 94 -305 172 -313 171 -7 0 -147 -78 -310 -172z"/>
    <path d="M1852 438 c-31 -31 1 -88 49 -88 32 0 69 26 69 49 0 42 -87 70 -118 39z"/>
  </g>
</svg>
