<svg viewBox="0 0 1280 1280" xmlns="http://www.w3.org/2000/svg"><path d="M641.482 106.68 644 108l2.482 1.29 2.631 1.476 2.994 1.675 3.206 1.809 3.364 1.891c8.409 4.743 16.76 9.581 25.088 14.465 7.714 4.52 15.467 8.969 23.235 13.394a2953 2953 0 0 1 29.067 16.783c10.524 6.155 21.087 12.24 31.65 18.326q8.144 4.693 16.283 9.391l6.5 3.75 247 142.5 3.252 1.876 22.994 13.265 3.397 1.959 6.265 3.613a329 329 0 0 1 5.852 3.456c2.746 1.601 5.534 2.868 8.463 4.1 12.593 5.655 12.593 5.655 15.374 11.148 1.76 6.378 1.37 12.952 1.188 19.504q.013 3.33.049 6.662c.042 6.088-.033 12.17-.129 18.259-.073 5.894-.057 11.787-.044 17.682a3135 3135 0 0 1-.152 36.154 4646 4646 0 0 0-.206 35.785l-.004 2.25-.018 11.31c-.04 26.687-.168 53.374-.348 80.06a21436 21436 0 0 0-.397 80.19q-.038 12.04-.073 24.083a92247 92247 0 0 1-.166 51.336c-.175 50.187-.477 100.372-.797 150.558l-11.089 6.262-3.157 1.783a1361 1361 0 0 0-20.566 11.83c-11.606 6.796-23.252 13.52-34.906 20.234q-8.142 4.693-16.282 9.391l-6.5 3.75-3.25 1.875-247 142.5-6.496 3.748q-8.16 4.709-16.324 9.412a5512 5512 0 0 0-31.305 18.153c-6.32 3.696-12.65 7.373-19.008 11.003l-1.77 1.011q-4.433 2.531-8.874 5.047c-5.852 3.322-11.66 6.697-17.407 10.196l-3.322 2.004a483 483 0 0 0-6.195 3.813l-2.795 1.683-2.428 1.5c-2.326.805-2.326.805-4.9.067L636 1172l-1.84-.923-1.742-.968-2.035-1.127-2.195-1.232-2.368-1.322c-7.462-4.187-14.847-8.505-22.23-12.831A2290 2290 0 0 0 580 1140a2953 2953 0 0 1-29.067-16.783c-10.524-6.155-21.087-12.24-31.65-18.326q-8.144-4.693-16.283-9.391l-6.5-3.75L178 908V372l23-13a1793 1793 0 0 0 11.688-6.812A2463 2463 0 0 1 239 337a2535 2535 0 0 0 26-15 2542 2542 0 0 1 26-15 2962 2962 0 0 0 29.067-16.783c10.524-6.155 21.087-12.24 31.65-18.326q8.144-4.693 16.283-9.391l9.75-5.625 195-112.5 6.496-3.748q8.16-4.709 16.324-9.412l3.287-1.895a3567 3567 0 0 1 6.487-3.728 729 729 0 0 0 16.449-9.717l3.318-2.002q3.134-1.894 6.24-3.834l2.825-1.7c.814-.5 1.627-1.002 2.466-1.519 2.358-.82 2.358-.82 4.84-.14m-4.84 64.14-2.466 1.52-2.826 1.699-3.037 1.899-6.52 3.937-3.4 2.074c-5.374 3.249-10.82 6.366-16.268 9.489l-9.843 5.67Q584.14 201.803 576 206.5l-6.5 3.75-3.25 1.875-273.002 157.501-6.478 3.738q-8.291 4.785-16.586 9.562c-9.764 5.624-19.527 11.249-29.246 16.949l-2.13 1.245c-3.08 1.7-3.08 1.7-5.808 3.88-.098 3.021-.13 6.02-.12 9.042l-.003 2.91c-.002 3.245.004 6.49.01 9.734l-.001 6.946q.001 9.462.013 18.923.007 9.875.008 19.75.004 16.587.018 33.173.014 17.088.02 34.174v2.126l.005 10.56q.016 43.83.05 87.662c2.177-3.266 3.314-6.508 4.547-10.191q.768-2.25 1.539-4.501c.27-.793.54-1.586.82-2.403 38.511-112.493 38.511-112.493 87.907-137.121 19.088-9.103 44.512-11.795 64.78-5.17 47.582 19.37 74.66 66.877 96.25 110.968l1.122 2.238C491 596 491 596 491.815 598.195c1.767 4.442 3.43 6.306 7.845 8.266q2.686 1 5.403 1.914 2.706.977 5.41 1.96c.796.275 1.593.548 2.414.83C515 612 515 612 518 614h3l.7-1.582c4.848-10.944 9.801-21.803 15.286-32.444 1.043-2.03 2.067-4.07 3.092-6.11 7.675-15.09 16.878-29.028 27.922-41.864.46-.605.92-1.21 1.395-1.832 9.721-12.541 25.987-22.51 41.605-25.168 11.648-1.062 23.187-.772 34 4l3.184 1.402c49.213 24.164 71.16 93.82 92.191 140.254l1.05 2.317q2.456 5.414 4.893 10.836l1.74 3.855 1.51 3.358c1.334 2.774 2.8 5.37 4.432 7.978 4.476-2.316 7.488-5.442 10.688-9.25l1.587-1.88c5.478-6.608 10.242-13.559 14.725-20.87l1.309-2.13c7.298-12.032 13.656-24.54 19.941-37.12l1.14-2.28a1003 1003 0 0 0 11.758-24.349c3.153-6.755 6.526-13.334 10.227-19.808l1.683-2.954c6.837-11.842 14.46-22.46 23.942-32.359l2.563-2.687L856 521l1.586-1.57c17.883-16.827 42.13-22.296 66-21.715C953.408 498.974 976.959 513.917 998 534l2.215 2.09c5.417 5.245 10.103 11.01 14.785 16.91l2.559 3.184c9.61 12.026 18.612 24.533 27.27 37.261L1046 595h1c.304-24.634.533-49.268.674-73.904.067-11.44.158-22.877.307-34.316q.197-14.955.242-29.911c.017-5.28.057-10.557.151-15.836.089-4.971.116-9.94.096-14.912q.005-2.733.08-5.466c.143-5.485.095-10.388-1.55-15.655-3.926-3.94-7.884-5.8-13-8-2.22-1.208-4.378-2.496-6.55-3.79a4761 4761 0 0 0-6.762-3.835 7599 7599 0 0 1-7.418-4.223l-1.866-1.062a1816 1816 0 0 1-17.529-10.152c-11.504-6.73-23.044-13.395-34.593-20.047Q951.14 349.198 943 344.5l-6.5-3.75-250.255-144.378q-3.224-1.86-6.449-3.718a4547 4547 0 0 1-15.21-8.8 7530 7530 0 0 0-7.172-4.164q-2.528-1.469-5.053-2.944l-3.1-1.797-2.72-1.583c-4.719-2.907-4.719-2.907-9.9-2.546" fill="#fd777b"/><path d="M641.482 106.68 644 108l2.482 1.29 2.631 1.476 2.994 1.675 3.206 1.809 3.364 1.891c8.409 4.743 16.76 9.581 25.088 14.465 7.714 4.52 15.467 8.969 23.235 13.394a2953 2953 0 0 1 29.067 16.783c10.524 6.155 21.087 12.24 31.65 18.326q8.144 4.693 16.283 9.391l6.5 3.75 247 142.5 3.252 1.876 22.994 13.265 3.397 1.959 6.265 3.613a329 329 0 0 1 5.852 3.456c2.746 1.601 5.534 2.868 8.463 4.1 12.593 5.655 12.593 5.655 15.374 11.148 1.76 6.378 1.37 12.952 1.188 19.504q.013 3.33.049 6.662c.042 6.088-.033 12.17-.129 18.259-.073 5.894-.057 11.787-.044 17.682a3135 3135 0 0 1-.152 36.154 4646 4646 0 0 0-.206 35.785l-.004 2.25-.018 11.31c-.04 26.687-.168 53.374-.348 80.06a21436 21436 0 0 0-.397 80.19q-.038 12.04-.073 24.083a92247 92247 0 0 1-.166 51.336c-.175 50.187-.477 100.372-.797 150.558l-11.089 6.262-3.157 1.783a1361 1361 0 0 0-20.566 11.83c-11.606 6.796-23.252 13.52-34.906 20.234q-8.142 4.693-16.282 9.391l-6.5 3.75-3.25 1.875-247 142.5-6.496 3.748q-8.16 4.709-16.324 9.412a5512 5512 0 0 0-31.305 18.153c-6.32 3.696-12.65 7.373-19.008 11.003l-1.77 1.011q-4.433 2.531-8.874 5.047c-5.852 3.322-11.66 6.697-17.407 10.196l-3.322 2.004a483 483 0 0 0-6.195 3.813l-2.795 1.683-2.428 1.5c-2.326.805-2.326.805-4.9.067L636 1172l-1.84-.923-1.742-.968-2.035-1.127-2.195-1.232-2.368-1.322c-7.462-4.187-14.847-8.505-22.23-12.831A2290 2290 0 0 0 580 1140a2953 2953 0 0 1-29.067-16.783c-10.524-6.155-21.087-12.24-31.65-18.326q-8.144-4.693-16.283-9.391l-6.5-3.75L178 908V372l23-13a1793 1793 0 0 0 11.688-6.812A2463 2463 0 0 1 239 337a2535 2535 0 0 0 26-15 2542 2542 0 0 1 26-15 2962 2962 0 0 0 29.067-16.783c10.524-6.155 21.087-12.24 31.65-18.326q8.144-4.693 16.283-9.391l9.75-5.625 195-112.5 6.496-3.748q8.16-4.709 16.324-9.412l3.287-1.895a3567 3567 0 0 1 6.487-3.728 729 729 0 0 0 16.449-9.717l3.318-2.002q3.134-1.894 6.24-3.834l2.825-1.7c.814-.5 1.627-1.002 2.466-1.519 2.358-.82 2.358-.82 4.84-.14m-4.84 64.14-2.466 1.52-2.826 1.699-3.037 1.899-6.52 3.937-3.4 2.074c-5.374 3.249-10.82 6.366-16.268 9.489l-9.843 5.67Q584.14 201.803 576 206.5l-6.5 3.75-3.25 1.875-273.002 157.501-6.478 3.738q-8.291 4.785-16.586 9.562c-9.764 5.624-19.527 11.249-29.246 16.949l-2.13 1.245c-3.08 1.7-3.08 1.7-5.808 3.88a180 180 0 0 0-.158 7.594l-.015 2.451q-.022 4.118-.032 8.235l-.03 5.919a11914 11914 0 0 0-.068 16.342q-.028 6.992-.061 13.985c-.197 42.605-.327 85.212-.45 127.818l-.071 23.495c-.073 23.436-.189 46.873-.328 70.31q-.206 34.56-.32 69.122c-.05 14.17-.124 28.338-.233 42.506q-.105 14.545-.122 29.09c-.009 5.594-.032 11.186-.094 16.779a1051 1051 0 0 0-.054 15.337q-.001 2.778-.05 5.556c-.543 9.505-.543 9.505 3.052 17.845 2.308 1.572 4.432 2.625 7.034 3.616l3.047 1.808 2.703 1.489 3.064 1.699L253 887.75c7.189 3.992 14.366 7.99 21.438 12.188a1918 1918 0 0 0 21 12.25l3.355 1.933 6.812 3.923q8.199 4.726 16.395 9.456l6.5 3.75 65 37.5 3.25 1.875 6.496 3.748q8.16 4.709 16.324 9.412a5512 5512 0 0 1 31.305 18.153c9.27 5.422 18.584 10.765 27.915 16.082a2676 2676 0 0 1 27.132 15.69c7.664 4.482 15.365 8.895 23.078 13.29a2962 2962 0 0 1 29.067 16.783c10.514 6.149 21.066 12.229 31.62 18.308q6.716 3.87 13.428 7.743 3.29 1.897 6.583 3.787c5.015 2.882 10.007 5.79 14.947 8.8l2.629 1.584q2.396 1.446 4.767 2.935l2.13 1.279 1.816 1.123c3.848 1.258 7.117.08 10.668-1.594l2.704-1.6 3.09-1.806 3.301-1.967q1.734-1.02 3.468-2.035 3.605-2.112 7.2-4.235c5.545-3.266 11.129-6.462 16.707-9.667a4393 4393 0 0 0 24.75-14.375c9.27-5.423 18.584-10.766 27.915-16.083 8.097-4.615 16.168-9.27 24.21-13.98a2542 2542 0 0 1 26-15 2962 2962 0 0 0 29.067-16.783c10.524-6.155 21.087-12.24 31.65-18.326q8.144-4.693 16.283-9.391l6.5-3.75 3.25-1.875L986.5 911.25l3.252-1.876 6.476-3.736q8.314-4.795 16.624-9.599l3.437-1.986q3.192-1.845 6.383-3.692c5.887-3.4 11.796-6.759 17.724-10.088l2.226-1.251L1048 876a354460 354460 0 0 0 .038-58.528c.02-34.935.03-69.87.005-104.805l-.006-9.592-.027-38.488c-.028-35.674-.024-71.347.135-107.02q.12-27.43.136-54.862c.008-11.328.055-22.655.153-33.983q.093-11.433.058-22.867c-.01-4.316 0-8.629.068-12.944.061-3.893.063-7.78.017-11.673q-.01-2.093.05-4.185c.118-4.323-.023-8.015-1.627-12.053-3.975-3.605-8.145-5.7-13-8-2.208-1.225-4.375-2.506-6.55-3.79a4761 4761 0 0 0-6.762-3.835 7599 7599 0 0 1-7.418-4.223l-1.866-1.062a1816 1816 0 0 1-17.529-10.152c-11.504-6.73-23.044-13.395-34.593-20.047Q951.14 349.198 943 344.5l-6.5-3.75-250.255-144.378q-3.224-1.86-6.449-3.718a4547 4547 0 0 1-15.21-8.8 7530 7530 0 0 0-7.172-4.164q-2.528-1.469-5.053-2.944l-3.1-1.797-2.72-1.583c-4.719-2.907-4.719-2.907-9.9-2.546" fill="#e7e8ec"/><path d="M983.094 519.582c5.151 4.286 10.062 8.79 14.906 13.418l2.438 2.313c5.678 5.52 10.652 11.48 15.562 17.687l2.555 3.18c7.485 9.364 14.5 19.05 21.445 28.82l1.238 1.74c4.6 6.477 6.921 9.835 6.824 17.885l-.013 2.14q-.02 2.618-.049 5.235c-4.014-2.181-7.743-4.5-11.437-7.187-22.191-15.692-46.902-25.262-74.188-25.188h-2.18c-13.675.04-26.816 1.445-40.195 4.375l-2.435.519C899.428 588.535 881.194 596.309 866 607l-1.875 1.32c-9.686 6.878-18.701 14.302-27.125 22.68l-1.481 1.47c-27.943 28.1-46.923 65.017-66.292 99.178-13.169 23.158-26.96 46.626-45.23 66.2-1.832 1.975-3.536 4.01-5.247 6.09C706.433 817.982 690.096 827.904 673 835l-3.133 1.32c-11.579 4.235-26.928 5.134-38.37-.008L629 835l-2.902-1.437c-52.316-28.01-76.079-105.09-98.423-156.16q-2.268-5.185-4.538-10.368l-2.264-5.177c-4.105-9.386-8.253-18.75-12.533-28.057l-1.133-2.464q-2.657-5.776-5.346-11.538l-1.896-4.096-1.668-3.573c-1.142-2.756-1.853-5.192-2.297-8.13 8.7 2.726 16.984 5.568 25 10l.384-2.217c.999-4.512 3.01-8.532 4.928-12.72l1.336-2.925C532.595 585.481 538.184 575.204 544 565l1.263-2.224C550.249 554.052 555.707 545.85 562 538l1.339-1.7c12.213-15.4 27.594-28.885 47.661-32.3 11.648-1.062 23.187-.772 34 4l3.184 1.402c49 24.06 71.229 92.603 92.12 138.914q1.573 3.487 3.15 6.975 1.941 4.298 3.864 8.606l1.74 3.865 1.51 3.373c1.278 2.556 2.63 4.66 4.432 6.865 9.727-9.675 17.833-19.336 25-31l1.317-2.143c7.296-12.028 13.65-24.531 19.933-37.107l1.14-2.28a1003 1003 0 0 0 11.758-24.349c3.153-6.755 6.526-13.334 10.227-19.808l1.683-2.954C832.895 546.517 840.518 535.9 850 526l2.5-2.625L855 521l1.809-1.793c34.84-33.05 90.48-27.586 126.285.375" fill="#fecd56"/><path d="M418.375 493.438c5.43 4.28 10.593 8.822 15.625 13.562l1.79 1.629c6.135 5.801 11.125 12.66 16.21 19.371l2.402 3.14c13.837 18.695 24.76 39.354 35.197 60.08a606 606 0 0 0 2.68 5.26C495 601.781 495 601.781 495 604l-3.848-.105c-33.25-.64-57.976 13.976-81.418 36.43-13.46 12.935-13.46 12.935-25.656 27.038-1.887 2.395-3.847 4.705-5.846 7.006-7.918 9.15-15.089 18.871-22.232 28.631l-1.396 1.903c-8.474 11.571-16.608 23.338-24.541 35.284-.566.85-1.13 1.7-1.713 2.574-8.79 13.22-17.315 26.543-25.35 40.239l-3.383 5.7c-12.752 21.574-24.77 43.522-36.242 65.8l-1.145 2.22c-4.634 8.998-9.077 18.047-13.23 27.28-4.125-1.324-7.621-2.783-11.312-5.062l-2.614-1.598C233 876 233 876 232 875c-.122-2.911-.179-5.8-.194-8.713l-.026-2.805q-.04-4.692-.068-9.385l-.054-6.701c-.16-20.522-.244-41.045-.31-61.567l-.028-8.268-.007-2.075a6197 6197 0 0 0-.216-33.05q-.148-17.025-.173-34.05c-.011-6.357-.04-12.712-.118-19.068-.309-26.66-.304-50.444 10.773-75.091 1.977-4.489 3.651-9.074 5.336-13.678 16.441-44.586 37.63-95.134 82.968-116.752 29.032-13.168 63.082-8.97 88.492 9.64" fill="#fd6285"/><path d="m645 508 3.184 1.402c46.24 22.705 67.83 85.386 87.697 129.133q1.673 3.685 3.35 7.368c5.631 12.373 5.631 12.373 8.175 17.994l.899 1.985q1.19 2.626 2.377 5.253a114 114 0 0 0 2.502 5.13c.816 1.735.816 1.735.722 3.723-4.742 10.527-22.773 17.75-32.98 21.617-27.245 9.69-57.976 8.63-84.926-1.605l-1.946-.733c-26.263-10.145-48.185-28.523-68.808-47.232-3.375-3.058-6.805-6.05-10.246-9.035l-1.451-1.276c-6.848-6.023-13.815-11.812-21.111-17.287l-2.02-1.516c-3.376-2.503-6.76-4.836-10.418-6.921 5.671-18.024 14.687-34.633 24-51l1.267-2.233c4.985-8.72 10.442-16.919 16.733-24.767l1.339-1.7C582.81 511.748 613.524 494.108 645 508" fill="#36a2ea"/></svg>
