<svg version="1.1" viewBox="0 0 1280 1280" xmlns="http://www.w3.org/2000/svg" >
<path d="M0 0 C0.83096191 0.43530029 1.66192383 0.87060059 2.51806641 1.3190918 C3.74650269 1.95766113 3.74650269 1.95766113 4.99975586 2.60913086 C5.86818115 3.09607422 6.73660645 3.58301758 7.63134766 4.0847168 C8.61917236 4.63756348 9.60699707 5.19041016 10.62475586 5.76000977 C12.21163208 6.65550537 12.21163208 6.65550537 13.83056641 7.5690918 C14.94069092 8.19315918 16.05081543 8.81722656 17.19458008 9.46020508 C25.60394412 14.20278872 33.95498077 19.04155286 42.28295898 23.92553711 C49.99661104 28.44579863 57.74972515 32.89385224 65.51806641 37.3190918 C75.23949625 42.85862283 84.92701945 48.45284366 94.58496094 54.10253906 C105.10891265 60.25675921 115.67186778 66.34279176 126.23583984 72.42797852 C131.66466583 75.55589328 137.09125922 78.68767628 142.51806641 81.8190918 C144.68472223 83.06911059 146.8513889 84.31911058 149.01806641 85.5690918 C231.35139974 133.0690918 313.68473307 180.5690918 396.01806641 228.0690918 C397.09113037 228.68816406 398.16419434 229.30723633 399.26977539 229.94506836 C401.43075629 231.19179435 403.59172639 232.43853907 405.75268555 233.68530273 C411.25625492 236.86055063 416.76002673 240.03544675 422.26416016 243.2097168 C423.385 243.85618164 424.50583984 244.50264648 425.66064453 245.16870117 C427.74911371 246.37325394 429.83764747 247.57769475 431.92626953 248.78198242 C433.88858955 249.91384137 435.83955514 251.06563698 437.77807492 252.23779124 C440.52382416 253.83906538 443.31222015 255.10622091 446.24134427 256.33729583 C458.83426181 261.99260535 458.83426181 261.99260535 461.61514209 267.48644982 C463.37577247 273.86389555 462.98468425 280.43826044 462.80290222 286.99052429 C462.81119342 289.21095597 462.82784033 291.43136944 462.85209638 293.65168411 C462.89452129 299.74046789 462.81870708 305.82288409 462.72331321 311.91085613 C462.6496179 317.80493743 462.66557135 323.69832653 462.67926821 329.59275278 C462.70419205 341.64506794 462.64090801 353.6953992 462.52693748 365.74713707 C462.41442226 377.67562374 462.34136723 389.60328367 462.32073402 401.53229713 C462.31877494 402.64578574 462.31877494 402.64578574 462.31677629 403.78176907 C462.31034775 407.55183385 462.30462154 411.32189935 462.29916564 415.09196565 C462.25928207 441.7794832 462.13134277 468.46592197 461.95141602 495.15283203 C461.77684744 521.07497428 461.64229137 546.9968211 461.56176758 572.91943359 C461.55926858 573.71880077 461.55676958 574.51816796 461.55419486 575.34175838 C461.52914248 583.36950274 461.50490209 591.39724939 461.48125653 599.42499801 C461.43307149 615.77771727 461.3794677 632.13041729 461.32258606 648.48310852 C461.31997755 649.23494039 461.31736904 649.98677227 461.31468149 650.76138692 C461.13993697 700.94774631 460.83849029 751.13347462 460.51806641 801.3190918 C459.85579701 801.69297594 459.19352762 802.06686008 458.51118946 802.45207405 C455.4837469 804.16147256 452.45659287 805.87138142 449.42944336 807.58129883 C447.86668041 808.46353874 447.86668041 808.46353874 446.2723465 809.36360168 C439.3849126 813.25465596 432.5241906 817.1835538 425.70556641 821.1940918 C414.09991499 827.99009897 402.4541195 834.71500063 390.80029297 841.42797852 C385.37146698 844.55589328 379.9448736 847.68767628 374.51806641 850.8190918 C372.35141058 852.06911059 370.18474391 853.31911058 368.01806641 854.5690918 C366.40931641 855.4972168 366.40931641 855.4972168 364.76806641 856.4440918 C121.01806643 997.06909178 121.01806643 997.06909178 117.76757812 998.94433594 C115.6024957 1000.19344698 113.43745658 1001.44263309 111.27246094 1002.69189453 C105.83190935 1005.83111489 100.39059425 1008.96899742 94.94775391 1012.10424805 C84.49600441 1018.12656508 74.05507093 1024.16578517 63.64306641 1030.2565918 C57.32320035 1033.95287016 50.99298919 1037.62968783 44.63525391 1041.26049805 C44.051082 1041.59412857 43.4669101 1041.92775909 42.86503601 1042.27149963 C39.90946007 1043.95812931 36.95165937 1045.64072771 33.9909668 1047.31835938 C28.13935722 1050.6397905 22.33145311 1054.01465306 16.58447266 1057.5144043 C15.488125 1058.17569336 14.39177734 1058.83698242 13.26220703 1059.51831055 C11.18780219 1060.77390488 9.1221505 1062.04411109 7.06689453 1063.33081055 C6.14457031 1063.88639648 5.22224609 1064.44198242 4.27197266 1065.0144043 C3.47090088 1065.50956543 2.6698291 1066.00472656 1.84448242 1066.51489258 C-0.48193359 1067.3190918 -0.48193359 1067.3190918 -3.05517578 1066.58129883 C-3.85600586 1066.16477051 -4.65683594 1065.74824219 -5.48193359 1065.3190918 C-6.08884033 1065.01455078 -6.69574707 1064.71000977 -7.32104492 1064.39624023 C-8.18379028 1063.91719238 -8.18379028 1063.91719238 -9.06396484 1063.4284668 C-9.73540527 1063.05641113 -10.4068457 1062.68435547 -11.09863281 1062.30102539 C-11.82324707 1061.8944873 -12.54786133 1061.48794922 -13.29443359 1061.0690918 C-14.46643311 1060.41481201 -14.46643311 1060.41481201 -15.66210938 1059.74731445 C-23.12427894 1055.55994136 -30.50917063 1051.24209288 -37.89135742 1046.91577148 C-45.72447427 1042.32951381 -53.59501109 1037.8118257 -61.48193359 1033.3190918 C-71.20337065 1027.77957341 -80.89088677 1022.18533985 -90.54882812 1016.53564453 C-101.07277984 1010.38142438 -111.63573497 1004.29539184 -122.19970703 998.21020508 C-127.62853302 995.08229031 -133.05512641 991.95050732 -138.48193359 988.8190918 C-140.64858942 987.56907301 -142.81525609 986.31907301 -144.98193359 985.0690918 C-251.14860026 923.8190918 -357.31526693 862.5690918 -463.48193359 801.3190918 C-463.48193359 624.4390918 -463.48193359 447.5590918 -463.48193359 265.3190918 C-455.89193359 261.0290918 -448.30193359 256.7390918 -440.48193359 252.3190918 C-436.57836594 250.05937807 -432.68048554 247.79547343 -428.79443359 245.5065918 C-420.05686639 240.38497057 -411.2818504 235.3324716 -402.48193359 230.3190918 C-393.78783199 225.36545681 -385.11690472 220.37539842 -376.48193359 215.3190918 C-367.84695802 210.26278257 -359.1758704 205.27302058 -350.48193359 200.3190918 C-340.76068854 194.77923247 -331.07298491 189.18534248 -321.41503906 183.53564453 C-310.89108735 177.38142438 -300.32813222 171.29539184 -289.76416016 165.21020508 C-284.33533417 162.08229031 -278.90874078 158.95050732 -273.48193359 155.8190918 C-271.31527777 154.56907301 -269.1486111 153.31907301 -266.98193359 152.0690918 C-265.90943359 151.4503418 -264.83693359 150.8315918 -263.73193359 150.1940918 C-71.98193359 39.5690918 -71.98193359 39.5690918 -68.73144531 37.69384766 C-66.56636289 36.44473662 -64.40132377 35.1955505 -62.23632812 33.94628906 C-56.79577654 30.8070687 -51.35446144 27.66918617 -45.91162109 24.53393555 C-44.8271167 23.90865967 -43.7426123 23.28338379 -42.62524414 22.63916016 C-40.46394054 21.39423507 -38.30136169 20.15152105 -36.13745117 18.91113281 C-30.61280987 15.7371879 -25.12866638 12.51180208 -19.68896484 9.1940918 C-18.59406738 8.53352783 -17.49916992 7.87296387 -16.37109375 7.19238281 C-14.28212302 5.92934721 -12.20184387 4.65178989 -10.13183594 3.35791016 C-9.19936035 2.79724854 -8.26688477 2.23658691 -7.30615234 1.65893555 C-6.49235107 1.15740967 -5.6785498 0.65588379 -4.84008789 0.13916016 C-2.48193359 -0.6809082 -2.48193359 -0.6809082 0 0 Z M-4.84008789 64.13916016 C-5.65388916 64.64068604 -6.46769043 65.14221191 -7.30615234 65.65893555 C-8.23862793 66.21959717 -9.17110352 66.78025879 -10.13183594 67.35791016 C-11.13424316 67.9844751 -12.13665039 68.61104004 -13.16943359 69.2565918 C-15.34196958 70.57015271 -17.51516925 71.88261644 -19.68896484 73.1940918 C-20.81125488 73.87858398 -21.93354492 74.56307617 -23.08984375 75.26831055 C-28.4630232 78.51681403 -33.90982387 81.6342211 -39.35693359 84.7565918 C-41.54208907 86.01525572 -43.72698351 87.27437294 -45.91162109 88.53393555 C-46.99668945 89.15896973 -48.08175781 89.78400391 -49.19970703 90.42797852 C-54.62853302 93.55589328 -60.05512641 96.68767628 -65.48193359 99.8190918 C-67.64858942 101.06911059 -69.81525609 102.31911058 -71.98193359 103.5690918 C-73.05443359 104.1878418 -74.12693359 104.8065918 -75.23193359 105.4440918 C-344.98193359 261.0690918 -344.98193359 261.0690918 -348.23413086 262.9453125 C-350.39352754 264.19114949 -352.55287028 265.43707998 -354.7121582 266.68310547 C-360.23960956 269.87258133 -365.76808481 273.06026065 -371.29833984 276.24487305 C-381.06205253 281.86885015 -390.82496883 287.49386773 -400.54443359 293.1940918 C-401.24705322 293.60506104 -401.94967285 294.01603027 -402.67358398 294.43945312 C-405.7543537 296.13902062 -405.7543537 296.13902062 -408.48193359 298.3190918 C-408.57994679 301.34049243 -408.6118452 304.33904606 -408.60218811 307.3608551 C-408.60304254 308.32134433 -408.60389696 309.28183356 -408.60477728 310.27142853 C-408.60643501 313.51593178 -408.60090594 316.76038425 -408.59545898 320.00488281 C-408.59517715 322.3202718 -408.59533477 324.63566087 -408.59590149 326.9510498 C-408.59618961 333.25864843 -408.59029056 339.56622822 -408.58332753 345.87382245 C-408.57709639 352.45754226 -408.57649039 359.04126244 -408.57530212 365.62498474 C-408.57270901 376.6824476 -408.56628681 387.73990382 -408.55737305 398.79736328 C-408.54819971 410.18863897 -408.54111849 421.57991277 -408.53686523 432.97119141 C-408.53660251 433.67287264 -408.53633979 434.37455388 -408.5360691 435.09749819 C-408.5347641 438.61748428 -408.53350039 442.1374704 -408.5322572 445.65745652 C-408.52188365 474.87800613 -408.50419039 504.09854887 -408.48193359 533.3190918 C-406.30478896 530.05337485 -405.16783343 526.81102898 -403.93505859 523.12768555 C-403.42263876 521.62723602 -402.90958913 520.12700147 -402.39599609 518.62695312 C-402.12561523 517.83398834 -401.85523438 517.04102356 -401.57666016 516.22402954 C-363.06460645 403.73071023 -363.06460645 403.73071023 -313.66894531 379.10302734 C-294.58120527 370.0004403 -269.15701839 367.30781122 -248.88818359 373.93237305 C-201.30647674 393.30336609 -174.22812053 440.81049595 -152.63818359 484.90112305 C-152.08312134 486.00907227 -152.08312134 486.00907227 -151.5168457 487.1394043 C-150.48193359 489.3190918 -150.48193359 489.3190918 -149.66772461 491.5144043 C-147.89967667 495.95589729 -146.23716591 497.8203425 -141.82177734 499.7800293 C-140.03138627 500.44665026 -138.2299222 501.08416173 -136.41943359 501.6940918 C-134.61517081 502.34531191 -132.81174663 502.99886141 -131.00927734 503.6550293 C-130.21255615 503.92879395 -129.41583496 504.20255859 -128.5949707 504.48461914 C-126.48193359 505.3190918 -126.48193359 505.3190918 -123.48193359 507.3190918 C-122.49193359 507.3190918 -121.50193359 507.3190918 -120.48193359 507.3190918 C-120.25119141 506.79702148 -120.02044922 506.27495117 -119.78271484 505.73706055 C-114.93364766 494.7931184 -109.9806079 483.93443837 -104.49560547 473.29321289 C-103.45275605 471.26226867 -102.42843477 469.22256214 -101.40380859 467.18237305 C-93.72929657 452.09323588 -84.52562605 438.15486416 -73.48193359 425.3190918 C-73.02173828 424.71452148 -72.56154297 424.10995117 -72.08740234 423.48706055 C-62.36557957 410.94561546 -46.10014082 400.97672314 -30.48193359 398.3190918 C-18.83350723 397.25722524 -7.29474958 397.54663678 3.51806641 402.3190918 C5.09394531 403.01325195 5.09394531 403.01325195 6.70166016 403.72143555 C55.91520126 427.88510699 77.86265353 497.54102868 98.89306641 543.9753418 C99.23962784 544.73990692 99.58618927 545.50447205 99.94325256 546.29220581 C101.57928362 549.90194834 103.21199119 553.51308692 104.83618164 557.12817383 C105.41627665 558.41319643 105.99643261 559.69819153 106.57666016 560.9831543 C107.07480225 562.09126465 107.57294434 563.199375 108.08618164 564.34106445 C109.41978887 567.11469462 110.88692733 569.71156878 112.51806641 572.3190918 C116.99427068 570.00353257 120.00559111 566.87666398 123.20556641 563.0690918 C123.72957031 562.44848877 124.25357422 561.82788574 124.79345703 561.18847656 C130.2710321 554.58135912 135.0347278 547.63022426 139.51806641 540.3190918 C139.94990234 539.61623047 140.38173828 538.91336914 140.82666016 538.18920898 C148.12519125 526.15721026 154.4832582 513.64957652 160.76806641 501.0690918 C161.14406982 500.31649078 161.52007324 499.56388977 161.9074707 498.78848267 C165.9301938 490.71873564 169.86271377 482.61543684 173.66650391 474.44018555 C176.81875445 467.6849992 180.19244164 461.10652507 183.89306641 454.6315918 C184.44833008 453.65681885 185.00359375 452.6820459 185.57568359 451.67773438 C192.41303447 439.83607887 200.03549736 429.21889388 209.51806641 419.3190918 C210.36369141 418.4322168 211.20931641 417.5453418 212.08056641 416.6315918 C212.88494141 415.8684668 213.68931641 415.1053418 214.51806641 414.3190918 C215.04142578 413.80088867 215.56478516 413.28268555 216.10400391 412.7487793 C233.98675137 395.92239666 258.23415313 390.45346323 282.10400391 391.03393555 C311.92613769 392.29276458 335.47750191 407.23627703 356.51806641 427.3190918 C357.24896484 428.00874023 357.97986328 428.69838867 358.73291016 429.40893555 C364.14997335 434.65436902 368.8356908 440.41853717 373.51806641 446.3190918 C374.37076363 447.38042419 375.22363283 448.44161844 376.07666016 449.50268555 C385.68787351 461.52947607 394.68895762 474.03569917 403.34619141 486.7644043 C403.73291016 487.27745117 404.11962891 487.79049805 404.51806641 488.3190918 C404.84806641 488.3190918 405.17806641 488.3190918 405.51806641 488.3190918 C405.82182283 463.68473882 406.05102782 439.05066666 406.19162464 414.41481781 C406.2586437 402.97569662 406.35000037 391.53773931 406.4987793 380.09936523 C406.62840295 370.12892269 406.71223366 360.15932297 406.74121684 350.18806124 C406.75815903 344.90836525 406.79792851 339.63108019 406.89255714 334.35215759 C406.98095182 329.3806188 407.00799202 324.4124775 406.98846626 319.44022751 C406.99203656 317.61798487 407.01782134 315.79562621 407.06773758 313.97406387 C407.21065274 308.48867427 407.16270041 303.58641552 405.51806641 298.3190918 C401.59203765 294.37913548 397.63454915 292.518193 392.51806641 290.3190918 C390.29796389 289.11107699 388.14014496 287.82326052 385.96728516 286.5300293 C383.71443987 285.24951508 381.46049961 283.97092569 379.20556641 282.6940918 C376.73197003 281.2881886 374.25961322 279.88011615 371.78759766 278.47143555 C371.17198975 278.12075516 370.55638184 277.77007477 369.92211914 277.4087677 C364.05642339 274.06346988 358.22107165 270.66709741 352.39306641 267.2565918 C340.88945951 260.52680499 329.34883122 253.86253354 317.80029297 247.21020508 C312.37146698 244.08229031 306.94487359 240.95050732 301.51806641 237.8190918 C299.35141058 236.56907301 297.18474391 235.31907301 295.01806641 234.0690918 C48.01806641 91.5690918 48.01806641 91.5690918 44.76293945 89.69091797 C42.61361226 88.45106456 40.4640386 87.21163829 38.31420898 85.97265625 C33.23972152 83.04745417 28.16785024 80.11797457 23.10470581 77.17318726 C20.71490973 75.7836055 18.32369805 74.39647008 15.93237305 73.00952148 C14.24666052 72.03045927 12.56300054 71.04786574 10.87939453 70.06518555 C9.85652344 69.4722168 8.83365234 68.87924805 7.77978516 68.26831055 C6.88219482 67.7458374 5.98460449 67.22336426 5.05981445 66.68505859 C0.34020042 63.77833862 0.34020042 63.77833862 -4.84008789 64.13916016 Z " fill="#FD777B"/>
<path d="M0 0 C5.15158158 4.28606048 10.06211075 8.78912458 14.90625 13.41796875 C15.710625 14.18109375 16.515 14.94421875 17.34375 15.73046875 C23.02262368 21.25159594 27.99619778 27.2115331 32.90625 33.41796875 C33.75744508 34.47815967 34.60901899 35.53804655 35.4609375 36.59765625 C42.94609323 45.96163814 49.96212548 55.64863192 56.90625 65.41796875 C57.31488281 65.99224609 57.72351562 66.56652344 58.14453125 67.15820312 C62.74415888 73.63506394 65.06529508 76.99259456 64.96875 85.04296875 C64.96423828 85.749375 64.95972656 86.45578125 64.95507812 87.18359375 C64.94328875 88.9284215 64.92535324 90.67320575 64.90625 92.41796875 C60.89229305 90.23647041 57.16353683 87.91872312 53.46875 85.23046875 C31.2781516 69.53878612 6.56730703 59.96873754 -20.71875 60.04296875 C-21.43829865 60.04318024 -22.15784729 60.04339172 -22.89920044 60.04360962 C-36.57396391 60.08344581 -49.71520874 61.4881293 -63.09375 64.41796875 C-63.89731934 64.58925293 -64.70088867 64.76053711 -65.52880859 64.93701172 C-83.66566217 68.95327732 -101.90003882 76.72680754 -117.09375 87.41796875 C-118.0221167 88.07104004 -118.0221167 88.07104004 -118.96923828 88.73730469 C-128.65492204 95.61619391 -137.67009601 103.04030131 -146.09375 111.41796875 C-146.82706543 112.1452417 -146.82706543 112.1452417 -147.57519531 112.88720703 C-175.51785141 140.98831047 -194.4977167 177.90460095 -213.8671875 212.06640625 C-227.03566533 235.22369412 -240.82719697 258.69245917 -259.09765625 278.265625 C-260.92921335 280.24055252 -262.63291985 282.27653822 -264.34375 284.35546875 C-276.66087354 298.39982111 -292.99733557 308.3220376 -310.09375 315.41796875 C-311.12757813 315.85367187 -312.16140625 316.289375 -313.2265625 316.73828125 C-324.80538134 320.97298993 -340.15447371 321.87186746 -351.59765625 316.73046875 C-352.42136719 316.29734375 -353.24507812 315.86421875 -354.09375 315.41796875 C-355.53041016 314.70640625 -355.53041016 314.70640625 -356.99609375 313.98046875 C-409.31182836 285.97101495 -433.07479883 208.89070301 -455.41874695 157.82064819 C-456.9309238 154.36440174 -458.44380027 150.90846186 -459.9569397 147.45263672 C-460.71209082 145.72741106 -461.46679384 144.00198919 -462.22103882 142.27636719 C-466.32539794 132.88962329 -470.47392361 123.52691856 -474.75390625 114.21875 C-475.12760345 113.40574936 -475.50130066 112.59274872 -475.88632202 111.75511169 C-477.65891597 107.90446774 -479.43995666 104.05798559 -481.23242188 100.21655273 C-481.86462687 98.8514199 -482.49679073 97.48626802 -483.12890625 96.12109375 C-483.6794165 94.94192383 -484.22992676 93.76275391 -484.79711914 92.54785156 C-485.93885502 89.79186325 -486.64951228 87.3556587 -487.09375 84.41796875 C-478.39303627 87.14419239 -470.10983185 89.98554702 -462.09375 94.41796875 C-461.96718018 93.68634521 -461.84061035 92.95472168 -461.71020508 92.20092773 C-460.7107736 87.68903884 -458.69910685 83.66871082 -456.78125 79.48046875 C-456.34047119 78.5155249 -455.89969238 77.55058105 -455.44555664 76.55639648 C-450.49879833 65.89871839 -444.90925395 55.62241776 -439.09375 45.41796875 C-438.67706055 44.68400879 -438.26037109 43.95004883 -437.83105469 43.19384766 C-432.84433401 34.47017486 -427.38685009 26.26916758 -421.09375 18.41796875 C-420.65192383 17.85722656 -420.21009766 17.29648437 -419.75488281 16.71875 C-407.54186841 1.31862328 -392.16055592 -12.16741576 -372.09375 -15.58203125 C-360.44532364 -16.6438978 -348.90656598 -16.35448626 -338.09375 -11.58203125 C-337.04316406 -11.11925781 -335.99257813 -10.65648437 -334.91015625 -10.1796875 C-285.90886752 13.87976879 -263.68091417 82.42292202 -242.79029846 128.73406982 C-241.74132566 131.05933145 -240.69092031 133.38394194 -239.64038086 135.70849609 C-238.34540077 138.57434727 -237.05799817 141.44342546 -235.77563477 144.31494141 C-235.19565265 145.60326997 -234.61550296 146.89152313 -234.03515625 148.1796875 C-233.53701416 149.29303467 -233.03887207 150.40638184 -232.52563477 151.5534668 C-231.24822629 154.10893716 -229.89625718 156.21289829 -228.09375 158.41796875 C-218.3670635 148.74292837 -210.2607336 139.08235481 -203.09375 127.41796875 C-202.65901367 126.71075684 -202.22427734 126.00354492 -201.77636719 125.27490234 C-194.48101012 113.24735028 -188.12612282 100.74357849 -181.84375 88.16796875 C-181.46774658 87.41536774 -181.09174316 86.66276672 -180.7043457 85.88735962 C-176.68162261 77.81761259 -172.74910264 69.71431379 -168.9453125 61.5390625 C-165.79306195 54.78387615 -162.41937477 48.20540202 -158.71875 41.73046875 C-158.16348633 40.7556958 -157.60822266 39.78092285 -157.03613281 38.77661133 C-150.19866464 26.93475268 -142.57603587 16.31831132 -133.09375 6.41796875 C-132.26875 5.55171875 -131.44375 4.68546875 -130.59375 3.79296875 C-129.76875 3.00921875 -128.94375 2.22546875 -128.09375 1.41796875 C-127.49691406 0.82628906 -126.90007812 0.23460937 -126.28515625 -0.375 C-91.44520216 -33.42501149 -35.80564889 -27.96113173 0 0 Z " fill="#FECD56"/>
<path d="M0 0 C5.43016449 4.28076739 10.59334281 8.82214928 15.625 13.5625 C16.51058594 14.36880859 16.51058594 14.36880859 17.4140625 15.19140625 C23.55006413 20.99298125 28.54049191 27.85058808 33.625 34.5625 C34.41777344 35.59890625 35.21054687 36.6353125 36.02734375 37.703125 C49.86370845 56.3971818 60.78644843 77.05679169 71.22412109 97.78173828 C72.10959438 99.53941357 73.00223616 101.29351201 73.90478516 103.04248047 C76.625 108.34350361 76.625 108.34350361 76.625 110.5625 C75.35527344 110.52769531 74.08554687 110.49289062 72.77734375 110.45703125 C39.52618532 109.81783548 14.80096188 124.4336969 -8.64111328 146.88720703 C-22.10122447 159.8227333 -22.10122447 159.8227333 -34.296875 173.92578125 C-36.18387632 176.32000285 -38.14394752 178.63022428 -40.14257812 180.93139648 C-48.06079868 190.08149848 -55.23191248 199.80263018 -62.375 209.5625 C-62.83572906 210.19058563 -63.29645813 210.81867126 -63.77114868 211.46578979 C-72.24523422 223.03653873 -80.37856467 234.80331863 -88.3125 246.75 C-88.87771362 247.59934113 -89.44292725 248.44868225 -90.02526855 249.32376099 C-98.81567357 262.54422648 -107.33958335 275.86680406 -115.375 289.5625 C-116.5023173 291.46240983 -117.62993016 293.36214431 -118.7578125 295.26171875 C-131.50974418 316.83612452 -143.5278632 338.78495623 -155 361.0625 C-155.56672424 362.16109848 -155.56672424 362.16109848 -156.14489746 363.28189087 C-160.77936704 372.28047329 -165.2224008 381.32919069 -169.375 390.5625 C-173.49988695 389.2385633 -176.99635576 387.77965964 -180.6875 385.5 C-181.98107422 384.70916016 -181.98107422 384.70916016 -183.30078125 383.90234375 C-185.375 382.5625 -185.375 382.5625 -186.375 381.5625 C-186.49742524 378.6511165 -186.55404556 375.76267465 -186.5692749 372.84996033 C-186.57789055 371.92429986 -186.5865062 370.99863939 -186.59538293 370.04492861 C-186.62296985 366.91660957 -186.64310574 363.78828838 -186.66308594 360.65991211 C-186.68079988 358.42599771 -186.69880181 356.19208558 -186.71707153 353.95817566 C-186.87699399 333.43624663 -186.96087338 312.91365262 -187.02706528 292.39122677 C-187.03611242 289.63541039 -187.04532208 286.87959461 -187.0546875 284.1237793 C-187.05700741 283.43891611 -187.05932733 282.75405291 -187.06171754 282.04843629 C-187.1002302 271.03139335 -187.18054317 260.01506325 -187.27781627 248.99839931 C-187.37718547 237.64835834 -187.4325288 226.29882426 -187.45064378 214.9483071 C-187.46201339 208.59184482 -187.49157705 202.23678476 -187.56859589 195.88075066 C-187.87770359 169.21984203 -187.87267424 145.43675514 -176.79645538 120.7894001 C-174.81926109 116.3008959 -173.14486687 111.71562628 -171.45972824 107.11115932 C-155.0188754 62.52533864 -133.82968851 11.97718544 -88.4921875 -9.640625 C-59.46003443 -22.80843794 -25.40974006 -18.60995047 0 0 Z " fill="#FD6285"/>
<path d="M0 0 C1.05058594 0.46277344 2.10117187 0.92554688 3.18359375 1.40234375 C49.42463931 24.10653059 71.01346074 86.78843787 90.8805542 130.53533936 C91.99622398 132.99168641 93.11335167 135.44736511 94.23095703 137.90283203 C99.86202569 150.27605257 99.86202569 150.27605257 102.40600586 155.89697266 C102.70264633 156.55189194 102.9992868 157.20681122 103.30491638 157.88157654 C104.09778467 159.63259999 104.88974869 161.38403283 105.68164062 163.13549805 C106.47707836 164.86380748 107.30263515 166.5793016 108.18359375 168.265625 C109 170 109 170 108.90625 171.98828125 C104.16400958 182.51523735 86.13345579 189.73753269 75.92578125 193.60546875 C48.68050911 203.295096 17.9501344 202.23457698 -9 192 C-9.64211426 191.75797852 -10.28422852 191.51595703 -10.94580078 191.26660156 C-37.20942638 181.12151725 -59.13147756 162.74382356 -79.75390625 144.03515625 C-83.12944265 140.97662675 -86.5590502 137.98449727 -90 135 C-90.71833008 134.36819824 -90.71833008 134.36819824 -91.45117188 133.72363281 C-98.29933224 127.70110745 -105.26612236 121.91230734 -112.5625 116.4375 C-113.56216797 115.68690308 -113.56216797 115.68690308 -114.58203125 114.92114258 C-117.95813813 112.41779707 -121.34247139 110.08500192 -125 108 C-119.32875414 89.97554534 -110.31259613 73.36671952 -101 57 C-100.58186035 56.26313965 -100.1637207 55.5262793 -99.73291016 54.76708984 C-94.7476976 46.04657139 -89.29086877 37.84841505 -83 30 C-82.55817383 29.43925781 -82.11634766 28.87851562 -81.66113281 28.30078125 C-62.18919262 3.74743704 -31.47618128 -13.89264918 0 0 Z " fill="#36A2EA"/>
</svg>
