<svg xmlns="http://www.w3.org/2000/svg" viewBox="0 0 225 225" fill="currentColor">
  <path d="M0 0 C74.25 0 148.5 0 225 0 C225 74.25 225 148.5 225 225 C150.75 225 76.5 225 0 225 C0 150.75 0 76.5 0 0 Z" transform="translate(0,0)"/>
  <path d="M0 0 C60.06 0 120.12 0 182 0 C180.87490792 11.25092083 180.87490792 11.25092083 179.89257812 15.14257812 C179.56719055 16.45313171 179.56719055 16.45313171 179.23522949 17.79016113 C179.00291626 18.69472046 178.77060303 19.59927979 178.53125 20.53125 C178.29088013 21.48898315 178.05051025 22.44671631 177.80285645 23.43347168 C177.29848681 25.43760623 176.79075591 27.44089766 176.27978516 29.44335938 C175.49548483 32.51769878 174.72149803 35.59449613 173.94921875 38.671875 C173.45632003 40.6251492 172.96285109 42.57827961 172.46875 44.53125 C172.23643677 45.45200317 172.00412354 46.37275635 171.76477051 47.32141113 C171.54784546 48.16989624 171.33092041 49.01838135 171.10742188 49.89257812 C170.91724487 50.63963013 170.72706787 51.38668213 170.53112793 52.15637207 C170 54 170 54 169 56 C168.22485046 56.00586624 167.44970093 56.01173248 166.65106201 56.01777649 C159.29651925 56.07601291 151.94230339 56.14826239 144.58805466 56.23571491 C140.80839985 56.2801806 137.02884695 56.31948677 133.24902344 56.34643555 C129.59185864 56.37270912 125.93509117 56.41327457 122.27817535 56.46318626 C120.89260097 56.47969434 119.50695812 56.49130745 118.12129974 56.49761391 C100.27653146 56.5869366 85.37582842 60.9878456 72.21875 73.546875 C61.39113147 85.51825605 56.42129865 99.73043601 56.7578125 115.71484375 C57.85948496 130.65849765 64.80021324 145.03076306 76 155 C91.05879064 166.29409298 105.38472081 168.2602704 123.625 168.625 C125.21746732 168.66326332 126.80991579 168.70231961 128.40234375 168.7421875 C132.26807268 168.83726535 136.13389794 168.92162015 140 169 C137.8837959 188.04583688 131.7406158 206.43258812 127 225 C85.09 225 43.18 225 0 225 C0 150.75 0 76.5 0 0 Z" transform="translate(0,0)"/>
  <path d="M0 0 C0.33 0 0.66 0 1 0 C1.15855469 1.19753906 1.31710938 2.39507812 1.48046875 3.62890625 C4.86876023 27.84206227 13.60262817 49.23618933 30.49609375 67.1875 C32 69 32 69 32 71 C32.57105469 71.24621094 33.14210937 71.49242187 33.73046875 71.74609375 C36.36992137 73.20437996 38.15823313 74.95288115 40.3125 77.0625 C50.35426976 86.23427796 62.39144055 92.1445299 75 97 C76.23169922 97.47566406 76.23169922 97.47566406 77.48828125 97.9609375 C86.68640278 101.26115162 96.30590776 102.28747484 106 103 C106 103.33 106 103.66 106 104 C71.02 104 36.04 104 0 104 C0 69.68 0 35.36 0 0 Z" transform="translate(0,121)"/>
  <path d="M0 0 C33.33 0 66.66 0 101 0 C101 0.33 101 0.66 101 1 C99.741875 1.21914063 98.48375 1.43828125 97.1875 1.6640625 C74.87914958 5.72032543 54.9272673 13.4458886 38 29 C37.51047852 29.44714355 37.02095703 29.89428711 36.51660156 30.35498047 C15.39412376 49.86347059 4.69329316 74.83488628 1 103 C0.67 103 0.34 103 0 103 C0 69.01 0 35.02 0 0 Z" transform="translate(0,0)"/>
  <path d="M0 0 C4.62 0 9.24 0 14 0 C14 18.48 14 36.96 14 56 C4.76 56 -4.48 56 -14 56 C-12.66863926 48.67751592 -11.24496766 41.53300778 -9.43359375 34.3359375 C-9.19463882 33.37724762 -8.9556839 32.41855774 -8.70948792 31.43081665 C-8.20950643 29.42886744 -7.70777646 27.42735414 -7.2043457 25.42626953 C-6.43103773 22.3492867 -5.66539343 19.2704632 -4.90039062 16.19140625 C-4.41191167 14.23946983 -3.92299557 12.28764274 -3.43359375 10.3359375 C-3.20441757 9.4131601 -2.97524139 8.49038269 -2.73912048 7.53964233 C-2.52542313 6.69430939 -2.31172577 5.84897644 -2.09155273 4.97802734 C-1.90439194 4.23177094 -1.71723114 3.48551453 -1.5243988 2.71664429 C-1 1 -1 1 0 0 Z" transform="translate(211,169)"/>
  <path d="M0 0 C4.62 0 9.24 0 14 0 C13.33871571 6.60599024 11.91698822 12.854221 10.27734375 19.28125 C10.01240616 20.33534058 9.74746857 21.38943115 9.47450256 22.47546387 C8.63327478 25.81811383 7.78549209 29.15906039 6.9375 32.5 C6.3634975 34.77593205 5.78992523 37.05197266 5.21679688 39.328125 C3.81617385 44.8866853 2.40967258 50.44372812 1 56 C-3.62 56 -8.24 56 -13 56 C-12.33871571 49.39400976 -10.91698822 43.145779 -9.27734375 36.71875 C-8.87993736 35.13761414 -8.87993736 35.13761414 -8.47450256 33.52453613 C-7.63327478 30.18188617 -6.78549209 26.84093961 -5.9375 23.5 C-5.3634975 21.22406795 -4.78992523 18.94802734 -4.21679688 16.671875 C-2.81617385 11.1133147 -1.40967258 5.55627188 0 0 Z" transform="translate(154,169)"/>
  <path d="M0 0 C4.29 0 8.58 0 13 0 C12.43670033 7.07466194 11.29473963 13.66474061 9.53125 20.53125 C9.29088013 21.48898315 9.05051025 22.44671631 8.80285645 23.43347168 C8.29848681 25.43760623 7.79075591 27.44089766 7.27978516 29.44335938 C6.49548483 32.51769878 5.72149803 35.59449613 4.94921875 38.671875 C4.45632003 40.6251492 3.96285109 42.57827961 3.46875 44.53125 C3.23643677 45.45200317 3.00412354 46.37275635 2.76477051 47.32141113 C2.54784546 48.16989624 2.33092041 49.01838135 2.10742188 49.89257812 C1.91724487 50.63963013 1.72706787 51.38668213 1.53112793 52.15637207 C1 54 1 54 0 56 Z" transform="translate(183,169)"/>
  <path d="M0 0 C0.33 0 0.66 0 1 0 C1 17.82 1 35.64 1 54 C-3.62 54 -8.24 54 -13 54 C-11.74594918 46.74442023 -10.25451424 39.64274421 -8.3984375 32.51953125 C-8.0364476 31.11123299 -8.0364476 31.11123299 -7.66714478 29.67448425 C-6.90672647 26.71953947 -6.14096652 23.76601088 -5.375 20.8125 C-4.85381036 18.79110746 -4.33297392 16.76962382 -3.8125 14.74804688 C-2.54574049 9.83097039 -1.27419344 4.91515509 0 0 Z" transform="translate(224,171)"/>
</svg>
