<?xml version="1.0" encoding="UTF-8"?>
<svg version="1.1" xmlns="http://www.w3.org/2000/svg" width="1037" height="1200">
<path d="M0 0 C4.02719103 1.72572142 7.7372627 3.88884723 11.5 6.125 C13.14270874 7.07354858 13.14270874 7.07354858 14.81860352 8.04125977 C18.22208668 10.01138905 21.61139868 12.00440795 25 14 C27.01867116 15.17465641 29.0381703 16.34789137 31.05859375 17.51953125 C35.0142823 19.81679524 38.96425539 22.12346649 42.91015625 24.4375 C49.21570419 28.1321331 55.54294436 31.78852681 61.875 35.4375 C62.95515381 36.06003662 64.03530762 36.68257324 65.14819336 37.32397461 C67.33796334 38.58576826 69.52782355 39.84740534 71.71777344 41.10888672 C77.14659942 44.23680148 82.57319281 47.36858448 88 50.5 C90.16665583 51.75001879 92.3333225 53.00001878 94.5 54.25 C192 110.5 192 110.5 289.5 166.75 C290.57266113 167.36883057 291.64532227 167.98766113 292.75048828 168.62524414 C294.91557071 169.87435518 297.08060982 171.12354129 299.24560547 172.37280273 C304.68615706 175.51202309 310.12747216 178.64990563 315.5703125 181.78515625 C326.02206199 187.80747329 336.46299548 193.84669337 346.875 199.9375 C355.55262241 205.01275123 364.26605568 210.02258767 373 215 C382.72115617 220.5400173 392.40894658 226.13374809 402.06689453 231.78344727 C412.59084625 237.93766742 423.15380137 244.02369996 433.71777344 250.10888672 C440.22871257 253.86028024 446.73663194 257.61690994 453.24511719 261.37255859 C458.68585336 264.51182246 464.12731477 267.64981497 469.5703125 270.78515625 C474.96289747 273.89157997 480.35149375 277.00485349 485.73925781 280.11962891 C489.12153026 282.07008281 492.50977095 284.00989857 495.8984375 285.94921875 C498.09909845 287.21590243 500.29962432 288.48282084 502.5 289.75 C503.52754395 290.33467041 504.55508789 290.91934082 505.61376953 291.52172852 C506.55591309 292.06627686 507.49805664 292.6108252 508.46875 293.171875 C509.29826172 293.6472168 510.12777344 294.12255859 510.98242188 294.61230469 C513 296 513 296 515 299 C515.25170567 300.94742795 515.25170567 300.94742795 515.25415033 303.20764768 C515.25992604 304.07172534 515.26570176 304.935803 515.27165249 305.82606483 C515.26591531 307.25360379 515.26591531 307.25360379 515.26006222 308.70998192 C515.26386789 309.72328131 515.26767356 310.73658069 515.27159455 311.78058612 C515.28198193 315.20959947 515.27799104 318.63844948 515.27415466 322.06747437 C515.27860319 324.53725714 515.28391595 327.00703849 515.29002339 329.47681773 C515.30128026 334.86395749 515.3062353 340.25104933 515.30570221 345.63819695 C515.30491037 353.64899828 515.31544429 361.65975669 515.32811778 369.67054657 C515.35288362 385.64277145 515.36164324 401.61498597 515.36665427 417.5872274 C515.36704603 418.82859975 515.36704603 418.82859975 515.36744571 420.09505033 C515.36770598 420.92425154 515.36796626 421.75345274 515.36823442 422.60778126 C515.37131396 431.78750954 515.37781769 440.96723493 515.3844471 450.14696121 C515.40409707 477.86031898 515.42050049 505.57367362 515.42332363 533.2870388 C515.42346472 534.61725254 515.42346472 534.61725254 515.42360866 535.97433927 C515.42398716 539.56835884 515.42435115 543.16237841 515.42471164 546.75639798 C515.42498337 549.46162209 515.42526004 552.1668462 515.42553711 554.87207031 C515.42562513 555.76597863 515.42571315 556.65988695 515.42580384 557.5808834 C515.42871014 585.67634903 515.45081227 613.7717459 515.48706055 641.8671875 C515.52775751 673.41174085 515.55148198 704.95624734 515.55178314 736.50082839 C515.55187997 739.86235468 515.5520467 743.22388097 515.55226326 746.58540726 C515.55230737 747.41313778 515.55235149 748.2408683 515.55239694 749.09368157 C515.55351832 762.43287543 515.57094916 775.7720006 515.59408258 789.11117232 C515.61688847 802.50972106 515.6211741 815.90817664 515.60653328 829.30673765 C515.59836205 837.27313191 515.60414217 845.23923342 515.62971413 853.20559237 C515.64724477 859.14455422 515.63882717 865.08329046 515.62006903 871.02225514 C515.61655071 873.43206664 515.62158197 875.84190801 515.63577347 878.2516803 C515.65375806 881.51442191 515.64127258 884.77564254 515.62082577 888.0383358 C515.63967083 889.45885126 515.63967083 889.45885126 515.6588966 890.90806401 C515.59785446 895.42344096 515.50318157 897.36015543 512.63351589 901.00921595 C509.9106117 903.06757233 507.2114539 904.83177681 504.23046875 906.49609375 C503.10705078 907.12966797 501.98363281 907.76324219 500.82617188 908.41601562 C499.61328125 909.08984375 498.40039062 909.76367188 497.1875 910.4375 C495.28189183 911.50858577 493.37800603 912.58269154 491.47415161 913.65689087 C490.1837278 914.38470042 488.89277009 915.11156416 487.60128784 915.8374939 C481.69543568 919.15926001 475.84304947 922.56905962 470 926 C461.36570029 931.05744947 452.69392476 936.04607809 444 941 C434.27875494 946.53985933 424.59105132 952.13374932 414.93310547 957.78344727 C404.40915375 963.93766742 393.84619863 970.02369996 383.28222656 976.10888672 C377.85340058 979.23680148 372.42680719 982.36858448 367 985.5 C364.83334417 986.75001879 362.6666775 988.00001878 360.5 989.25 C358.89125 990.178125 358.89125 990.178125 357.25 991.125 C191.49999999 1086.75 191.49999999 1086.75 188.24951172 1088.62524414 C186.08442929 1089.87435518 183.91939018 1091.12354129 181.75439453 1092.37280273 C176.31384294 1095.51202309 170.87252784 1098.64990563 165.4296875 1101.78515625 C154.97793801 1107.80747329 144.53700452 1113.84669337 134.125 1119.9375 C124.85500223 1125.35921178 115.54168248 1130.70204915 106.21154785 1136.01922607 C97.0871716 1141.22045129 87.99867226 1146.48027878 78.93310547 1151.78344727 C71.67788274 1156.02617273 64.40646681 1160.23998054 57.125 1164.4375 C56.05113037 1165.05657227 54.97726074 1165.67564453 53.87084961 1166.31347656 C49.44649504 1168.86322796 45.02147413 1171.41182081 40.59619141 1173.95996094 C38.32536309 1175.26767278 36.05485246 1176.57593644 33.78466797 1177.88476562 C31.57562268 1179.15702103 29.36503933 1180.42661008 27.15283203 1181.69335938 C22.36471832 1184.44199625 17.6090178 1187.21461889 12.94140625 1190.1640625 C11.80070679 1190.87405396 11.80070679 1190.87405396 10.63696289 1191.59838867 C9.27900405 1192.44934312 7.93158391 1193.31753927 6.59936523 1194.20825195 C1.52832953 1197.36445586 -3.11105823 1198.18788672 -9 1197 C-13.2581637 1195.21406822 -17.08598104 1192.87480118 -21 1190.4375 C-22.72263516 1189.40391891 -24.4452912 1188.37037071 -26.16918945 1187.33889771 C-27.94753186 1186.27132141 -29.72014767 1185.19469823 -31.4921875 1184.11669922 C-36.93885287 1180.81497789 -42.47395273 1177.6663143 -48 1174.5 C-50.16707357 1173.25070556 -52.33373933 1172.00070347 -54.5 1170.75 C-55.5725 1170.13125 -56.645 1169.5125 -57.75 1168.875 C-78.33333333 1157 -98.91666667 1145.125 -119.5 1133.25 C-120.57266113 1132.63116943 -121.64532227 1132.01233887 -122.75048828 1131.37475586 C-124.91557071 1130.12564482 -127.08060982 1128.87645871 -129.24560547 1127.62719727 C-134.68615706 1124.48797691 -140.12747216 1121.35009437 -145.5703125 1118.21484375 C-156.02206199 1112.19252671 -166.46299548 1106.15330663 -176.875 1100.0625 C-185.55262241 1094.98724877 -194.26605568 1089.97741233 -203 1085 C-212.72115617 1079.4599827 -222.40894658 1073.86625191 -232.06689453 1068.21655273 C-242.59084625 1062.06233258 -253.15380137 1055.97630004 -263.71777344 1049.89111328 C-269.14659942 1046.76319852 -274.57319281 1043.63141552 -280 1040.5 C-282.16665583 1039.24998121 -284.3333225 1037.99998122 -286.5 1036.75 C-342.83333333 1004.25 -399.16666667 971.75 -455.5 939.25 C-456.5729834 938.6310083 -457.6459668 938.0120166 -458.75146484 937.37426758 C-460.91337884 936.12693452 -463.07516317 934.8793767 -465.23681641 933.6315918 C-470.72514585 930.46391168 -476.21582533 927.30043239 -481.7109375 924.14453125 C-492.03782672 918.20926062 -502.34514462 912.24742947 -512.5625 906.125 C-513.40796387 905.61880127 -514.25342773 905.11260254 -515.12451172 904.59106445 C-520.87038559 901.12961441 -520.87038559 901.12961441 -522 900 C-522.11112693 896.8205308 -522.15576259 893.66235042 -522.15936089 890.48202419 C-522.16440948 889.46517779 -522.16945808 888.44833138 -522.17465967 887.40067145 C-522.19050661 883.94757185 -522.19910056 880.49449125 -522.20773315 877.04136658 C-522.21746613 874.55894886 -522.22760482 872.07653271 -522.23811734 869.59411818 C-522.26283327 863.45761488 -522.28266996 857.32111134 -522.3003455 851.18458421 C-522.31518341 846.08077099 -522.33232561 840.97696981 -522.35092163 835.87316895 C-522.55539729 779.63914197 -522.66718113 723.40477428 -522.75161848 667.17045068 C-522.76388928 659.02517291 -522.77663199 650.8798959 -522.78955078 642.73461914 C-522.79096776 641.83455796 -522.79238474 640.93449677 -522.79384466 640.007161 C-522.84010408 610.8229865 -522.93114803 581.6391688 -523.04639695 552.4551916 C-523.16460949 522.46626054 -523.24051014 492.47752363 -523.26198688 462.48835938 C-523.26503264 458.25418239 -523.26854842 454.02000592 -523.27234268 449.78582954 C-523.27307268 448.95247569 -523.27380268 448.11912183 -523.2745548 447.26051483 C-523.28753032 433.8378982 -523.34495901 420.41582134 -523.41877765 406.99341682 C-523.49197167 393.50485479 -523.51775397 380.01686108 -523.4950311 366.52811372 C-523.48295406 358.51058277 -523.50720079 350.49506876 -523.58323127 342.47787899 C-523.63597924 336.49533805 -523.6210259 330.51500091 -523.57947291 324.53228731 C-523.57326758 322.10885826 -523.58920344 319.68525369 -523.62916015 317.26214611 C-523.90313686 299.60488655 -523.90313686 299.60488655 -520.74678674 295.28468545 C-517.28913629 292.13079613 -513.36478459 290.62366007 -509 289 C-506.96545239 287.85688801 -504.94748312 286.68311726 -502.95703125 285.46484375 C-500.90995526 284.28714651 -498.86174178 283.11142462 -496.8125 281.9375 C-495.10957218 280.95848887 -493.4066462 279.97947453 -491.7038269 279.00027466 C-489.95604539 277.99552701 -488.20779404 276.99160086 -486.45947266 275.98779297 C-480.96860763 272.8327737 -475.48452655 269.66602037 -470 266.5 C-467.83336859 265.24993888 -465.66670186 263.999939 -463.5 262.75 C-462.4275 262.13125 -461.355 261.5125 -460.25 260.875 C-424.5 240.25 -424.5 240.25 -421.24951172 238.37475586 C-419.08442929 237.12564482 -416.91939018 235.87645871 -414.75439453 234.62719727 C-409.31384294 231.48797691 -403.87252784 228.35009437 -398.4296875 225.21484375 C-387.97793801 219.19252671 -377.53700452 213.15330663 -367.125 207.0625 C-357.85500223 201.64078822 -348.54168248 196.29795085 -339.21154785 190.98077393 C-330.0871716 185.77954871 -320.99867226 180.51972122 -311.93310547 175.21655273 C-301.40915375 169.06233258 -290.84619863 162.97630004 -280.28222656 156.89111328 C-274.85340058 153.76319852 -269.42680719 150.63141552 -264 147.5 C-261.83334417 146.24998121 -259.6666775 144.99998122 -257.5 143.75 C-256.4275 143.13125 -255.355 142.5125 -254.25 141.875 C-190.33333333 105 -126.41666667 68.125 -62.5 31.25 C-61.42613037 30.63044434 -60.35226074 30.01088867 -59.24584961 29.37255859 C-57.09307184 28.13060256 -54.94024037 26.8887396 -52.78735352 25.64697266 C-47.75383085 22.74353087 -42.72081952 19.839215 -37.68978882 16.93145752 C-35.91637392 15.90654597 -34.14278354 14.88193877 -32.36914062 13.85742188 C-30.15004227 12.57547262 -27.93126984 11.29295893 -25.71289062 10.00976562 C-23.72186088 8.85987289 -21.72770632 7.71536818 -19.72998047 6.57714844 C-17.98275179 5.56774965 -16.25058359 4.53152179 -14.53955078 3.46191406 C-9.79007548 0.57022327 -5.63664736 -1.42940115 0 0 Z " fill="#EDE8DA" transform="translate(522,2)"/>
<path d="M0 0 C3.21577185 2.65825246 6.54146071 5.10043499 9.94140625 7.515625 C10.53332764 7.93642334 11.12524902 8.35722168 11.73510742 8.79077148 C15.86249376 11.70195541 20.05704237 14.49317741 24.33984375 17.171875 C24.82710937 17.5534375 25.314375 17.935 25.81640625 18.328125 C25.81640625 18.988125 25.81640625 19.648125 25.81640625 20.328125 C26.35394531 20.56660156 26.89148438 20.80507812 27.4453125 21.05078125 C36.05559621 25.68927017 43.71508432 32.98442253 51.1237793 39.34350586 C55.30536748 42.92854725 59.60503856 46.33495476 63.98828125 49.671875 C65.81640625 51.328125 65.81640625 51.328125 66.81640625 54.328125 C68.14296304 55.00817595 69.47811167 55.67147452 70.81640625 56.328125 C72.81513317 57.97728614 74.72957261 59.63467683 76.62890625 61.390625 C77.42566772 62.12273193 77.42566772 62.12273193 78.23852539 62.86962891 C81.98604645 66.38346555 85.230518 70.06631909 88.21875 74.2578125 C89.84603437 76.46411785 89.84603437 76.46411785 92.203125 78.671875 C95.04185373 81.55727939 97.38038106 84.64689746 99.69140625 87.953125 C100.12485352 88.56921631 100.55830078 89.18530762 101.00488281 89.82006836 C102.28438433 91.65005859 103.55288792 93.48707137 104.81640625 95.328125 C105.47382812 96.28589844 106.13125 97.24367188 106.80859375 98.23046875 C124.93575127 125.66290046 126.1527754 158.7888985 119.81640625 190.328125 C114.52374592 213.97169023 104.62969738 236.69328341 94.36328125 258.5703125 C93.01522505 261.60993229 92.13853089 263.96317615 92.81640625 267.328125 C94.00808085 269.1561298 94.00808085 269.1561298 95.75390625 270.765625 C111.23587542 287.59521497 116.99787078 308.88408439 117.81640625 331.328125 C117.84508789 332.0696582 117.87376953 332.81119141 117.90332031 333.57519531 C118.37226132 347.69684917 116.98939899 361.38334804 114.81640625 375.328125 C114.69313965 376.15666992 114.56987305 376.98521484 114.44287109 377.83886719 C110.61727833 402.5541425 99.59256073 426.07761349 83.81640625 445.328125 C83.24277344 446.04484375 82.66914062 446.7615625 82.078125 447.5 C72.35539823 459.17692248 60.96869909 467.89692408 47.81640625 475.328125 C46.78644531 475.91464844 45.75648438 476.50117187 44.6953125 477.10546875 C25.51871406 487.33125326 7.83023821 489.38707255 -12.85498047 483.09863281 C-17.48180541 481.56767669 -21.88941568 479.62468053 -26.30078125 477.5625 C-29.03775372 476.39057141 -31.21245255 475.51997021 -34.18359375 475.328125 C-46.72287292 482.13867467 -51.90091316 497.80660072 -56.23657227 510.38232422 C-57.59478895 515.22061452 -57.53818297 520.07968158 -57.59765625 525.07421875 C-57.6170224 526.08533218 -57.63638855 527.09644562 -57.65634155 528.13819885 C-57.71581365 531.34725682 -57.76239291 534.55635128 -57.80859375 537.765625 C-57.84680332 539.94988488 -57.88585677 542.13413017 -57.92578125 544.31835938 C-58.02148833 549.65481781 -58.10662932 554.9913651 -58.18359375 560.328125 C-64.90136719 559.61474609 -64.90136719 559.61474609 -67.44140625 557.03515625 C-68.05757812 556.07996094 -68.67375 555.12476563 -69.30859375 554.140625 C-78.69652581 539.9029106 -91.9492784 529.73956345 -108.18359375 524.328125 C-118.16155107 523.63539632 -123.92254918 524.45526671 -131.55859375 531.015625 C-132.77253261 532.11362588 -133.98282446 533.21573721 -135.18359375 534.328125 C-136.35578918 533.54466785 -137.52123043 532.75109664 -138.68359375 531.953125 C-139.33328125 531.51226563 -139.98296875 531.07140625 -140.65234375 530.6171875 C-141.15765625 530.19179688 -141.66296875 529.76640625 -142.18359375 529.328125 C-142.18359375 528.668125 -142.18359375 528.008125 -142.18359375 527.328125 C-142.87195313 527.07804688 -143.5603125 526.82796875 -144.26953125 526.5703125 C-147.62932531 525.13812147 -150.68311019 523.32392177 -153.80859375 521.453125 C-168.80543072 512.69017448 -186.58862124 507.93156282 -203.89648438 511.95947266 C-209.04752515 513.50573527 -214.03516449 515.44886845 -219.01806641 517.46484375 C-237.44338646 524.81004462 -257.09378385 526.49679107 -276.74609375 526.578125 C-278.62071289 526.6090625 -278.62071289 526.6090625 -280.53320312 526.640625 C-287.94362279 526.67177758 -294.24613419 526.00188503 -301.18359375 523.328125 C-301.18359375 522.668125 -301.18359375 522.008125 -301.18359375 521.328125 C-300.30175415 521.35169067 -300.30175415 521.35169067 -299.40209961 521.37573242 C-278.63151315 521.85575475 -260.28136618 520.77484385 -244.18359375 506.328125 C-243.42046875 505.6475 -242.65734375 504.966875 -241.87109375 504.265625 C-231.71019337 494.66921908 -224.97276478 483.00661234 -219.16748047 470.44824219 C-218.51978854 469.05257054 -217.86021732 467.66234066 -217.18798828 466.27832031 C-205.92318132 443.00101788 -200.15173946 414.91757537 -197.18359375 389.328125 C-193.60832377 392.0898605 -192.5277147 396.10582788 -191.05859375 400.203125 C-190.79433594 400.91082031 -190.53007812 401.61851562 -190.2578125 402.34765625 C-188.92436238 405.98249236 -187.80068719 409.49010481 -187.18359375 413.328125 C-184.69282706 402.6413728 -186.27807073 391.17419961 -187.35546875 380.36914062 C-187.55839883 378.3300836 -187.7506847 376.29023155 -187.94140625 374.25 C-188.67425309 366.57175457 -189.6071728 358.94325258 -190.76049805 351.31640625 C-192.21211855 341.06376059 -192.21211855 341.06376059 -189.18359375 335.953125 C-183.29108626 330.79718094 -176.99442167 329.79464496 -169.43359375 329.890625 C-168.61721436 329.89384766 -167.80083496 329.89707031 -166.9597168 329.90039062 C-159.91640092 330.05614787 -153.32658837 331.36579286 -146.47143555 332.88916016 C-128.84260177 336.68688403 -112.41534963 334.02606173 -97.05322266 324.57275391 C-90.88895902 320.46914774 -84.30560539 315.51114246 -80.18359375 309.328125 C-79.52359375 309.328125 -78.86359375 309.328125 -78.18359375 309.328125 C-77.82587891 308.47154297 -77.82587891 308.47154297 -77.4609375 307.59765625 C-75.92070855 304.86104151 -74.04934619 303.14490435 -71.74609375 301.015625 C-64.53161249 293.96326692 -63.05361695 286.96754875 -62.93359375 277.015625 C-62.97193934 253.14275778 -71.42171083 227.63050623 -85.18359375 208.328125 C-85.84746094 207.35359375 -86.51132812 206.3790625 -87.1953125 205.375 C-90.81794426 200.16524274 -94.46667252 195.82741886 -99.3828125 191.80859375 C-101.18359375 190.328125 -101.18359375 190.328125 -103.68359375 187.765625 C-121.47384541 170.42012963 -146.92597758 160.66899706 -171.55859375 160.890625 C-172.73526611 160.89747314 -173.91193848 160.90432129 -175.12426758 160.91137695 C-188.44280675 161.15663869 -200.99486562 163.05037237 -210.70703125 172.8828125 C-214.28866837 176.75854299 -217.72617569 180.73694099 -221.05859375 184.828125 C-222.99728331 187.10893625 -224.59964694 188.82776879 -227.18359375 190.328125 C-228.50359375 190.328125 -229.82359375 190.328125 -231.18359375 190.328125 C-231.5703125 189.14734375 -231.95703125 187.9665625 -232.35546875 186.75 C-232.88089073 185.19249914 -233.40696688 183.63521887 -233.93359375 182.078125 C-234.18625 181.30082031 -234.43890625 180.52351562 -234.69921875 179.72265625 C-236.18115874 175.38798177 -237.42284109 172.20051089 -241.18359375 169.328125 C-250.99241392 166.05851828 -261.2133635 169.77552747 -270.18359375 173.953125 C-281.54110502 179.93230513 -289.82453524 188.83671305 -298.18359375 198.328125 C-298.91707031 199.12476563 -299.65054688 199.92140625 -300.40625 200.7421875 C-310.45395984 211.69980555 -319.26050068 223.57364943 -318.7578125 239.0703125 C-318.04720141 245.77225297 -316.12555253 252.32686381 -314.3190918 258.80175781 C-310.5609725 272.44291701 -310.5609725 272.44291701 -313.46875 277.61328125 C-314.05527344 278.19980469 -314.64179688 278.78632813 -315.24609375 279.390625 C-315.88933594 280.05964844 -316.53257812 280.72867187 -317.1953125 281.41796875 C-318.41490131 282.58963658 -319.64453211 283.75109132 -320.890625 284.89453125 C-339.53352264 302.3149438 -346.91028645 330.76652224 -349.18359375 355.328125 C-349.27334473 356.20742676 -349.3630957 357.08672852 -349.45556641 357.99267578 C-350.05565767 364.54185838 -350.24264504 371.01615594 -350.17578125 377.5859375 C-350.16796631 378.38909393 -350.16015137 379.19225037 -350.15209961 380.01974487 C-350.1153732 383.3493168 -350.07265755 386.67857993 -350.01220703 390.0078125 C-349.97004186 392.47139566 -349.94651711 394.93459389 -349.92578125 397.3984375 C-349.90716034 398.15150177 -349.88853943 398.90456604 -349.86935425 399.68045044 C-349.84381509 404.84539105 -349.84381509 404.84539105 -351.58032227 407.3125 C-355.35198584 409.70173716 -360.51803505 407.6955671 -364.609375 406.79296875 C-377.99467063 403.22782621 -388.12158028 396.20727348 -395.18359375 384.328125 C-402.66917173 369.07778665 -405.36277629 355.65838342 -405.37109375 338.765625 C-405.38333984 337.48365234 -405.39558594 336.20167969 -405.40820312 334.88085938 C-405.42704284 322.44036477 -404.14419096 310.67542596 -400.05859375 298.890625 C-399.75655029 298.00463623 -399.45450684 297.11864746 -399.14331055 296.20581055 C-397.12390469 290.48906084 -394.80846479 285.01229354 -391.99609375 279.640625 C-391.67560059 279.02324463 -391.35510742 278.40586426 -391.02490234 277.76977539 C-389.20907936 274.50288603 -387.77517872 272.56248347 -384.18359375 271.328125 C-382.7879933 274.11932591 -382.96551087 276.53018192 -382.8671875 279.6484375 C-382.82529297 280.90527344 -382.78339844 282.16210938 -382.74023438 283.45703125 C-382.70091797 284.77574219 -382.66160156 286.09445312 -382.62109375 287.453125 C-382.57789863 288.79298251 -382.53428402 290.13282656 -382.49023438 291.47265625 C-382.38388394 294.75770315 -382.28185567 298.04282781 -382.18359375 301.328125 C-381.52359375 301.328125 -380.86359375 301.328125 -380.18359375 301.328125 C-379.88066406 300.34972656 -379.57773437 299.37132812 -379.265625 298.36328125 C-373.25146798 279.37337448 -373.25146798 279.37337448 -367.18359375 275.328125 C-366.19359375 275.328125 -365.20359375 275.328125 -364.18359375 275.328125 C-364.63430118 280.55633123 -365.43839448 285.37036936 -366.74609375 290.453125 C-368.24842144 297.16204913 -368.48276158 303.65009322 -368.49609375 310.515625 C-368.50133057 311.53221191 -368.50656738 312.54879883 -368.51196289 313.59619141 C-368.59958945 319.29522376 -368.59958945 319.29522376 -366.18359375 324.328125 C-363.1707242 318.41397367 -361.36157958 312.54430697 -359.74609375 306.140625 C-355.50956421 289.5990561 -349.45499319 277.0263424 -339.49609375 263.203125 C-334.09037451 255.52397243 -329.06976547 247.98130344 -330.18359375 238.328125 C-338.13942465 239.23062619 -338.13942465 239.23062619 -345.05859375 242.953125 C-348.18359375 245.328125 -348.18359375 245.328125 -351.12109375 245.640625 C-351.80171875 245.5375 -352.48234375 245.434375 -353.18359375 245.328125 C-352.64019583 240.76358249 -351.38895554 237.3553074 -349.18359375 233.328125 C-354.58487985 234.40838222 -357.48548272 235.06107381 -361.18359375 239.328125 C-361.84359375 239.328125 -362.50359375 239.328125 -363.18359375 239.328125 C-363.41046875 239.946875 -363.63734375 240.565625 -363.87109375 241.203125 C-365.5628921 243.94222709 -367.17603536 244.37836972 -370.18359375 245.328125 C-364.53031545 233.56703346 -356.34818123 224.45727463 -344.18359375 219.328125 C-340.51895721 218.23422888 -336.81313728 217.37999075 -333.05859375 216.65673828 C-328.87459605 215.84242284 -325.6216712 214.89070689 -322.18359375 212.328125 C-317.75997747 204.9554312 -316.72366372 197.52850325 -315.87109375 189.140625 C-308.62608335 122.93113111 -308.62608335 122.93113111 -295.18359375 95.328125 C-294.74708496 94.42223633 -294.31057617 93.51634766 -293.86083984 92.58300781 C-288.31742184 81.20009608 -282.39770848 70.98065614 -274.18359375 61.328125 C-273.24125818 60.19738842 -272.29987906 59.06585417 -271.359375 57.93359375 C-266.91028304 52.60543512 -262.3836275 47.34137059 -257.77734375 42.1484375 C-256.69404221 40.91113722 -255.63205193 39.65491954 -254.58984375 38.3828125 C-250.58437435 33.56491299 -246.16768792 29.76446169 -241.265625 25.875 C-237.80436352 23.01474337 -234.56395375 19.97978061 -231.30859375 16.890625 C-210.82627898 -2.37713524 -186.05465978 -15.59885202 -158.18359375 -20.671875 C-157.48105469 -20.8064209 -156.77851563 -20.9409668 -156.0546875 -21.07958984 C-106.2906035 -30.30758194 -40.68098038 -34.67886852 0 0 Z " fill="#786956" transform="translate(659.18359375,215.671875)"/>
<path d="M0 0 C1.23803879 -0.00570007 2.47607758 -0.01140015 3.75163269 -0.01727295 C6.3610246 -0.02666526 8.97042805 -0.03323378 11.57983398 -0.03710938 C15.49419906 -0.04675483 19.40802461 -0.07781053 23.32226562 -0.109375 C58.83851552 -0.25938921 86.65037365 5.61623573 115.73046875 26.203125 C116.62636719 26.82960937 117.52226563 27.45609375 118.4453125 28.1015625 C120.25454322 29.40522611 122.00298216 30.79293186 123.73046875 32.203125 C123.73046875 32.863125 123.73046875 33.523125 123.73046875 34.203125 C124.58656738 34.6062793 124.58656738 34.6062793 125.45996094 35.01757812 C129.56941125 37.16332982 133.22521993 39.99817233 136.98046875 42.703125 C137.8209375 43.29738281 138.66140625 43.89164063 139.52734375 44.50390625 C140.32140625 45.07496094 141.11546875 45.64601562 141.93359375 46.234375 C143.02655762 47.01651367 143.02655762 47.01651367 144.14160156 47.81445312 C144.66592773 48.27271484 145.19025391 48.73097656 145.73046875 49.203125 C145.73046875 49.863125 145.73046875 50.523125 145.73046875 51.203125 C146.37886719 51.409375 147.02726562 51.615625 147.6953125 51.828125 C151.95895419 53.75965894 155.52775063 56.44277977 159.29296875 59.203125 C160.0914624 59.78400879 160.88995605 60.36489258 161.71264648 60.96337891 C167.36214737 65.10903944 172.78555753 69.435365 178.11328125 73.98828125 C181.22347065 76.62033705 184.43567945 79.09200161 187.6953125 81.53515625 C190.21794996 83.60265374 192.44604298 85.87483286 194.73046875 88.203125 C195.75760161 89.22158022 196.78632242 90.23843579 197.81640625 91.25390625 C203.67692743 97.05614893 209.46886562 102.84266127 214.73046875 109.203125 C215.32730469 109.89921875 215.92414062 110.5953125 216.5390625 111.3125 C231.70629278 129.50096931 242.3361477 150.47066118 248.73046875 173.203125 C249.51420924 175.58080186 250.32470507 177.94597404 251.15234375 180.30859375 C252.70429117 185.39436739 252.90456365 190.33835767 252.93359375 195.625 C252.93929382 196.44325256 252.9449939 197.26150513 252.9508667 198.10455322 C252.96029714 199.83938313 252.9668429 201.57423079 252.97070312 203.30908203 C252.98028366 205.90301151 253.01127134 208.49610424 253.04296875 211.08984375 C253.15117784 227.52406231 250.46229093 242.17535631 245.41796875 257.828125 C245.01916504 259.0850415 244.62036133 260.34195801 244.20947266 261.63696289 C240.1072617 274.40813762 235.31108354 286.45783018 229.1484375 298.375 C226.82729705 303.00449226 226.01546495 307.07030108 226.73046875 312.203125 C227.96086712 315.58690179 229.61668768 318.70875624 231.29296875 321.890625 C253.29931599 365.87211587 251.10140465 406.63601029 235.97363281 452.49755859 C234.46357169 456.84254579 232.65151895 461.02846184 230.73046875 465.203125 C230.3128125 466.12689941 229.89515625 467.05067383 229.46484375 468.00244141 C223.49831481 481.12183867 217.30189707 493.59722206 208.73046875 505.203125 C207.95786576 506.29133485 207.18572879 507.37987572 206.4140625 508.46875 C189.00986343 532.52621818 165.90891696 549.24572504 136.73046875 555.203125 C135.82683594 555.39519531 134.92320312 555.58726562 133.9921875 555.78515625 C115.00813255 558.21784353 95.51877817 556.24979922 77.73046875 549.203125 C76.50855266 552.21091845 75.32462798 555.23222947 74.16796875 558.265625 C73.79478516 559.24208984 73.79478516 559.24208984 73.4140625 560.23828125 C72.17620436 563.79623921 71.60819259 566.9022315 71.64868164 570.67700195 C71.65521255 571.55503983 71.66174347 572.4330777 71.66847229 573.33772278 C71.67990768 574.27943832 71.69134308 575.22115387 71.703125 576.19140625 C71.71577415 578.19726388 71.7281349 580.20312335 71.74023438 582.20898438 C71.76501712 585.36228184 71.79296725 588.51548328 71.82641602 591.66870117 C71.85673416 594.71794221 71.87443052 597.76706197 71.890625 600.81640625 C71.91081444 602.21987053 71.91081444 602.21987053 71.93141174 603.65168762 C71.95143933 608.91231708 71.4590675 613.22535742 69.73046875 618.203125 C62.91808899 618.50879056 56.10748839 618.71807593 49.28979492 618.86230469 C46.97401883 618.92245052 44.65869472 619.00419744 42.34448242 619.10839844 C23.59050907 619.93133037 23.59050907 619.93133037 18.83883667 617.06008911 C15.52674637 613.96878271 13.7387589 610.19060429 11.73046875 606.203125 C6.75235561 600.77571056 1.91995299 597.00049606 -5.26953125 595.203125 C-9.58664788 595.203125 -11.46174905 597.16294181 -14.625 599.92578125 C-20.9017654 604.80108359 -28.62350166 605.10325282 -36.26953125 604.203125 C-42.75342918 602.37565695 -49.09935547 598.48104822 -54.26953125 594.203125 C-54.26953125 593.543125 -54.26953125 592.883125 -54.26953125 592.203125 C-55.36201172 591.79900391 -55.36201172 591.79900391 -56.4765625 591.38671875 C-59.20216986 590.23167115 -61.47909307 588.87526088 -63.95703125 587.265625 C-72.26382616 582.23976832 -80.54713169 580.00796815 -90.26953125 581.203125 C-94.39099854 582.23349182 -98.30015224 583.69845342 -102.26953125 585.203125 C-131.62367132 595.87868539 -166.5854127 605.59242664 -197.26953125 594.203125 C-205.17793229 590.38136182 -211.67566859 585.39085032 -215.64453125 577.453125 C-216.91466326 570.84843856 -217.21267583 564.84294348 -214.26953125 558.703125 C-213.35301519 556.51916279 -213.35301519 556.51916279 -213.26953125 554.203125 C-214.97162816 550.67284992 -217.40485078 547.83309339 -219.91601562 544.84179688 C-235.50069334 525.97376715 -246.42221096 502.9251805 -252.26953125 479.203125 C-253.36007812 478.96529297 -253.36007812 478.96529297 -254.47265625 478.72265625 C-262.13389294 476.94485645 -269.12129825 474.46584253 -276.26953125 471.203125 C-277.77193359 470.53990234 -277.77193359 470.53990234 -279.3046875 469.86328125 C-296.64189452 461.78749837 -308.59129863 447.97015925 -315.26953125 430.203125 C-328.63901789 387.23889167 -319.72118893 340.77980402 -299.15234375 301.59765625 C-297.12630237 297.94489699 -294.96310688 294.4767281 -292.5546875 291.06640625 C-291.08550486 289.00989087 -291.08550486 289.00989087 -289.45703125 285.828125 C-282.2047952 272.88198461 -270.43245935 262.37509232 -258.26953125 254.203125 C-257.03203125 253.36587891 -257.03203125 253.36587891 -255.76953125 252.51171875 C-248.69697109 247.98936057 -240.78058054 244.203125 -232.26953125 244.203125 C-232.23214844 243.15898437 -232.19476563 242.11484375 -232.15625 241.0390625 C-230.73824223 207.20219398 -224.59817869 170.06150729 -210.26953125 139.203125 C-209.74948189 137.97191153 -209.23420002 136.73867786 -208.72265625 135.50390625 C-202.2254424 119.93833776 -194.09501364 106.20286558 -183.64941406 92.95751953 C-182.46147701 91.44716644 -181.29677615 89.91858942 -180.13671875 88.38671875 C-169.86989535 75.20089654 -157.41182125 63.46998779 -144.26953125 53.203125 C-142.1428972 51.4627194 -140.02661482 49.71018875 -137.91088867 47.95654297 C-131.44644696 42.59863986 -124.98171184 37.24987732 -118.26953125 32.203125 C-117.46 31.584375 -116.65046875 30.965625 -115.81640625 30.328125 C-89.16613755 10.37938585 -58.05371501 3.99972033 -25.26953125 1.203125 C-24.43474243 1.12284561 -23.59995361 1.04256622 -22.73986816 0.95985413 C-15.14875992 0.2628651 -7.62067142 0.0280051 0 0 Z M-72.26953125 33.203125 C-73.50316406 33.65558594 -74.73679687 34.10804688 -76.0078125 34.57421875 C-90.08616771 39.88759772 -103.05944678 45.9883284 -114.26953125 56.203125 C-115.51089844 57.31880859 -115.51089844 57.31880859 -116.77734375 58.45703125 C-118.43787753 59.95359383 -120.09414582 61.45490295 -121.74609375 62.9609375 C-124.32035483 65.24828404 -126.96242614 67.41860771 -129.64453125 69.578125 C-133.70288414 72.87194399 -137.65083631 76.25317696 -141.51953125 79.765625 C-142.91945313 81.03599609 -142.91945313 81.03599609 -144.34765625 82.33203125 C-147.91123133 85.72870703 -151.08381515 89.45530078 -154.26953125 93.203125 C-154.83269043 93.86546143 -155.39584961 94.52779785 -155.97607422 95.21020508 C-160.14437577 100.15079392 -164.22638298 105.15977998 -168.26953125 110.203125 C-168.73294922 110.77772461 -169.19636719 111.35232422 -169.67382812 111.94433594 C-178.67701579 123.27115062 -185.00244161 136.22714608 -191.26953125 149.203125 C-191.65302734 149.9863916 -192.03652344 150.7696582 -192.43164062 151.57666016 C-205.42289843 178.78417348 -207.20028134 214.30094445 -209.79296875 244 C-210.38561616 250.15639754 -212.46563 255.49727312 -215.89453125 260.640625 C-220.41158257 263.61236929 -225.75107941 264.64064656 -230.98046875 265.80859375 C-243.06442405 268.66511613 -251.85642832 275.31386113 -259.26953125 285.203125 C-260.84415354 287.83742554 -262.06352135 290.37162349 -263.26953125 293.203125 C-259.52524189 292.12222486 -259.52524189 292.12222486 -257.20703125 289.203125 C-256.89765625 288.543125 -256.58828125 287.883125 -256.26953125 287.203125 C-254.39453125 286.140625 -254.39453125 286.140625 -252.26953125 285.203125 C-251.65078125 284.6875 -251.03203125 284.171875 -250.39453125 283.640625 C-247.73167891 281.83928371 -245.431174 281.56240259 -242.26953125 281.203125 C-242.55828125 281.73421875 -242.84703125 282.2653125 -243.14453125 282.8125 C-243.51578125 283.51890625 -243.88703125 284.2253125 -244.26953125 284.953125 C-244.64078125 285.64921875 -245.01203125 286.3453125 -245.39453125 287.0625 C-246.52177774 289.43480257 -246.52177774 289.43480257 -246.26953125 293.203125 C-244.06596369 293.62616006 -244.06596369 293.62616006 -241.26953125 293.203125 C-239.6341799 291.96025798 -238.00030592 290.7152391 -236.3828125 289.44921875 C-232.39574533 287.09824938 -227.80373736 286.75247728 -223.26953125 286.203125 C-221.73386994 297.17213438 -229.13391377 306.91850393 -235.33203125 315.390625 C-246.5844466 330.77417921 -252.03399239 347.93237873 -256.34765625 366.3671875 C-257.26049833 369.17533729 -257.98767584 370.39558785 -260.26953125 372.203125 C-264.28563483 360.15481426 -261.56896624 344.63059089 -258.14453125 332.69921875 C-257.31117562 329.36951655 -257.10127266 326.61561945 -257.26953125 323.203125 C-259.61101356 323.08098606 -259.61101356 323.08098606 -262.26953125 324.203125 C-267.00644534 329.50733419 -269.08120267 336.57763249 -271.26953125 343.203125 C-271.68203125 344.42 -272.09453125 345.636875 -272.51953125 346.890625 C-272.76703125 347.65375 -273.01453125 348.416875 -273.26953125 349.203125 C-273.92953125 349.203125 -274.58953125 349.203125 -275.26953125 349.203125 C-275.2945874 348.36539551 -275.31964355 347.52766602 -275.34545898 346.66455078 C-275.44053482 343.55960244 -275.5397715 340.45482319 -275.6418457 337.35009766 C-275.70651376 335.34417693 -275.76636231 333.33810272 -275.82617188 331.33203125 C-275.86806641 330.07519531 -275.90996094 328.81835938 -275.953125 327.5234375 C-275.98978271 326.36086426 -276.02644043 325.19829102 -276.06420898 324.00048828 C-276.08774784 321.2495749 -276.08774784 321.2495749 -277.26953125 319.203125 C-281.56073187 320.67792787 -283.09572203 323.68930837 -285.08203125 327.515625 C-285.5937085 328.49293579 -285.5937085 328.49293579 -286.11572266 329.48999023 C-288.92514585 335.08610665 -291.12554174 340.84329168 -293.14453125 346.765625 C-293.57342651 348.00276245 -293.57342651 348.00276245 -294.01098633 349.26489258 C-297.95236755 361.40377878 -298.59712162 373.7110647 -298.51953125 386.390625 C-298.52726562 387.66615234 -298.535 388.94167969 -298.54296875 390.25585938 C-298.52131338 400.79661094 -297.35555344 410.42184442 -293.51953125 420.265625 C-293.25930176 420.94536377 -292.99907227 421.62510254 -292.73095703 422.32543945 C-287.35355676 435.93365328 -279.95834092 445.11770013 -266.609375 451.46875 C-256.73770886 455.59841827 -256.73770886 455.59841827 -246.26953125 456.203125 C-244.49434085 455.21356705 -244.49434085 455.21356705 -243.26953125 453.203125 C-243.03082048 450.54767999 -242.96799372 448.13290613 -243.046875 445.484375 C-243.05667892 444.71827408 -243.06648285 443.95217316 -243.07658386 443.16285706 C-243.09782346 441.52442858 -243.12516364 439.88606994 -243.15802002 438.24783325 C-243.23958052 434.01313694 -243.26757527 429.77834325 -243.2890625 425.54296875 C-243.29343323 424.71840683 -243.29780396 423.89384491 -243.30230713 423.04429626 C-243.31970344 414.31404576 -242.53544569 405.83273893 -241.26953125 397.203125 C-241.14835937 396.0378125 -241.0271875 394.8725 -240.90234375 393.671875 C-238.01489012 367.9794305 -227.09609246 345.25417475 -208.4921875 327.41796875 C-205.55589476 324.4919969 -205.30057442 323.82331348 -205.08984375 319.61328125 C-205.14880423 315.10890364 -206.03464563 310.9896449 -207.14453125 306.640625 C-207.40556641 305.56651367 -207.40556641 305.56651367 -207.671875 304.47070312 C-208.48966012 301.1420148 -209.37202665 297.8665621 -210.37109375 294.5859375 C-213.40347792 283.1683519 -210.99678799 273.29455137 -205.26953125 263.203125 C-199.91089652 254.78694504 -193.09129828 247.76017372 -185.94921875 240.85546875 C-183.84017511 238.76794596 -181.97541194 236.71284373 -180.14453125 234.390625 C-171.5970156 224.15348416 -157.06936826 217.19311006 -143.92578125 215.98828125 C-139.01382758 215.78361651 -135.20567817 215.99928449 -131.26953125 219.203125 C-129.54597205 222.75576743 -128.42189241 226.4336236 -127.26953125 230.203125 C-126.69896933 231.7703337 -126.11731856 233.33359759 -125.51953125 234.890625 C-124.90078125 236.5303125 -124.90078125 236.5303125 -124.26953125 238.203125 C-118.87851916 237.87639699 -115.87398662 234.90830367 -112.26953125 231.203125 C-110.72823019 229.36593718 -109.20849311 227.51051279 -107.70703125 225.640625 C-101.37517695 217.78699731 -96.00972237 214.1302953 -86.26953125 211.203125 C-85.09777344 210.84476563 -83.92601562 210.48640625 -82.71875 210.1171875 C-66.42084508 206.16763625 -47.84916681 208.56299732 -32.26953125 214.203125 C-31.63273437 214.42774414 -30.9959375 214.65236328 -30.33984375 214.88378906 C-15.59953656 220.22481809 -0.95669141 229.71442783 9.73046875 241.203125 C10.69533203 242.17765625 10.69533203 242.17765625 11.6796875 243.171875 C22.51824661 254.52115156 30.8590886 268.7297928 35.73046875 283.640625 C35.98465576 284.41051758 36.23884277 285.18041016 36.50073242 285.97363281 C41.83172048 302.51401281 49.19546433 325.65925644 40.73046875 342.203125 C37.83140448 346.24749862 34.33934996 349.61257299 30.79296875 353.078125 C28.49831029 354.94876199 28.49831029 354.94876199 28.73046875 357.203125 C28.07046875 357.203125 27.41046875 357.203125 26.73046875 357.203125 C25.98796875 358.151875 25.24546875 359.100625 24.48046875 360.078125 C14.590175 372.0046557 -1.16007051 380.02789809 -16.26953125 382.203125 C-25.2934175 382.98781076 -33.28273998 382.15852306 -42.08203125 380.203125 C-48.94204678 378.67985553 -55.48404435 377.79339757 -62.51953125 377.765625 C-63.28112549 377.75595703 -64.04271973 377.74628906 -64.82739258 377.73632812 C-71.54946003 377.83742302 -77.09959492 379.30443071 -82.26953125 383.828125 C-86.19887591 390.45889412 -84.08641638 398.39047973 -82.89453125 405.703125 C-76.77550701 445.88532274 -76.77550701 445.88532274 -80.26953125 461.203125 C-80.50027344 460.30851562 -80.73101562 459.41390625 -80.96875 458.4921875 C-83.01579793 450.90273709 -85.41407256 444.06078514 -89.26953125 437.203125 C-89.59953125 437.203125 -89.92953125 437.203125 -90.26953125 437.203125 C-90.35928223 437.76894287 -90.4490332 438.33476074 -90.54150391 438.91772461 C-92.90626136 453.62015498 -95.93970729 468.05286688 -99.59082031 482.48876953 C-100.17239789 484.81466143 -100.72533736 487.14386439 -101.26171875 489.48046875 C-103.5190874 498.83955914 -107.0964999 507.31352323 -111.21386719 515.97753906 C-112.23266698 518.12540652 -113.22447222 520.28422711 -114.21484375 522.4453125 C-122.08501534 539.26285794 -134.23759795 555.86457432 -151.26953125 564.203125 C-162.09376948 568.09605278 -172.28696253 569.36221634 -183.70703125 569.265625 C-184.72474609 569.26111328 -185.74246094 569.25660156 -186.79101562 569.25195312 C-189.28391634 569.24024937 -191.77669199 569.22385348 -194.26953125 569.203125 C-194.26953125 569.863125 -194.26953125 570.523125 -194.26953125 571.203125 C-186.20576364 574.27630997 -178.77539568 574.63881414 -170.20703125 574.515625 C-168.92006348 574.5043457 -167.6330957 574.49306641 -166.30712891 574.48144531 C-156.82570574 574.34533119 -147.61416527 573.84725591 -138.26953125 572.203125 C-137.53154297 572.07953613 -136.79355469 571.95594727 -136.03320312 571.82861328 C-125.00592355 569.93171886 -114.75981832 566.85865418 -104.34375 562.7890625 C-103.63677979 562.51489502 -102.92980957 562.24072754 -102.20141602 561.95825195 C-100.57650814 561.32311483 -98.95744884 560.67304371 -97.33984375 560.01953125 C-79.78893126 555.35268556 -61.37942978 560.78689163 -46.1015625 569.45703125 C-44.04494556 570.72504197 -42.02550834 572.05398265 -40.03125 573.41796875 C-37.53766381 575.3840774 -37.53766381 575.3840774 -35.26953125 575.203125 C-35.26953125 575.863125 -35.26953125 576.523125 -35.26953125 577.203125 C-33.71097144 578.56024666 -33.71097144 578.56024666 -31.76953125 579.828125 C-31.11984375 580.27414062 -30.47015625 580.72015625 -29.80078125 581.1796875 C-29.29546875 581.51742187 -28.79015625 581.85515625 -28.26953125 582.203125 C-27.38201172 581.37167969 -27.38201172 581.37167969 -26.4765625 580.5234375 C-25.68636719 579.79898438 -24.89617187 579.07453125 -24.08203125 578.328125 C-23.30472656 577.60882812 -22.52742188 576.88953125 -21.7265625 576.1484375 C-15.5232906 571.23710299 -8.87941676 571.49998938 -1.26953125 572.203125 C15.02406288 576.16386768 29.07772513 589.19040036 38.63671875 602.3828125 C40.89899219 605.58790487 40.89899219 605.58790487 43.73046875 608.203125 C45.39653274 608.247942 47.06450448 608.25150698 48.73046875 608.203125 C48.73457764 606.88820068 48.73868652 605.57327637 48.74291992 604.21850586 C48.76493843 599.2698823 48.81945834 594.32202849 48.88305664 589.3737793 C48.90604057 587.24527447 48.92058556 585.11665908 48.92602539 582.98803711 C48.96535707 570.12052758 49.55018959 559.10404953 54.73046875 547.203125 C55.19694824 546.09936523 55.66342773 544.99560547 56.14404297 543.85839844 C59.55376311 536.08230229 64.49766323 529.92099994 70.73046875 524.203125 C74.32697343 523.00429011 75.1012198 523.47619363 78.54296875 524.828125 C79.52007813 525.20066406 80.4971875 525.57320312 81.50390625 525.95703125 C82.56867188 526.36824219 83.6334375 526.77945312 84.73046875 527.203125 C103.65860183 534.28493223 117.16367485 537.3649308 136.73046875 531.203125 C137.79136719 530.87570312 138.85226562 530.54828125 139.9453125 530.2109375 C155.89026268 524.70158523 169.50756379 514.59835034 181.73046875 503.203125 C182.5090625 502.49414062 183.28765625 501.78515625 184.08984375 501.0546875 C189.41338693 495.99938487 193.54529381 490.20939403 197.73046875 484.203125 C198.13104492 483.66743896 198.53162109 483.13175293 198.94433594 482.57983398 C202.05434557 478.38795314 204.43717608 474.13268162 206.60546875 469.390625 C206.94425049 468.65271729 207.28303223 467.91480957 207.63208008 467.15454102 C208.67970594 464.84370932 209.70782999 462.52511074 210.73046875 460.203125 C211.04838379 459.49220703 211.36629883 458.78128906 211.69384766 458.04882812 C222.63883412 433.23177438 225.40828333 406.06870784 224.73046875 379.203125 C224.70339844 377.25986328 224.70339844 377.25986328 224.67578125 375.27734375 C224.0472694 358.06721053 218.70037853 342.50444688 209.79296875 327.953125 C209.37378174 327.26645752 208.95459473 326.57979004 208.52270508 325.87231445 C206.47805352 322.62366532 204.76173102 320.23078171 201.8515625 317.65625 C199.73046875 315.203125 199.73046875 315.203125 199.92944336 311.97680664 C200.73768716 308.1691186 201.88592036 304.94195643 203.42578125 301.37109375 C203.82824821 300.42697884 203.82824821 300.42697884 204.23884583 299.46379089 C204.8097686 298.12635704 205.38427692 296.79044883 205.96212769 295.45599365 C207.1698809 292.66371675 208.35634753 289.86257253 209.54386902 287.06164551 C210.4160835 285.004738 211.29072226 282.94887319 212.16552734 280.89306641 C227.8789331 243.89773517 238.13745836 201.13138445 222.73046875 162.203125 C218.04623174 151.7583772 211.36564033 142.47707558 204.73046875 133.203125 C204.11558594 132.33945312 203.50070312 131.47578125 202.8671875 130.5859375 C200.0850147 126.77572668 197.11287742 123.506873 193.73046875 120.203125 C192.30879493 118.60339418 190.89271895 116.99868112 189.48046875 115.390625 C185.23597746 110.64845466 180.81769448 106.05349881 175.73046875 102.203125 C175.07046875 102.203125 174.41046875 102.203125 173.73046875 102.203125 C173.47394531 101.60854492 173.21742188 101.01396484 172.953125 100.40136719 C171.61233696 97.9907331 170.30618854 96.75586465 168.16796875 95.03125 C167.45842041 94.4532666 166.74887207 93.8752832 166.01782227 93.27978516 C165.26299561 92.6769873 164.50816895 92.07418945 163.73046875 91.453125 C162.95952881 90.82841309 162.18858887 90.20370117 161.39428711 89.56005859 C159.17861395 87.76731622 156.9557191 85.98395641 154.73046875 84.203125 C153.24740234 83.00816406 153.24740234 83.00816406 151.734375 81.7890625 C150.16543363 80.52888879 148.59280814 79.27328074 147.015625 78.0234375 C145.32547365 76.67709471 143.64759044 75.31531838 141.9765625 73.9453125 C141.07035156 73.20539063 140.16414063 72.46546875 139.23046875 71.703125 C138.0084375 70.69765625 138.0084375 70.69765625 136.76171875 69.671875 C134.87812394 68.00780979 134.87812394 68.00780979 132.73046875 68.203125 C132.73046875 67.543125 132.73046875 66.883125 132.73046875 66.203125 C131.08435323 64.88494621 131.08435323 64.88494621 128.91796875 63.578125 C121.50102636 58.78368405 114.42802321 53.58170725 107.52734375 48.07348633 C62.85939599 12.4544394 -19.73390259 13.55239367 -72.26953125 33.203125 Z " fill="#FEFEFE" transform="translate(552.26953125,167.796875)"/>
<path d="M0 0 C4.02719103 1.72572142 7.7372627 3.88884723 11.5 6.125 C13.14270874 7.07354858 13.14270874 7.07354858 14.81860352 8.04125977 C18.22208668 10.01138905 21.61139868 12.00440795 25 14 C27.01867116 15.17465641 29.0381703 16.34789137 31.05859375 17.51953125 C35.0142823 19.81679524 38.96425539 22.12346649 42.91015625 24.4375 C49.21570419 28.1321331 55.54294436 31.78852681 61.875 35.4375 C62.95515381 36.06003662 64.03530762 36.68257324 65.14819336 37.32397461 C67.33796334 38.58576826 69.52782355 39.84740534 71.71777344 41.10888672 C77.14659942 44.23680148 82.57319281 47.36858448 88 50.5 C90.16665583 51.75001879 92.3333225 53.00001878 94.5 54.25 C192 110.5 192 110.5 289.5 166.75 C290.57266113 167.36883057 291.64532227 167.98766113 292.75048828 168.62524414 C294.91557071 169.87435518 297.08060982 171.12354129 299.24560547 172.37280273 C304.68615706 175.51202309 310.12747216 178.64990563 315.5703125 181.78515625 C326.02206199 187.80747329 336.46299548 193.84669337 346.875 199.9375 C355.55262241 205.01275123 364.26605568 210.02258767 373 215 C382.72115617 220.5400173 392.40894658 226.13374809 402.06689453 231.78344727 C412.59084625 237.93766742 423.15380137 244.02369996 433.71777344 250.10888672 C440.22871257 253.86028024 446.73663194 257.61690994 453.24511719 261.37255859 C458.68585336 264.51182246 464.12731477 267.64981497 469.5703125 270.78515625 C474.96289747 273.89157997 480.35149375 277.00485349 485.73925781 280.11962891 C489.12153026 282.07008281 492.50977095 284.00989857 495.8984375 285.94921875 C498.09909845 287.21590243 500.29962432 288.48282084 502.5 289.75 C503.52754395 290.33467041 504.55508789 290.91934082 505.61376953 291.52172852 C506.55591309 292.06627686 507.49805664 292.6108252 508.46875 293.171875 C509.29826172 293.6472168 510.12777344 294.12255859 510.98242188 294.61230469 C513 296 513 296 515 299 C515.25170567 300.94742795 515.25170567 300.94742795 515.25415033 303.20764768 C515.25992604 304.07172534 515.26570176 304.935803 515.27165249 305.82606483 C515.26591531 307.25360379 515.26591531 307.25360379 515.26006222 308.70998192 C515.26386789 309.72328131 515.26767356 310.73658069 515.27159455 311.78058612 C515.28198193 315.20959947 515.27799104 318.63844948 515.27415466 322.06747437 C515.27860319 324.53725714 515.28391595 327.00703849 515.29002339 329.47681773 C515.30128026 334.86395749 515.3062353 340.25104933 515.30570221 345.63819695 C515.30491037 353.64899828 515.31544429 361.65975669 515.32811778 369.67054657 C515.35288362 385.64277145 515.36164324 401.61498597 515.36665427 417.5872274 C515.36704603 418.82859975 515.36704603 418.82859975 515.36744571 420.09505033 C515.36770598 420.92425154 515.36796626 421.75345274 515.36823442 422.60778126 C515.37131396 431.78750954 515.37781769 440.96723493 515.3844471 450.14696121 C515.40409707 477.86031898 515.42050049 505.57367362 515.42332363 533.2870388 C515.42346472 534.61725254 515.42346472 534.61725254 515.42360866 535.97433927 C515.42398716 539.56835884 515.42435115 543.16237841 515.42471164 546.75639798 C515.42498337 549.46162209 515.42526004 552.1668462 515.42553711 554.87207031 C515.42562513 555.76597863 515.42571315 556.65988695 515.42580384 557.5808834 C515.42871014 585.67634903 515.45081227 613.7717459 515.48706055 641.8671875 C515.52775751 673.41174085 515.55148198 704.95624734 515.55178314 736.50082839 C515.55187997 739.86235468 515.5520467 743.22388097 515.55226326 746.58540726 C515.55230737 747.41313778 515.55235149 748.2408683 515.55239694 749.09368157 C515.55351832 762.43287543 515.57094916 775.7720006 515.59408258 789.11117232 C515.61688847 802.50972106 515.6211741 815.90817664 515.60653328 829.30673765 C515.59836205 837.27313191 515.60414217 845.23923342 515.62971413 853.20559237 C515.64724477 859.14455422 515.63882717 865.08329046 515.62006903 871.02225514 C515.61655071 873.43206664 515.62158197 875.84190801 515.63577347 878.2516803 C515.65375806 881.51442191 515.64127258 884.77564254 515.62082577 888.0383358 C515.63967083 889.45885126 515.63967083 889.45885126 515.6588966 890.90806401 C515.59785446 895.42344096 515.50318157 897.36015543 512.63351589 901.00921595 C509.9106117 903.06757233 507.2114539 904.83177681 504.23046875 906.49609375 C503.10705078 907.12966797 501.98363281 907.76324219 500.82617188 908.41601562 C499.61328125 909.08984375 498.40039062 909.76367188 497.1875 910.4375 C495.28189183 911.50858577 493.37800603 912.58269154 491.47415161 913.65689087 C490.1837278 914.38470042 488.89277009 915.11156416 487.60128784 915.8374939 C481.69543568 919.15926001 475.84304947 922.56905962 470 926 C461.36570029 931.05744947 452.69392476 936.04607809 444 941 C434.27875494 946.53985933 424.59105132 952.13374932 414.93310547 957.78344727 C404.40915375 963.93766742 393.84619863 970.02369996 383.28222656 976.10888672 C377.85340058 979.23680148 372.42680719 982.36858448 367 985.5 C364.83334417 986.75001879 362.6666775 988.00001878 360.5 989.25 C358.89125 990.178125 358.89125 990.178125 357.25 991.125 C191.49999999 1086.75 191.49999999 1086.75 188.24951172 1088.62524414 C186.08442929 1089.87435518 183.91939018 1091.12354129 181.75439453 1092.37280273 C176.31384294 1095.51202309 170.87252784 1098.64990563 165.4296875 1101.78515625 C154.97793801 1107.80747329 144.53700452 1113.84669337 134.125 1119.9375 C124.85500223 1125.35921178 115.54168248 1130.70204915 106.21154785 1136.01922607 C97.0871716 1141.22045129 87.99867226 1146.48027878 78.93310547 1151.78344727 C71.67788274 1156.02617273 64.40646681 1160.23998054 57.125 1164.4375 C56.05113037 1165.05657227 54.97726074 1165.67564453 53.87084961 1166.31347656 C49.44649504 1168.86322796 45.02147413 1171.41182081 40.59619141 1173.95996094 C38.32536309 1175.26767278 36.05485246 1176.57593644 33.78466797 1177.88476562 C31.57562268 1179.15702103 29.36503933 1180.42661008 27.15283203 1181.69335938 C22.36471832 1184.44199625 17.6090178 1187.21461889 12.94140625 1190.1640625 C11.80070679 1190.87405396 11.80070679 1190.87405396 10.63696289 1191.59838867 C9.27900405 1192.44934312 7.93158391 1193.31753927 6.59936523 1194.20825195 C1.52832953 1197.36445586 -3.11105823 1198.18788672 -9 1197 C-13.2581637 1195.21406822 -17.08598104 1192.87480118 -21 1190.4375 C-22.72263516 1189.40391891 -24.4452912 1188.37037071 -26.16918945 1187.33889771 C-27.94753186 1186.27132141 -29.72014767 1185.19469823 -31.4921875 1184.11669922 C-36.93885287 1180.81497789 -42.47395273 1177.6663143 -48 1174.5 C-50.16707357 1173.25070556 -52.33373933 1172.00070347 -54.5 1170.75 C-55.5725 1170.13125 -56.645 1169.5125 -57.75 1168.875 C-78.33333333 1157 -98.91666667 1145.125 -119.5 1133.25 C-120.57266113 1132.63116943 -121.64532227 1132.01233887 -122.75048828 1131.37475586 C-124.91557071 1130.12564482 -127.08060982 1128.87645871 -129.24560547 1127.62719727 C-134.68615706 1124.48797691 -140.12747216 1121.35009437 -145.5703125 1118.21484375 C-156.02206199 1112.19252671 -166.46299548 1106.15330663 -176.875 1100.0625 C-185.55262241 1094.98724877 -194.26605568 1089.97741233 -203 1085 C-212.72115617 1079.4599827 -222.40894658 1073.86625191 -232.06689453 1068.21655273 C-242.59084625 1062.06233258 -253.15380137 1055.97630004 -263.71777344 1049.89111328 C-269.14659942 1046.76319852 -274.57319281 1043.63141552 -280 1040.5 C-282.16665583 1039.24998121 -284.3333225 1037.99998122 -286.5 1036.75 C-342.83333333 1004.25 -399.16666667 971.75 -455.5 939.25 C-456.5729834 938.6310083 -457.6459668 938.0120166 -458.75146484 937.37426758 C-460.91337884 936.12693452 -463.07516317 934.8793767 -465.23681641 933.6315918 C-470.72514585 930.46391168 -476.21582533 927.30043239 -481.7109375 924.14453125 C-492.03782672 918.20926062 -502.34514462 912.24742947 -512.5625 906.125 C-513.40796387 905.61880127 -514.25342773 905.11260254 -515.12451172 904.59106445 C-520.87038559 901.12961441 -520.87038559 901.12961441 -522 900 C-522.11112693 896.8205308 -522.15576259 893.66235042 -522.15936089 890.48202419 C-522.16440948 889.46517779 -522.16945808 888.44833138 -522.17465967 887.40067145 C-522.19050661 883.94757185 -522.19910056 880.49449125 -522.20773315 877.04136658 C-522.21746613 874.55894886 -522.22760482 872.07653271 -522.23811734 869.59411818 C-522.26283327 863.45761488 -522.28266996 857.32111134 -522.3003455 851.18458421 C-522.31518341 846.08077099 -522.33232561 840.97696981 -522.35092163 835.87316895 C-522.55539729 779.63914197 -522.66718113 723.40477428 -522.75161848 667.17045068 C-522.76388928 659.02517291 -522.77663199 650.8798959 -522.78955078 642.73461914 C-522.79096776 641.83455796 -522.79238474 640.93449677 -522.79384466 640.007161 C-522.84010408 610.8229865 -522.93114803 581.6391688 -523.04639695 552.4551916 C-523.16460949 522.46626054 -523.24051014 492.47752363 -523.26198688 462.48835938 C-523.26503264 458.25418239 -523.26854842 454.02000592 -523.27234268 449.78582954 C-523.27307268 448.95247569 -523.27380268 448.11912183 -523.2745548 447.26051483 C-523.28753032 433.8378982 -523.34495901 420.41582134 -523.41877765 406.99341682 C-523.49197167 393.50485479 -523.51775397 380.01686108 -523.4950311 366.52811372 C-523.48295406 358.51058277 -523.50720079 350.49506876 -523.58323127 342.47787899 C-523.63597924 336.49533805 -523.6210259 330.51500091 -523.57947291 324.53228731 C-523.57326758 322.10885826 -523.58920344 319.68525369 -523.62916015 317.26214611 C-523.90313686 299.60488655 -523.90313686 299.60488655 -520.74678674 295.28468545 C-517.28913629 292.13079613 -513.36478459 290.62366007 -509 289 C-506.96545239 287.85688801 -504.94748312 286.68311726 -502.95703125 285.46484375 C-500.90995526 284.28714651 -498.86174178 283.11142462 -496.8125 281.9375 C-495.10957218 280.95848887 -493.4066462 279.97947453 -491.7038269 279.00027466 C-489.95604539 277.99552701 -488.20779404 276.99160086 -486.45947266 275.98779297 C-480.96860763 272.8327737 -475.48452655 269.66602037 -470 266.5 C-467.83336859 265.24993888 -465.66670186 263.999939 -463.5 262.75 C-462.4275 262.13125 -461.355 261.5125 -460.25 260.875 C-424.5 240.25 -424.5 240.25 -421.24951172 238.37475586 C-419.08442929 237.12564482 -416.91939018 235.87645871 -414.75439453 234.62719727 C-409.31384294 231.48797691 -403.87252784 228.35009437 -398.4296875 225.21484375 C-387.97793801 219.19252671 -377.53700452 213.15330663 -367.125 207.0625 C-357.85500223 201.64078822 -348.54168248 196.29795085 -339.21154785 190.98077393 C-330.0871716 185.77954871 -320.99867226 180.51972122 -311.93310547 175.21655273 C-301.40915375 169.06233258 -290.84619863 162.97630004 -280.28222656 156.89111328 C-274.85340058 153.76319852 -269.42680719 150.63141552 -264 147.5 C-261.83334417 146.24998121 -259.6666775 144.99998122 -257.5 143.75 C-256.4275 143.13125 -255.355 142.5125 -254.25 141.875 C-190.33333333 105 -126.41666667 68.125 -62.5 31.25 C-61.42613037 30.63044434 -60.35226074 30.01088867 -59.24584961 29.37255859 C-57.09307184 28.13060256 -54.94024037 26.8887396 -52.78735352 25.64697266 C-47.75383085 22.74353087 -42.72081952 19.839215 -37.68978882 16.93145752 C-35.91637392 15.90654597 -34.14278354 14.88193877 -32.36914062 13.85742188 C-30.15004227 12.57547262 -27.93126984 11.29295893 -25.71289062 10.00976562 C-23.72186088 8.85987289 -21.72770632 7.71536818 -19.72998047 6.57714844 C-17.98275179 5.56774965 -16.25058359 4.53152179 -14.53955078 3.46191406 C-9.79007548 0.57022327 -5.63664736 -1.42940115 0 0 Z M-10.578125 26.3515625 C-11.47893799 26.8657373 -12.37975098 27.37991211 -13.30786133 27.90966797 C-14.27876709 28.47572754 -15.24967285 29.04178711 -16.25 29.625 C-17.26924561 30.21039551 -18.28849121 30.79579102 -19.33862305 31.39892578 C-22.56494569 33.25601893 -25.78336066 35.12619157 -29 37 C-30.48910889 37.8652832 -30.48910889 37.8652832 -32.00830078 38.74804688 C-36.95687767 41.62476245 -41.89995822 44.51073255 -46.83984375 47.40234375 C-56.43942238 53.01678675 -66.08135951 58.5580032 -75.71777344 64.10888672 C-81.14659942 67.23680148 -86.57319281 70.36858448 -92 73.5 C-94.16665583 74.75001879 -96.3333225 76.00001878 -98.5 77.25 C-99.5725 77.86875 -100.645 78.4875 -101.75 79.125 C-293.5 189.75 -293.5 189.75 -296.75048828 191.62524414 C-298.91557071 192.87435518 -301.08060982 194.12354129 -303.24560547 195.37280273 C-308.68615706 198.51202309 -314.12747216 201.64990563 -319.5703125 204.78515625 C-330.02206199 210.80747329 -340.46299548 216.84669337 -350.875 222.9375 C-360.14499777 228.35921178 -369.45831752 233.70204915 -378.78845215 239.01922607 C-387.9128284 244.22045129 -397.00132774 249.48027878 -406.06689453 254.78344727 C-416.59084625 260.93766742 -427.15380137 267.02369996 -437.71777344 273.10888672 C-442.06571949 275.61403326 -446.41219906 278.12171714 -450.75854492 280.62963867 C-452.90965218 281.87085526 -455.06085573 283.111905 -457.2121582 284.3527832 C-462.2458636 287.25627178 -467.2790232 290.1606941 -472.31021118 293.06854248 C-474.08362608 294.09345403 -475.85721646 295.11806123 -477.63085938 296.14257812 C-479.84995773 297.42452738 -482.06873016 298.70704107 -484.28710938 299.99023438 C-485.29708984 300.57353516 -486.30707031 301.15683594 -487.34765625 301.7578125 C-488.66262085 302.51795654 -488.66262085 302.51795654 -490.00415039 303.29345703 C-493.98472785 305.56093616 -497.99539989 307.77522216 -502 310 C-502 500.41 -502 690.82 -502 887 C-492.76 892.28 -483.52 897.56 -474 903 C-466.4038307 907.37684041 -458.80851981 911.75491277 -451.21777344 916.14111328 C-445.81329357 919.26324604 -440.4065396 922.38143586 -435 925.5 C-428.93867628 928.99652916 -422.87741253 932.49316063 -416.81739807 935.99195862 C-415.08985163 936.98932361 -413.36218696 937.9864838 -411.63452148 938.98364258 C-409.40971189 940.26800752 -407.18525466 941.55298304 -404.96118164 942.83862305 C-400.41691472 945.46338039 -395.87081472 948.0826004 -391.29296875 950.6484375 C-390.62555664 951.02363525 -389.95814453 951.39883301 -389.27050781 951.78540039 C-387.59835843 952.72236529 -385.92242121 953.65256205 -384.24609375 954.58203125 C-382 956 -382 956 -381 958 C-379.425744 958.6781075 -377.84844763 959.34961539 -376.26074219 959.99560547 C-371.37444978 962.16647015 -366.77499463 964.93286963 -362.125 967.5625 C-361.00730225 968.19164307 -359.88960449 968.82078613 -358.73803711 969.46899414 C-351.98030983 973.28362827 -345.25849266 977.1522426 -338.58422852 981.11083984 C-332.2724839 984.85330133 -325.92042606 988.52412579 -319.5625 992.1875 C-318.45527588 992.82550537 -317.34805176 993.46351074 -316.20727539 994.12084961 C-313.93662932 995.42889477 -311.66587642 996.73675448 -309.39501953 998.04443359 C-303.9283002 1001.19332054 -298.46425113 1004.34683264 -293 1007.5 C-290.83334689 1008.7500235 -288.66668021 1010.00002347 -286.5 1011.25 C-256.16666667 1028.75 -225.83333333 1046.25 -195.5 1063.75 C-194.42733887 1064.36883057 -193.35467773 1064.98766113 -192.24951172 1065.62524414 C-190.08442929 1066.87435518 -187.91939018 1068.12354129 -185.75439453 1069.37280273 C-180.31384294 1072.51202309 -174.87252784 1075.64990563 -169.4296875 1078.78515625 C-158.97793801 1084.80747329 -148.53700452 1090.84669337 -138.125 1096.9375 C-129.44737759 1102.01275123 -120.73394432 1107.02258767 -112 1112 C-102.27884383 1117.5400173 -92.59105342 1123.13374809 -82.93310547 1128.78344727 C-75.67788274 1133.02617273 -68.40646681 1137.23998054 -61.125 1141.4375 C-60.05113037 1142.05657227 -58.97726074 1142.67564453 -57.87084961 1143.31347656 C-53.44649504 1145.86322796 -49.02147413 1148.41182081 -44.59619141 1150.95996094 C-42.32498715 1152.26788927 -40.05407 1153.57631629 -37.78344727 1154.88525391 C-35.5782232 1156.15545009 -33.37170851 1157.4234086 -31.16381836 1158.68896484 C-26.32061085 1161.47149411 -21.50638 1164.28009756 -16.765625 1167.234375 C-15.9826001 1167.71672607 -15.1995752 1168.19907715 -14.39282227 1168.69604492 C-12.97203407 1169.57638939 -11.56016624 1170.47138111 -10.15991211 1171.3840332 C-8.11566234 1172.70184098 -8.11566234 1172.70184098 -5 1174 C-1.14797947 1172.83526811 2.22227256 1170.83153934 5.69921875 1168.83203125 C6.81248535 1168.19386475 7.92575195 1167.55569824 9.07275391 1166.89819336 C10.27771682 1166.20304466 11.4826309 1165.5078113 12.6875 1164.8125 C13.94434799 1164.09031382 15.20134912 1163.3683941 16.45849609 1162.64672852 C19.68637148 1160.79256933 22.91189349 1158.93436047 26.13653564 1157.07458496 C28.99525204 1155.42607817 31.85518454 1153.77968312 34.71484375 1152.1328125 C40.06997557 1149.04688685 45.42202133 1145.95564461 50.7734375 1142.86328125 C54.03524007 1140.9796495 57.29861844 1139.09877679 60.5625 1137.21875 C71.01712951 1131.19560261 81.46048442 1125.15477555 91.875 1119.0625 C101.14499777 1113.64078822 110.45831752 1108.29795085 119.78845215 1102.98077393 C128.9128284 1097.77954871 138.00132774 1092.51972122 147.06689453 1087.21655273 C157.59084625 1081.06233258 168.15380137 1074.97630004 178.71777344 1068.89111328 C184.14659942 1065.76319852 189.57319281 1062.63141552 195 1059.5 C197.16665583 1058.24998121 199.3333225 1056.99998122 201.5 1055.75 C202.5725 1055.13125 203.645 1054.5125 204.75 1053.875 C396.50000002 943.24999999 396.50000002 943.24999999 399.75048828 941.37475586 C401.91557071 940.12564482 404.08060982 938.87645871 406.24560547 937.62719727 C411.68615706 934.48797691 417.12747216 931.35009437 422.5703125 928.21484375 C431.98325324 922.7910902 441.39314542 917.36307429 450.77059937 911.87812805 C451.79505157 911.27897079 452.81950378 910.67981354 453.875 910.0625 C454.76889435 909.5395787 455.6627887 909.01665741 456.58377075 908.47789001 C464.61435597 903.78958123 472.68096378 899.1664916 480.7578125 894.55859375 C482.05154111 893.81999435 483.34524242 893.08134713 484.63891602 892.34265137 C487.75896427 890.56121872 490.87937626 888.7804244 494 887 C494.15402807 832.17068308 494.29731844 777.34134566 494.38108826 722.51187134 C494.38233077 721.70069086 494.38357328 720.88951037 494.38485345 720.05374867 C494.4117881 702.42563655 494.43671996 684.79752214 494.45958797 667.16940429 C494.47081423 658.5248823 494.48248318 649.88036093 494.49438477 641.23583984 C494.4955616 640.37559501 494.49673843 639.51535017 494.49795092 638.62903731 C494.53631965 610.73384605 494.60393365 582.83881861 494.68667499 554.94372664 C494.77153118 526.28366074 494.82696031 497.62368553 494.84523491 468.96349612 C494.8478284 464.91769698 494.85075913 460.87189815 494.85389519 456.8260994 C494.8548054 455.63166419 494.8548054 455.63166419 494.855734 454.41309898 C494.86637953 441.58245529 494.90814875 428.75209162 494.96148831 415.92156223 C495.01441965 403.03005321 495.03472553 390.13882245 495.0215124 377.24720852 C495.01465438 369.58291212 495.03302662 361.91963225 495.08717789 354.25551896 C495.12481376 348.5395521 495.1157011 342.82443497 495.08809005 337.1084462 C495.08427113 334.79069587 495.09582933 332.47286114 495.12394864 330.15527825 C495.15986946 327.01310827 495.14074517 323.87597841 495.10743046 320.73389244 C495.13107358 319.82555155 495.1547167 318.91721066 495.17907628 317.98134428 C495.11596399 315.36290803 494.96546829 313.43849536 494 311 C491.2753131 308.42217224 488.32059824 306.70917571 485 305 C484.0917749 304.45472656 483.1835498 303.90945313 482.24780273 303.34765625 C481.48411377 302.92355469 480.7204248 302.49945313 479.93359375 302.0625 C479.04905518 301.5677417 478.1645166 301.0729834 477.25317383 300.56323242 C476.32400146 300.04736572 475.3948291 299.53149902 474.4375 299 C466.35061753 294.47058863 458.30832514 289.87578837 450.3125 285.1875 C441.57396651 280.06750629 432.79985328 275.01353234 424 270 C414.27865901 264.46031101 404.59104908 258.86624937 394.93310547 253.21655273 C384.40915375 247.06233258 373.84619863 240.97630004 363.28222656 234.89111328 C357.85340058 231.76319852 352.42680719 228.63141552 347 225.5 C344.83334417 224.24998121 342.6666775 222.99998122 340.5 221.75 C284.16666667 189.25 227.83333333 156.75 171.5 124.25 C170.42733887 123.63116943 169.35467773 123.01233887 168.24951172 122.37475586 C166.08442929 121.12564482 163.91939018 119.87645871 161.75439453 118.62719727 C156.31384294 115.48797691 150.87252784 112.35009437 145.4296875 109.21484375 C134.97793801 103.19252671 124.53700452 97.15330663 114.125 91.0625 C105.44737759 85.98724877 96.73394432 80.97741233 88 76 C78.27884383 70.4599827 68.59105342 64.86625191 58.93310547 59.21655273 C50.60734673 54.34779681 42.26138979 49.5147967 33.89941406 44.70849609 C28.77077417 41.75964398 23.64907352 38.80068806 18.55178833 35.79798889 C16.15617247 34.38752095 13.75690605 32.98332941 11.35736084 31.57955933 C9.65929921 30.58263687 7.96654917 29.57668474 6.27392578 28.57055664 C5.2476709 27.97106201 4.22141602 27.37156738 3.1640625 26.75390625 C1.80982178 25.95448608 1.80982178 25.95448608 0.42822266 25.13891602 C-3.95169257 23.08459221 -6.64838068 24.08526564 -10.578125 26.3515625 Z " fill="#010101" transform="translate(522,2)"/>
<path d="M0 0 C3.21003301 2.72298263 6.31422422 5.55190158 9.40771484 8.40576172 C11.42993472 10.22210088 13.56285201 11.84874138 15.75 13.4609375 C24.60586679 20.22815646 32.18739438 28.32326465 38 37.8359375 C38.39074707 38.47418457 38.78149414 39.11243164 39.18408203 39.77001953 C47.89241615 54.18051408 53.14177978 67.99076725 55 84.8359375 C55.08100449 85.49784088 55.16200897 86.15974426 55.24546814 86.84170532 C56.08590223 94.24615618 56.19436819 101.60806678 56.23828125 109.0546875 C56.24312531 109.72647223 56.24796936 110.39825695 56.25296021 111.09039879 C56.28918716 116.17223841 56.30525945 121.25398047 56.3125 126.3359375 C56.31379787 127.08022129 56.31509575 127.82450508 56.31643295 128.59134293 C56.34597097 150.89720799 56.03979703 172.82164164 52 194.8359375 C51.70319336 196.51115479 51.70319336 196.51115479 51.40039062 198.22021484 C49.39852336 209.21590809 47.07209194 219.79967048 42 229.8359375 C35.54945018 228.48340286 29.28894321 226.80533517 23 224.8359375 C21.9974568 220.50342399 21.67055001 216.18265298 21.38671875 211.7578125 C21.27458145 210.12097853 21.16192915 208.48417977 21.04882812 206.84741211 C20.99025635 205.98936981 20.93168457 205.13132751 20.87133789 204.24728394 C19.89071783 190.05124579 18.71565675 175.90060595 17 161.7734375 C16.7692981 159.83645996 16.7692981 159.83645996 16.53393555 157.86035156 C14.89568898 144.83921834 12.49434416 132.20694264 8.25 119.7734375 C7.73264282 118.23490112 7.73264282 118.23490112 7.20483398 116.6652832 C4.75980466 109.58056622 1.90615801 102.93777455 -1.65234375 96.34765625 C-3 93.8359375 -3 93.8359375 -4 90.8359375 C-4.66 90.8359375 -5.32 90.8359375 -6 90.8359375 C-6.95702419 89.43458065 -7.90849359 88.02911706 -8.83203125 86.60546875 C-14.20850686 78.45983847 -22.19164855 71.57543389 -31.84375 69.109375 C-34.50937346 68.76828029 -34.50937346 68.76828029 -38 68.8359375 C-37.77183594 69.5371875 -37.54367187 70.2384375 -37.30859375 70.9609375 C-35.32050581 77.52251921 -33.77009436 83.37612623 -37 89.8359375 C-43.91582237 90.43597548 -47.31138559 89.05184021 -52.8125 84.9609375 C-53.50972168 84.46279541 -54.20694336 83.96465332 -54.92529297 83.45141602 C-60.02903738 79.73687388 -64.65208164 75.63168549 -69.24609375 71.3046875 C-87.31440858 55.10727619 -112.007584 41.42448034 -136.6875 41.5234375 C-137.50283203 41.50732422 -138.31816406 41.49121094 -139.15820312 41.47460938 C-144.18851739 41.47054283 -147.65076133 42.04236259 -152 44.8359375 C-154.34325664 47.38733603 -154.34325664 47.38733603 -156 49.8359375 C-154.824375 49.9184375 -153.64875 50.0009375 -152.4375 50.0859375 C-147.88145277 50.66448318 -144.7385072 52.24024411 -141 54.8359375 C-140.01 55.5165625 -139.02 56.1971875 -138 56.8984375 C-130.1883923 63.75436979 -125.18676672 75.08886714 -122 84.8359375 C-121.83984375 88.25390625 -121.83984375 88.25390625 -122 90.8359375 C-126.39254791 91.07553102 -129.95660052 91.03178589 -134.125 89.578125 C-134.90738037 89.30540771 -135.68976074 89.03269043 -136.49584961 88.75170898 C-141.78524973 86.81736757 -147.02983574 84.76860839 -152.27148438 82.70898438 C-162.4139436 78.78406782 -172.79400481 75.50946814 -183.5625 79.0859375 C-187.03038106 80.50628768 -187.03038106 80.50628768 -188.5 83.0234375 C-188.665 83.6215625 -188.83 84.2196875 -189 84.8359375 C-188.071875 84.9184375 -187.14375 85.0009375 -186.1875 85.0859375 C-183 85.8359375 -183 85.8359375 -181.125 87.6484375 C-180 89.8359375 -180 89.8359375 -180 93.8359375 C-184.5199198 94.97825969 -189.04059757 96.11751321 -193.56201172 97.25390625 C-195.10063664 97.64107976 -196.63904951 98.02909699 -198.17724609 98.41796875 C-200.38584316 98.97616994 -202.59518037 99.53135112 -204.8046875 100.0859375 C-205.49432587 100.26092773 -206.18396423 100.43591797 -206.89450073 100.61621094 C-211.77225659 101.8359375 -211.77225659 101.8359375 -214 101.8359375 C-212.18719432 94.02360827 -209.54725921 87.26149593 -205.75 80.2109375 C-205.29753906 79.334375 -204.84507812 78.4578125 -204.37890625 77.5546875 C-201.20921679 71.57045586 -197.687837 65.76852704 -193 60.8359375 C-192.34 60.8359375 -191.68 60.8359375 -191 60.8359375 C-190.77441406 60.29582031 -190.54882812 59.75570312 -190.31640625 59.19921875 C-188.58999994 56.09988397 -186.33125532 53.61265971 -183.9375 51.0234375 C-183.44942871 50.49226318 -182.96135742 49.96108887 -182.45849609 49.41381836 C-178.94465945 45.6662973 -175.26180591 42.42182575 -171.0703125 39.43359375 C-168.86337813 37.80311004 -168.86337813 37.80311004 -166.6328125 35.44921875 C-163.84789833 32.68496418 -160.88015474 30.31064156 -157.75 27.9609375 C-156.58566693 27.07848188 -155.4216049 26.19566853 -154.2578125 25.3125 C-153.69610352 24.88743164 -153.13439453 24.46236328 -152.55566406 24.02441406 C-150.55249093 22.49405518 -148.59120299 20.91338552 -146.625 19.3359375 C-124.28952132 2.05831178 -101.3415626 -8.25898847 -73.51464844 -12.75732422 C-71.34277497 -13.10861948 -69.17532477 -13.47848567 -67.0078125 -13.85546875 C-44.050067 -17.57764291 -18.54841288 -15.11785691 0 0 Z " fill="#FEFEFE" transform="translate(653,232.1640625)"/>
<path d="M0 0 C20.76792883 15.20126749 34.59562613 36.84612244 38.75390625 62.26953125 C43.85225441 98.13591399 36.96850023 140.1753604 17.1484375 170.8671875 C13.53142024 175.37607203 9.7287715 178.00454056 4 179 C-10.19544253 180.37438586 -20.70403795 175.58859013 -31.8125 167.125 C-34.76847568 164.88078034 -34.76847568 164.88078034 -37.75 164.375 C-40.16839559 164.81288778 -40.16839559 164.81288778 -41.625 167 C-44.87735323 174.09604341 -47.62838078 180.11485767 -45 188 C-38.22742027 193.29650466 -30.01659278 196.16026651 -22 199 C-22 199.66 -22 200.32 -22 201 C-26.78489234 204.32862076 -30.44294759 205.7858293 -36.3203125 205.5 C-44.90498367 203.89819547 -50.99877016 198.8371408 -56.0390625 191.9453125 C-78.75599523 157.82466055 -83.2043562 125.11456848 -83.375 84.6875 C-83.38294586 83.69361267 -83.39089172 82.69972534 -83.39907837 81.67572021 C-83.49572478 65.955329 -83.46916332 49.19307924 -76.4375 34.75 C-76.09525391 34.01676514 -75.75300781 33.28353027 -75.40039062 32.52807617 C-70.24875177 21.90800492 -63.54890809 12.10955821 -54 5 C-53.30648438 4.44699219 -52.61296875 3.89398438 -51.8984375 3.32421875 C-50 2 -50 2 -48 2 C-48 1.34 -48 0.68 -48 0 C-32.55710662 -8.44988506 -15.3243027 -10.03203877 0 0 Z " fill="#786956" transform="translate(403,506)"/>
<path d="M0 0 C3.1875 2.375 3.1875 2.375 5 5 C5 5.99 5 6.98 5 8 C5.969375 7.979375 6.93875 7.95875 7.9375 7.9375 C11 8 11 8 12 9 C12.57831576 14.30925998 10.90593058 18.08857752 8.5 22.6875 C8.1405127 23.39156982 7.78102539 24.09563965 7.41064453 24.82104492 C4.66651782 30.05662842 1.44779582 34.73898988 -2.125 39.44921875 C-10.80393153 51.25618185 -14.75417952 65.57852086 -18.921875 79.44140625 C-20.32638839 84.0773182 -21.78782064 88.69450712 -23.25 93.3125 C-23.52070312 94.16827637 -23.79140625 95.02405273 -24.0703125 95.90576172 C-24.71311795 97.9373086 -25.35649655 99.96867411 -26 102 C-28.3484934 98.47725989 -28.58520855 95.52737203 -29 91.4375 C-29.81792877 84.17766574 -30.68071093 76.95786721 -33 70 C-34.36125 70.680625 -34.36125 70.680625 -35.75 71.375 C-38.16666667 72.58333333 -40.58333333 73.79166667 -43 75 C-46.29939605 71.16707067 -46.44742226 68.69287163 -46.2890625 63.77832031 C-45.78765271 58.95902688 -44.46884344 54.47893663 -43 49.875 C-42.68313232 48.86945068 -42.36626465 47.86390137 -42.03979492 46.82788086 C-36.97424016 31.28631719 -29.48202584 18.52648468 -19 6 C-17.93072266 4.71609375 -17.93072266 4.71609375 -16.83984375 3.40625 C-11.80463312 -1.80472774 -6.83329207 -2.15675781 0 0 Z " fill="#FEFEFD" transform="translate(666,481)"/>
<path d="M0 0 C3 1.5 3 1.5 5 4 C5.72849074 8.0398123 5.98544885 10.36543297 3.85546875 13.8984375 C1.49848775 16.74671533 -1.00680798 19.0054171 -3.90625 21.3125 C-18.7655442 33.60913107 -25.48876178 53.84189435 -29.56713867 71.86010742 C-29.82857666 72.98392822 -30.09001465 74.10774902 -30.359375 75.265625 C-30.58077148 76.27399414 -30.80216797 77.28236328 -31.03027344 78.32128906 C-32.15736172 81.43468599 -33.40716183 82.96268261 -36 85 C-38.75 84.75 -38.75 84.75 -41 84 C-42.20054756 59.5888663 -34.23196724 26.75482432 -18 8 C-17.34 7.071875 -16.68 6.14375 -16 5.1875 C-11.35052557 0.10213734 -6.55161383 -0.72795709 0 0 Z " fill="#FDFDFD" transform="translate(701,502)"/>
<path d="M0 0 C1.21236328 0.01353516 1.21236328 0.01353516 2.44921875 0.02734375 C3.37154297 0.04474609 3.37154297 0.04474609 4.3125 0.0625 C5.61917117 3.9825135 4.6932251 5.30655947 3.171875 9.109375 C2.81479462 10.00940247 2.81479462 10.00940247 2.45050049 10.9276123 C1.66554126 12.89389193 0.86528071 14.85343463 0.0625 16.8125 C-0.34282959 17.81210754 -0.34282959 17.81210754 -0.75634766 18.83190918 C-4.51451883 28.09121175 -8.44527727 37.26301037 -12.6875 46.3125 C-13.35313965 47.75641113 -13.35313965 47.75641113 -14.03222656 49.22949219 C-14.4547168 50.10766602 -14.87720703 50.98583984 -15.3125 51.890625 C-15.67601562 52.6527832 -16.03953125 53.41494141 -16.4140625 54.20019531 C-17.6875 56.0625 -17.6875 56.0625 -21.6875 58.0625 C-25.3175 55.4225 -28.9475 52.7825 -32.6875 50.0625 C-32.17891269 42.94954326 -30.5539412 36.91548941 -28.0625 30.25 C-27.702771 29.28384766 -27.34304199 28.31769531 -26.97241211 27.32226562 C-22.75979416 16.29138227 -18.85048473 6.53582391 -7.6875 1.0625 C-4.80538698 0.10179566 -2.98899956 -0.04331883 0 0 Z " fill="#786A57" transform="translate(506.6875,427.9375)"/>
<path d="M0 0 C0.33 0.66 0.66 1.32 1 2 C0.67 2.66 0.34 3.32 0 4 C-0.66 4 -1.32 4 -2 4 C-2.11859375 4.7115625 -2.2371875 5.423125 -2.359375 6.15625 C-3.0314421 9.13957225 -4.05508584 11.6866578 -5.25 14.5 C-10.09786814 26.82342133 -12.47019127 40.03884837 -15 53 C-17.31 53 -19.62 53 -22 53 C-26.23811166 41.74357544 -24.34707604 29.96800725 -20 19 C-15.62551049 10.70644729 -9.12439014 3.04146338 0 0 Z " fill="#7A6B58" transform="translate(394,424)"/>
<path d="M0 0 C1.05960937 0.00773437 1.05960937 0.00773437 2.140625 0.015625 C5.25989581 0.06288668 7.77305287 0.25768429 10.75 1.25 C12.19014486 5.19144909 13.44946816 9.05319103 12.75 13.25 C11.1875 15.125 11.1875 15.125 8.75 16.25 C1.92295145 16.25 -4.10873385 12.96377572 -10.25 10.25 C-11.66595971 9.64417831 -13.08247859 9.03965849 -14.5 8.4375 C-15.4075 8.045625 -16.315 7.65375 -17.25 7.25 C-16.23017267 3.96388971 -15.27788296 3.26470321 -12.17578125 1.62890625 C-8.0783113 -0.03208793 -4.37230591 -0.13051659 0 0 Z " fill="#796B58" transform="translate(441.25,474.75)"/>
<path d="M0 0 C1.7265625 1.4140625 1.7265625 1.4140625 2.3359375 3.578125 C2.46614583 5.85677083 2.59635417 8.13541667 2.7265625 10.4140625 C-2.8834375 10.4140625 -8.4934375 10.4140625 -14.2734375 10.4140625 C-12.2734375 4.4140625 -12.2734375 4.4140625 -10.03125 2.6640625 C-9.16242188 2.2515625 -8.29359375 1.8390625 -7.3984375 1.4140625 C-6.53476562 0.9809375 -5.67109375 0.5478125 -4.78125 0.1015625 C-2.2734375 -0.5859375 -2.2734375 -0.5859375 0 0 Z " fill="#7B6C5A" transform="translate(402.2734375,467.5859375)"/>
</svg>
