<svg xmlns="http://www.w3.org/2000/svg" viewBox="0 0 816 680" fill="#8B5E3C">
  <g transform="translate(0,680) scale(0.1,-0.1)">
    <path d="M3199 6727 c-48 -40 -127 -108 -176 -152 -49 -44 -131 -116 -183
-160 -89 -77 -207 -202 -318 -336 -28 -35 -58 -71 -65 -79 -130 -150 -221
-292 -341 -535 -148 -297 -188 -454 -266 -1035 -12 -85 -25 -173 -30 -195 -5
-22 -13 -98 -20 -168 -18 -204 -55 -294 -142 -338 -22 -11 -81 -29 -132 -39
-176 -35 -243 -69 -346 -175 -75 -77 -94 -103 -138 -182 -21 -39 1 -25 93 57
87 78 132 101 170 86 23 -8 18 -47 -11 -89 -28 -41 -29 -80 -2 -85 9 -2 43 15
75 37 69 48 172 79 209 62 83 -38 17 -206 -188 -476 -82 -107 -186 -369 -234
-586 -19 -90 -62 -183 -86 -187 -26 -5 -31 48 -25 272 4 162 9 216 26 276 31
111 42 162 37 168 -3 2 -19 -1 -35 -8 -55 -23 -126 -154 -160 -297 -13 -54
-41 -89 -64 -80 -20 8 -28 93 -20 243 7 148 2 184 -26 184 -36 0 -129 -177
-195 -371 -59 -174 -80 -319 -81 -564 0 -225 9 -301 52 -445 83 -273 231 -437
468 -519 107 -36 227 -52 240 -32 4 7 8 161 9 344 3 414 24 583 107 850 73
239 163 399 304 547 166 173 164 166 119 330 -42 155 -74 321 -74 384 0 72 22
159 62 244 30 64 167 237 279 353 30 30 88 90 129 133 149 155 367 256 550
256 129 0 172 -43 224 -230 15 -52 29 -96 31 -99 10 -9 64 22 107 62 26 23 79
83 119 132 40 50 82 98 94 107 74 62 259 124 408 136 294 25 596 -54 885 -229
329 -201 571 -507 695 -879 87 -262 121 -442 114 -610 -6 -160 -24 -202 -135
-317 -48 -49 -120 -123 -160 -165 -192 -200 -408 -305 -665 -324 -67 -5 -105
-1 -207 20 -254 54 -282 58 -400 54 -102 -3 -121 -7 -170 -32 -123 -62 -130
-85 -96 -319 56 -380 78 -774 47 -842 -13 -30 -13 -30 -35 55 -32 126 -102
294 -118 284 -4 -3 -8 -26 -8 -52 0 -46 -29 -237 -51 -337 -14 -64 -95 -372
-119 -450 -26 -87 -125 -325 -157 -378 -2 -4 862 -7 1921 -7 1129 0 1927 4
1931 9 3 5 24 19 48 30 68 34 214 143 311 233 159 147 285 323 396 553 143
293 214 589 247 1021 14 193 -29 515 -94 699 -51 142 -180 355 -254 418 -21
19 -39 39 -39 45 0 6 13 40 29 74 56 123 70 154 111 253 23 55 50 118 60 140
10 22 45 115 79 207 132 362 176 588 175 908 0 204 -13 311 -55 453 -49 165
-178 390 -342 595 -23 29 -57 71 -76 95 -131 165 -615 590 -944 829 -62 44
-132 97 -157 118 -25 20 -72 55 -104 78 l-59 42 -326 -2 c-179 -1 -308 -3
-286 -5 94 -10 220 -46 303 -87 101 -49 219 -131 321 -221 25 -23 82 -71 126
-107 255 -211 442 -518 519 -852 27 -115 38 -342 39 -811 1 -392 -1 -486 -15
-565 -9 -52 -19 -126 -23 -165 -3 -38 -15 -127 -26 -197 -27 -181 -113 -498
-136 -505 -4 -1 -69 17 -143 40 l-135 43 -7 75 c-3 41 -11 151 -18 244 -25
374 -68 725 -114 937 -37 168 -102 374 -128 405 -6 7 -8 13 -4 13 11 0 -65
143 -122 230 -76 114 -209 246 -291 288 -75 38 -177 55 -186 30 -4 -9 3 -43
14 -76 28 -83 28 -161 -1 -197 -19 -24 -26 -27 -65 -22 -50 5 -176 77 -257
147 -30 25 -96 81 -147 125 -118 101 -157 131 -240 182 -285 178 -585 277
-781 259 -91 -8 -132 -27 -187 -83 l-46 -47 60 -8 c137 -18 253 -113 349 -289
40 -73 96 -233 96 -274 l0 -28 -63 7 c-88 9 -190 39 -315 92 -59 25 -111 47
-117 48 -5 1 -15 5 -21 8 -6 4 -44 16 -84 27 -146 41 -292 18 -357 -55 -18
-20 -33 -38 -33 -40 0 -2 13 -1 29 2 35 7 97 -20 112 -49 6 -11 15 -32 19 -47
7 -26 6 -28 -29 -34 -20 -3 -123 -28 -229 -56 -106 -27 -203 -50 -217 -50
l-24 0 33 98 c94 278 273 521 586 796 154 135 164 143 348 279 431 320 657
414 1162 482 81 11 -57 13 -960 14 l-1055 0 -86 -72z m3244 -3724 c30 -18 49
-44 61 -85 4 -14 16 -18 49 -18 62 0 74 -17 58 -78 -21 -81 -77 -187 -184
-349 -159 -239 -187 -304 -271 -623 -43 -162 -87 -290 -100 -291 -16 0 -35 79
-46 200 -22 233 -56 284 -134 206 -44 -43 -61 -44 -86 -2 -29 47 -26 126 11
260 91 327 218 558 408 746 l64 64 69 -6 c40 -3 83 -14 101 -24z m500 -297
c45 -19 68 -48 74 -95 7 -51 -16 -89 -101 -168 -69 -65 -138 -150 -208 -258
-92 -141 -121 -214 -188 -464 -47 -175 -63 -211 -102 -232 -30 -16 -65 6 -70
43 -15 98 57 456 137 686 129 371 301 555 458 488z"/>
    <path d="M2488 3806 c-39 -14 -97 -57 -139 -103 -40 -44 -91 -131 -93 -157 0
-13 -4 -22 -7 -20 -3 2 -17 -31 -30 -74 -20 -63 -24 -99 -24 -197 0 -74 5
-131 13 -150 11 -27 17 -30 54 -29 l43 1 17 89 c54 270 109 456 173 581 19 37
33 68 32 69 -1 1 -19 -3 -39 -10z"/>
    <path d="M4091 3770 c-90 -19 -185 -101 -246 -213 -75 -138 -183 -507 -148
-507 5 0 38 -22 72 -50 67 -54 81 -58 104 -35 36 35 347 748 347 794 0 6 -6
11 -14 11 -7 0 -26 2 -42 4 -16 3 -49 0 -73 -4z"/>
    <path d="M2605 3200 c-63 -14 -109 -49 -150 -112 l-17 -28 121 0 121 0 0 28
c0 38 -18 98 -33 109 -6 6 -25 7 -42 3z"/>
    <path d="M3045 3077 c-60 -30 -94 -65 -74 -78 8 -5 18 -9 23 -9 5 0 52 -20
105 -44 149 -68 237 -79 276 -36 16 17 16 24 1 96 -9 43 -18 80 -21 82 -3 3
-62 7 -132 9 -120 4 -131 3 -178 -20z"/>
    <path d="M2225 2740 c-136 -21 -257 -89 -409 -230 -121 -113 -255 -344 -295
-510 -49 -205 -55 -300 -42 -739 11 -406 17 -477 46 -625 35 -174 117 -374
226 -552 l52 -84 87 0 88 0 4 58 c6 76 62 218 95 239 21 14 30 15 61 3 21 -7
53 -25 72 -41 144 -112 285 -169 422 -169 174 0 259 71 356 295 17 39 32 77
34 85 2 8 6 17 9 20 15 12 82 201 109 304 88 346 112 730 61 995 -36 186 -115
375 -216 517 -70 98 -208 247 -277 299 -140 106 -333 160 -483 135z"/>
  </g>
</svg>
