<?xml version="1.0" encoding="UTF-8"?>
<svg version="1.1" xmlns="http://www.w3.org/2000/svg" width="50" height="50">
<path d="M0 0 C0.99 0.66 1.98 1.32 3 2 C4.46862792 2.34078659 5.95002727 2.6291782 7.4375 2.875 C10.27926679 3.48956095 12.00510529 4.0031908 14.5 5.5625 C16.41623347 8.6763794 16.56824645 11.26808252 16.7265625 14.87890625 C16.87911366 17.29941647 16.87911366 17.29941647 19 20 C19.34550845 24.28430481 19.4198805 26.96134823 17.8125 30.9375 C16 33 16 33 13.4375 33.5 C12.2309375 33.7475 12.2309375 33.7475 11 34 C9.89363605 36.39068734 9.89363605 36.39068734 9 39 C7.09384226 41.21114297 5.74077475 41.91411307 2.84375 42.25 C-3.38242188 42.41171875 -3.38242188 42.41171875 -7 40 C-8.46862792 39.65921341 -9.95002727 39.3708218 -11.4375 39.125 C-14.27926679 38.51043905 -16.00510529 37.9968092 -18.5 36.4375 C-20.41623347 33.3236206 -20.56824645 30.73191748 -20.7265625 27.12109375 C-20.87911366 24.70058353 -20.87911366 24.70058353 -23 22 C-23.34550845 17.71569519 -23.4198805 15.03865177 -21.8125 11.0625 C-20 9 -20 9 -17.4375 8.5 C-16.633125 8.335 -15.82875 8.17 -15 8 C-13.89363605 5.60931266 -13.89363605 5.60931266 -13 3 C-9.6049667 -0.93823862 -4.84365241 -0.6868531 0 0 Z M-10.203125 4.60546875 C-12.56515951 7.75313648 -12.50351902 9.72547628 -12.4375 13.625 C-12.43621094 14.77226562 -12.43492188 15.91953125 -12.43359375 17.1015625 C-12.29050781 18.05804688 -12.14742187 19.01453125 -12 20 C-10.515 20.99 -10.515 20.99 -9 22 C-9 17.71 -9 13.42 -9 9 C-7.35 8.34 -5.7 7.68 -4 7 C-2.63634717 6.04175747 -1.29205831 5.05278825 0 4 C-1.15745487 2.63002255 -1.15745487 2.63002255 -4.3125 2.6875 C-7.95424396 2.67511681 -7.95424396 2.67511681 -10.203125 4.60546875 Z M-6 11 C-6 11.99 -6 12.98 -6 14 C-5.29875 13.71125 -4.5975 13.4225 -3.875 13.125 C-2.92625 12.75375 -1.9775 12.3825 -1 12 C-0.05125 11.54625 0.8975 11.0925 1.875 10.625 C6.45356346 9.70928731 8.15728305 11.4874543 12 14 C12.66 14 13.32 14 14 14 C12.73053486 9.17557816 12.73053486 9.17557816 9 6 C3.00449277 5.0007488 -1.09564281 7.94839997 -6 11 Z M-17 11 C-19.31056137 13.31056137 -19.96255612 14.74324199 -20.4375 18 C-19.88366054 21.79775631 -19.02056022 22.67649214 -16 25 C-13.69828331 26.56412112 -11.52198518 27.76193455 -9 29 C-8.01 28.67 -7.02 28.34 -6 28 C-7.84654353 25.95908347 -9.00308803 24.99882361 -11.625 24 C-14.66451304 21.44041007 -14.47018201 20.18714274 -14.8125 16.3125 C-14.89743679 14.54260094 -14.96691359 12.771627 -15 11 C-15.66 11 -16.32 11 -17 11 Z M3 13 C3 13.99 3 14.98 3 16 C4.134375 16.433125 5.26875 16.86625 6.4375 17.3125 C8.375 18.37890625 8.375 18.37890625 10 20 C10.92961633 23.67092812 11.0455689 27.22429112 11 31 C14.12197478 29.6910428 14.12197478 29.6910428 16 27 C16.37467725 23.55296933 16.52613219 21.71553977 14.4375 18.875 C9.20131986 14.68765454 9.20131986 14.68765454 3 13 Z M-6 18 C-6 19.98 -6 21.96 -6 24 C-1.89776415 25.01540112 -1.89776415 25.01540112 2 24 C2 22.02 2 20.04 2 18 C-2.10223585 16.98459888 -2.10223585 16.98459888 -6 18 Z M5 20 C5 24.29 5 28.58 5 33 C3.35 33.66 1.7 34.32 0 35 C-1.36365283 35.95824253 -2.70794169 36.94721175 -4 38 C-2.84254513 39.36997745 -2.84254513 39.36997745 0.3125 39.3125 C3.95424396 39.32488319 3.95424396 39.32488319 6.203125 37.39453125 C8.56515951 34.24686352 8.50351902 32.27452372 8.4375 28.375 C8.43556641 26.65410156 8.43556641 26.65410156 8.43359375 24.8984375 C8.29050781 23.94195313 8.14742187 22.98546875 8 22 C7.01 21.34 6.02 20.68 5 20 Z M-18 28 C-16.73053486 32.82442184 -16.73053486 32.82442184 -13 36 C-7.00449277 36.9992512 -2.90435719 34.05160003 2 31 C2 30.01 2 29.02 2 28 C1.29875 28.28875 0.5975 28.5775 -0.125 28.875 C-1.07375 29.24625 -2.0225 29.6175 -3 30 C-3.94875 30.45375 -4.8975 30.9075 -5.875 31.375 C-10.45356346 32.29071269 -12.15728305 30.5125457 -16 28 C-16.66 28 -17.32 28 -18 28 Z " fill="#FFFFFF" transform="translate(27,4)"/>
</svg>
