<?xml version="1.0" encoding="UTF-8"?>
<svg version="1.1" xmlns="http://www.w3.org/2000/svg" width="400" height="400">
<path d="M0 0 C132 0 264 0 400 0 C400 132 400 264 400 400 C268 400 136 400 0 400 C0 268 0 136 0 0 Z " fill="#000000" transform="translate(0,0)"/>
<path d="M0 0 C12.20631273 8.38121473 19.96907588 19.12583857 24.2421875 33.30078125 C26.37114203 46.71319481 24.40058749 60.73306394 16.8671875 72.23828125 C14.06385091 75.78460743 11.0566492 79.03770645 7.8671875 82.23828125 C7.03574219 83.10453125 7.03574219 83.10453125 6.1875 83.98828125 C-2.97060781 92.73632453 -14.61370228 95.37660091 -26.828125 95.34375 C-28.53126261 95.35721374 -30.23438846 95.37223829 -31.9375 95.38867188 C-34.59026069 95.41138889 -37.24168739 95.4258574 -39.89453125 95.41333008 C-50.61318193 95.37627944 -60.20274211 95.41175974 -69.1328125 102.23828125 C-74.41065298 108.43679096 -76.2792792 113.21923773 -76.33813477 121.26806641 C-76.34816749 122.11084326 -76.35820021 122.95362011 -76.36853695 123.82193565 C-76.39998435 126.55704348 -76.42471878 129.29216577 -76.44921875 132.02734375 C-76.46761644 133.71313965 -76.4864528 135.39893081 -76.5057373 137.0847168 C-76.57425296 143.34418227 -76.63426216 149.60373851 -76.6953125 155.86328125 C-76.8396875 169.84703125 -76.9840625 183.83078125 -77.1328125 198.23828125 C-111.1228125 198.23828125 -145.1128125 198.23828125 -180.1328125 198.23828125 C-180.1328125 161.60828125 -180.1328125 124.97828125 -180.1328125 87.23828125 C-173.46551212 88.34949798 -173.46551212 88.34949798 -169.7578125 90.17578125 C-156.87804928 96.51918523 -139.13023892 96.27058154 -125.4453125 92.67578125 C-105.91526303 85.89714758 -92.05462592 73.83936495 -83.04125977 55.37817383 C-81.45858386 51.65010225 -80.52014118 47.79161437 -79.5703125 43.86328125 C-79.14280169 42.18076711 -78.71442511 40.49847271 -78.28515625 38.81640625 C-78.08519043 38.02169922 -77.88522461 37.22699219 -77.67919922 36.40820312 C-73.79595919 20.98629187 -66.65887539 8.68773887 -52.9765625 -0.22265625 C-35.96194419 -9.43111726 -16.88235545 -9.49369365 0 0 Z " fill="#FDFDFD" transform="translate(277.1328125,104.76171875)"/>
<path d="M0 0 C0 0.66 0 1.32 0 2 C0.61875 2.144375 1.2375 2.28875 1.875 2.4375 C4 3 4 3 6 4 C6 5.32 6 6.64 6 8 C6.70125 8.226875 7.4025 8.45375 8.125 8.6875 C11.74128535 10.33841288 14.08769976 12.2908835 17 15 C17 15.66 17 16.32 17 17 C17.99 17.33 18.98 17.66 20 18 C20 19.65 20 21.3 20 23 C19.360625 22.34 18.72125 21.68 18.0625 21 C17.04633699 19.99525455 16.02473367 18.99600282 15 18 C14.34515625 17.360625 13.6903125 16.72125 13.015625 16.0625 C5.91965318 9.41946255 -1.54474309 5.2610397 -11 3 C-7.74003139 -0.25996861 -4.40088745 -1.46696248 0 0 Z " fill="#121212" transform="translate(273,97)"/>
<path d="M0 0 C1.32 0 2.64 0 4 0 C3.46324097 3.85103301 1.88399077 5.31797587 -1.0625 7.75 C-2.16271484 8.67039062 -2.16271484 8.67039062 -3.28515625 9.609375 C-3.85105469 10.06828125 -4.41695312 10.5271875 -5 11 C-5.33 10.34 -5.66 9.68 -6 9 C-6.66 8.67 -7.32 8.34 -8 8 C-7.67 6.68 -7.34 5.36 -7 4 C-7.66 4 -8.32 4 -9 4 C-9 3.34 -9 2.68 -9 2 C-6.30234449 0.65117225 -3.98421978 1 -1 1 C-0.67 0.67 -0.34 0.34 0 0 Z " fill="#040404" transform="translate(218,104)"/>
<path d="M0 0 C0.33 0 0.66 0 1 0 C1.42781312 8.79393628 0.29967196 16.51311539 -2 25 C-4.34240025 22.65759975 -4.36283032 21.82911717 -4.6875 18.625 C-4.77386719 17.85414063 -4.86023438 17.08328125 -4.94921875 16.2890625 C-5.00027694 13.98751626 -4.66593825 12.19308988 -4 10 C-3.67 10.66 -3.34 11.32 -3 12 C-2.34 11.67 -1.68 11.34 -1 11 C-0.5316735 8.41394668 -0.5316735 8.41394668 -0.375 5.4375 C-0.30023438 4.42558594 -0.22546875 3.41367188 -0.1484375 2.37109375 C-0.09945313 1.58863281 -0.05046875 0.80617187 0 0 Z " fill="#F3F3F3" transform="translate(301,142)"/>
<path d="M0 0 C0 0.66 0 1.32 0 2 C1.32 2.33 2.64 2.66 4 3 C3.67 3.99 3.34 4.98 3 6 C-1.86896303 5.40380045 -6.32790951 4.43023178 -11 3 C-7.74003139 -0.25996861 -4.40088745 -1.46696248 0 0 Z " fill="#0C0C0C" transform="translate(273,97)"/>
<path d="M0 0 C0.74507812 0.00451172 1.49015625 0.00902344 2.2578125 0.01367188 C4.0885764 0.02540754 5.91929873 0.0433415 7.75 0.0625 C7.75 0.3925 7.75 0.7225 7.75 1.0625 C1.15489096 3.00223795 -4.35403791 4.19771494 -11.25 4.0625 C-11.58 3.0725 -11.91 2.0825 -12.25 1.0625 C-8.15996141 -0.08732602 -4.21822949 -0.04844256 0 0 Z " fill="#E5E5E5" transform="translate(250.25,97.9375)"/>
<path d="M0 0 C0.66 0.99 1.32 1.98 2 3 C1.3125 5.625 1.3125 5.625 0 8 C-0.99 8.33 -1.98 8.66 -3 9 C-2.34 9.66 -1.68 10.32 -1 11 C-1.804375 11.12375 -2.60875 11.2475 -3.4375 11.375 C-4.283125 11.58125 -5.12875 11.7875 -6 12 C-6.33 12.66 -6.66 13.32 -7 14 C-7.74609375 12.328125 -7.74609375 12.328125 -8 10 C-6.34765625 7.421875 -6.34765625 7.421875 -4.0625 4.75 C-2.93521484 3.41195312 -2.93521484 3.41195312 -1.78515625 2.046875 C-1.19605469 1.37140625 -0.60695312 0.6959375 0 0 Z " fill="#F9F9F9" transform="translate(187,172)"/>
<path d="M0 0 C0.33 0.66 0.66 1.32 1 2 C0.67 2.66 0.34 3.32 0 4 C0.99 4.33 1.98 4.66 3 5 C2.01 5.495 2.01 5.495 1 6 C1.66 7.32 2.32 8.64 3 10 C1.68 9.67 0.36 9.34 -1 9 C-0.67 10.32 -0.34 11.64 0 13 C-1.32 12.67 -2.64 12.34 -4 12 C-3.5317879 7.22423661 -2.75668002 3.95523655 0 0 Z " fill="#0C0C0C" transform="translate(204,211)"/>
<path d="M0 0 C0.99 0 1.98 0 3 0 C2.36934243 3.21852831 1.21979305 5.50801069 -0.5625 8.25 C-1.01753906 8.95640625 -1.47257813 9.6628125 -1.94140625 10.390625 C-2.29074219 10.92171875 -2.64007813 11.4528125 -3 12 C-3.66 11.34 -4.32 10.68 -5 10 C-4.96712417 7.27130593 -4.43602229 4.7033382 -4 2 C-3.01 2 -2.02 2 -1 2 C-0.67 1.34 -0.34 0.68 0 0 Z " fill="#0B0B0B" transform="translate(191,160)"/>
<path d="M0 0 C4.46840411 0.49648935 5.68987756 0.68987756 9 4 C5.04 5.32 1.08 6.64 -3 8 C-3 7.34 -3 6.68 -3 6 C-2.34 6 -1.68 6 -1 6 C-1.33 5.01 -1.66 4.02 -2 3 C-1.34 2.01 -0.68 1.02 0 0 Z " fill="#0B0B0B" transform="translate(229,96)"/>
<path d="M0 0 C6.09781001 -0.22084624 11.21642935 -0.01167675 17 2 C17 2.66 17 3.32 17 4 C15.68 4 14.36 4 13 4 C12.67 4.33 12.34 4.66 12 5 C6.125 3.125 6.125 3.125 5 2 C3.00041636 1.95919217 0.99954746 1.95745644 -1 2 C-0.67 1.34 -0.34 0.68 0 0 Z " fill="#F5F5F5" transform="translate(252,99)"/>
<path d="M0 0 C0.33 1.65 0.66 3.3 1 5 C1.99 5.33 2.98 5.66 4 6 C-0.96916636 5.48594831 -5.29026351 4.76615118 -10 3 C-6.71687741 1.24118433 -3.76143005 0 0 0 Z " fill="#1E1E1E" transform="translate(120,194)"/>
<path d="M0 0 C1 3 1 3 0.5 5.9375 C0.03154544 8.8067842 0.06784834 10.30711744 1 13 C0.34 12.34 -0.32 11.68 -1 11 C-2.65 12.32 -4.3 13.64 -6 15 C-4.36041242 9.76727367 -2.61047965 4.84803364 0 0 Z " fill="#E8E8E8" transform="translate(207,121)"/>
<path d="M0 0 C0.33 0.66 0.66 1.32 1 2 C3.02463255 2.65213292 3.02463255 2.65213292 5 3 C5 3.66 5 4.32 5 5 C3.02 5.99 1.04 6.98 -1 8 C-1.309375 7.21625 -1.61875 6.4325 -1.9375 5.625 C-2.92875038 3.07669872 -2.92875038 3.07669872 -4 1 C-2 0 -2 0 0 0 Z " fill="#0C0C0C" transform="translate(166,184)"/>
<path d="M0 0 C0.99 0 1.98 0 3 0 C1.44298069 4.67105792 -1.08447373 8.08705685 -4 12 C-4.66 11.34 -5.32 10.68 -6 10 C-5.34 10 -4.68 10 -4 10 C-3.67 8.35 -3.34 6.7 -3 5 C-2.34 5 -1.68 5 -1 5 C-0.67 3.35 -0.34 1.7 0 0 Z " fill="#EDEDED" transform="translate(294,170)"/>
<path d="M0 0 C0.66 0 1.32 0 2 0 C1.67 2.64 1.34 5.28 1 8 C-0.32 8 -1.64 8 -3 8 C-3.33 6.35 -3.66 4.7 -4 3 C-2.68 2.67 -1.36 2.34 0 2 C0 1.34 0 0.68 0 0 Z " fill="#0F0F0F" transform="translate(199,136)"/>
<path d="M0 0 C2.97 0.495 2.97 0.495 6 1 C5.67 2.65 5.34 4.3 5 6 C4.01 6 3.02 6 2 6 C1.34 6.66 0.68 7.32 0 8 C0 5.36 0 2.72 0 0 Z " fill="#E9E9E9" transform="translate(97,192)"/>
<path d="M0 0 C0.33 0 0.66 0 1 0 C1 3.96 1 7.92 1 12 C-0.98 12.99 -0.98 12.99 -3 14 C-3.80528889 16.05000871 -3.80528889 16.05000871 -4 18 C-4.98120464 14.94736336 -4.98120464 13.05263664 -4 10 C-3.67 10.66 -3.34 11.32 -3 12 C-2.34 11.67 -1.68 11.34 -1 11 C-0.5316735 8.41394668 -0.5316735 8.41394668 -0.375 5.4375 C-0.30023438 4.42558594 -0.22546875 3.41367188 -0.1484375 2.37109375 C-0.09945313 1.58863281 -0.05046875 0.80617187 0 0 Z " fill="#D1D1D1" transform="translate(301,142)"/>
<path d="M0 0 C2 2 2 2 2.125 4.625 C2.08375 5.40875 2.0425 6.1925 2 7 C0.35 7.33 -1.3 7.66 -3 8 C-2.45276317 4.62537285 -1.9451 2.91765 0 0 Z " fill="#F6F6F6" transform="translate(211,116)"/>
<path d="M0 0 C0.86625 0.556875 0.86625 0.556875 1.75 1.125 C-3 6 -3 6 -5.25 7.125 C-5.58 5.145 -5.91 3.165 -6.25 1.125 C-2.80384615 -1.09038462 -2.80384615 -1.09038462 0 0 Z " fill="#EEEEEE" transform="translate(208.25,204.875)"/>
<path d="M0 0 C1.95766281 -0.08082094 3.91626728 -0.13910778 5.875 -0.1875 C7.51082031 -0.23970703 7.51082031 -0.23970703 9.1796875 -0.29296875 C10.11039063 -0.19628906 11.04109375 -0.09960938 12 0 C12.66 0.99 13.32 1.98 14 3 C13 4 13 4 10.4375 4.0625 C9.2309375 4.0315625 9.2309375 4.0315625 8 4 C8 3.01 8 2.02 8 1 C5.36 1 2.72 1 0 1 C0 0.67 0 0.34 0 0 Z " fill="#E2E2E2" transform="translate(128,200)"/>
<path d="M0 0 C0.33 0.66 0.66 1.32 1 2 C1.66 2.33 2.32 2.66 3 3 C-0.50776784 4.60355101 -3.14354879 5.22036864 -7 5 C-6.67 4.01 -6.34 3.02 -6 2 C-2.9375 0.8125 -2.9375 0.8125 0 0 Z " fill="#ECECEC" transform="translate(267,194)"/>
<path d="M0 0 C0.33 0.66 0.66 1.32 1 2 C0.67 2.66 0.34 3.32 0 4 C0.66 4.33 1.32 4.66 2 5 C-1.50776784 6.60355101 -4.14354879 7.22036864 -8 7 C-7.236875 6.401875 -6.47375 5.80375 -5.6875 5.1875 C-3.6516425 3.53040668 -1.8021721 1.89702326 0 0 Z " fill="#ECECEC" transform="translate(177,183)"/>
<path d="M0 0 C0.99 1.32 1.98 2.64 3 4 C-2.625 6.125 -2.625 6.125 -6 5 C-6 4.34 -6 3.68 -6 3 C-4.02 2.01 -2.04 1.02 0 0 Z " fill="#121212" transform="translate(276,193)"/>
<path d="M0 0 C0.66 0.33 1.32 0.66 2 1 C0.60667426 4.36720387 -0.9789286 5.9859524 -4 8 C-4 7.34 -4 6.68 -4 6 C-4.66 5.67 -5.32 5.34 -6 5 C-4.02 3.35 -2.04 1.7 0 0 Z " fill="#0F0F0F" transform="translate(216,107)"/>
<path d="M0 0 C0.66 0.99 1.32 1.98 2 3 C1.125 5.6875 1.125 5.6875 0 8 C-1.32 7.67 -2.64 7.34 -4 7 C-2.79618552 4.50638429 -1.54571278 2.31856917 0 0 Z " fill="#EFEFEF" transform="translate(187,172)"/>
<path d="M0 0 C2.3773161 2.3773161 2.67028521 3.70285207 3 7 C2.34 7.66 1.68 8.32 1 9 C0.67 8.34 0.34 7.68 0 7 C-0.33 7.66 -0.66 8.32 -1 9 C-1.66 8.67 -2.32 8.34 -3 8 C-2.01 5.36 -1.02 2.72 0 0 Z " fill="#121212" transform="translate(299,164)"/>
<path d="M0 0 C-1.625 2 -1.625 2 -4 4 C-7.25 4.25 -7.25 4.25 -10 4 C-7.39928297 0.98864344 -3.94054294 -1.97027147 0 0 Z " fill="#E2E2E2" transform="translate(234,102)"/>
<path d="M0 0 C5.875 4.625 5.875 4.625 7 8 C4.625 7.75 4.625 7.75 2 7 C0.2058242 4.43689172 0 3.16880694 0 0 Z " fill="#F2F2F2" transform="translate(285,112)"/>
<path d="M0 0 C-0.5625 1.9375 -0.5625 1.9375 -2 4 C-5.625 4.75 -5.625 4.75 -9 5 C-2.87096774 0 -2.87096774 0 0 0 Z " fill="#0C0C0C" transform="translate(217,202)"/>
<path d="M0 0 C1.32 0.66 2.64 1.32 4 2 C4 2.66 4 3.32 4 4 C1.625 4.625 1.625 4.625 -1 5 C-1.66 4.34 -2.32 3.68 -3 3 C-2.01 2.01 -1.02 1.02 0 0 Z " fill="#0C0C0C" transform="translate(151,193)"/>
<path d="M0 0 C0.99 0.99 1.98 1.98 3 3 C3 3.66 3 4.32 3 5 C2.34 5 1.68 5 1 5 C0.34 6.32 -0.32 7.64 -1 9 C-1.66 8.67 -2.32 8.34 -3 8 C-2.01 5.36 -1.02 2.72 0 0 Z " fill="#EDEDED" transform="translate(196,155)"/>
<path d="M0 0 C1.125 1.75 1.125 1.75 2 4 C1.125 6.25 1.125 6.25 0 8 C-0.99 8 -1.98 8 -3 8 C-1.125 2.25 -1.125 2.25 0 0 Z " fill="#ECECEC" transform="translate(299,134)"/>
<path d="M0 0 C0 0.99 0 1.98 0 3 C-2.3125 4.75 -2.3125 4.75 -5 6 C-5.99 5.67 -6.98 5.34 -8 5 C-5.44008376 2.98863724 -2.95409701 1.37154504 0 0 Z " fill="#E4E4E4" transform="translate(168,190)"/>
<path d="M0 0 C0.33 1.32 0.66 2.64 1 4 C1.66 4 2.32 4 3 4 C2.34 5.65 1.68 7.3 1 9 C0.34 9 -0.32 9 -1 9 C-0.67 6.03 -0.34 3.06 0 0 Z " fill="#1A1A1A" transform="translate(301,154)"/>
</svg>
