<svg xmlns="http://www.w3.org/2000/svg" viewBox="0 0 180 180" fill="none">
  <g fill="#000">
    <path d="M0 1379v-420l22 15c15 11 45 16 94 16h71l12 56c16 70 89 217 134 269l34 39-53 43c-61 50-76 91-50 141 18 34 33 42 85 42 38 0 94-32 134-78l18-20 87 44c52 27 124 54 180 67l92 22v70c0 48 5 78 16 93l15 22-445 0-446 0v-421z"/>
    <path d="M1030 1781c5-11 10-53 10-94v-75l43-7c79-13 192-54 257-94l65-39 53 59c48 52 58 59 91 59 49 0 88-30 97-74 7-41-10-76-63-131l-39-40 70-95c82-111 127-197 152-286 9-35 21-64 25-64 5 0 9 203 9 450v450l-390 0c-383 0-391 0-380-19z"/>
    <path d="M806 1534c-351-78-584-381-563-734 15-260 159-476 397-595 121-60 273-85 405-65 283 43 494 220 585 490 30 90 38 258 16 360-53 250-259 466-511 535-88 24-245 28-329 9z"/>
  </g>
</svg>
