<?xml version="1.0" encoding="UTF-8"?>
<svg version="1.1" viewBox="0 0 1280 1280" xmlns="http://www.w3.org/2000/svg">
<path d="M0 0 C59.4 0 118.8 0 180 0 C180 59.4 180 118.8 180 180 C120.6 180 61.2 180 0 180 C0 120.6 0 61.2 0 0 Z " fill="#FAFAFA" transform="translate(0,0)"/>
<path d="M0 0 C10.7290115 9.16749613 18.33100589 19.60107272 23 33 C23.28746094 33.78503906 23.57492188 34.57007813 23.87109375 35.37890625 C29.91250106 52.46250301 27.45297346 71.03278818 19.8828125 87.22167969 C11.03288039 105.04881062 -3.92907417 117.45597271 -22.48901367 124.18701172 C-38.73018943 129.44545754 -60.22220421 129.41663551 -75.69921875 121.64453125 C-77.91086461 120.20483857 -79.93868789 118.64588452 -82 117 C-83.66428737 115.89225032 -85.3310639 114.78823343 -87 113.6875 C-101.78676978 103.21067242 -111.78738362 87.61098585 -115.49609375 69.8515625 C-118.17760262 49.35568853 -115.2507109 30.11974891 -102.6875 13.25 C-101.48233117 11.81286283 -100.25174131 10.39676012 -99 9 C-98.28328125 8.17886719 -97.5665625 7.35773437 -96.828125 6.51171875 C-71.74329282 -20.49956296 -28.84579542 -22.03722081 0 0 Z " fill="#EEAC8E" transform="translate(140,40)"/>
<path d="M0 0 C10.7290115 9.16749613 18.33100589 19.60107272 23 33 C23.28746094 33.78503906 23.57492188 34.57007813 23.87109375 35.37890625 C29.91250106 52.46250301 27.45297346 71.03278818 19.8828125 87.22167969 C11.03288039 105.04881062 -3.92907417 117.45597271 -22.48901367 124.18701172 C-38.73018943 129.44545754 -60.22220421 129.41663551 -75.69921875 121.64453125 C-77.91086461 120.20483857 -79.93868789 118.64588452 -82 117 C-83.66428737 115.89225032 -85.3310639 114.78823343 -87 113.6875 C-101.78676978 103.21067242 -111.78738362 87.61098585 -115.49609375 69.8515625 C-118.17760262 49.35568853 -115.2507109 30.11974891 -102.6875 13.25 C-101.48233117 11.81286283 -100.25174131 10.39676012 -99 9 C-98.28328125 8.17886719 -97.5665625 7.35773437 -96.828125 6.51171875 C-71.74329282 -20.49956296 -28.84579542 -22.03722081 0 0 Z M-95.75 12.8125 C-108.14278264 27.90323292 -112.53695259 44.41538632 -111.23925781 63.59082031 C-109.46604325 81.44600534 -99.45676071 95.62441671 -86.46875 107.26953125 C-82.63486481 110.40692729 -79.98000253 112.27989511 -75 113 C-75.65585189 109.39007621 -75.65585189 109.39007621 -77 106 C-77.50114443 101.74438005 -77.69712018 98.19091365 -75.5 94.4375 C-72.00953713 92.43048385 -68.87479185 92.23432257 -65 93 C-61.86617926 94.92302636 -60.15945604 96.78074795 -58 99.75 C-56.19206483 102.28811677 -56.19206483 102.28811677 -53.25 102.3125 C-52.5075 102.209375 -51.765 102.10625 -51 102 C-50.66407492 99.7104607 -50.66407492 99.7104607 -51 97 C-51.61875 96.2575 -52.2375 95.515 -52.875 94.75 C-55.09581249 91.87600737 -55.25652142 90.99308949 -55.6875 87.5625 C-56.23465127 84.55316801 -56.59517646 83.34710773 -58.9453125 81.33203125 C-60.53170593 80.35558777 -62.13106284 79.39991771 -63.7421875 78.46484375 C-67.10865119 76.28071938 -69.11662096 73.50202609 -71 70 C-71.36996094 69.31679687 -71.73992187 68.63359375 -72.12109375 67.9296875 C-73.44116215 63.5294595 -73.2088756 59.25226842 -73.125 54.6875 C-73.11597656 53.75615234 -73.10695312 52.82480469 -73.09765625 51.86523438 C-73.07418263 49.5765564 -73.04134729 47.28841328 -73 45 C-71.35 44.34 -69.7 43.68 -68 43 C-68.11859375 44.02738281 -68.2371875 45.05476563 -68.359375 46.11328125 C-69.32052907 55.75398317 -69.49596203 63.97208053 -63.41796875 72.12109375 C-57.6936153 78.33647526 -52.42368662 80.15236436 -44.125 80.5 C-36.55524582 80.31517585 -31.750332 78.47773078 -26.2265625 73.35546875 C-21.74321446 68.51126587 -18.90406779 63.32262692 -18.625 56.625 C-18.92258186 49.33424455 -21.06114918 42.88699637 -26.17578125 37.57421875 C-35.23053866 29.76037028 -44.67747127 30.44497408 -56 31 C-56 29.35 -56 27.7 -56 26 C-44.21239886 25.41061994 -33.60061461 25.02030499 -23.8203125 32.71484375 C-21.12678587 35.26866464 -19.26374889 37.43482381 -17.6875 40.8125 C-15.18946043 44.05069944 -12.30216284 44.01116545 -8.375 44.54296875 C-6 45 -6 45 -3 47 C-0.66800612 47.07905064 1.66832622 47.08798769 4 47 C4.33 45.35 4.66 43.7 5 42 C4.29875 41.443125 3.5975 40.88625 2.875 40.3125 C1.92625 39.549375 0.9775 38.78625 0 38 C-1.0725 37.236875 -2.145 36.47375 -3.25 35.6875 C-6 33 -6 33 -7.125 29.4375 C-7 26 -7 26 -5.5 23.5625 C-0.67834301 20.54896438 4.6621075 21.95846 10 23 C10.495 22.01 10.495 22.01 11 21 C7.61660171 16.31440031 4.25049222 11.94688564 0 8 C-0.58523437 7.44441406 -1.17046875 6.88882813 -1.7734375 6.31640625 C-15.14885433 -5.97523175 -32.19045792 -10.60337835 -50.09765625 -10.3125 C-68.16204617 -8.86590221 -83.51886407 -0.29034272 -95.75 12.8125 Z " fill="#9764A5" transform="translate(140,40)"/>
<path d="M0 0 C0.66 0 1.32 0 2 0 C2 29.7 2 59.4 2 90 C-57.4 90 -116.8 90 -178 90 C-178 62.28 -178 34.56 -178 6 C-176.515 6.99 -176.515 6.99 -175 8 C-172.42286746 8.4562792 -169.90701715 8.82945276 -167.3125 9.125 C-166.61060547 9.21136719 -165.90871094 9.29773438 -165.18554688 9.38671875 C-163.45788855 9.59826875 -161.7290434 9.800086 -160 10 C-159.87625 11.1859375 -159.7525 12.371875 -159.625 13.59375 C-158.35511207 24.0537593 -155.99563391 32.3857452 -150.83984375 41.58203125 C-149.16426171 44.6948429 -147.99923644 47.61916377 -147 51 C-147.5775 51.56847656 -148.155 52.13695312 -148.75 52.72265625 C-153.48853794 57.54238002 -153.48853794 57.54238002 -155.75 63.75 C-154.85700659 67.61963812 -154.04383182 69.42445 -151 72 C-147.54295504 72.83345815 -147.54295504 72.83345815 -144 72 C-141.29182272 69.79197732 -141.29182272 69.79197732 -139 67 C-137.3496045 65.64657832 -135.68507484 64.30999173 -134 63 C-133.47535156 63.46148437 -132.95070312 63.92296875 -132.41015625 64.3984375 C-112.08039241 81.51467794 -90.5126241 89.51152188 -64 88 C-49.32592111 86.4148856 -34.72711231 78.97779196 -24 69 C-23.319375 68.40960938 -22.63875 67.81921875 -21.9375 67.2109375 C-9.74151711 56.01540634 -0.69537026 38.56458651 0.15698242 21.93774414 C0.19590007 18.60198153 0.17504331 15.2730793 0.125 11.9375 C0.11597656 10.78572266 0.10695312 9.63394531 0.09765625 8.44726562 C0.07428714 5.63128807 0.04152565 2.81575842 0 0 Z " fill="#FFD502" transform="translate(178,90)"/>
<path d="M0 0 C29.7 0 59.4 0 90 0 C89.01 1.32 88.02 2.64 87 4 C86.63082726 6.64902575 86.40031112 9.09559527 86.3125 11.75 C86.27833984 12.44738281 86.24417969 13.14476562 86.20898438 13.86328125 C86.12691705 15.57497108 86.06177081 17.2874576 86 19 C84.5459375 19.29390625 84.5459375 19.29390625 83.0625 19.59375 C73.76555366 21.6176228 65.80643152 24.70660508 57.42578125 29.1953125 C54.64519774 30.66011248 51.94113185 31.90902566 49 33 C48.61328125 32.52949219 48.2265625 32.05898438 47.828125 31.57421875 C43.33842655 25.61308453 43.33842655 25.61308453 36.859375 22.6875 C32.08655024 22.43570031 32.08655024 22.43570031 27.9375 24.5 C26.52837044 28.25767883 25.68458357 31.17394105 27 35 C30.02515386 38.4052779 33.39883479 41.22195826 37 44 C35.51323244 47.20170243 33.68811101 49.95207316 31.625 52.8125 C25.2086769 61.93882291 21.01557056 70.88382299 19 82 C17.96359375 81.96519531 16.9271875 81.93039063 15.859375 81.89453125 C14.48959958 81.86638518 13.11980659 81.83908589 11.75 81.8125 C11.06808594 81.78736328 10.38617188 81.76222656 9.68359375 81.73632812 C4.97657186 81.66777926 3.9791154 82.01566345 0 85 C0 56.95 0 28.9 0 0 Z " fill="#167AF0" transform="translate(0,0)"/>
<path d="M0 0 C0.81984375 0.0721875 1.6396875 0.144375 2.484375 0.21875 C3.56203125 0.3115625 4.6396875 0.404375 5.75 0.5 C7.35101563 0.63921875 7.35101563 0.63921875 8.984375 0.78125 C11.3179218 0.95052283 13.66032182 1 16 1 C16.81974263 3.03876949 17.6304807 5.08116075 18.4375 7.125 C18.88996094 8.26195313 19.34242188 9.39890625 19.80859375 10.5703125 C23.98665624 22.59765304 23.08348183 37.07886755 19 49 C18.6596875 49.99515625 18.319375 50.9903125 17.96875 52.015625 C11.50091995 69.05923121 -0.80271676 81.18428036 -17 89 C-32.46177003 95.16333229 -51.46440717 97.31472366 -67.18359375 90.875 C-67.78300781 90.58625 -68.38242188 90.2975 -69 90 C-68.96519531 89.07767578 -68.96519531 89.07767578 -68.9296875 88.13671875 C-68.91164063 87.32847656 -68.89359375 86.52023438 -68.875 85.6875 C-68.84019531 84.48673828 -68.84019531 84.48673828 -68.8046875 83.26171875 C-68.84182678 80.71611424 -68.84182678 80.71611424 -71 78 C-71.125 74.8125 -71.125 74.8125 -71 72 C-68.525 71.505 -68.525 71.505 -66 71 C-65.51789063 71.56589844 -65.03578125 72.13179688 -64.5390625 72.71484375 C-63.59160156 73.81505859 -63.59160156 73.81505859 -62.625 74.9375 C-61.68527344 76.03384766 -61.68527344 76.03384766 -60.7265625 77.15234375 C-58.77876058 79.23675621 -57.77468424 79.92356057 -54.94140625 80.203125 C-53.76384766 80.22632813 -53.76384766 80.22632813 -52.5625 80.25 C-51.78003906 80.27578125 -50.99757813 80.3015625 -50.19140625 80.328125 C-47.94019408 80.16423988 -47.94019408 80.16423988 -46.24609375 78.71875 C-44.50184664 76.31289192 -44.47678152 74.03797702 -44.5625 71.12890625 C-45.21116421 67.97245989 -46.84051613 65.95872975 -48.90625 63.54296875 C-50 62 -50 62 -50 59 C-48.97261719 58.99742188 -47.94523437 58.99484375 -46.88671875 58.9921875 C-36.68750642 58.78242872 -29.13089639 57.26974323 -21.13671875 50.3984375 C-13.54007692 42.44364134 -12.33147677 32.57410905 -12 22 C-8.26512223 22.4979837 -6.18762365 22.87491756 -3 25 C1.76474651 25.8476609 5.05074203 25.65866879 9.0625 22.875 C11.14094847 20.15341547 11.14094847 20.15341547 11.6875 17.125 C10.43437963 11.42899831 6.35546724 7.74993388 1.625 4.5625 C0.75875 4.046875 -0.1075 3.53125 -1 3 C-0.67 2.01 -0.34 1.02 0 0 Z " fill="#F2CB96" transform="translate(139,67)"/>
<path d="M0 0 C26.07 0 52.14 0 79 0 C79 29.7 79 59.4 79 90 C78.34 90 77.68 90 77 90 C76.63648438 88.88882813 76.27296875 87.77765625 75.8984375 86.6328125 C71.13720809 72.39880389 64.10694505 61.50153059 55.14160156 49.55883789 C54.05120355 48.06991759 53.02369639 46.53554459 52 45 C52.721875 44.484375 53.44375 43.96875 54.1875 43.4375 C57.94548069 40.1805834 61.36693797 36.91972573 62.453125 31.91015625 C62.62798605 28.55657113 62.2167352 26.34677632 60.4375 23.5 C57.00863886 21.38993161 54.95779649 21.37508477 51 22 C48.29199403 24.03949126 48.29199403 24.03949126 46 27 C44.89661886 28.27151541 43.79243819 29.54233741 42.6875 30.8125 C41.7895947 31.87324959 40.89301656 32.93513145 40 34 C39.27296875 33.55269531 38.5459375 33.10539062 37.796875 32.64453125 C26.56855817 25.89314587 15.86296586 21.55184645 3 19 C2.92652344 17.31970703 2.92652344 17.31970703 2.8515625 15.60546875 C2.77652144 14.13278797 2.70097418 12.66013293 2.625 11.1875 C2.57859375 10.08051758 2.57859375 10.08051758 2.53125 8.95117188 C2.32653852 5.18106885 2.13566173 3.20349259 0 0 Z " fill="#167AF0" transform="translate(101,0)"/>
<path d="M0 0 C5.75934301 4.9278455 8.18473805 10.84573278 9.3515625 18.22265625 C9.782873 24.65826298 7.57181716 29.72304399 4 35 C-0.41442403 39.88666473 -5.73257625 43.57925286 -12.3671875 44.43359375 C-20.83623395 44.44302476 -26.54486001 43.99519639 -32.9296875 38.26953125 C-38.26259271 32.72640779 -41.0368046 26.71947122 -41.3125 19 C-41.24081454 17.66452643 -41.13535136 16.3305294 -41 15 C-40.94199219 14.25621094 -40.88398437 13.51242188 -40.82421875 12.74609375 C-39.85622721 5.85352749 -36.33668643 3.07913062 -31 -1 C-30.50371094 -1.53882812 -30.00742188 -2.07765625 -29.49609375 -2.6328125 C-22.16734628 -9.33010131 -7.04739316 -5.12655672 0 0 Z " fill="#FBF9F9" transform="translate(112,76)"/>
<path d="M0 0 C9.3620798 8.61628701 13.66299823 22.04024119 14.28125 34.5546875 C14.88869561 55.78141915 8.08893663 73.89031249 -6.390625 89.51171875 C-20.65144931 103.11073833 -39.01393366 109.54782561 -58.59667969 109.42382812 C-69.844268 109.04635804 -80.26316258 105.59009019 -90 100 C-86.60578052 98.83780694 -84.88387251 99.21039193 -81.5625 100.4375 C-69.22724791 104.03528186 -54.02850248 103.35333883 -42 99 C-40.515 98.47212891 -40.515 98.47212891 -39 97.93359375 C-20.22007812 90.67553721 -7.02669735 77.94965711 1.53125 59.7421875 C9.41115468 40.72962679 8.36016302 21.86240912 1 3 C0.505 1.515 0.505 1.515 0 0 Z " fill="#F2CC98" transform="translate(159,64)"/>
<path d="M0 0 C0.495 0.99 0.495 0.99 1 2 C0.28714844 1.86722656 -0.42570312 1.73445313 -1.16015625 1.59765625 C-4.1049714 1.0546688 -7.0521293 0.52611861 -10 0 C-11.134375 -0.20625 -12.26875 -0.4125 -13.4375 -0.625 C-28.48478951 -2.20892521 -46.69732766 -0.02830883 -59.0703125 9.61328125 C-61.44196597 11.31760712 -63.38569358 11.69755285 -66.25 12.1875 C-67.14203125 12.34605469 -68.0340625 12.50460938 -68.953125 12.66796875 C-69.62859375 12.77753906 -70.3040625 12.88710938 -71 13 C-71.68707555 15.49064888 -72 17.37886292 -72 20 C-73.39857178 21.60324082 -74.79993699 23.20412546 -76.21484375 24.79296875 C-81.78766977 31.68278648 -85.51831046 39.51266522 -88.17578125 47.91796875 C-89 50 -89 50 -91 51 C-90.91807228 55.27155719 -90.8053279 59.54179424 -90.6875 63.8125 C-90.66494141 65.00810547 -90.64238281 66.20371094 -90.61914062 67.43554688 C-90.41763483 74.15851289 -89.7373171 80.17316319 -87.72973633 86.60424805 C-86.9840504 89.05236313 -86.46469987 91.48490652 -86 94 C-90.24374214 90.24971625 -91.92250354 85.15003976 -94 80 C-94.32613281 79.19820313 -94.65226562 78.39640625 -94.98828125 77.5703125 C-100.42611904 61.43720134 -97.54435079 43.76415549 -90.4609375 28.734375 C-81.20697092 11.62988701 -66.28924682 0.19203082 -47.8125 -5.3125 C-31.45958303 -9.38835317 -15.26887878 -6.70970448 0 0 Z " fill="#FBF9FA" transform="translate(126,37)"/>
<path d="M0 0 C11.88 0 23.76 0 36 0 C36.98653899 6.90577296 36.9347441 9.99506207 34 16 C30.51454194 20.21923871 26.6758158 23.55710635 21.16796875 24.46875 C14.09621417 24.54289684 9.34426892 23.80470331 4 19 C1.5 16.5 1.5 16.5 0 13 C0 8.71 0 4.42 0 0 Z " fill="#FFD502" transform="translate(78,90)"/>
<path d="M0 0 C1.97265625 1.875 1.97265625 1.875 5.97265625 9.875 C-5.90734375 9.875 -17.78734375 9.875 -30.02734375 9.875 C-27.75796637 3.06686785 -27.75796637 3.06686785 -25.15234375 0.5625 C-24.65992187 0.07136719 -24.1675 -0.41976562 -23.66015625 -0.92578125 C-16.94094461 -5.86070463 -6.71320609 -3.61383805 0 0 Z " fill="#197CF0" transform="translate(108.02734375,80.125)"/>
<path d="M0 0 C0.9796875 0.00515625 1.959375 0.0103125 2.96875 0.015625 C3.9484375 0.01046875 4.928125 0.0053125 5.9375 0 C8.46875 0.265625 8.46875 0.265625 10.46875 2.265625 C10.13875 3.585625 9.80875 4.905625 9.46875 6.265625 C5.17875 6.265625 0.88875 6.265625 -3.53125 6.265625 C-3.86125 4.945625 -4.19125 3.625625 -4.53125 2.265625 C-2.53125 0.265625 -2.53125 0.265625 0 0 Z " fill="#AD92BD" transform="translate(8.53125,86.734375)"/>
<path d="M0 0 C1.65 0.33 3.3 0.66 5 1 C4.55530671 6.03985731 2.28656638 8.37634988 -1 12 C-2.65 11.67 -4.3 11.34 -6 11 C-5.55530671 5.96014269 -3.28656638 3.62365012 0 0 Z " fill="#AB8EBB" transform="translate(34,145)"/>
<path d="M0 0 C5.03985731 0.44469329 7.37634988 2.71343362 11 6 C10.67 7.65 10.34 9.3 10 11 C4.96014269 10.55530671 2.62365012 8.28656638 -1 5 C-0.67 3.35 -0.34 1.7 0 0 Z " fill="#AA8EBA" transform="translate(33,28)"/>
<path d="M0 0 C1.32 0.33 2.64 0.66 4 1 C4 4.96 4 8.92 4 13 C2.35 13.33 0.7 13.66 -1 14 C-2.73849628 12.26150372 -2.17216296 9.9213363 -2.1875 7.5625 C-2.20167969 6.57378906 -2.21585937 5.58507812 -2.23046875 4.56640625 C-2 2 -2 2 0 0 Z " fill="#AA8DBA" transform="translate(94,4)"/>
<path d="M0 0 C1.32 0.33 2.64 0.66 4 1 C3.72731275 4.9085172 3.16393951 6.78596786 0.75 9.9375 C-2 12 -2 12 -4.8125 11.8125 C-5.534375 11.544375 -6.25625 11.27625 -7 11 C-6.40716379 7.60807637 -5.23256811 5.7892243 -2.9375 3.25 C-2.38964844 2.63640625 -1.84179688 2.0228125 -1.27734375 1.390625 C-0.85582031 0.93171875 -0.43429688 0.4728125 0 0 Z " fill="#AA8DB9" transform="translate(154,27)"/>
<path d="M0 0 C1.875 0.125 1.875 0.125 4 1 C5.8125 3.25 5.8125 3.25 7 6 C6.6875 8.8125 6.6875 8.8125 6 11 C3.6875 10.8125 3.6875 10.8125 1 10 C-0.875 7.6875 -0.875 7.6875 -2 5 C-1.75495152 2.79456367 -1.57580336 1.57580336 0 0 Z " fill="#AD8CB5" transform="translate(53,89)"/>
<path d="M0 0 C1.32 0.66 2.64 1.32 4 2 C3.6684371 5.0945871 2.97117406 6.02804686 0.6875 8.25 C-2 10 -2 10 -6 10 C-6.375 7.8125 -6.375 7.8125 -6 5 C-4.16038352 3.00977164 -2.20813852 1.61010101 0 0 Z " fill="#9763A5" transform="translate(78,70)"/>
<path d="M0 0 C1.67542976 0.28604898 3.34385343 0.61781233 5 1 C5.02689216 2.47906892 5.04634621 3.95827483 5.0625 5.4375 C5.07410156 6.26121094 5.08570313 7.08492188 5.09765625 7.93359375 C5 10 5 10 4 11 C2.33382885 11.04063832 0.66611905 11.042721 -1 11 C-1.02688151 9.35425434 -1.04634123 7.70838587 -1.0625 6.0625 C-1.07410156 5.14597656 -1.08570313 4.22945313 -1.09765625 3.28515625 C-1 1 -1 1 0 0 Z " fill="#ED8E86" transform="translate(55,118)"/>
<path d="M0 0 C0.8146875 0.00257812 1.629375 0.00515625 2.46875 0.0078125 C3.2834375 0.00523438 4.098125 0.00265625 4.9375 0 C6.96875 0.1328125 6.96875 0.1328125 7.96875 1.1328125 C7.96875 2.7828125 7.96875 4.4328125 7.96875 6.1328125 C4.66875 6.1328125 1.36875 6.1328125 -2.03125 6.1328125 C-2.41343767 4.47666593 -2.74520102 2.80824226 -3.03125 1.1328125 C-2.03125 0.1328125 -2.03125 0.1328125 0 0 Z " fill="#ED8E86" transform="translate(51.03125,68.8671875)"/>
<path d="M0 0 C0.8146875 0.00257812 1.629375 0.00515625 2.46875 0.0078125 C3.2834375 0.00523438 4.098125 0.00265625 4.9375 0 C6.96875 0.1328125 6.96875 0.1328125 7.96875 1.1328125 C7.96875 2.7828125 7.96875 4.4328125 7.96875 6.1328125 C4.66875 6.1328125 1.36875 6.1328125 -2.03125 6.1328125 C-2.41343767 4.47666593 -2.74520102 2.80824226 -3.03125 1.1328125 C-2.03125 0.1328125 -2.03125 0.1328125 0 0 Z " fill="#AB8BB6" transform="translate(117.03125,60.8671875)"/>
<path d="M0 0 C3.95820859 0.56545837 6.6659053 1.80902348 10 4 C9.67 5.32 9.34 6.64 9 8 C7.375 8.75 7.375 8.75 5 9 C1.75 7.0625 1.75 7.0625 -1 5 C-0.67 3.35 -0.34 1.7 0 0 Z " fill="#ED8E86" transform="translate(75,53)"/>
<path d="M0 0 C1.67542976 0.28604898 3.34385343 0.61781233 5 1 C5 3.97 5 6.94 5 10 C3.34385343 10.38218767 1.67542976 10.71395102 0 11 C-1 10 -1 10 -1.1328125 7.96875 C-1.13023438 7.1540625 -1.12765625 6.339375 -1.125 5.5 C-1.12757812 4.6853125 -1.13015625 3.870625 -1.1328125 3.03125 C-1 1 -1 1 0 0 Z " fill="#AC8DB7" transform="translate(35,87)"/>
<path d="M0 0 C1.67542976 0.28604898 3.34385343 0.61781233 5 1 C5 3.97 5 6.94 5 10 C3.34385343 10.38218767 1.67542976 10.71395102 0 11 C-1 10 -1 10 -1.1328125 7.96875 C-1.13023438 7.1540625 -1.12765625 6.339375 -1.125 5.5 C-1.12757812 4.6853125 -1.13015625 3.870625 -1.1328125 3.03125 C-1 1 -1 1 0 0 Z " fill="#ED8D86" transform="translate(115,41)"/>
<path d="M0 0 C0.556875 0.268125 1.11375 0.53625 1.6875 0.8125 C1.341656 3.92509604 0.81370033 5.64122813 -1.0625 8.1875 C-3.3125 9.8125 -3.3125 9.8125 -6.0625 9.5625 C-6.805 9.315 -7.5475 9.0675 -8.3125 8.8125 C-7.82204356 4.398392 -4.79279276 -0.38860482 0 0 Z " fill="#AA8BB6" transform="translate(103.3125,42.1875)"/>
<path d="M0 0 C0 1.32 0 2.64 0 4 C-4.12168689 5.62950412 -6.70700357 6.26264601 -11 5 C-10.8125 3.125 -10.8125 3.125 -10 1 C-6.36806148 -1.11863081 -3.99237419 -1.14067834 0 0 Z " fill="#AC8FBA" transform="translate(64,49)"/>
<path d="M0 0 C0.33 0.66 0.66 1.32 1 2 C-2.3 2 -5.6 2 -9 2 C-9.33 2.99 -9.66 3.98 -10 5 C-10.66 5 -11.32 5 -12 5 C-9.28085049 -1.02097391 -6.0998139 -0.0983841 0 0 Z " fill="#A16BA1" transform="translate(75,132)"/>
<path d="M0 0 C1.65 0.33 3.3 0.66 5 1 C4.67 2.32 4.34 3.64 4 5 C2.35 4.67 0.7 4.34 -1 4 C-0.67 2.68 -0.34 1.36 0 0 Z " fill="#ED8D85" transform="translate(47,107)"/>
<path d="M0 0 C0.99 0 1.98 0 3 0 C3 1.65 3 3.3 3 5 C1.68 5.33 0.36 5.66 -1 6 C-1.33 4.68 -1.66 3.36 -2 2 C-1.34 2 -0.68 2 0 2 C0 1.34 0 0.68 0 0 Z " fill="#ED8E86" transform="translate(85,38)"/>
<path d="M0 0 C4.73958333 4.25347222 4.73958333 4.25347222 5.9375 7.6875 C5.958125 8.450625 5.97875 9.21375 6 10 C5.34 10.66 4.68 11.32 4 12 C2.66666667 8 1.33333333 4 0 0 Z " fill="#E6BF9D" transform="translate(159,64)"/>
</svg>
