<svg xmlns="http://www.w3.org/2000/svg" width="240" height="240" viewBox="0 0 180 180"><g fill="#c68b8b"><path d="M83.8 8.7c.4 8.5.2 8.9-3.6 8.4-.8-.1-2 .3-2.7.9-.8.7-1.8.9-2.3.6-.6-.3-1.5 0-2.1.8-.7.8-2.1 1.2-3.1.9-1.2-.3-2 0-2 .6 0 .7-.4.9-1 .6-.5-.3-1-.2-1 .2 0 .5-1.7 1.5-3.7 2.2-2.1.8-4.4 1.6-5.2 1.9-1 .4-1.2.1-.6-.8.5-.9.4-1.1-.4-.6-.6.4-.8 1.2-.5 1.8.5.7.1.9-.9.5-1.2-.4-1.4-.2-1 1 .4 1 .2 1.4-.4 1s-1.3-.1-1.6.5c-.3.9-.9.7-2-.7-.8-1.1-1.3-2.3-1-2.8.2-.4.1-.7-.4-.6-1.3.3-4.7-1.3-5.6-2.7-.4-.7-2.7-1.6-5.2-1.9-2.4-.4-5-1.3-5.6-2.1S30 17 29.1 17.1c-1.2 0-1.2.2.3.8 1.8.7 1.8.8.3 1.4-.9.3-1.7 1.3-1.7 2.2 0 1.2-.4 1.3-1.8.6-1.5-.8-1.8-.5-1.9 1.7-.1 1.5-.5 4.2-.9 5.9-.3 2-.2 3.3.3 3.3.6 0 .9 1.2.7 2.6-.1 1.4 0 2.3.3 2s1.9.8 3.7 2.4c1.7 1.7 3.5 3 3.9 3 .5 0 .5.4.2 1-.3.5-.1 1 .6 1s.2.9-1.1 2c-1.2 1.1-2.6 1.7-3.1 1.5-.4-.3-1.1 0-1.5.6-.5.8-.3.9.5.5.8-.6 1.1-.2.9 1-.5 2.9-2.1 4.4-3.1 3q-.75-.9-.3.9c.3 1.1-.3 3.3-1.4 5-1.1 1.6-2 3.8-2 4.7 0 1-.4 1.8-1 1.8-.5 0-.7.7-.4 1.5.4.8.1 1.5-.5 1.5s-1.1.9-1.1 2-.4 2-1 2c-.5 0-1 .5-1 1.1 0 .5.5.7 1 .4 1.7-1 1.1 1.1-.7 2.8-1.1.9-4.5 1.7-8.3 2.1-8.8.7-8.6.6-8.8 3.4L0 85.4l2.4-2.3c2.2-2.1 3.2-2.3 9.5-1.9 5.5.3 7.1.1 7.1-1 0-.7 1.2-4.8 2.6-9 2.8-8.5 8-17.7 13.2-23.4 1.9-2.1 3-3.8 2.5-3.8-1.8 0-11.1-9.1-11.7-11.5-.8-3 1.6-8 4.3-9.5 3.7-1.9 8.1-1.1 12.5 2.2 5.8 4.6 6.6 5.5 6.6 7.3 0 1.3.6 1.1 3.3-.9 5.2-4 17.7-9.3 26.3-11.1l7.9-1.7-.3-7.3c-.3-6.5-.1-7.5 2-9.4l2.3-2.2-3.5.2-3.6.3zm1.3-5.4c-1 .9-1.1.8-.5-.6.3-1 .9-1.5 1.2-1.2s0 1.1-.7 1.8M31.5 20c-.3.5-1.2 1-1.8 1-.7 0-.6-.4.3-1 1.9-1.2 2.3-1.2 1.5 0"/><path d="M102.5 2c1.4 1.5 1.7 3.3 1.3 9.3l-.3 7.5 8 1.7c9.3 2 18.7 6 25.5 10.9 4.7 3.4 4.8 3.4 5.4 1.3.3-1.2 2.3-4.1 4.4-6.5 5-5.8 10-6.7 14.2-2.7 5.5 5.3 4.6 10.1-3.5 18.1-3.7 3.6-4.1 4.5-2.9 5.5 1.8 1.5 12.1 16 15.6 22.1 7.8 13.3 10.7 33.2 7.4 49.8-5.3 25.7-25.3 47.9-51.1 56.6-15.7 5.2-37.3 4.2-51.9-2.5-7.5-3.4-21.6-12.1-27.2-16.6l-4.1-3.4-4.5 5c-3.8 4.2-5 4.9-8.2 4.9-5.1 0-8.6-3.5-8.6-8.8 0-3 .8-4.8 3.7-8.3 2.1-2.4 4.1-4.7 4.6-5 .4-.3-1.3-4.4-3.8-9.1-4.8-9-8.5-21.4-8.5-28.2v-4.1h-5.8C6.1 99.6 2 98.6.7 96.7c-.5-.8-.7-.5-.5.8s1.6 2.4 3.8 3.2c1.9.7 2.9 1.2 2.1 1.2-.8.1-1.2.3-1 .5.3.3 2.1.1 4-.3 4.1-.9 6.9.5 6.9 3.6 0 1 .7 4.6 1.6 7.8.9 3.3 1.8 7.3 2 8.9.2 1.7.9 3.3 1.5 3.7.6.3 1 .9 1 1.3-.1.3 1.1 3 2.6 5.9 3.4 6.6 3.5 7.5 1.2 8.7-1 .6-1.9 1.5-1.9 2.1s-.9 2.4-2 3.9c-2.9 4.1-2.3 9.5 1.6 13.7 1.7 1.8 3 3.4 2.8 3.6-.2.1 1.5.2 3.7 0 2.7-.1 3.7.2 3.3.9-.5.7-.2.8.5.4.7-.5 1-1.1.7-1.4-1-.9 3.3-3.4 4.6-2.6.6.4.8.3.5-.3-.7-1 2.7-5.3 4.2-5.3.5 0 1.4.7 2.1 1.5s1.7 1.5 2.2 1.5 1.8.9 3 2 2.8 2 3.5 2 1.3.5 1.3 1.1c0 .5 1.5 1.6 3.3 2.4 3.8 1.6 6 3.8 4.9 5-.4.4.3.2 1.6-.4 1.2-.6 2.2-.8 2.2-.3 0 1.2 4 3 12.6 5.7 6 1.8 9.7 2.2 22.5 2.4 8.5 0 17.2-.4 19.4-.9 2.2-.6 4.8-1.3 5.9-1.5 1-.2 2.4-.9 3-1.5.7-.5 1.6-.7 1.9-.3.4.3.7.1.7-.6s.6-1.1 1.3-.8c.6.2 1.8-.3 2.5-1.2.8-.9 1.1-1 .7-.4-.3.7-.1 1.3.4 1.3.6 0 1.1-.4 1.1-.9 0-.6 1.8-2 4-3.2 2.2-1.3 4-2.7 4-3.3 0-.5.3-.7.6-.3.3.3 2.7-1.4 5.2-3.8s5-4.1 5.6-3.8c.5.3.6.2.3-.4-.4-.5.4-1.9 1.6-3.1 1.2-1.1 3.8-4.2 5.7-6.9 1.9-2.6 3.7-5 4.1-5.3.3-.3 1.8-3.7 3.3-7.5 1.6-3.9 3.3-8.1 4-9.4 1.7-3.7 1.4-46.7-.4-45.6-.3.2-1.3-2.3-2.4-5.6-1-3.2-2.2-5.6-2.7-5.3s-.6-.1-.3-.9-.2-1.7-1-2c-.9-.4-1.6-1.1-1.6-1.8 0-.6-1-2.5-2.2-4.2-1.3-1.8-2.3-3.4-2.3-3.7-.2-1.9-1.8-5-2.6-5-.5 0-.2 1.2.7 2.7l1.6 2.8-2.1-2.4c-1.2-1.3-2.1-2.9-2.1-3.7s-.4-1.4-1-1.4c-.5 0-1-.7-1-1.5s-.5-1.5-1.2-1.5c-.6 0-.3-.9.7-2s1.5-2 1.1-2 .2-.9 1.3-2.1c1.1-1.3 2.4-1.8 3.2-1.4.7.5 1 .4.6-.3-1.1-1.7.3-4.1 2.1-3.5 1.3.4 1.4.3.3-.5-.8-.6-1-1.5-.5-2.3 1.1-1.8 1.1-5.9 0-6.6-.5-.4-.6-.1-.1.7.5.9.4 1.1-.4.6-.6-.4-.9-1.1-.6-1.6.8-1.3-.6-4-2.1-4-.8 0-1.4-.7-1.4-1.6 0-1-.6-1.4-1.5-1-.8.3-1.5.1-1.5-.4s-.8-.6-1.7-.3c-1.3.5-1.5.3-.9-1.3.6-1.7.5-1.7-1.3.3-1.4 1.4-2.7 1.9-4.2 1.6-1.7-.5-2-.3-1.4.7.6.9.4 1.2-.6.8s-2.1.8-3.4 3.4c-1 2.2-2.7 4.4-3.8 4.9-2.1 1.2-5.1.4-4.2-1.1.4-.6-.1-.7-1.1-.3-1.2.4-1.5.3-1-.6.4-.6.4-1-.1-.9-1.2.4-7.3-2.6-7.3-3.5 0-.5-.5-.5-1.2-.1-.6.4-1.6 0-2.2-.8-1.2-1.6-6-3.2-5-1.7.3.5-.2.6-1 .3-.9-.3-1.3-1.1-1-1.6.4-.6-.2-.8-1.5-.3-1.2.4-2.7.2-3.4-.3-1.9-1.4-4.9-2.3-4.2-1.2.3.6.1 1-.4 1-.6 0-1.1-.5-1.1-1.1 0-.5-.3-.8-.7-.6-.5.3-.7-2.3-.5-5.8.4-6.8-.9-10.5-3.5-10.5-1.4 0-1.4.2.2 2"/><path d="M93.1 5.4c-.7.8-1.1 3.6-.9 6.8.3 4.9.5 5.3 2.8 5.3 2.4 0 2.5-.2 2.5-6.5 0-5.1-.3-6.5-1.6-6.8-.9-.1-2.1.4-2.8 1.2m3 7.2q-.3 4.65-1.2 3.3c-1.2-2-.8-7.9.5-7.9.7 0 1 1.7.7 4.6M64.8 17.2c.5.5 1.6.8 2.3.6.8-.3.3-.7-1-1.1-1.7-.4-2.1-.3-1.3.5M165 18.5c.7.9 1.5 1.3 1.7 1.1.7-.7-.7-2.6-1.9-2.6-.6 0-.6.6.2 1.5M137.6 25.2c.3.4.9.8 1.5.8.5 0 .9-.4.9-.8 0-.5-.7-.9-1.5-.9s-1.2.4-.9.9M141.5 25.1c-.4.6-.3 1.5.3 2.1q.9.9 1.5-.6c.7-1.8-.9-3.1-1.8-1.5M83.5 25.7c-5.2.7-15.8 4.4-23 8.2-9.7 5-30.1 25-23.2 22.9.6-.3 1.6-1.4 2.2-2.6.5-1.2 1.6-2.4 2.4-2.7s.2.9-1.2 2.7-3.2 3.2-4.1 3.2c-2.1-.2-5.6 5.9-9.1 15.6-3.3 9.1-4.5 26.2-2.6 36.2 4 20.4 16.5 37.6 35.4 48.6 9.7 5.7 18.1 8.1 30.7 8.9 13.2.8 23.7-1.3 36-7.4 7.9-3.9 11-6.2 18.1-13.2 9.9-9.9 14.7-18 18.5-30.9 3.3-11.6 3.5-26.2.5-37.5-1.2-4.3-1.8-8.3-1.5-8.9.4-.7.2-.8-.4-.4-.7.4-1.2.2-1.2-.4 0-2.9-10.9-17.6-17.7-24-15.6-14.5-37.6-21.3-59.8-18.3m9.2 1.9c-.3.3-1.2.4-1.9.1-.8-.3-.5-.6.6-.6 1.1-.1 1.7.2 1.3.5m4.6.1c-.7.2-1.9.2-2.5 0-.7-.3-.2-.5 1.2-.5s1.9.2 1.3.5m-22.2 2.7c-1.3 1.5-5.4 1.8-4.5.4.3-.5.9-.6 1.3-.4.4.3 1.3.1 2.1-.5 2.1-1.3 2.4-1.1 1.1.5m5.9-1c0 .2-.9.6-2 .9s-1.8.1-1.4-.4c.5-.9 3.4-1.3 3.4-.5m33 0c0 .2-.7.6-1.5 1-.8.3-1.5.1-1.5-.4 0-.6.7-1 1.5-1s1.5.2 1.5.4m2.7 4.5c8.3 2.9 11.1 3.1 9.7.9-.4-.5.4-.4 1.7.2 3.1 1.6 3.9 2.5 1.6 1.7-2.9-1.1-4.1.3-1.7 2 1.9 1.4 2.3 1.3 3.6-.3.9-1.1 1.3-1.3.9-.7-.4.8 0 1.3 1 1.3.9 0 1.4.4 1 1-.3.5-1.3.6-2.3.3-2.1-.7-1.2.3 4.6 5.1 4.1 3.4 6.2 3.9 6.2 1.5 0-.6-.5-.7-1.2-.3q-1.05.75-.3-.6c.6-1 .4-1.2-.9-.7-1 .4-1.5.3-1.1-.3.3-.5-.6-1.2-2-1.6q-3.75-.9-1.8-2.7c.3-.4 1.3 0 2.2.8s3.1 2.6 4.8 4.1c1.8 1.4 3.2 2.8 3 3.2-.1.4.2.8.6.9 1.5.3 5.6 5.6 5.1 6.5-.3.4 0 .8.5.8.6 0 1.1.9 1.1 2s.5 1.9 1.2 1.8c.7-.2 1.2.2 1.3.9 0 .7.8 2.1 1.7 3.3 1.7 1.9 1.7 2-.3 2-1.4 0-1.9-.5-1.6-1.4q.6-1.5-.9-.9c-.9.3-1.4 0-1.2-.8s-1-1.3-3.7-1.5c-2.2-.1-5.3-.5-6.9-.9-3.7-1-9.4 1.9-10.2 5.1-.9 3.3 2 7.8 7.6 11.8 5 3.6 6.1 6.1 3.8 8.4-.9.9-.9 1.2.2 1.2.7 0 1 .3.7.6-.4.4-1.3.2-2.1-.5-.8-.6-1.8-1.1-2.2-.9-.5.1-3-.8-5.6-2-2.6-1.3-5.9-2.2-7.3-2-2.6.3-2.6.3-.4 1.6 1.1.8 1.8.9 1.4.3-.8-1.4-.2-1.4 3 .1 1.4.6 2.5 1.6 2.5 2.1 0 .6.3.7.7.4.3-.4 1.1-.3 1.7.2s2.9 1.1 5.1 1.3l3.9.3.4-4.1c.3-3.5-.1-4.5-2.3-6.2-1.5-1.2-2.1-2.3-1.5-2.7.6-.3.7-1.2.3-1.8-.4-.7 0-.6 1 .2.9.7 1.5 1.7 1.2 2.1-.2.4.9 1.9 2.5 3.4 3.4 3 3.6 3.8 1.5 6-.8.8-1.5 1.9-1.5 2.4 0 3.1-8.8 2.9-13.4-.3-2.9-2-4.1-2.3-6.1-1.5-2.8 1-2.7.9-2.5 9.7.1 4.3-.4 6.9-1.5 8.7-1 1.4-1.4 2.6-.9 2.6.4 0 0 .6-1 1.3-.9.7-1.6 1.8-1.4 2.4s-.1 1-.5 1c-.5-.1-1.5 1-2.3 2.5-1.7 3.3-3.5 3.7-2.9.7.6-2.9 2.5-5 3.8-4.2.6.4.8 0 .4-1.1-.5-1.1-.3-1.5.5-1s.9.2.5-1c-.4-1-.3-1.5.3-1.1.6.3 1.1 0 1.2-.7.2-1.7.3-2.5 1.3-7.3 1.2-5.5 1.2-5.8.2-7.2-.5-.7-.6-1.7-.2-2.3.3-.5 0-1-.7-1.1-1 0-1-.2-.1-.6 1-.3.9-.8-.2-2-.8-.8-1.3-1.9-1-2.4.4-.5.2-.9-.4-.9s-1.5-.8-2-1.8c-.8-1.4-.6-1.9.5-1.9.9 0 1.3.6 1 1.4s-.1 1.1.4.8 1.9.9 3.1 2.7c1.7 2.8 1.9 2.9 1.4.8-3.8-13.6-21.2-22.6-37.4-19.4-2.6.6-3.1 1.1-3.1 3.5 0 3-1.7 3.8-3.7 1.8-1.3-1.3-3.6-.3-2.7 1.2.3.5 1 .7 1.5.4 1.8-1.2.9 1.2-1.3 3.1-1.4 1.2-1.8 1.4-1.3.4.5-.9.5-1.2-.1-.7-.5.5-.9 1.3-.9 1.8s-.3.9-.7.9c-.5 0-.8-.2-.8-.5v-2c0-.8.3-1.4.8-1.4.4.1 1.4.1 2.2 0 1.1-.1 1.2-.3.1-1.4-1.8-1.7-6.5 3.7-5.2 6.1 1.2 2.3.3 4.2-1.9 4.2-2.8 0-4 3-4.1 10.7-.2 7.5.6 12.3 2.7 16.5 1.5 2.9 4.8 2.9 3.7 0-.4-1 .1-.8 1.6.7 1.2 1.2 1.9 2.7 1.5 3.3-.4.7-.3.8.4.4.6-.3 1.6.3 2.2 1.4s1.5 1.8 2 1.5c.6-.4.7.1.3 1.1-.4 1.2-.3 1.5.5 1 .7-.4 2.2-.4 3.4 0 2 .6 2 .7.3 1.6-1.2.7-2 .7-2.5-.2-.4-.6-1-1.1-1.4-1.1-1.9.3-2.6 0-2.3-1.1.1-.7-.3-1.2-.9-1.3-.7 0-2.1-1.1-3.2-2.5s-2.4-2.2-2.8-1.7c-1 1 3.3 5.4 8.2 8.3 3.1 1.8 4.1 3 3.7 4.3-.6 2.5 2.6 9.3 4.1 8.8.7-.3 1.2.3 1.2 1.2.1.9.4 2.3.7 3.1.4.8.3 2.1-.2 2.9-1.4 2.1-5.4.6-7.5-2.9-2.1-3.7-7.1-7-10.4-7-3.5 0-7.9 2.7-8.6 5.2-1.1 4.2-.6 8.3 1.4 11.3 1.1 1.6 2 3.9 2 5 0 1.5-.3 1.7-.9.7-.4-.8-1.1-1.3-1.5-1.3-1.7.3-2.6 0-3.8-1.1-.7-.7-3.4-2.9-5.9-4.8-11-8.5-18.3-19.5-22.5-33.9-2.3-8.2-2.6-10.6-2.2-20 .8-17.7 6.6-30.7 19.4-43.7 5.5-5.6 9.1-8.1 16.5-11.8 11.8-5.9 20.3-7.7 33.2-7.1 7.4.3 11.8 1.1 18.4 3.4m-59.2 5c.3.5.2 1.2-.3 1.5s-.9-.1-.9-.9c0-1.7.3-1.9 1.2-.6M54 41.5c-.7.8-1.8 1.5-2.4 1.4-.7 0-.6-.2.2-.6.6-.2 1-.9.6-1.4-.3-.5.2-.9 1.2-.9 1.3 0 1.4.3.4 1.5m-3 2.9c0 .3-.4.8-1 1.1-.5.3-1 .1-1-.4 0-.6.5-1.1 1-1.1.6 0 1 .2 1 .4m-3.3 2.1c0 .8-.4 1.2-.9.9s-.6-1-.3-1.5c.9-1.3 1.2-1.1 1.2.6m-3 3c0 .8-.4 1.2-.9.9s-.6-1-.3-1.5c.9-1.3 1.2-1.1 1.2.6M36.5 61c-.3.5-1.2 1-1.8 1-.7 0-.6-.4.3-1 1.9-1.2 2.3-1.2 1.5 0M146 64.3c2.2 1.1 2.8 1.1 3.8 0 1.8-1.8 3.1-1.6 2.8.4-.2 1.3-1.2 1.8-3.2 1.7-6.3-.3-9.2-.9-8.6-1.9.3-.6-.1-.4-1 .3-1.2 1-1.8.9-2.8-.3-1.1-1.3-.7-1.5 2.6-1.5 2.2 0 5 .6 6.4 1.3m-111 .1c0 .2-.8 1-1.7 1.7-1.6 1.3-1.7 1.2-.4-.4s2.1-2.1 2.1-1.3m101.8 2.1c-.2.6-.6.9-1 .7-.5-.1-.8.2-.8.8 0 .5.5 1 1.2 1 .9 0 .9.3 0 1.2-.6.6-1.5.9-1.8.5-1-1 .5-5.9 1.7-5.5.6.2.9.8.7 1.3m-35.6.5c1.7 0 2.7.4 2.3 1-.3.5 0 .7.8.4s3 .5 4.9 1.8c2 1.3 4.4 2.8 5.4 3.4s1.4 1.5 1 2.2c-.5.9-1 .9-2-.1-.8-.6-1.2-1.5-1-1.8.1-.3-2-1.4-4.9-2.4s-5.7-2.1-6.2-2.6c-.6-.4-3.8-.4-7.3 0-4.2.5-6.2.4-6.2-.3 0-.6-.5-.4-1.1.4-.9 1.3-1 1.3-.6 0 .4-1.8 5-3 9.1-2.4 1.6.2 4.2.4 5.8.4m47.8 1.3c.8 0 2.5-.3 3.6-.6 2-.7 2.4 0 5 8 2.5 7.7 2.9 10.3 2.9 20.3-.1 13.1-1.6 19.3-7.3 30.5-5.2 10-18.1 22.8-28.2 27.7-15.6 7.7-33.4 9.2-49.7 4.3-5.2-1.5-5.2-1.5-4.6-5.1.4-2.6 0-4.6-1.6-7.4-1.7-3.1-2-4.4-1.1-6 1.8-3.3 4.9-2.4 9.7 3 4.1 4.6 4.9 5 8.9 5 8.4 0 11.3-7.5 5.6-14.9-5.2-6.7-5.1-7 3.4-7 9 0 16-2.8 22.3-8.9 6.1-5.9 8.6-12.1 8.6-21.5 0-8.6.5-9.1 6.1-5.7 2.3 1.5 3.2 2.7 2.9 4.1-.2 1.1 0 1.7.6 1.4.5-.4.7-1.1.4-1.6-.4-.5 1-.9 3-.9 7.2 0 12.7-5.6 11-11.2-.8-2.7-6.4-8.8-8-8.8-1.9 0-4.8-3.7-4-5 .5-.8 2.1-1 4.9-.5 2.2.4 4.8.8 5.6.8m10.5.7c-.3.5.2 2.2 1.2 3.7 1.4 2.1 1.4 2.5.3 1.8-1.2-.7-1.3-.6-.3.6.6.8 1.4 2.6 1.7 3.9.3 1.4.9 4 1.5 5.8.7 2.4.7 3.1-.2 2.5-.9-.5-.9-.3 0 .8 1.5 1.8 1 18.8-.6 21.8-.6 1.1-.8 2.7-.4 3.7.5 1.3.3 1.5-.7.9s-1.2-.4-.7.8c.3.9.2 1.9-.3 2.2s-.7 1.2-.3 2c.3.8.1 1.5-.5 1.5-.5 0-1.3 1.6-1.6 3.5-.4 1.9-1.4 3.8-2.2 4.3-.9.5-1.5 1.2-1.5 1.5.3 2.1 0 2.8-.9 2.2-.5-.3-1 .1-1 1 0 2.1-3.5 6.7-4.4 5.8-.3-.3-.6-.1-.6.6s-2.5 3.7-5.5 6.7c-3.8 3.8-5.9 5.2-7.1 4.7-1-.4-1.5-.2-1.1.3.6 1-4.8 6.2-5.8 5.6-.3-.1-2.2.7-4.2 1.8-2.1 1.1-4.5 2-5.5 2-.9 0-2 .5-2.3 1-.4.6-1.1.8-1.6.5-.5-.4-1.4-.3-2.1.1-1.4.9-2.2 1-15.8 1.9-10.9.7-17.5.1-16.5-1.6.4-.5 1.5-.9 2.6-.9s1.7.4 1.4 1c-.4.7.3.7 2 0 3.2-1.2 3.8-1.2 3.1-.1-1 1.6 15.4.2 22.4-1.9 3.7-1.1 7.5-2 8.4-2 1 0 1.5-.4 1.2-.9-.5-.8 2.2-2.2 4.9-2.5.6-.1 1.6-.5 2.3-.9.6-.5 1.6-.5 2.2-.2.5.3.7 0 .5-.7-.3-.8.8-2.1 2.5-3.1 1.6-1 3-2.3 3-2.9s.6-.5 1.6.3c1.3 1.1 1.5 1.1 1.3-.2-.1-.7 2.5-4.3 5.9-7.9s6.2-7 6.2-7.7c0-.6.5-1.3 1.1-1.5.5-.2 1.1-1 1.2-1.8.2-.8 1.5-3.8 2.9-6.7 1.5-2.8 3-7.2 3.3-9.8.4-2.5 1-4.7 1.4-4.9.9-.6.6-21.7-.3-23.8-.5-1-.9-2.9-1-4.3 0-1.4-.4-2.5-.8-2.5-.5 0-.8-1.2-.8-2.6s-.5-3.4-1-4.5c-.9-1.5-.7-1.9.5-1.9.9 0 1.3.4 1 1m-128 1.9c.3.5.2 1.2-.3 1.5s-.9-.1-.9-.9c0-1.7.3-1.9 1.2-.6m75.1 2.5c12.5 5.8 17.8 21.1 11.5 33.4-7.2 14.2-27.6 17.8-38.9 6.9-6.8-6.5-8.7-13.7-7-27.1.4-3.9 1.2-5.4 3.4-7 1.6-1.1 4-3.1 5.3-4.4 3.4-3.4 5.7-4.1 13.6-4.1 5.3-.1 8.2.5 12.1 2.3m31.7-.6c-.2.6.3.9 1.1.6.7-.3 1.6.1 1.9.9.4 1.1-.1 1.4-1.8 1.3-1.3 0-2.1-.4-1.9-.7.2-.4-.3-1-1.2-1.3-.8-.3-1.2-1.1-.9-1.6.8-1.4 3.1-.6 2.8.8m-20.6 5.4c-1.8 1.1-2.9-.2-1.6-1.8 1-1.2 1.4-1.2 2-.2.4.7.3 1.6-.4 2m-89 .7c0 1.1-.5 1.8-.9 1.5s-.5-1.1-.1-1.9c.7-2.1 1.2-1.9 1 .4m118.7-.3c.5 1.4.4 1.5-.9.4-1.7-1.4-1.9-2-.6-2 .5 0 1.2.7 1.5 1.6M69.3 91.5c-.6 1.9-.8 3.5-.5 3.5.4 0 .8 1.3.9 3 .5 7.9.7 8.9 1.6 8.3.6-.4.8.1.4 1.1s-.7 2.3-.7 2.9c-.1.7-.8-.4-1.6-2.3-1.5-3.3-2.7-20.4-1.6-21.5.3-.3 1-.1 1.6.5s.6 2.1-.1 4.5m-42.6 3.7c-.3.8-.6.5-.6-.6-.1-1.1.2-1.7.5-1.3.3.3.4 1.2.1 1.9m0 7c-.2 1.3-.4.5-.4-1.7-.1-2.2.1-3.2.4-2.3.2 1 .2 2.8 0 4m87.3 14.2c0 .2-.7.7-1.6 1-.8.3-1.2.2-.9-.4.6-1 2.5-1.4 2.5-.6M31 118c0 .5-.5 1-1.1 1-.5 0-.7-.5-.4-1 .3-.6.8-1 1.1-1 .2 0 .4.4.4 1m83 1c0 .9-4.8 3.1-8 3.6-1.4.3-3.7.9-5.3 1.6-2.7 1-7.3.7-11.1-.8-1.4-.5-1.7-.4-1.2.4.4.7.2 1.2-.3 1.2-2 0 .4 6.6 3.6 9.8.7.8 1.1 1.7.8 2.2s.1 1.1.7 1.4c1 .5 1 .7.1 1.2-.7.3-1 1.1-.7 1.9s.1 2.2-.5 3.2-1.1 1.3-1.1.6-.7-1-1.6-.6c-1.1.4-1.2.8-.4 1.3.6.4-.2.7-1.9.8-1.8 0-3.9-.8-5.5-2.3-1.3-1.2-2.7-2.1-3-1.9s-.4.1-.1-.3c.3-.3-.4-1.3-1.5-2-1.1-.8-1.7-1.9-1.4-2.5.4-.6.2-.8-.4-.4-.6.3-1.3.2-1.7-.3-1.5-2.5-7 .4-7.5 3.9-.4 3 0 5.1 1 4.5.6-.4.7.1.3 1.1-.4 1.2-.3 1.5.5 1 .7-.4 1.2-.3 1.2.3 0 2-1.9 2.1-2.5.1-.4-1.1-1.1-1.7-1.7-1.4-.7.5-.9.1-.5-.9.3-1 .2-1.7-.3-1.7-.6 0-.8-1-.6-2.3.3-1.2.5-2.6.5-3 .1-.5.6-.5 1.2-.1.7.4.9 0 .5-1.3-.5-1.5 0-2.3 1.9-3.1 1.6-.8 2.4-.8 2-.2-.4.7.4.9 2.3.5 3.7-.6 9.5 3.6 8.5 6.2-.4 1-.2 1.4.5.9.6-.3 1.4-.1 1.8.5.5.8.3.9-.7.4-.8-.5-1.1-.4-.6.1s3 .9 5.6 1c4.6 0 4.7-.1 4.3-2.5-.2-1.4-.6-3.3-.9-4.1-.4-.8-.5-1.9-.4-2.3 0-.4-.7-1-1.6-1.4-2.5-.9-3.4-2.5-2.7-4.7.4-1 0-2.2-.7-2.7-1.2-.7-1.1-.9.1-.9 1.3 0 1.3-.1 0-1s-1.3-1.1 0-2c.8-.6 2.4-.7 3.5-.4s3 .7 4.3.8c1.2 0 2.2.5 2.2 1.1 0 .7.3.7.8 0 .4-.6 1.5-1 2.5-1.1 7.1-.3 7.8-.5 7.1-1.5-.5-.9.2-1 2.2-.6 1.6.3 2.3.4 1.6.1-.6-.3-1-.9-.7-1.4.6-.9 5.5-1 5.5 0m-79 8.5c.7.9.8 1.5.2 1.5-.5 0-1.2-.7-1.6-1.5-.3-.8-.4-1.5-.2-1.5s.9.7 1.6 1.5m5 8.8c0 .6.3.7.7.4.7-.7 3.7 3.1 3.8 4.8.1.5.6.9 1.3.8.6-.2.9.4.6 1.2-.5 1.1-.2 1.3 1 .9.9-.3 1.6-.1 1.6.6 0 1.6 2.3 3.7 3.7 3.3.6-.2 1.8.6 2.7 1.9.9 1.2 1.6 1.8 1.6 1.3 0-.6.7-.1 1.5.9.8 1.1 1.5 1.6 1.5 1 0-.5.4-.4.8.3.4.6 2.1 1.3 3.8 1.6 2.6.4 3.1.2 2.7-1.2-.2-1 .3-2.3 1.1-3 1.4-1.2 1.5-1 .9 2-.3 1.9-1.2 3.8-2 4.4-1 .8-.8 1 .9 1.1 2.8.2 12.8 3.2 11 3.3-.7.1-1.1.5-.8 1 .3.4-.6.6-2 .3-1.6-.3-2.1-.7-1.4-1.2.9-.6-3.1-1.8-8.3-2.4-.4-.1-1.1-.6-1.5-1.2-.8-1.2-4.3-2.8-5.4-2.6-.5.1-.8-.3-.8-.9 0-.5-.4-.7-1-.4s-.7-.1-.4-1c.4-.9.3-1.5-.2-1.4-3.2.8-16.2-10-14.8-12.2.5-.9.2-1-1-.6-.9.4-1.5.3-1.2-.2s-.1-1.2-1-1.5c-.8-.3-1.3-1-.9-1.5.3-.5.1-1.2-.5-1.6-.5-.3-1.5-1.6-2.1-2.8-.8-1.6-.4-1.5 1.5.7 1.4 1.6 2.6 3.4 2.6 3.9"/><path d="M97.5 35.6c-11.5 1.6-24.3 6-30.8 10.6-1.7 1.3-3.9 2.1-4.9 2-4.5-.8-10.9 4.4-7.8 6.3.5.3-1 3-3.5 6-5.7 7-9.1 12.9-11.6 20.2-1.2 3.2-2.7 6.2-3.5 6.6-1.2.7-1.3 3-.9 13 .4 6.7 1.1 14.4 1.7 17.2 1.3 6.8 3.9 13.6 4.8 13 .4-.3.1-2.3-.6-4.6-.8-2.2-1.1-4.5-.8-5.1.4-.6.3-.8-.3-.5-1.5.9-2.4-9-1.3-13.7.8-3.8-.4-3.9-1.3-.1-.3 1.1-.4-.1-.2-2.7.1-2.6.7-5.3 1.2-6 .6-.7 1.3-3.1 1.6-5.3s.3-3.2.1-2.2c-.3.9-1 1.5-1.5 1.2-.5-.4-.6.8-.2 2.6.4 2.3.3 3-.5 2.5-1.9-1.1-1.4-6 .7-8.3 1.1-1.2 1.7-2.3 1.4-2.7-.8-.8 1.8-6.7 2.7-6.1.5.3.6-.5.3-1.7-.4-1.9-.3-2 .7-.8.9 1.2 1 1.1.5-.6-.4-1.5.3-3.1 2-5.2 1.4-1.6 2.5-3.4 2.5-3.9 0-1.8 6.2-8.3 7.3-7.6.5.3.7.1.4-.5-1-1.5.2-4 2.1-4.5 1.3-.3 1.2-.6-.8-1.4l-2.5-1.1 2.8-1.1c4-1.5 5.2-1.4 3.7.4-.7.9-1 1.8-.7 2.1.8.8 3.7-2.1 3.7-3.5 0-.6.5-1.1 1-1.1.6 0 2-.9 3.1-1.9 1.2-1.1 3-1.8 4-1.6 1.3.3 1.7 0 1.3-.7-.5-.7-.1-.9.9-.5s1.6.2 1.4-.5c-.1-.7.5-1.3 1.3-1.3.8-.1 2.3-.5 3.3-.9 1.1-.5 2.3-.4 3 .3 2.4 2.4 5.3 1.1 4.8-2.2 0-.4 1.3-.7 2.9-.7s3-.4 3-.8c0-1.8 25.5.1 31.8 2.3.7.3 1.1.1.8-.4-1.5-2.4-21.5-5.5-29.1-4.5m17.2 2c-.3.3-1.2.4-1.9.1-.8-.3-.5-.6.6-.6 1.1-.1 1.7.2 1.3.5M87 41c0 .5-.4 1-1 1-.5 0-1-.5-1-1 0-.6.5-1 1-1 .6 0 1 .4 1 1"/><path d="M116.3 41.7c-.7.2-1.3 1.4-1.3 2.6.1 2 .2 2 1.1.4 1.4-2.3 2.7-2.1 3.2.5.4 1.6.5 1.4.4-.6-.2-3-1.2-3.8-3.4-2.9M102.6 42.8c-.3.5.1 1.5.9 2.2 1.6 1.4 2 .3.6-1.9-.5-.8-1.1-.9-1.5-.3M98 45.7c-1.3 1.5-1.2 1.6.4 1 1-.4 2-.7 2.2-.7s.4-.5.4-1c0-1.5-1.3-1.2-3 .7M128.5 45.1c-1.1 1.6-.1 1.9 1.3.3.7-.8.8-1.4.3-1.4s-1.3.5-1.6 1.1M100.5 49c-1 1.1-2.2 1.7-2.7 1.4-.6-.4-.5-1 .3-1.5q1.5-.9-.9-.6c-2.7.2-2.8 1.3-.3 2.7 1.6.8 2.5.5 4.7-1.5 1.5-1.4 2.2-2.5 1.7-2.5s-1.8.9-2.8 2M142.6 48.9c-.3.5.7 2.4 2.3 4.3 1.6 1.8 3.9 4.4 5.1 5.8 1.8 2.1 2 2.1 1.5.5-.4-1.1-.8-2.6-.8-3.3 0-.8-1.5-2.5-3.4-3.9-1.8-1.4-3-2.9-2.7-3.4s.1-.9-.5-.9c-.5 0-1.2.4-1.5.9m7 6.8c-.7.7-2.6-.7-2.6-1.9 0-.6.6-.6 1.5.2.9.7 1.3 1.5 1.1 1.7M115 50.5c.7.8 1.7 1.5 2.2 1.5.6 0 .5-.7-.2-1.5s-1.7-1.5-2.2-1.5c-.6 0-.5.7.2 1.5M75.5 54c-.4.6.5 1 2 1 1.4 0 2.4.4 2.1.8-.2.4.5.9 1.7.9 1.8.2 1.7-.1-.8-1.7-3.4-2.3-4.1-2.4-5-1M143 55c.6 1.1 1.3 2 1.6 2 .2 0 0-.9-.6-2s-1.3-2-1.6-2c-.2 0 0 .9.6 2M75 56.4c0 .2.7.9 1.5 1.6.9.7 1.5.8 1.5.2 0-.5-.7-1.2-1.5-1.6-.8-.3-1.5-.4-1.5-.2M83 59.1c0 .7-.9.9-2.1.6-1.5-.4-1.9-.3-1.2.4.6.6 1.9.9 2.9.7 1.9-.3 3.2-2.8 1.5-2.8-.6 0-1.1.5-1.1 1.1M114.6 62.7c-1 2.4 1.7 4.1 6.2 3.9 3.8-.1 5-1.8 3.3-4.6-1.5-2.3-2.4-.5-1.1 2.1 1.2 2.1 1.1 2.2-2 1.5-1.8-.3-3.6-.6-4.1-.6-1.8 0-.8-2.1 1.4-3 2.1-.9 2.1-.9-.4-.9-1.7-.1-2.9.6-3.3 1.6M51.3 70.7c.9.2 2.3.2 3 0 .6-.3-.1-.5-1.8-.5-1.6 0-2.2.2-1.2.5M56.5 71c.3.5 1 1 1.6 1 .5 0 .9-.5.9-1 0-.6-.7-1-1.6-1-.8 0-1.2.4-.9 1M55 74c-2.1.7-2.1.8-.5.9 1.1 0 2.7-.4 3.5-.9 1.8-1.1.5-1.1-3 0M65.6 78.3c.3 1 .9 1.5 1.2 1.2s0-1.1-.7-1.8c-1-.9-1.1-.8-.5.6M138 84.1c0 .5.5.7 1 .4.6-.3 1-.8 1-1.1 0-.2-.4-.4-1-.4-.5 0-1 .5-1 1.1M52.1 90.6c-.7.8-1 1.8-.6 2.2s1 .1 1.2-.6c.8-2.1 2.8-1.3 4.6 1.7 1.6 2.7 1.6 3 0 4.2-1.5 1.2-1.6 1.2-1-.4.4-1 .3-1.6-.2-1.2-.5.3-1.1-.1-1.4-.7-.2-.7-.7-1-1.1-.7s.2 1.7 1.3 3c1.8 2.2 2.1 2.3 3.6.8 1.6-1.5 1.5-1.9-.4-5.8-2.3-4.3-3.8-5-6-2.5M37.9 100.7c-1.3 1.6-1.2 1.7.4.4.9-.7 1.7-1.5 1.7-1.7 0-.8-.8-.3-2.1 1.3M122.6 102.5c-.3.8-.1 1.5.4 1.5.6 0 1-.7 1-1.5s-.2-1.5-.4-1.5-.6.7-1 1.5M62 103.1c0 .5.5.7 1 .4.6-.3 1-.8 1-1.1 0-.2-.4-.4-1-.4-.5 0-1 .5-1 1.1M47.3 108.6c-.8 2.1 1.3 4.2 2.8 2.7 1.3-1.3.5-4.3-1.1-4.3-.6 0-1.3.7-1.7 1.6M50 110c0 .5-.4 1-1 1-.5 0-1-.5-1-1 0-.6.5-1 1-1 .6 0 1 .4 1 1M65 117.9c0 1 1.9 2.5 2.5 2 .1-.2-.3-1-1.1-1.7s-1.4-.8-1.4-.3M54.7 119.7c-.9.9-.9 8.1.1 8.6.4.3.7-1.7.7-4.4s0-4.9-.1-4.9c0 0-.4.3-.7.7M57.6 119.7c.7.4 1.4 1.9 1.7 3.3.4 2.2.5 2.1.4-.4-.1-1.7-.9-3.1-1.7-3.3-1-.3-1.1-.2-.4.4M73 120.3c0 .3 1.2 1.2 2.6 2.2 1.5.9 2.3 1.2 2 .6-.7-1.1-4.6-3.5-4.6-2.8M76 125.4c0 .2.7.7 1.6 1 .8.3 1.2.2.9-.4-.6-1-2.5-1.4-2.5-.6M76 129c.8.5 2 1 2.5 1 .6 0 .3-.5-.5-1s-1.9-1-2.5-1c-.5 0-.3.5.5 1M60.9 133.7c-1.3 1.6-1.2 1.7.4.4.9-.7 1.7-1.5 1.7-1.7 0-.8-.8-.3-2.1 1.3M83 136.6c0 .8.5 1.2 1 .9.6-.4.8-1.1.5-1.6-.9-1.4-1.5-1.1-1.5.7M55 145.4c0 .2.8 1 1.8 1.7 1.5 1.3 1.6 1.2.3-.4s-2.1-2.1-2.1-1.3M93.8 67.7c.7.3 1.6.2 1.9-.1.4-.3-.2-.6-1.3-.5-1.1 0-1.4.3-.6.6M149.4 73.9c1 1.1 1.5 2.5 1.1 3.3-.6 1-.5 1 .4.2 1.4-1.3.5-4-1.7-4.9-1.3-.5-1.3-.3.2 1.4M154.6 80.3c.3 1 .9 1.5 1.2 1.2s0-1.1-.7-1.8c-1-.9-1.1-.8-.5.6M150.5 89.9c-.3.5-.2 1.2.3 1.5s.9-.1.9-.9c0-1.7-.3-1.9-1.2-.6M154.6 115.5c-.9 2.6-.7 3.2.5 1.2.6-1 .9-2.1.6-2.3-.2-.3-.7.2-1.1 1.1M126.4 117.1c-.3.6-.2 1.5.3 2s.9.1.9-1.1c0-2.3-.2-2.4-1.2-.9M123 117.9c0 .6.4 1.3 1 1.6s.7-.1.4-.9c-.7-1.8-1.4-2.1-1.4-.7M128.6 146.2c.3.4 1.1.5 1.9.1 2.1-.7 1.9-1.2-.4-1-1.1 0-1.8.5-1.5.9M94.5 146.9c-.3.5-.2 1.2.3 1.5s.9-.1.9-.9c0-1.7-.3-1.9-1.2-.6M90 149.4c0 .2.8 1 1.8 1.7 1.5 1.3 1.6 1.2.3-.4s-2.1-2.1-2.1-1.3M111.5 155c.3.5.8 1 1.1 1 .2 0 .4-.5.4-1 0-.6-.5-1-1.1-1-.5 0-.7.4-.4 1M149.9 136.7c-1.3 1.6-1.2 1.7.4.4s2.1-2.1 1.3-2.1c-.2 0-1 .8-1.7 1.7M83.4 81.2c-3.2 2.9-4.4 5-5 8.1-2 12.1 1.1 19.5 9.9 23.2 10.6 4.4 22.9-1.4 25.6-12.1 1-3.8.9-5.6-.4-9.9-2.7-9.4-9.6-13.9-20.8-13.4-4.4.2-5.7.8-9.3 4.1m21.2.7c2.1 1.1 3.5 2 3.1 2.1-.4 0-.3.8.2 1.8.8 1.6.6 1.8-1.7 1.9-1.5 0-6.3.2-10.7.3-4.5.1-7.9-.2-7.8-.7.2-1.2-3.5-1.4-4.2-.2-.3.5.2.6 1.2.3 1.5-.5 1.6-.4.3.5-.8.6-1.9 1.1-2.3 1.1-1.2 0-.4-3.2 1.3-5 1.6-1.8 3.5-1.6 2.4.2-.4.6-.2.8.4.5.5-.4.8-1.6.5-2.6-.4-1.4.1-2 1.9-2.3 4.9-.8 11.7.1 15.4 2.1m7.9 12.8c-.2 5.1-2.4 11.2-4.9 13.2-2.2 1.8-13.3 5-14.3 4.1-.4-.4-2.5-1.3-4.5-1.9-2.6-.9-3.5-1.7-3.1-2.7s0-1.2-1.3-.7c-1.2.4-1.5.3-1-.5.4-.7.2-1.2-.4-1.2-1.5 0-2.8-4-3.3-9.9l-.3-5.1h33.3zM86 130c0 .5.5 1 1.1 1 .5 0 .7-.5.4-1-.3-.6-.8-1-1.1-1-.2 0-.4.4-.4 1M66.5 136c-.3.5-.2 1 .4 1 .5 0 1.3-.5 1.6-1 .3-.6.2-1-.4-1-.5 0-1.3.4-1.6 1M77.5 139c.3.5.8 1 1.1 1 .2 0 .4-.5.4-1 0-.6-.5-1-1.1-1-.5 0-.7.4-.4 1M84.8 145.7c.7.3 1.6.2 1.9-.1.4-.3-.2-.6-1.3-.5-1.1 0-1.4.3-.6.6M150.7 31.4c-4.1 4.9-4.4 5.8-2.2 7.6 1.2 1 2.2.6 5.6-2.8 2.8-2.9 4-4.8 3.7-6.4-.5-3.8-3.2-3.2-7.1 1.6m5.7-.3c-.3.5-1 .7-1.5.4-.5-.4-.9.1-.9.9 0 .9-.7 1.6-1.5 1.6-.9 0-1.2.6-.9 1.5q.6 1.5-1.2 1.5c-1.6 0-1.7-.2-.4-1 .8-.5 1.1-1 .5-1-.5 0-.1-.7.9-1.5 1.1-.8 1.6-1.5 1.2-1.5-.5 0-.3-.6.4-1.4 1.2-1.6 4.4-1 3.4.5M32.4 29.5c-.9 2.3.4 4.8 2.2 4.1.8-.3 1.3-.2 1 .3-.9 1.3 4 5.3 6.1 4.9 3.4-.6 2.7-4.3-1.5-7.7-4.4-3.4-6.9-3.9-7.8-1.6m7.6 4c0-.4.7-.2 1.5.5 2.3 1.9.3 3.5-2.4 2-1.2-.6-1.9-1.5-1.6-2 .7-1.2-3-3.2-4.1-2.2-.5.4-.2-.1.6-1.1 1.3-1.7 1.5-1.7 3.7.9C39 33.1 40 34 40 33.5M24 49.4c0 .8.4 1.7.9 2 .5.4.7-.3.4-1.4-.6-2.3-1.3-2.6-1.3-.6M164 49.4c0 .8.4 1.7.9 2 .5.4.7-.3.4-1.4-.6-2.3-1.3-2.6-1.3-.6M171 65c0 .5.5 1 1.1 1 .5 0 .7-.5.4-1-.3-.6-.8-1-1.1-1-.2 0-.4.4-.4 1"/><path d="M165 74.3c4.2 10.2 6.2 21 5.7 31.9-.2 5.7-.6 11.4-1 12.8s-1 4.1-1.4 6c-.5 3-.7 3.2-1.4 1.5-.9-2-.9-2-.7 0 0 1.1-.3 3.1-.9 4.5s-1.2 2.9-1.4 3.5c-1 2.5-5.5 9.5-6.1 9.5-.4 0-.5-.6-.2-1.4s0-1.7-.7-2.2c-.8-.5-1-.3-.4.5.4.7-.3 2.3-1.6 3.8s-1.8 2.3-1.1 1.9c2-1.2 1.3.7-1.3 3.6-2.6 3.1-4 3.6-3.2 1.3.9-2.3-1.2-2.9-3.3-1-2 1.8-1.8 3.6.3 3.4.8 0 .8-.2-.1-.6-1-.4-1-.8-.1-1.9 1.6-2 2.5-1.7 2.5.7 0 2.5-7.4 8.4-15.4 12.2-5.6 2.7-9.9 2.7-6.5.1 1.2-1 .5-.9-1.9.2-3.4 1.6-3.6 1.9-2 3.1 1.6 1.3 1.5 1.4-.5 1-1.2-.3-2.4 0-2.6.7-.3.8-5.1 1.1-15.8 1-14.7 0-15.8-.2-24.3-3.2-9.6-3.4-10.7-2.9-1.6.7 18 7 36.9 6.5 55-1.7 28.5-12.9 44.8-45 38.4-75.7-1.5-7.3-4.8-16.4-6.9-19.1-1-1.2-.8-.3.5 2.9M126 167c.8.5 1.1 1 .5 1-.5 0-1.7-.5-2.5-1s-1-1-.5-1c.6 0 1.7.5 2.5 1M5.1 88.4c-2.2 2.7-.2 4.4 5.7 4.8 5.4.3 8.2-.8 8.2-3.3 0-2.7-11.9-4-13.9-1.5m11.8 2.2c.2.2-.5.4-1.6.4s-3.5.3-5.2.6c-1.9.4-3.1.2-3.1-.4 0-1.8 8-2.2 9.9-.6M24.4 138.8c0 1 .6 1.9 1.3 1.9.8 0 .9-.6.2-1.9-.5-1-1.1-1.8-1.2-1.8-.2 0-.3.8-.3 1.8"/><path d="M153.9 139.7c-1.3 1.6-1.2 1.7.4.4s2.1-2.1 1.3-2.1c-.2 0-1 .8-1.7 1.7M150.5 145c-.3.6.1.7.9.4 1.8-.7 2.1-1.4.7-1.4-.6 0-1.3.4-1.6 1M31.1 148.7c-6 7.2-2.6 11.2 4 4.7 4.4-4.2 4.9-7.7 1.3-8.2-1.5-.2-3.1.9-5.3 3.5m5.2 1c-.6 1.6-2 1.7-2.5.1-.6-1.7 1.5-3.9 2.4-2.5.3.5.4 1.6.1 2.4m-2.3 2.2c0 .5-.9 1.1-2 1.4-1.7.4-1.8.2-.9-1.4.9-1.8 2.9-1.8 2.9 0M135.6 158.2c.3.4 1.1.5 1.9.1 2.1-.7 1.9-1.2-.4-1-1.1 0-1.8.5-1.5.9M136 161c-.9.6-1 1-.3 1 .6 0 1.5-.5 1.8-1 .8-1.2.4-1.2-1.5 0M102.8 169.7c.6.2 1.8.2 2.5 0 .6-.3.1-.5-1.3-.5s-1.9.2-1.2.5"/></g></svg>