<svg version="1.0" xmlns="http://www.w3.org/2000/svg"  width="180.000000pt" height="180.000000pt" viewBox="0 0 180.000000 180.000000"  preserveAspectRatio="xMidYMid meet"> <g transform="translate(0.000000,180.000000) scale(0.100000,-0.100000)" fill="#c68b8b" stroke="none"> <path d="M838 1713 c4 -85 2 -89 -36 -84 -8 1 -20 -3 -27 -9 -8 -7 -18 -9 -23 -6 -6 3 -15 0 -21 -8 -7 -8 -21 -12 -31 -9 -12 3 -20 0 -20 -6 0 -7 -4 -9 -10 -6 -5 3 -10 2 -10 -2 0 -5 -17 -15 -37 -22 -21 -8 -44 -16 -52 -19 -10 -4 -12 -1 -6 8 5 9 4 11 -4 6 -6 -4 -8 -12 -5 -18 5 -7 1 -9 -9 -5 -12 4 -14 2 -10 -10 4 -10 2 -14 -4 -10 -6 4 -13 1 -16 -5 -3 -9 -9 -7 -20 7 -8 11 -13 23 -10 28 2 4 1 7 -4 6 -13 -3 -47 13 -56 27 -4 7 -27 16 -52 19 -24 4 -50 13 -56 21 -6 8 -19 14 -28 13 -12 0 -12 -2 3 -8 18 -7 18 -8 3 -14 -9 -3 -17 -13 -17 -22 0 -12 -4 -13 -18 -6 -15 8 -18 5 -19 -17 -1 -15 -5 -42 -9 -59 -3 -20 -2 -33 3 -33 6 0 9 -12 7 -26 -1 -14 0 -23 3 -20 3 3 19 -8 37 -24 17 -17 35 -30 39 -30 5 0 5 -4 2 -10 -3 -5 -1 -10 6 -10 7 0 2 -9 -11 -20 -12 -11 -26 -17 -31 -15 -4 3 -11 0 -15 -6 -5 -8 -3 -9 5 -5 8 6 11 2 9 -10 -5 -29 -21 -44 -31 -30 -5 6 -6 3 -3 -9 3 -11 -3 -33 -14 -50 -11 -16 -20 -38 -20 -47 0 -10 -4 -18 -10 -18 -5 0 -7 -7 -4 -15 4 -8 1 -15 -5 -15 -6 0 -11 -9 -11 -20 0 -11 -4 -20 -10 -20 -5 0 -10 -5 -10 -11 0 -5 5 -7 10 -4 17 10 11 -11 -7 -28 -11 -9 -45 -17 -83 -21 -88 -7 -86 -6 -88 -34 l-2 -26 24 23 c22 21 32 23 95 19 55 -3 71 -1 71 10 0 7 12 48 26 90 28 85 80 177 132 234 19 21 30 38 25 38 -18 0 -111 91 -117 115 -8 30 16 80 43 95 37 19 81 11 125 -22 58 -46 66 -55 66 -73 0 -13 6 -11 33 9 52 40 177 93 263 111 l79 17 -3 73 c-3 65 -1 75 20 94 l23 22 -35 -2 -36 -3 4 -83z m13 54 c-10 -9 -11 -8 -5 6 3 10 9 15 12 12 3 -3 0 -11 -7 -18z m-536 -167 c-3 -5 -12 -10 -18 -10 -7 0 -6 4 3 10 19 12 23 12 15 0z"/> <path d="M1025 1780 c14 -15 17 -33 13 -93 l-3 -75 80 -17 c93 -20 187 -60 255 -109 47 -34 48 -34 54 -13 3 12 23 41 44 65 50 58 100 67 142 27 55 -53 46 -101 -35 -181 -37 -36 -41 -45 -29 -55 18 -15 121 -160 156 -221 78 -133 107 -332 74 -498 -53 -257 -253 -479 -511 -566 -157 -52 -373 -42 -519 25 -75 34 -216 121 -272 166 l-41 34 -45 -50 c-38 -42 -50 -49 -82 -49 -51 0 -86 35 -86 88 0 30 8 48 37 83 21 24 41 47 46 50 4 3 -13 44 -38 91 -48 90 -85 214 -85 282 l0 41 -58 0 c-61 -1 -102 9 -115 28 -5 8 -7 5 -5 -8 2 -13 16 -24 38 -32 19 -7 29 -12 21 -12 -8 -1 -12 -3 -10 -5 3 -3 21 -1 40 3 41 9 69 -5 69 -36 0 -10 7 -46 16 -78 9 -33 18 -73 20 -89 2 -17 9 -33 15 -37 6 -3 10 -9 10 -13 -1 -3 11 -30 26 -59 34 -66 35 -75 12 -87 -10 -6 -19 -15 -19 -21 0 -6 -9 -24 -20 -39 -29 -41 -23 -95 16 -137 17 -18 30 -34 28 -36 -2 -1 15 -2 37 0 27 1 37 -2 33 -9 -5 -7 -2 -8 5 -4 7 5 10 11 7 14 -10 9 33 34 46 26 6 -4 8 -3 5 3 -7 10 27 53 42 53 5 0 14 -7 21 -15 7 -8 17 -15 22 -15 5 0 18 -9 30 -20 12 -11 28 -20 35 -20 7 0 13 -5 13 -11 0 -5 15 -16 33 -24 38 -16 60 -38 49 -50 -4 -4 3 -2 16 4 12 6 22 8 22 3 0 -12 40 -30 126 -57 60 -18 97 -22 225 -24 85 0 172 4 194 9 22 6 48 13 59 15 10 2 24 9 30 15 7 5 16 7 19 3 4 -3 7 -1 7 6 0 7 6 11 13 8 6 -2 18 3 25 12 8 9 11 10 7 4 -3 -7 -1 -13 4 -13 6 0 11 4 11 9 0 6 18 20 40 32 22 13 40 27 40 33 0 5 3 7 6 3 3 -3 27 14 52 38 25 24 50 41 56 38 5 -3 6 -2 3 4 -4 5 4 19 16 31 12 11 38 42 57 69 19 26 37 50 41 53 3 3 18 37 33 75 16 39 33 81 40 94 17 37 14 467 -4 456 -3 -2 -13 23 -24 56 -10 32 -22 56 -27 53 -5 -3 -6 1 -3 9 3 8 -2 17 -10 20 -9 4 -16 11 -16 18 0 6 -10 25 -22 42 -13 18 -23 34 -23 37 -2 19 -18 50 -26 50 -5 0 -2 -12 7 -27 l16 -28 -21 24 c-12 13 -21 29 -21 37 0 8 -4 14 -10 14 -5 0 -10 7 -10 15 0 8 -5 15 -12 15 -6 0 -3 9 7 20 10 11 15 20 11 20 -4 0 2 9 13 21 11 13 24 18 32 14 7 -5 10 -4 6 3 -11 17 3 41 21 35 13 -4 14 -3 3 5 -8 6 -10 15 -5 23 11 18 11 59 0 66 -5 4 -6 1 -1 -7 5 -9 4 -11 -4 -6 -6 4 -9 11 -6 16 8 13 -6 40 -21 40 -8 0 -14 7 -14 16 0 10 -6 14 -15 10 -8 -3 -15 -1 -15 4 0 5 -8 6 -17 3 -13 -5 -15 -3 -9 13 6 17 5 17 -13 -3 -14 -14 -27 -19 -42 -16 -17 5 -20 3 -14 -7 6 -9 4 -12 -6 -8 -10 4 -21 -8 -34 -34 -10 -22 -27 -44 -38 -49 -21 -12 -51 -4 -42 11 4 6 -1 7 -11 3 -12 -4 -15 -3 -10 6 4 6 4 10 -1 9 -12 -4 -73 26 -73 35 0 5 -5 5 -12 1 -6 -4 -16 0 -22 8 -12 16 -60 32 -50 17 3 -5 -2 -6 -10 -3 -9 3 -13 11 -10 16 4 6 -2 8 -15 3 -12 -4 -27 -2 -34 3 -19 14 -49 23 -42 12 3 -6 1 -10 -4 -10 -6 0 -11 5 -11 11 0 5 -3 8 -7 6 -5 -3 -7 23 -5 58 4 68 -9 105 -35 105 -14 0 -14 -2 2 -20z"/> <path d="M931 1746 c-7 -8 -11 -36 -9 -68 3 -49 5 -53 28 -53 24 0 25 2 25 65 0 51 -3 65 -16 68 -9 1 -21 -4 -28 -12z m30 -72 c-2 -31 -6 -42 -12 -33 -12 20 -8 79 5 79 7 0 10 -17 7 -46z"/> <path d="M648 1628 c5 -5 16 -8 23 -6 8 3 3 7 -10 11 -17 4 -21 3 -13 -5z"/> <path d="M1650 1615 c7 -9 15 -13 17 -11 7 7 -7 26 -19 26 -6 0 -6 -6 2 -15z"/> <path d="M1376 1548 c3 -4 9 -8 15 -8 5 0 9 4 9 8 0 5 -7 9 -15 9 -8 0 -12 -4 -9 -9z"/> <path d="M1415 1549 c-4 -6 -3 -15 3 -21 6 -6 11 -4 15 6 7 18 -9 31 -18 15z"/> <path d="M835 1543 c-52 -7 -158 -44 -230 -82 -97 -50 -301 -250 -232 -229 6 3 16 14 22 26 5 12 16 24 24 27 8 3 2 -9 -12 -27 -14 -18 -32 -32 -41 -32 -21 2 -56 -59 -91 -156 -33 -91 -45 -262 -26 -362 40 -204 165 -376 354 -486 97 -57 181 -81 307 -89 132 -8 237 13 360 74 79 39 110 62 181 132 99 99 147 180 185 309 33 116 35 262 5 375 -12 43 -18 83 -15 89 4 7 2 8 -4 4 -7 -4 -12 -2 -12 4 0 29 -109 176 -177 240 -156 145 -376 213 -598 183z m92 -19 c-3 -3 -12 -4 -19 -1 -8 3 -5 6 6 6 11 1 17 -2 13 -5z m46 -1 c-7 -2 -19 -2 -25 0 -7 3 -2 5 12 5 14 0 19 -2 13 -5z m-222 -27 c-13 -15 -54 -18 -45 -4 3 5 9 6 13 4 4 -3 13 -1 21 5 21 13 24 11 11 -5z m59 10 c0 -2 -9 -6 -20 -9 -11 -3 -18 -1 -14 4 5 9 34 13 34 5z m330 0 c0 -2 -7 -6 -15 -10 -8 -3 -15 -1 -15 4 0 6 7 10 15 10 8 0 15 -2 15 -4z m27 -45 c83 -29 111 -31 97 -9 -4 5 4 4 17 -2 31 -16 39 -25 16 -17 -29 11 -41 -3 -17 -20 19 -14 23 -13 36 3 9 11 13 13 9 7 -4 -8 0 -13 10 -13 9 0 14 -4 10 -10 -3 -5 -13 -6 -23 -3 -21 7 -12 -3 46 -51 41 -34 62 -39 62 -15 0 6 -5 7 -12 3 -7 -5 -8 -3 -3 6 6 10 4 12 -9 7 -10 -4 -15 -3 -11 3 3 5 -6 12 -20 16 -25 6 -31 15 -18 27 3 4 13 0 22 -8 9 -8 31 -26 48 -41 18 -14 32 -28 30 -32 -1 -4 2 -8 6 -9 15 -3 56 -56 51 -65 -3 -4 0 -8 5 -8 6 0 11 -9 11 -20 0 -11 5 -19 12 -18 7 2 12 -2 13 -9 0 -7 8 -21 17 -33 17 -19 17 -20 -3 -20 -14 0 -19 5 -16 14 4 10 1 13 -9 9 -9 -3 -14 0 -12 8 2 8 -10 13 -37 15 -22 1 -53 5 -69 9 -37 10 -94 -19 -102 -51 -9 -33 20 -78 76 -118 50 -36 61 -61 38 -84 -9 -9 -9 -12 2 -12 7 0 10 -3 7 -6 -4 -4 -13 -2 -21 5 -8 6 -18 11 -22 9 -5 -1 -30 8 -56 20 -26 13 -59 22 -73 20 -26 -3 -26 -3 -4 -16 11 -8 18 -9 14 -3 -8 14 -2 14 30 -1 14 -6 25 -16 25 -21 0 -6 3 -7 7 -4 3 4 11 3 17 -2 6 -5 29 -11 51 -13 l39 -3 4 41 c3 35 -1 45 -23 62 -15 12 -21 23 -15 27 6 3 7 12 3 18 -4 7 0 6 10 -2 9 -7 15 -17 12 -21 -2 -4 9 -19 25 -34 34 -30 36 -38 15 -60 -8 -8 -15 -19 -15 -24 0 -31 -88 -29 -134 3 -29 20 -41 23 -61 15 -28 -10 -27 -9 -25 -97 1 -43 -4 -69 -15 -87 -10 -14 -14 -26 -9 -26 4 0 0 -6 -10 -13 -9 -7 -16 -18 -14 -24 2 -6 -1 -10 -5 -10 -5 1 -15 -10 -23 -25 -17 -33 -35 -37 -29 -7 6 29 25 50 38 42 6 -4 8 0 4 11 -5 11 -3 15 5 10 8 -5 9 -2 5 10 -4 10 -3 15 3 11 6 -3 11 0 12 7 2 17 3 25 13 73 12 55 12 58 2 72 -5 7 -6 17 -2 23 3 5 0 10 -7 11 -10 0 -10 2 -1 6 10 3 9 8 -2 20 -8 8 -13 19 -10 24 4 5 2 9 -4 9 -6 0 -15 8 -20 18 -8 14 -6 19 5 19 9 0 13 -6 10 -14 -3 -8 -1 -11 4 -8 5 3 19 -9 31 -27 17 -28 19 -29 14 -8 -38 136 -212 226 -374 194 -26 -6 -31 -11 -31 -35 0 -30 -17 -38 -37 -18 -13 13 -36 3 -27 -12 3 -5 10 -7 15 -4 18 12 9 -12 -13 -31 -14 -12 -18 -14 -13 -4 5 9 5 12 -1 7 -5 -5 -9 -13 -9 -18 0 -5 -3 -9 -7 -9 -5 0 -8 2 -8 5 0 3 0 12 0 20 0 8 3 14 8 14 4 -1 14 -1 22 0 11 1 12 3 1 14 -18 17 -65 -37 -52 -61 12 -23 3 -42 -19 -42 -28 0 -40 -30 -41 -107 -2 -75 6 -123 27 -165 15 -29 48 -29 37 0 -4 10 1 8 16 -7 12 -12 19 -27 15 -33 -4 -7 -3 -8 4 -4 6 3 16 -3 22 -14 6 -11 15 -18 20 -15 6 4 7 -1 3 -11 -4 -12 -3 -15 5 -10 7 4 22 4 34 0 20 -6 20 -7 3 -16 -12 -7 -20 -7 -25 2 -4 6 -10 11 -14 11 -19 -3 -26 0 -23 11 1 7 -3 12 -9 13 -7 0 -21 11 -32 25 -11 14 -24 22 -28 17 -10 -10 33 -54 82 -83 31 -18 41 -30 37 -43 -6 -25 26 -93 41 -88 7 3 12 -3 12 -12 1 -9 4 -23 7 -31 4 -8 3 -21 -2 -29 -14 -21 -54 -6 -75 29 -21 37 -71 70 -104 70 -35 0 -79 -27 -86 -52 -11 -42 -6 -83 14 -113 11 -16 20 -39 20 -50 0 -15 -3 -17 -9 -7 -4 8 -11 13 -15 13 -17 -3 -26 0 -38 11 -7 7 -34 29 -59 48 -110 85 -183 195 -225 339 -23 82 -26 106 -22 200 8 177 66 307 194 437 55 56 91 81 165 118 118 59 203 77 332 71 74 -3 118 -11 184 -34z m-592 -50 c3 -5 2 -12 -3 -15 -5 -3 -9 1 -9 9 0 17 3 19 12 6z m-35 -26 c-7 -8 -18 -15 -24 -14 -7 0 -6 2 2 6 6 2 10 9 6 14 -3 5 2 9 12 9 13 0 14 -3 4 -15z m-30 -29 c0 -3 -4 -8 -10 -11 -5 -3 -10 -1 -10 4 0 6 5 11 10 11 6 0 10 -2 10 -4z m-33 -21 c0 -8 -4 -12 -9 -9 -5 3 -6 10 -3 15 9 13 12 11 12 -6z m-30 -30 c0 -8 -4 -12 -9 -9 -5 3 -6 10 -3 15 9 13 12 11 12 -6z m-82 -115 c-3 -5 -12 -10 -18 -10 -7 0 -6 4 3 10 19 12 23 12 15 0z m1095 -33 c22 -11 28 -11 38 0 18 18 31 16 28 -4 -2 -13 -12 -18 -32 -17 -63 3 -92 9 -86 19 3 6 -1 4 -10 -3 -12 -10 -18 -9 -28 3 -11 13 -7 15 26 15 22 0 50 -6 64 -13z m-1110 -1 c0 -2 -8 -10 -17 -17 -16 -13 -17 -12 -4 4 13 16 21 21 21 13z m1018 -21 c-2 -6 -6 -9 -10 -7 -5 1 -8 -2 -8 -8 0 -5 5 -10 12 -10 9 0 9 -3 0 -12 -6 -6 -15 -9 -18 -5 -10 10 5 59 17 55 6 -2 9 -8 7 -13z m-356 -5 c17 0 27 -4 23 -10 -3 -5 0 -7 8 -4 8 3 30 -5 49 -18 20 -13 44 -28 54 -34 10 -6 14 -15 10 -22 -5 -9 -10 -9 -20 1 -8 6 -12 15 -10 18 1 3 -20 14 -49 24 -29 10 -57 21 -62 26 -6 4 -38 4 -73 0 -42 -5 -62 -4 -62 3 0 6 -5 4 -11 -4 -9 -13 -10 -13 -6 0 4 18 50 30 91 24 16 -2 42 -4 58 -4z m478 -13 c8 0 25 3 36 6 20 7 24 0 50 -80 25 -77 29 -103 29 -203 -1 -131 -16 -193 -73 -305 -52 -100 -181 -228 -282 -277 -156 -77 -334 -92 -497 -43 -52 15 -52 15 -46 51 4 26 0 46 -16 74 -17 31 -20 44 -11 60 18 33 49 24 97 -30 41 -46 49 -50 89 -50 84 0 113 75 56 149 -52 67 -51 70 34 70 90 0 160 28 223 89 61 59 86 121 86 215 0 86 5 91 61 57 23 -15 32 -27 29 -41 -2 -11 0 -17 6 -14 5 4 7 11 4 16 -4 5 10 9 30 9 72 0 127 56 110 112 -8 27 -64 88 -80 88 -19 0 -48 37 -40 50 5 8 21 10 49 5 22 -4 48 -8 56 -8z m105 -7 c-3 -5 2 -22 12 -37 14 -21 14 -25 3 -18 -12 7 -13 6 -3 -6 6 -8 14 -26 17 -39 3 -14 9 -40 15 -58 7 -24 7 -31 -2 -25 -9 5 -9 3 0 -8 15 -18 10 -188 -6 -218 -6 -11 -8 -27 -4 -37 5 -13 3 -15 -7 -9 -10 6 -12 4 -7 -8 3 -9 2 -19 -3 -22 -5 -3 -7 -12 -3 -20 3 -8 1 -15 -5 -15 -5 0 -13 -16 -16 -35 -4 -19 -14 -38 -22 -43 -9 -5 -15 -12 -15 -15 3 -21 0 -28 -9 -22 -5 3 -10 -1 -10 -10 0 -21 -35 -67 -44 -58 -3 3 -6 1 -6 -6 0 -7 -25 -37 -55 -67 -38 -38 -59 -52 -71 -47 -10 4 -15 2 -11 -3 6 -10 -48 -62 -58 -56 -3 1 -22 -7 -42 -18 -21 -11 -45 -20 -55 -20 -9 0 -20 -5 -23 -10 -4 -6 -11 -8 -16 -5 -5 4 -14 3 -21 -1 -14 -9 -22 -10 -158 -19 -109 -7 -175 -1 -165 16 4 5 15 9 26 9 11 0 17 -4 14 -10 -4 -7 3 -7 20 0 32 12 38 12 31 1 -10 -16 154 -2 224 19 37 11 75 20 84 20 10 0 15 4 12 9 -5 8 22 22 49 25 6 1 16 5 23 9 6 5 16 5 22 2 5 -3 7 0 5 7 -3 8 8 21 25 31 16 10 30 23 30 29 0 6 6 5 16 -3 13 -11 15 -11 13 2 -1 7 25 43 59 79 34 36 62 70 62 77 0 6 5 13 11 15 5 2 11 10 12 18 2 8 15 38 29 67 15 28 30 72 33 98 4 25 10 47 14 49 9 6 6 217 -3 238 -5 10 -9 29 -10 43 0 14 -4 25 -8 25 -5 0 -8 12 -8 26 0 14 -5 34 -10 45 -9 15 -7 19 5 19 9 0 13 -4 10 -10z m-1280 -19 c3 -5 2 -12 -3 -15 -5 -3 -9 1 -9 9 0 17 3 19 12 6z m751 -25 c125 -58 178 -211 115 -334 -72 -142 -276 -178 -389 -69 -68 65 -87 137 -70 271 4 39 12 54 34 70 16 11 40 31 53 44 34 34 57 41 136 41 53 1 82 -5 121 -23z m317 6 c-2 -6 3 -9 11 -6 7 3 16 -1 19 -9 4 -11 -1 -14 -18 -13 -13 0 -21 4 -19 7 2 4 -3 10 -12 13 -8 3 -12 11 -9 16 8 14 31 6 28 -8z m-206 -54 c-18 -11 -29 2 -16 18 10 12 14 12 20 2 4 -7 3 -16 -4 -20z m-890 -7 c0 -11 -5 -18 -9 -15 -4 3 -5 11 -1 19 7 21 12 19 10 -4z m1187 3 c5 -14 4 -15 -9 -4 -17 14 -19 20 -6 20 5 0 12 -7 15 -16z m-781 -129 c-6 -19 -8 -35 -5 -35 4 0 8 -13 9 -30 5 -79 7 -89 16 -83 6 4 8 -1 4 -11 -4 -10 -7 -23 -7 -29 -1 -7 -8 4 -16 23 -15 33 -27 204 -16 215 3 3 10 1 16 -5 6 -6 6 -21 -1 -45z m-426 -37 c-3 -8 -6 -5 -6 6 -1 11 2 17 5 13 3 -3 4 -12 1 -19z m0 -70 c-2 -13 -4 -5 -4 17 -1 22 1 32 4 23 2 -10 2 -28 0 -40z m873 -142 c0 -2 -7 -7 -16 -10 -8 -3 -12 -2 -9 4 6 10 25 14 25 6z m-830 -16 c0 -5 -5 -10 -11 -10 -5 0 -7 5 -4 10 3 6 8 10 11 10 2 0 4 -4 4 -10z m830 -10 c0 -9 -48 -31 -80 -36 -14 -3 -37 -9 -53 -16 -27 -10 -73 -7 -111 8 -14 5 -17 4 -12 -4 4 -7 2 -12 -3 -12 -20 0 4 -66 36 -98 7 -8 11 -17 8 -22 -3 -5 1 -11 7 -14 10 -5 10 -7 1 -12 -7 -3 -10 -11 -7 -19 3 -8 1 -22 -5 -32 -6 -10 -11 -13 -11 -6 0 7 -7 10 -16 6 -11 -4 -12 -8 -4 -13 6 -4 -2 -7 -19 -8 -18 0 -39 8 -55 23 -13 12 -27 21 -30 19 -3 -2 -4 -1 -1 3 3 3 -4 13 -15 20 -11 8 -17 19 -14 25 4 6 2 8 -4 4 -6 -3 -13 -2 -17 3 -15 25 -70 -4 -75 -39 -4 -30 0 -51 10 -45 6 4 7 -1 3 -11 -4 -12 -3 -15 5 -10 7 4 12 3 12 -3 0 -20 -19 -21 -25 -1 -4 11 -11 17 -17 14 -7 -5 -9 -1 -5 9 3 10 2 17 -3 17 -6 0 -8 10 -6 23 3 12 5 26 5 30 1 5 6 5 12 1 7 -4 9 0 5 13 -5 15 0 23 19 31 16 8 24 8 20 2 -4 -7 4 -9 23 -5 37 6 95 -36 85 -62 -4 -10 -2 -14 5 -9 6 3 14 1 18 -5 5 -8 3 -9 -7 -4 -8 5 -11 4 -6 -1 5 -5 30 -9 56 -10 46 0 47 1 43 25 -2 14 -6 33 -9 41 -4 8 -5 19 -4 23 0 4 -7 10 -16 14 -25 9 -34 25 -27 47 4 10 0 22 -7 27 -12 7 -11 9 1 9 13 0 13 1 0 10 -13 9 -13 11 0 20 8 6 24 7 35 4 11 -3 30 -7 43 -8 12 0 22 -5 22 -11 0 -7 3 -7 8 0 4 6 15 10 25 11 71 3 78 5 71 15 -5 9 2 10 22 6 16 -3 23 -4 16 -1 -6 3 -10 9 -7 14 6 9 55 10 55 0z m-790 -85 c7 -9 8 -15 2 -15 -5 0 -12 7 -16 15 -3 8 -4 15 -2 15 2 0 9 -7 16 -15z m50 -88 c0 -6 3 -7 7 -4 7 7 37 -31 38 -48 1 -5 6 -9 13 -8 6 2 9 -4 6 -12 -5 -11 -2 -13 10 -9 9 3 16 1 16 -6 0 -16 23 -37 37 -33 6 2 18 -6 27 -19 9 -12 16 -18 16 -13 0 6 7 1 15 -9 8 -11 15 -16 15 -10 0 5 4 4 8 -3 4 -6 21 -13 38 -16 26 -4 31 -2 27 12 -2 10 3 23 11 30 14 12 15 10 9 -20 -3 -19 -12 -38 -20 -44 -10 -8 -8 -10 9 -11 28 -2 128 -32 110 -33 -7 -1 -11 -5 -8 -10 3 -4 -6 -6 -20 -3 -16 3 -21 7 -14 12 9 6 -31 18 -83 24 -4 1 -11 6 -15 12 -8 12 -43 28 -54 26 -5 -1 -8 3 -8 9 0 5 -4 7 -10 4 -6 -3 -7 1 -4 10 4 9 3 15 -2 14 -32 -8 -162 100 -148 122 5 9 2 10 -10 6 -9 -4 -15 -3 -12 2 3 5 -1 12 -10 15 -8 3 -13 10 -9 15 3 5 1 12 -5 16 -5 3 -15 16 -21 28 -8 16 -4 15 15 -7 14 -16 26 -34 26 -39z"/> <path d="M975 1444 c-115 -16 -243 -60 -308 -106 -17 -13 -39 -21 -49 -20 -45 8 -109 -44 -78 -63 5 -3 -10 -30 -35 -60 -57 -70 -91 -129 -116 -202 -12 -32 -27 -62 -35 -66 -12 -7 -13 -30 -9 -130 4 -67 11 -144 17 -172 13 -68 39 -136 48 -130 4 3 1 23 -6 46 -8 22 -11 45 -8 51 4 6 3 8 -3 5 -15 -9 -24 90 -13 137 8 38 -4 39 -13 1 -3 -11 -4 1 -2 27 1 26 7 53 12 60 6 7 13 31 16 53 3 22 3 32 1 22 -3 -9 -10 -15 -15 -12 -5 4 -6 -8 -2 -26 4 -23 3 -30 -5 -25 -19 11 -14 60 7 83 11 12 17 23 14 27 -8 8 18 67 27 61 5 -3 6 5 3 17 -4 19 -3 20 7 8 9 -12 10 -11 5 6 -4 15 3 31 20 52 14 16 25 34 25 39 0 18 62 83 73 76 5 -3 7 -1 4 5 -10 15 2 40 21 45 13 3 12 6 -8 14 l-25 11 28 11 c40 15 52 14 37 -4 -7 -9 -10 -18 -7 -21 8 -8 37 21 37 35 0 6 5 11 10 11 6 0 20 9 31 19 12 11 30 18 40 16 13 -3 17 0 13 7 -5 7 -1 9 9 5 10 -4 16 -2 14 5 -1 7 5 13 13 13 8 1 23 5 33 9 11 5 23 4 30 -3 24 -24 53 -11 48 22 0 4 13 7 29 7 16 0 30 4 30 8 0 18 255 -1 318 -23 7 -3 11 -1 8 4 -15 24 -215 55 -291 45z m172 -20 c-3 -3 -12 -4 -19 -1 -8 3 -5 6 6 6 11 1 17 -2 13 -5z m-277 -34 c0 -5 -4 -10 -10 -10 -5 0 -10 5 -10 10 0 6 5 10 10 10 6 0 10 -4 10 -10z"/> <path d="M1163 1383 c-7 -2 -13 -14 -13 -26 1 -20 2 -20 11 -4 14 23 27 21 32 -5 4 -16 5 -14 4 6 -2 30 -12 38 -34 29z"/> <path d="M1026 1372 c-3 -5 1 -15 9 -22 16 -14 20 -3 6 19 -5 8 -11 9 -15 3z"/> <path d="M980 1343 c-13 -15 -12 -16 4 -10 10 4 20 7 22 7 2 0 4 5 4 10 0 15 -13 12 -30 -7z"/> <path d="M1285 1349 c-11 -16 -1 -19 13 -3 7 8 8 14 3 14 -5 0 -13 -5 -16 -11z"/> <path d="M1005 1310 c-10 -11 -22 -17 -27 -14 -6 4 -5 10 3 15 10 6 7 8 -9 6 -27 -2 -28 -13 -3 -27 16 -8 25 -5 47 15 15 14 22 25 17 25 -5 0 -18 -9 -28 -20z"/> <path d="M1426 1311 c-3 -5 7 -24 23 -43 16 -18 39 -44 51 -58 18 -21 20 -21 15 -5 -4 11 -8 26 -8 33 0 8 -15 25 -34 39 -18 14 -30 29 -27 34 3 5 1 9 -5 9 -5 0 -12 -4 -15 -9z m70 -68 c-7 -7 -26 7 -26 19 0 6 6 6 15 -2 9 -7 13 -15 11 -17z"/> <path d="M1150 1295 c7 -8 17 -15 22 -15 6 0 5 7 -2 15 -7 8 -17 15 -22 15 -6 0 -5 -7 2 -15z"/> <path d="M755 1260 c-4 -6 5 -10 20 -10 14 0 24 -4 21 -8 -2 -4 5 -9 17 -9 18 -2 17 1 -8 17 -34 23 -41 24 -50 10z"/> <path d="M1430 1250 c6 -11 13 -20 16 -20 2 0 0 9 -6 20 -6 11 -13 20 -16 20 -2 0 0 -9 6 -20z"/> <path d="M750 1236 c0 -2 7 -9 15 -16 9 -7 15 -8 15 -2 0 5 -7 12 -15 16 -8 3 -15 4 -15 2z"/> <path d="M830 1209 c0 -7 -9 -9 -21 -6 -15 4 -19 3 -12 -4 6 -6 19 -9 29 -7 19 3 32 28 15 28 -6 0 -11 -5 -11 -11z"/> <path d="M1146 1173 c-10 -24 17 -41 62 -39 38 1 50 18 33 46 -15 23 -24 5 -11 -21 12 -21 11 -22 -20 -15 -18 3 -36 6 -41 6 -18 0 -8 21 14 30 21 9 21 9 -4 9 -17 1 -29 -6 -33 -16z"/> <path d="M513 1093 c9 -2 23 -2 30 0 6 3 -1 5 -18 5 -16 0 -22 -2 -12 -5z"/> <path d="M565 1090 c3 -5 10 -10 16 -10 5 0 9 5 9 10 0 6 -7 10 -16 10 -8 0 -12 -4 -9 -10z"/> <path d="M550 1060 c-21 -7 -21 -8 -5 -9 11 0 27 4 35 9 18 11 5 11 -30 0z"/> <path d="M656 1017 c3 -10 9 -15 12 -12 3 3 0 11 -7 18 -10 9 -11 8 -5 -6z"/> <path d="M1380 959 c0 -5 5 -7 10 -4 6 3 10 8 10 11 0 2 -4 4 -10 4 -5 0 -10 -5 -10 -11z"/> <path d="M521 894 c-7 -8 -10 -18 -6 -22 4 -4 10 -1 12 6 8 21 28 13 46 -17 16 -27 16 -30 0 -42 -15 -12 -16 -12 -10 4 4 10 3 16 -2 12 -5 -3 -11 1 -14 7 -2 7 -7 10 -11 7 -4 -3 2 -17 13 -30 18 -22 21 -23 36 -8 16 15 15 19 -4 58 -23 43 -38 50 -60 25z"/> <path d="M379 793 c-13 -16 -12 -17 4 -4 9 7 17 15 17 17 0 8 -8 3 -21 -13z"/> <path d="M1226 775 c-3 -8 -1 -15 4 -15 6 0 10 7 10 15 0 8 -2 15 -4 15 -2 0 -6 -7 -10 -15z"/> <path d="M620 769 c0 -5 5 -7 10 -4 6 3 10 8 10 11 0 2 -4 4 -10 4 -5 0 -10 -5 -10 -11z"/> <path d="M473 714 c-8 -21 13 -42 28 -27 13 13 5 43 -11 43 -6 0 -13 -7 -17 -16z m27 -14 c0 -5 -4 -10 -10 -10 -5 0 -10 5 -10 10 0 6 5 10 10 10 6 0 10 -4 10 -10z"/> <path d="M650 621 c0 -10 19 -25 25 -20 1 2 -3 10 -11 17 -8 7 -14 8 -14 3z"/> <path d="M547 603 c-9 -9 -9 -81 1 -86 4 -3 7 17 7 44 0 27 0 49 -1 49 0 0 -4 -3 -7 -7z"/> <path d="M576 603 c7 -4 14 -19 17 -33 4 -22 5 -21 4 4 -1 17 -9 31 -17 33 -10 3 -11 2 -4 -4z"/> <path d="M730 597 c0 -3 12 -12 26 -22 15 -9 23 -12 20 -6 -7 11 -46 35 -46 28z"/> <path d="M760 546 c0 -2 7 -7 16 -10 8 -3 12 -2 9 4 -6 10 -25 14 -25 6z"/> <path d="M760 510 c8 -5 20 -10 25 -10 6 0 3 5 -5 10 -8 5 -19 10 -25 10 -5 0 -3 -5 5 -10z"/> <path d="M609 463 c-13 -16 -12 -17 4 -4 9 7 17 15 17 17 0 8 -8 3 -21 -13z"/> <path d="M830 434 c0 -8 5 -12 10 -9 6 4 8 11 5 16 -9 14 -15 11 -15 -7z"/> <path d="M550 346 c0 -2 8 -10 18 -17 15 -13 16 -12 3 4 -13 16 -21 21 -21 13z"/> <path d="M938 1123 c7 -3 16 -2 19 1 4 3 -2 6 -13 5 -11 0 -14 -3 -6 -6z"/> <path d="M1494 1061 c10 -11 15 -25 11 -33 -6 -10 -5 -10 4 -2 14 13 5 40 -17 49 -13 5 -13 3 2 -14z"/> <path d="M1546 997 c3 -10 9 -15 12 -12 3 3 0 11 -7 18 -10 9 -11 8 -5 -6z"/> <path d="M1505 901 c-3 -5 -2 -12 3 -15 5 -3 9 1 9 9 0 17 -3 19 -12 6z"/> <path d="M1546 645 c-9 -26 -7 -32 5 -12 6 10 9 21 6 23 -2 3 -7 -2 -11 -11z"/> <path d="M1264 629 c-3 -6 -2 -15 3 -20 5 -5 9 -1 9 11 0 23 -2 24 -12 9z"/> <path d="M1230 621 c0 -6 4 -13 10 -16 6 -3 7 1 4 9 -7 18 -14 21 -14 7z"/> <path d="M1286 338 c3 -4 11 -5 19 -1 21 7 19 12 -4 10 -11 0 -18 -5 -15 -9z"/> <path d="M945 331 c-3 -5 -2 -12 3 -15 5 -3 9 1 9 9 0 17 -3 19 -12 6z"/> <path d="M900 306 c0 -2 8 -10 18 -17 15 -13 16 -12 3 4 -13 16 -21 21 -21 13z"/> <path d="M1115 250 c3 -5 8 -10 11 -10 2 0 4 5 4 10 0 6 -5 10 -11 10 -5 0 -7 -4 -4 -10z"/> <path d="M1499 433 c-13 -16 -12 -17 4 -4 16 13 21 21 13 21 -2 0 -10 -8 -17 -17z"/> <path d="M834 988 c-32 -29 -44 -50 -50 -81 -20 -121 11 -195 99 -232 106 -44 229 14 256 121 10 38 9 56 -4 99 -27 94 -96 139 -208 134 -44 -2 -57 -8 -93 -41z m212 -7 c21 -11 35 -20 31 -21 -4 0 -3 -8 2 -18 8 -16 6 -18 -17 -19 -15 0 -63 -2 -107 -3 -45 -1 -79 2 -78 7 2 12 -35 14 -42 2 -3 -5 2 -6 12 -3 15 5 16 4 3 -5 -8 -6 -19 -11 -23 -11 -12 0 -4 32 13 50 16 18 35 16 24 -2 -4 -6 -2 -8 4 -5 5 4 8 16 5 26 -4 14 1 20 19 23 49 8 117 -1 154 -21z m79 -128 c-2 -51 -24 -112 -49 -132 -22 -18 -133 -50 -143 -41 -4 4 -25 13 -45 19 -26 9 -35 17 -31 27 4 10 0 12 -13 7 -12 -4 -15 -3 -10 5 4 7 2 12 -4 12 -15 0 -28 40 -33 99 l-3 51 167 0 166 0 -2 -47z"/> <path d="M860 500 c0 -5 5 -10 11 -10 5 0 7 5 4 10 -3 6 -8 10 -11 10 -2 0 -4 -4 -4 -10z"/> <path d="M665 440 c-3 -5 -2 -10 4 -10 5 0 13 5 16 10 3 6 2 10 -4 10 -5 0 -13 -4 -16 -10z"/> <path d="M775 410 c3 -5 8 -10 11 -10 2 0 4 5 4 10 0 6 -5 10 -11 10 -5 0 -7 -4 -4 -10z"/> <path d="M848 343 c7 -3 16 -2 19 1 4 3 -2 6 -13 5 -11 0 -14 -3 -6 -6z"/> <path d="M1507 1486 c-41 -49 -44 -58 -22 -76 12 -10 22 -6 56 28 28 29 40 48 37 64 -5 38 -32 32 -71 -16z m57 3 c-3 -5 -10 -7 -15 -4 -5 4 -9 -1 -9 -9 0 -9 -7 -16 -15 -16 -9 0 -12 -6 -9 -15 4 -10 0 -15 -12 -15 -16 0 -17 2 -4 10 8 5 11 10 5 10 -5 0 -1 7 9 15 11 8 16 15 12 15 -5 0 -3 6 4 14 12 16 44 10 34 -5z"/> <path d="M324 1505 c-9 -23 4 -48 22 -41 8 3 13 2 10 -3 -9 -13 40 -53 61 -49 34 6 27 43 -15 77 -44 34 -69 39 -78 16z m76 -40 c0 4 7 2 15 -5 23 -19 3 -35 -24 -20 -12 6 -19 15 -16 20 7 12 -30 32 -41 22 -5 -4 -2 1 6 11 13 17 15 17 37 -9 13 -15 23 -24 23 -19z"/> <path d="M240 1306 c0 -8 4 -17 9 -20 5 -4 7 3 4 14 -6 23 -13 26 -13 6z"/> <path d="M1640 1306 c0 -8 4 -17 9 -20 5 -4 7 3 4 14 -6 23 -13 26 -13 6z"/> <path d="M1710 1150 c0 -5 5 -10 11 -10 5 0 7 5 4 10 -3 6 -8 10 -11 10 -2 0 -4 -4 -4 -10z"/> <path d="M1650 1057 c42 -102 62 -210 57 -319 -2 -57 -6 -114 -10 -128 -4 -14 -10 -41 -14 -60 -5 -30 -7 -32 -14 -15 -9 20 -9 20 -7 0 0 -11 -3 -31 -9 -45 -6 -14 -12 -29 -14 -35 -10 -25 -55 -95 -61 -95 -4 0 -5 6 -2 14 3 8 0 17 -7 22 -8 5 -10 3 -4 -5 4 -7 -3 -23 -16 -38 -13 -15 -18 -23 -11 -19 20 12 13 -7 -13 -36 -26 -31 -40 -36 -32 -13 9 23 -12 29 -33 10 -20 -18 -18 -36 3 -34 8 0 8 2 -1 6 -10 4 -10 8 -1 19 16 20 25 17 25 -7 0 -25 -74 -84 -154 -122 -56 -27 -99 -27 -65 -1 12 10 5 9 -19 -2 -34 -16 -36 -19 -20 -31 16 -13 15 -14 -5 -10 -12 3 -24 0 -26 -7 -3 -8 -51 -11 -158 -10 -147 0 -158 2 -243 32 -96 34 -107 29 -16 -7 180 -70 369 -65 550 17 285 129 448 450 384 757 -15 73 -48 164 -69 191 -10 12 -8 3 5 -29z m-390 -927 c8 -5 11 -10 5 -10 -5 0 -17 5 -25 10 -8 5 -10 10 -5 10 6 0 17 -5 25 -10z"/> <path d="M51 916 c-22 -27 -2 -44 57 -48 54 -3 82 8 82 33 0 27 -119 40 -139 15z m118 -22 c2 -2 -5 -4 -16 -4 -11 0 -35 -3 -52 -6 -19 -4 -31 -2 -31 4 0 18 80 22 99 6z"/> <path d="M244 412 c0 -10 6 -19 13 -19 8 0 9 6 2 19 -5 10 -11 18 -12 18 -2 0 -3 -8 -3 -18z"/> <path d="M1539 403 c-13 -16 -12 -17 4 -4 16 13 21 21 13 21 -2 0 -10 -8 -17 -17z"/> <path d="M1505 350 c-3 -6 1 -7 9 -4 18 7 21 14 7 14 -6 0 -13 -4 -16 -10z"/> <path d="M311 313 c-60 -72 -26 -112 40 -47 44 42 49 77 13 82 -15 2 -31 -9 -53 -35z m52 -10 c-6 -16 -20 -17 -25 -1 -6 17 15 39 24 25 3 -5 4 -16 1 -24z m-23 -22 c0 -5 -9 -11 -20 -14 -17 -4 -18 -2 -9 14 9 18 29 18 29 0z"/> <path d="M1356 218 c3 -4 11 -5 19 -1 21 7 19 12 -4 10 -11 0 -18 -5 -15 -9z"/> <path d="M1360 190 c-9 -6 -10 -10 -3 -10 6 0 15 5 18 10 8 12 4 12 -15 0z"/> <path d="M1028 103 c6 -2 18 -2 25 0 6 3 1 5 -13 5 -14 0 -19 -2 -12 -5z"/> </g> </svg>
