<?xml version="1.0" standalone="no"?>
<!DOCTYPE svg PUBLIC "-//W3C//DTD SVG 20010904//EN"
 "http://www.w3.org/TR/2001/REC-SVG-20010904/DTD/svg10.dtd">
<svg version="1.0" xmlns="http://www.w3.org/2000/svg"
 width="180.000000pt" height="180.000000pt" viewBox="0 0 180.000000 180.000000"
 preserveAspectRatio="xMidYMid meet">

<g transform="translate(0.000000,180.000000) scale(0.100000,-0.100000)"
fill="#000000" stroke="none">
<path d="M0 1379 l0 -420 22 15 c15 11 45 16 94 16 l71 0 12 56 c16 70 89 217
134 269 l34 39 -53 43 c-61 50 -76 91 -50 141 18 34 33 42 85 42 38 0 94 -32
134 -78 l18 -20 87 44 c52 27 124 54 180 67 l92 22 0 70 c0 48 5 78 16 93 l15
22 -445 0 -446 0 0 -421z"/>
<path d="M1030 1781 c5 -11 10 -53 10 -94 l0 -75 43 -7 c79 -13 192 -54 257
-94 l65 -39 53 59 c48 52 58 59 91 59 49 0 88 -30 97 -74 7 -41 -10 -76 -63
-131 l-39 -40 70 -95 c82 -111 127 -197 152 -286 9 -35 21 -64 25 -64 5 0 9
203 9 450 l0 450 -390 0 c-383 0 -391 0 -380 -19z"/>
<path d="M806 1534 c-351 -78 -584 -381 -563 -734 15 -260 159 -476 397 -595
121 -60 273 -85 405 -65 283 43 494 220 585 490 30 90 38 258 16 360 -53 250
-259 466 -511 535 -88 24 -245 28 -329 9z m308 -54 c90 -23 168 -62 248 -125
68 -53 161 -166 148 -179 -6 -6 -31 -4 -65 4 -52 12 -58 12 -83 -7 -32 -24
-41 -73 -18 -108 8 -13 34 -34 56 -46 44 -25 60 -60 40 -84 -17 -21 -33 -19
-90 10 -27 14 -63 25 -79 25 -23 0 -34 8 -51 34 -49 81 -138 133 -242 142 -80
8 -133 -5 -133 -32 0 -17 8 -19 86 -21 96 -1 138 -15 194 -64 84 -74 109 -198
59 -297 -62 -124 -221 -173 -344 -106 -97 53 -135 132 -126 257 6 65 4 78 -9
84 -28 10 -38 -13 -43 -94 -7 -129 29 -212 124 -279 39 -28 49 -41 50 -65 1
-17 16 -50 33 -74 35 -49 37 -58 16 -75 -21 -17 -51 -4 -74 34 -41 65 -125 82
-167 32 -30 -34 -31 -80 -4 -124 22 -35 19 -52 -8 -52 -29 0 -148 98 -201 164
-96 121 -141 250 -141 406 0 189 60 330 195 465 169 169 400 234 629 175z
m451 -394 c45 -112 58 -276 30 -393 -59 -252 -263 -446 -525 -499 -97 -19
-197 -15 -300 14 l-65 18 3 37 c3 25 -3 50 -18 74 -28 47 -20 83 17 83 19 0
40 -14 73 -50 40 -43 52 -50 84 -50 46 0 86 36 86 78 0 16 -13 45 -30 68 -47
62 -42 74 33 74 88 0 148 23 211 81 72 65 100 130 99 227 -1 83 3 86 75 47 26
-14 57 -25 70 -25 38 0 79 27 91 61 16 45 -6 88 -68 132 -75 54 -69 66 34 64
l85 -2 15 -39z"/>
<path d="M746 1069 c-29 -23 -33 -62 -6 -67 19 -3 82 56 77 71 -6 21 -42 19
-71 -4z"/>
<path d="M894 1022 c-33 -11 -104 -80 -104 -102 0 -19 7 -20 170 -20 94 0 170
3 170 8 0 14 -35 60 -60 80 -48 37 -121 51 -176 34z"/>
</g>
</svg>
