<?xml version="1.0" standalone="no"?>
<!DOCTYPE svg PUBLIC "-//W3C//DTD SVG 20010904//EN"
 "http://www.w3.org/TR/2001/REC-SVG-20010904/DTD/svg10.dtd">
<svg version="1.0" xmlns="http://www.w3.org/2000/svg"
 width="160.000000pt" height="160.000000pt" viewBox="0 0 160.000000 160.000000"
 preserveAspectRatio="xMidYMid meet">

<g transform="translate(0.000000,160.000000) scale(0.100000,-0.100000)"
fill="#000000" stroke="none">
<path d="M691 1399 c-126 -22 -255 -94 -346 -191 -276 -298 -186 -779 179
-957 101 -49 168 -64 276 -64 170 1 308 60 430 183 87 86 131 163 160 276 51
200 -3 410 -143 561 -75 80 -151 130 -252 165 -92 31 -217 43 -304 27z m254
-50 c94 -26 169 -72 252 -154 94 -92 106 -122 46 -110 -58 11 -82 9 -104 -11
-39 -35 -17 -81 65 -137 18 -13 26 -26 24 -40 -4 -30 -46 -33 -97 -8 -22 12
-52 21 -66 21 -14 0 -25 4 -25 8 0 19 -75 94 -114 114 -24 12 -68 23 -108 26
-83 6 -121 -3 -116 -26 3 -14 16 -17 78 -18 63 0 84 -5 127 -28 30 -17 64 -46
80 -69 25 -36 28 -49 28 -117 0 -67 -4 -82 -27 -118 -85 -128 -274 -130 -363
-4 -28 41 -30 50 -31 135 0 92 -9 112 -34 82 -9 -11 -14 -44 -14 -94 0 -68 4
-85 30 -132 20 -36 46 -64 77 -84 37 -24 46 -36 46 -59 1 -16 13 -44 27 -63
14 -18 24 -41 22 -51 -6 -31 -36 -23 -81 22 -36 37 -51 46 -80 46 -62 0 -99
-76 -62 -126 17 -23 19 -54 3 -54 -24 0 -110 64 -159 119 -62 67 -114 172
-134 266 -18 88 -19 142 0 228 57 270 316 468 590 452 44 -3 98 -10 120 -16z
m393 -374 c70 -203 19 -417 -138 -576 -82 -83 -176 -136 -281 -159 -68 -15
-238 -9 -294 11 -37 13 -39 16 -40 57 -1 23 -6 47 -13 54 -17 17 -15 65 3 72
23 8 40 -2 74 -45 28 -35 37 -39 75 -39 46 0 61 10 71 50 4 19 -2 37 -24 70
-17 25 -31 50 -31 57 0 8 21 11 63 11 76 0 129 20 180 70 58 56 80 105 82 184
1 37 4 70 7 73 3 4 29 -6 57 -20 56 -30 96 -28 127 6 38 42 11 109 -58 145
-16 8 -28 23 -28 33 0 18 7 19 73 16 l72 -4 23 -66z"/>
<path d="M622 994 c-23 -16 -29 -48 -11 -60 12 -7 69 44 69 63 0 18 -31 16
-58 -3z"/>
</g>
</svg>
