<?xml version="1.0" encoding="UTF-8"?>
<svg version="1.1" viewBox="0 0 1016 1024" xmlns="http://www.w3.org/2000/svg">
<path d="M0 0 C5.50127176 0.57572842 10.64724898 1.57663406 15.96044922 3.13525391 C16.71934574 3.35257203 17.47824226 3.56989016 18.26013565 3.79379368 C20.77661733 4.51584161 23.2905917 5.24625474 25.8046875 5.9765625 C27.60667421 6.49507519 29.40883318 7.01298957 31.21115112 7.53034973 C35.07410754 8.64024549 38.93605346 9.75356535 42.79724121 10.86959839 C52.11522099 13.562363 61.43866491 16.23611083 70.76184082 18.9108181 C72.89231224 19.52209226 75.02272359 20.13357584 77.15307617 20.74526405 C97.17107909 26.49274824 117.21553038 32.1419004 137.27415848 37.74571609 C144.85666652 39.86437231 152.43830477 41.98613794 160.01953125 44.109375 C160.86607458 44.34645739 161.71261791 44.58353977 162.58481407 44.82780647 C184.21906892 50.88885727 205.82841635 57.03743318 227.4375 63.1875 C235.48171665 65.47675295 243.52596486 67.76589491 251.5703125 70.0546875 C252.57515497 70.34059879 253.57999744 70.62651009 254.61528969 70.92108536 C278.00737037 77.57627541 301.40918327 84.19694919 324.8125 90.8125 C326.85847078 91.39088548 328.90444042 91.96927497 330.95040894 92.54766846 C339.22452469 94.88672417 347.49867029 97.22567425 355.77287292 99.56442261 C379.37478072 106.23579755 402.97479677 112.91385634 426.57450104 119.59302139 C429.99731374 120.56173974 433.42013488 121.53042829 436.84295654 122.49911499 C464.15369005 130.22840552 491.46265312 137.96388128 518.76806641 145.71194458 C546.09435541 153.46545377 573.42780693 161.1936069 600.76118088 168.92209625 C627.34357169 176.43827156 653.92475751 183.95858733 680.5 191.5 C707.34993585 199.11913735 734.20556456 206.7180748 761.0625 214.3125 C763.1601565 214.90566927 765.25781275 215.49883943 767.35546875 216.0920105 C768.39816988 216.38686309 769.44087101 216.68171568 770.51516914 216.9855032 C775.85516685 218.49553671 781.19516288 220.00557616 786.53515625 221.515625 C787.60809055 221.81902864 788.68102486 222.12243229 789.78647232 222.43502998 C844.96586892 238.03877223 900.14370643 253.64811563 955.31225586 269.29017258 C957.31703775 269.85856659 959.32184559 270.42686896 961.32666016 270.99514771 C968.38235118 272.99534058 975.43739504 274.99778786 982.49157715 277.0032959 C984.96180268 277.70505963 987.43223135 278.40607109 989.9029541 279.1060791 C993.8239404 280.2169917 997.7440166 281.33108603 1001.6640625 282.4453125 C1002.87291107 282.78730682 1004.08175964 283.12930115 1005.32723999 283.48165894 C1006.4356424 283.79724762 1007.5440448 284.1128363 1008.68603516 284.43798828 C1009.66641754 284.71619415 1010.64679993 284.99440002 1011.65689087 285.28103638 C1014 286 1014 286 1016 287 C1014.40584497 290.91209308 1011.86106668 293.37218086 1008.875 296.3125 C1007.96492187 297.21613281 1007.05484375 298.11976563 1006.1171875 299.05078125 C1003.95837815 301.13343842 1001.72863265 303.09825119 999.4453125 305.04296875 C993.31457275 310.3628218 987.70206455 316.23024559 982 322 C969.33776642 334.81254839 969.33776642 334.81254839 963.10546875 340.1171875 C958.01559498 344.66880003 953.29726237 349.64328498 948.5 354.5 C936.39801899 366.7519613 936.39801899 366.7519613 932.03125 370.46875 C926.00641187 375.60334149 920.55997688 381.37402 915 387 C902.36670821 399.78326304 902.36670821 399.78326304 896.13671875 405.0859375 C890.86304929 409.81006553 885.97514105 414.96579848 881 420 C868.36670821 432.78326304 868.36670821 432.78326304 862.13671875 438.0859375 C856.86304929 442.81006553 851.97514105 447.96579848 847 453 C834.36670821 465.78326304 834.36670821 465.78326304 828.13671875 471.0859375 C822.86304929 475.81006553 817.97514105 480.96579848 813 486 C800.36670821 498.78326304 800.36670821 498.78326304 794.13671875 504.0859375 C788.86304929 508.81006553 783.97514105 513.96579848 779 519 C766.36670821 531.78326304 766.36670821 531.78326304 760.13671875 537.0859375 C754.86304929 541.81006553 749.97514105 546.96579848 745 552 C732.33776642 564.81254839 732.33776642 564.81254839 726.10546875 570.1171875 C721.01559498 574.66880003 716.29726237 579.64328498 711.5 584.5 C699.39801899 596.7519613 699.39801899 596.7519613 695.03125 600.46875 C689.00641187 605.60334149 683.55997688 611.37402 678 617 C665.36670821 629.78326304 665.36670821 629.78326304 659.13671875 635.0859375 C653.86304929 639.81006553 648.97514105 644.96579848 644 650 C631.36670821 662.78326304 631.36670821 662.78326304 625.13671875 668.0859375 C619.86304929 672.81006553 614.97514105 677.96579848 610 683 C597.36670821 695.78326304 597.36670821 695.78326304 591.13671875 701.0859375 C585.86304929 705.81006553 580.97514105 710.96579848 576 716 C563.36670821 728.78326304 563.36670821 728.78326304 557.13671875 734.0859375 C551.86304929 738.81006553 546.97514105 743.96579848 542 749 C529.36670821 761.78326304 529.36670821 761.78326304 523.13671875 767.0859375 C517.86304929 771.81006553 512.97514105 776.96579848 508 782 C495.36670821 794.78326304 495.36670821 794.78326304 489.13671875 800.0859375 C483.86304929 804.81006553 478.97514105 809.96579848 474 815 C461.36554995 827.78443504 461.36554995 827.78443504 457.0234375 831.47265625 C453.35850366 834.59025482 449.98464837 837.9546755 446.6015625 841.37109375 C445.75232208 842.22859726 445.75232208 842.22859726 444.88592529 843.10342407 C442.52664448 845.49048996 440.17115506 847.88122548 437.81982422 850.27612305 C436.08470636 852.04125453 434.34357159 853.80026685 432.6015625 855.55859375 C431.80161362 856.37873207 431.80161362 856.37873207 430.98550415 857.21543884 C429.69447777 858.51528518 428.35155967 859.76321543 427 861 C426.34 861 425.68 861 425 861 C425 861.66 425 862.32 425 863 C423.65429687 864.32226563 423.65429687 864.32226563 421.71875 865.90625 C418.14391798 868.94611596 414.77161856 872.13841825 411.46875 875.46875 C410.9843042 875.95649902 410.4998584 876.44424805 410.00073242 876.94677734 C408.49849478 878.46256197 406.99880899 879.98082544 405.5 881.5 C394.45950841 892.69050797 394.45950841 892.69050797 390.1171875 896.37890625 C386.42466775 899.53186675 383.0155621 902.92339258 379.6015625 906.37109375 C379.03552307 906.94264191 378.46948364 907.51419006 377.8862915 908.10305786 C375.5268864 910.49024364 373.17127602 912.88110229 370.81982422 915.27612305 C369.08470636 917.04125453 367.34357159 918.80026685 365.6015625 920.55859375 C364.80161362 921.37873207 364.80161362 921.37873207 363.98550415 922.21543884 C362.69447777 923.51528518 361.35155967 924.76321543 360 926 C359.34 926 358.68 926 358 926 C357.67 926.99 357.34 927.98 357 929 C355.55664062 930.41992188 355.55664062 930.41992188 353.65625 931.96875 C350.10028652 934.98593114 346.75113232 938.15911645 343.46875 941.46875 C342.98422363 941.95657959 342.49969727 942.44440918 342.00048828 942.94702148 C340.49833277 944.46272546 338.99872816 945.98090737 337.5 947.5 C326.45950841 958.69050797 326.45950841 958.69050797 322.1171875 962.37890625 C318.42466775 965.53186675 315.0155621 968.92339258 311.6015625 972.37109375 C311.03552307 972.94264191 310.46948364 973.51419006 309.8862915 974.10305786 C307.5268864 976.49024364 305.17127602 978.88110229 302.81982422 981.27612305 C301.08470636 983.04125453 299.34357159 984.80026685 297.6015625 986.55859375 C296.80161362 987.37873207 296.80161362 987.37873207 295.98550415 988.21543884 C294.69447777 989.51528518 293.35155967 990.76321543 292 992 C291.34 992 290.68 992 290 992 C289.67 992.99 289.34 993.98 289 995 C287.55664062 996.42211914 287.55664062 996.42211914 285.65625 997.97265625 C279.95575019 1002.80917406 274.75846936 1008.13358072 269.5 1013.4375 C268.47679861 1014.4657298 267.45336267 1015.49372626 266.4296875 1016.52148438 C263.95042001 1019.01164338 261.47432462 1021.50492833 259 1024 C258.01 1023.67 257.02 1023.34 256 1023 C255.00108337 1020.32040405 255.00108337 1020.32040405 254.10913086 1016.66943359 C253.94253464 1016.00304871 253.77593842 1015.33666382 253.60429382 1014.65008545 C253.04559363 1012.40236396 252.50549945 1010.15056188 251.96484375 1007.8984375 C251.56504237 1006.27604184 251.16401684 1004.65394743 250.76185608 1003.03213501 C249.68726688 998.6857558 248.62785341 994.33581714 247.57196045 989.98486328 C245.95506316 983.33373023 244.31405706 976.68847096 242.67775345 970.04209137 C242.23705512 968.2508299 241.79688316 966.45943887 241.35718918 964.6679306 C237.11957826 947.40227898 232.75991114 930.16845068 228.37888646 912.93879366 C220.97768165 883.82990133 213.65354364 854.70230243 206.375 825.5625 C205.86746935 823.53085926 205.35993722 821.49921889 204.85240364 819.46757889 C200.97250868 803.93552988 197.09553368 788.40275225 193.21878052 772.86991882 C189.35571314 757.39206457 185.49152332 741.91449131 181.625 726.4375 C181.37342699 725.43041866 181.12185398 724.42333733 180.86265755 723.38573837 C174.01810859 695.98760255 167.13051471 668.60095006 160.1738224 641.2310791 C154.1791779 617.64594007 148.2404704 594.04731579 142.34375 570.4375 C142.14129292 569.62696293 141.93883583 568.81642586 141.73024368 567.98132706 C138.44542162 554.83016284 135.16392749 541.67816867 131.88282013 528.52607727 C128.80886541 516.20449296 125.73373095 503.8832041 122.65625 491.5625 C122.45360409 490.75112705 122.25095818 489.9397541 122.04217148 489.1037941 C116.12945307 465.43158102 110.16600587 441.77275242 104.15625 418.125 C97.46250148 391.78532567 90.83604406 365.42931086 84.25 339.0625 C84.02045687 338.14361874 83.79091373 337.22473747 83.55441475 336.27801132 C79.79784426 321.23977011 76.04458439 306.20070299 72.29168701 291.1615448 C68.77933395 277.08647781 65.26589424 263.01168288 61.75 248.9375 C61.40591827 247.56004435 61.40591827 247.56004435 61.05488539 246.15476131 C54.11713505 218.38300258 47.12119445 190.62656039 40.07332528 162.88256001 C32.68296334 133.78910334 25.36444342 104.677872 18.07974029 75.55778933 C16.23668776 68.1904075 14.3905098 60.82381724 12.54197824 53.45780826 C11.07418481 47.6081645 9.60906586 41.75785508 8.14602149 35.90702176 C7.28614567 32.46855777 6.42516622 29.03037991 5.56129074 25.5929184 C4.61819835 21.83993004 3.68064659 18.08557047 2.74365234 14.33105469 C2.46335678 13.21908722 2.18306122 12.10711975 1.89427185 10.9614563 C1.64261765 9.94927032 1.39096344 8.93708435 1.13168335 7.89422607 C0.91170874 7.01579418 0.69173412 6.13736229 0.46509361 5.23231125 C-0 3 -0 3 0 0 Z " fill="#040404" transform="translate(0,0)"/>
<path d="M0 0 C0.66 0 1.32 0 2 0 C2.2333606 0.99459229 2.2333606 0.99459229 2.47143555 2.00927734 C6.2557376 18.16551217 6.2557376 18.16551217 10.5625 34.1875 C12.68105424 41.56821509 14.43141992 49.00374483 16.03735352 56.51245117 C17.07479772 61.26721412 18.24888136 65.96076074 19.5787859 70.64287663 C23.10486582 83.05819534 26.21194023 95.57548208 29.33203125 108.09765625 C29.93331418 110.50398503 30.53477365 112.9102697 31.13639832 115.31651306 C32.39260343 120.34288841 33.64724302 125.36965089 34.90063477 130.39672852 C36.48155339 136.73725673 38.06554029 143.07701326 39.6505146 149.4165287 C42.65346381 161.42827054 45.64837744 173.44197106 48.63031197 185.45894814 C50.10514981 191.40214554 51.58550693 197.3438982 53.07354832 203.28380299 C53.86192785 206.43749148 54.64372764 209.59277634 55.42304039 212.74871635 C55.76903745 214.14431982 56.11780668 215.53923946 56.46958351 216.93339729 C56.93604758 218.78371703 57.39161884 220.63677314 57.84643555 222.48999023 C58.09652878 223.49440659 58.34662201 224.49882294 58.60429382 225.53367615 C59 228 59 228 58 231 C36.08514844 225.14689831 14.19363271 219.26204643 -7.47729492 212.5546875 C-15.06158967 210.23087783 -22.70444813 208.21944149 -30.39086914 206.26489258 C-37.00989677 204.5646484 -43.53908914 202.6595743 -50.0625 200.625 C-58.98298059 197.84507184 -67.96207845 195.3680802 -77 193 C-86.8202633 190.42632024 -96.54874284 187.6716481 -106.23828125 184.64453125 C-114.10332238 182.21351854 -122.03770512 180.08677757 -130 178 C-142.77086991 174.65101277 -155.40909317 170.97013963 -168 167 C-168 164 -168 164 -166.87695312 162.50946045 C-166.35037109 161.98652405 -165.82378906 161.46358765 -165.28125 160.92480469 C-164.38901733 160.02807037 -164.38901733 160.02807037 -163.47875977 159.11322021 C-162.49927368 158.15225433 -162.49927368 158.15225433 -161.5 157.171875 C-160.830896 156.50464417 -160.16179199 155.83741333 -159.47241211 155.14996338 C-158.05003618 153.73432172 -156.62406142 152.32228838 -155.19482422 150.91357422 C-153.0297895 148.77936536 -150.87529465 146.63498543 -148.72265625 144.48828125 C-147.33655137 143.11136092 -145.94985044 141.73504032 -144.5625 140.359375 C-143.92570312 139.726828 -143.28890625 139.09428101 -142.6328125 138.44256592 C-138.8381684 134.70672006 -134.92587445 131.16371138 -130.8996582 127.67974854 C-128.08590829 125.19172607 -125.4455795 122.55157704 -122.8125 119.875 C-122.2656958 119.32440918 -121.7188916 118.77381836 -121.15551758 118.20654297 C-119.43450493 116.47349183 -117.71682168 114.73720227 -116 113 C-103.36670821 100.21673696 -103.36670821 100.21673696 -97.13671875 94.9140625 C-91.86304929 90.18993447 -86.97514105 85.03420152 -82 80 C-69.33776642 67.18745161 -69.33776642 67.18745161 -63.10546875 61.8828125 C-58.01559498 57.33119997 -53.29726237 52.35671502 -48.5 47.5 C-36.39686379 35.24686918 -36.39686379 35.24686918 -32.0546875 31.55859375 C-28.38057394 28.42918332 -24.99495501 25.05575406 -21.6015625 21.62890625 C-20.75238251 20.77146317 -20.75238251 20.77146317 -19.88604736 19.896698 C-17.52672512 17.50959215 -15.17119538 15.11881558 -12.81982422 12.72387695 C-11.08470636 10.95874547 -9.34357159 9.19973315 -7.6015625 7.44140625 C-7.06826324 6.89464737 -6.53496399 6.34788849 -5.98550415 5.78456116 C-4.69447777 4.48471482 -3.35155967 3.23678457 -2 2 C-1.34 2 -0.68 2 0 2 C0 1.34 0 0.68 0 0 Z " fill="#FDFDFD" transform="translate(502,161)"/>
<path d="M0 0 C0.66 0 1.32 0 2 0 C2.34611328 1.52753906 2.34611328 1.52753906 2.69921875 3.0859375 C4.4596989 10.75777992 6.33820373 18.36829735 8.5 25.9375 C10.40429598 32.61951922 12.00263976 39.32046522 13.45071125 46.11470127 C14.56349892 51.24685891 15.87017517 56.29012819 17.31518555 61.33764648 C20.04997281 71.04557864 22.52097188 80.81121188 24.95703125 90.59765625 C25.42223218 92.45919262 25.88762017 94.32068225 26.35317993 96.18212891 C27.58829448 101.1234193 28.82030812 106.06547733 30.05140305 111.00777054 C30.81591348 114.07620029 31.58118597 117.14443899 32.34671021 120.21261597 C35.66686848 133.52009937 38.98050048 146.82919734 42.28898621 160.1395874 C42.97592624 162.90315114 43.66306029 165.66666659 44.35021973 168.43017578 C46.70524063 177.9028497 49.05536836 187.37671519 51.39682007 196.85275269 C52.08818282 199.65072075 52.78097905 202.44832763 53.4750061 205.24563599 C54.42369143 209.07028837 55.36656955 212.8963574 56.30859375 216.72265625 C56.58555084 217.83688965 56.86250793 218.95112305 57.14785767 220.09912109 C57.39482391 221.10676514 57.64179016 222.11440918 57.89624023 223.15258789 C58.21853859 224.4584359 58.21853859 224.4584359 58.54734802 225.79066467 C59 228 59 228 59 231 C51.98454772 229.74441489 45.28747005 227.96915421 38.5 225.8125 C30.08552129 223.19508986 21.64117117 220.76453751 13.125 218.5 C12.04178467 218.21165283 10.95856934 217.92330566 9.8425293 217.6262207 C8.75625244 217.33706787 7.66997559 217.04791504 6.55078125 216.75 C-8.88140848 212.64147467 -24.22191456 208.27637332 -39.47729492 203.5546875 C-47.05646766 201.2324472 -54.69392828 199.2213086 -62.37548828 197.26928711 C-70.11954776 195.28098307 -77.74207105 192.98038822 -85.375 190.60546875 C-92.04095572 188.5495286 -98.73954903 186.71780539 -105.5 185 C-114.1255872 182.80688069 -122.62442288 180.33084998 -131.12231445 177.68896484 C-143.96075311 173.72904612 -156.95826582 170.22851055 -170 167 C-170 166.34 -170 165.68 -170 165 C-168.6015625 163.625 -168.6015625 163.625 -166.625 162 C-161.46279904 157.6103115 -156.75265835 152.82466833 -152 148 C-142.5124201 138.36866889 -142.5124201 138.36866889 -138.1875 134.6875 C-132.12096791 129.4858751 -126.6131278 123.67976188 -121 118 C-108.36670821 105.21673696 -108.36670821 105.21673696 -102.13671875 99.9140625 C-96.86304929 95.18993447 -91.97514105 90.03420152 -87 85 C-74.36670821 72.21673696 -74.36670821 72.21673696 -68.13671875 66.9140625 C-62.86304929 62.18993447 -57.97514105 57.03420152 -53 52 C-40.36643349 39.21645899 -40.36643349 39.21645899 -36.01171875 35.51171875 C-29.9239796 30.330834 -24.42754768 24.49333984 -18.8125 18.8125 C-16.5094642 16.48272543 -14.20302912 14.15639233 -11.89453125 11.83203125 C-11.37671585 11.30591751 -10.85890045 10.77980377 -10.32539368 10.23774719 C-8.03561327 7.93266629 -5.73529179 5.78872632 -3.1940918 3.76049805 C-0.91899957 2.18611659 -0.91899957 2.18611659 0 0 Z " fill="#FDFDFD" transform="translate(565,412)"/>
<path d="M0 0 C8.71694736 33.84784413 17.18469553 67.75436398 25.5625 101.6875 C26.06589781 103.72607668 26.5693056 105.76465091 27.07272339 107.80322266 C28.79969397 114.79671731 30.52658908 121.79023062 32.25320244 128.78381348 C36.09793276 144.35647805 39.94683429 159.92805984 43.82833862 175.49160767 C44.34740152 177.57388401 44.86561227 179.65637302 45.38284302 181.73910522 C47.90422407 191.88928023 50.48240336 202.01053537 53.38088989 212.06071472 C55.06586943 217.96884585 56.19945317 223.90628531 57 230 C50.93058526 229.4020966 45.39681723 228.12103245 39.5625 226.375 C37.69686632 225.82856685 35.83096935 225.28303205 33.96484375 224.73828125 C32.99144043 224.45291504 32.01803711 224.16754883 31.01513672 223.87353516 C26.94138587 222.69330192 22.85448364 221.56290375 18.7668457 220.43188477 C9.594129 217.89368878 0.46615535 215.25409448 -8.625 212.4375 C-17.15758593 209.79618315 -25.73529095 207.46588455 -34.39086914 205.26489258 C-41.00989677 203.5646484 -47.53908914 201.6595743 -54.0625 199.625 C-62.98298059 196.84507184 -71.96207845 194.3680802 -81 192 C-90.8202633 189.42632024 -100.54874284 186.6716481 -110.23828125 183.64453125 C-118.10332238 181.21351854 -126.03770512 179.08677757 -134 177 C-146.77086991 173.65101277 -159.40909317 169.97013963 -172 166 C-168.65873023 162.04060236 -165.29797153 158.15931736 -161.625 154.5 C-160.93664062 153.8090625 -160.24828125 153.118125 -159.5390625 152.40625 C-157.57194297 150.54202595 -155.58419656 148.78619112 -153.5234375 147.03125 C-147.36912161 141.68266835 -141.72787018 135.79586638 -136 130 C-123.36670821 117.21673696 -123.36670821 117.21673696 -117.13671875 111.9140625 C-111.86304929 107.18993447 -106.97514105 102.03420152 -102 97 C-89.36670821 84.21673696 -89.36670821 84.21673696 -83.13671875 78.9140625 C-77.86304929 74.18993447 -72.97514105 69.03420152 -68 64 C-55.36670821 51.21673696 -55.36670821 51.21673696 -49.13671875 45.9140625 C-43.86304929 41.18993447 -38.97514105 36.03420152 -34 31 C-20.96495811 17.81021765 -20.96495811 17.81021765 -14.69433594 12.47607422 C-11.5051261 9.69769343 -8.61814682 6.62296082 -5.6953125 3.56835938 C-2.2110892 0 -2.2110892 0 0 0 Z " fill="#FDFDFD" transform="translate(318,342)"/>
<path d="M0 0 C0.34611328 1.52753906 0.34611328 1.52753906 0.69921875 3.0859375 C1.02843433 4.51567372 1.35787414 5.94535832 1.6875 7.375 C1.83638672 8.035 1.98527344 8.695 2.13867188 9.375 C3.19162337 13.91714372 4.38269133 18.41006749 5.6488142 22.89758396 C8.58908449 33.32379545 11.27041547 43.80498598 13.88671875 54.31640625 C14.34616927 56.15506915 14.80580483 57.99368582 15.26560974 59.83226013 C16.48958221 64.72929277 17.71046231 69.62709118 18.93058014 74.52508545 C19.69197705 77.58046579 20.45431378 80.63561008 21.21697998 83.69067383 C28.9741981 114.76428959 36.67896168 145.85072687 44.3269043 176.95141602 C44.50123017 177.66025153 44.67555605 178.36908705 44.85516453 179.09940243 C45.68774888 182.48504835 46.51994831 185.87078803 47.35145569 189.25669861 C48.72964069 194.8633929 50.11333065 200.46838336 51.52636719 206.06640625 C51.75597137 206.97672607 51.98557556 207.8870459 52.22213745 208.82495117 C52.62844086 210.4311731 53.03678359 212.03688187 53.44802856 213.6418457 C54.81997213 219.05980885 55.94418048 224.51212051 57 230 C50.62216378 229.41548833 44.95768709 227.89785825 38.875 225.9375 C29.64342451 223.03977742 20.36024225 220.44871367 11 218 C2.10856636 215.67109145 -6.72616258 213.24060246 -15.5 210.5 C-25.43399273 207.40097536 -35.45277638 204.70319581 -45.51538086 202.05517578 C-57.67779413 198.84602632 -69.76677029 195.40145444 -81.85058594 191.90966797 C-86.46074166 190.57808345 -91.0737751 189.25665601 -95.6875 187.9375 C-96.93406372 187.5803894 -96.93406372 187.5803894 -98.20581055 187.21606445 C-102.81320211 185.89909579 -107.42531122 184.60084551 -112.04296875 183.3203125 C-123.38687022 180.17245462 -134.67797332 176.91382929 -145.92211914 173.42529297 C-152.92894674 171.27114406 -159.96594595 169.44761145 -167.11328125 167.82421875 C-170 167 -170 167 -172 165 C-169.00428676 161.97489042 -166.00265195 158.95572125 -163 155.9375 C-161.74123047 154.66616211 -161.74123047 154.66616211 -160.45703125 153.36914062 C-156.78275686 149.68062486 -153.12010497 146.03811295 -149.15625 142.66015625 C-143.28186477 137.61812305 -137.9365021 132.00387687 -132.5 126.5 C-120.39801899 114.2480387 -120.39801899 114.2480387 -116.03125 110.53125 C-110.00641187 105.39665851 -104.55997688 99.62598 -99 94 C-86.36670821 81.21673696 -86.36670821 81.21673696 -80.13671875 75.9140625 C-74.86304929 71.18993447 -69.97514105 66.03420152 -65 61 C-52.36670821 48.21673696 -52.36670821 48.21673696 -46.13671875 42.9140625 C-40.86304929 38.18993447 -35.97514105 33.03420152 -31 28 C-17.87811142 14.72233999 -17.87811142 14.72233999 -11.60058594 9.38232422 C-8.77013407 6.93784306 -6.2407653 4.20893091 -3.6640625 1.50390625 C-2 0 -2 0 0 0 Z " fill="#FDFDFD" transform="translate(255,91)"/>
<path d="M0 0 C8.86797532 34.78343914 17.69969586 69.57442048 26.25 104.4375 C26.57783951 105.77384706 26.90568985 107.11019146 27.23355103 108.4465332 C27.39550178 109.10665657 27.55745253 109.76677994 27.72431087 110.44690704 C27.9667621 111.43515095 27.9667621 111.43515095 28.21411133 112.44335938 C28.37534516 113.10055717 28.536579 113.75775497 28.70269871 114.43486786 C29.18849015 116.41491871 29.67432021 118.39496009 30.16015625 120.375 C30.31894068 121.02222519 30.47772511 121.66945038 30.64132118 122.33628845 C33.9935995 135.99833143 37.37600964 149.65275487 40.78088379 163.30178833 C41.37365183 165.67890631 41.96556583 168.05623746 42.55651855 170.43380737 C45.35525293 181.69059815 48.21414993 192.91401291 51.37399292 204.07514954 C52.95715849 209.71636382 54.24487948 215.36631964 55.3125 221.125 C55.48072266 221.99769531 55.64894531 222.87039063 55.82226562 223.76953125 C56.22141375 225.84510148 56.61179699 227.92235483 57 230 C48.11145226 229.06335733 39.89101014 226.53786349 31.39575195 223.88061523 C24.0134475 221.58278852 16.59742605 219.48431123 9.125 217.5 C-7.38792304 213.10498613 -23.86480271 208.6240678 -40.1875 203.5625 C-49.70500592 200.61231403 -59.30090471 198.01762455 -68.93835449 195.49203491 C-78.27622277 193.04161896 -87.51528542 190.37801238 -96.73046875 187.50390625 C-103.27695098 185.47893505 -109.859332 183.68863822 -116.5 182 C-125.23538692 179.77698696 -133.85492805 177.28612818 -142.46508789 174.62084961 C-152.26558463 171.58923605 -162.12614917 168.78179698 -172 166 C-167.99109382 161.11274311 -163.73336107 156.75062848 -159.0625 152.5 C-150.83028371 144.9083308 -142.9361434 137.00058354 -135.07055664 129.03320312 C-127.28330926 121.16565244 -127.28330926 121.16565244 -123.125 117.625 C-117.07522302 112.45003802 -111.59189256 106.65827455 -106 101 C-93.36670821 88.21673696 -93.36670821 88.21673696 -87.13671875 82.9140625 C-81.86304929 78.18993447 -76.97514105 73.03420152 -72 68 C-59.36670821 55.21673696 -59.36670821 55.21673696 -53.13671875 49.9140625 C-47.86304929 45.18993447 -42.97514105 40.03420152 -38 35 C-25.0807537 21.92738786 -25.0807537 21.92738786 -18.81933594 16.60107422 C-14.69410427 12.9707375 -10.93882259 8.93454841 -7.1171875 4.99023438 C-6.16585937 4.0224707 -6.16585937 4.0224707 -5.1953125 3.03515625 C-4.62828613 2.4512915 -4.06125977 1.86742676 -3.47705078 1.26586914 C-2 0 -2 0 0 0 Z " fill="#FDFDFD" transform="translate(381,593)"/>
<path d="M0 0 C2.92895508 11.71582031 5.85791016 23.43164063 8.78686523 35.14746094 C8.96657584 35.86629833 9.14628645 36.58513573 9.33144283 37.32575607 C9.69173086 38.76691833 10.05200935 40.20808297 10.41227818 41.64925003 C11.29773443 45.19125138 12.1833518 48.73321229 13.06932068 52.27508545 C14.56485301 58.25444248 16.05933507 64.23404279 17.54516602 70.21582031 C17.77142166 71.12535461 17.99767731 72.03488892 18.23078918 72.97198486 C18.62829322 74.57064679 19.02488569 76.1695359 19.42021179 77.76873779 C21.04182772 84.28519237 22.84650573 90.74682899 24.69140625 97.203125 C27.45628317 107.1451292 29.82878033 117.19664881 32.18359375 127.2421875 C32.36825699 128.02980469 32.55292023 128.81742188 32.74317932 129.62890625 C33.49681616 132.847297 34.24959945 136.06587221 34.99731445 139.28564453 C37.1356269 148.4829081 39.4043683 157.6136265 41.97781372 166.69897461 C44.83695154 176.86322519 47.37106725 187.11222795 49.93139648 197.35498047 C50.82350082 200.9189484 51.72317248 204.48095578 52.62304688 208.04296875 C53.19316704 210.31759341 53.76284529 212.59232889 54.33203125 214.8671875 C54.60070511 215.9275119 54.86937897 216.9878363 55.14619446 218.08029175 C55.39032578 219.06297028 55.63445709 220.0456488 55.88598633 221.05810547 C56.10184891 221.91870575 56.31771149 222.77930603 56.54011536 223.66598511 C57 226 57 226 57 230 C50.39464473 229.39314757 44.39742876 227.8019587 38.0625 225.875 C35.9170252 225.23577457 33.77117983 224.59779182 31.625 223.9609375 C30.52800781 223.63448242 29.43101562 223.30802734 28.30078125 222.97167969 C23.06851498 221.43141195 17.81677937 219.96309112 12.5625 218.5 C11.53020264 218.2117334 10.49790527 217.9234668 9.43432617 217.62646484 C4.18320855 216.16135936 -1.06993609 214.70370921 -6.32421875 213.25 C-16.46595059 210.43655818 -26.57083978 207.550604 -36.625 204.4375 C-45.1576383 201.79634094 -53.73528246 199.46588671 -62.39086914 197.26489258 C-69.00989677 195.5646484 -75.53908914 193.6595743 -82.0625 191.625 C-90.98297215 188.84507447 -99.96202922 186.36788059 -109 184 C-118.96960033 181.38803945 -128.84928465 178.59451672 -138.68432617 175.51489258 C-146.65774524 173.04107174 -154.70928415 170.9352199 -162.81811523 168.95263672 C-164.18625366 168.61063232 -164.18625366 168.61063232 -165.58203125 168.26171875 C-166.38874268 168.06537842 -167.1954541 167.86903809 -168.02661133 167.66674805 C-170 167 -170 167 -172 165 C-170.16994917 163.1424984 -168.33607989 161.28902768 -166.5 159.4375 C-165.9946875 158.92380859 -165.489375 158.41011719 -164.96875 157.88085938 C-162.20567563 155.10051579 -159.39156588 152.45096738 -156.40625 149.91015625 C-150.28230259 144.61323475 -144.68777116 138.75529134 -139 133 C-126.33776642 120.18745161 -126.33776642 120.18745161 -120.10546875 114.8828125 C-115.01559498 110.33119997 -110.29726237 105.35671502 -105.5 100.5 C-93.39801899 88.2480387 -93.39801899 88.2480387 -89.03125 84.53125 C-83.00641187 79.39665851 -77.55997688 73.62598 -72 68 C-59.36670821 55.21673696 -59.36670821 55.21673696 -53.13671875 49.9140625 C-47.86304929 45.18993447 -42.97514105 40.03420152 -38 35 C-25.0807537 21.92738786 -25.0807537 21.92738786 -18.81933594 16.60107422 C-14.69410427 12.9707375 -10.93882259 8.93454841 -7.1171875 4.99023438 C-6.16585937 4.0224707 -6.16585937 4.0224707 -5.1953125 3.03515625 C-4.62828613 2.4512915 -4.06125977 1.86742676 -3.47705078 1.26586914 C-2 0 -2 0 0 0 Z " fill="#FDFDFD" transform="translate(753,232)"/>
<path d="M0 0 C6.96605514 1.31886639 13.83018744 2.88910542 20.6875 4.6875 C21.686604 4.94877686 22.68570801 5.21005371 23.71508789 5.47924805 C31.45116898 7.53051384 39.09988985 9.8127693 46.7434082 12.18237305 C55.08386075 14.75494923 63.47044407 17.14783876 71.875 19.5 C72.56008636 19.69178833 73.24517273 19.88357666 73.95101929 20.08117676 C78.63303893 21.39095406 83.31645246 22.69569827 88 24 C92.25036645 25.18619115 96.50027457 26.37401456 100.75 27.5625 C101.74700928 27.8409375 102.74401855 28.119375 103.77124023 28.40625 C112.68593139 30.90055314 121.58136794 33.46070755 130.47827148 36.01757812 C138.40142628 38.28431176 146.34733673 40.44866134 154.3125 42.5625 C163.61759679 45.03217587 172.82666987 47.73284582 182.02075195 50.58618164 C188.54582486 52.59770451 195.07796554 54.30018502 201.71875 55.890625 C210.91698061 58.19018265 219.95133691 61.17883427 229 64 C225.65873023 67.95939764 222.29797153 71.84068264 218.625 75.5 C217.59246094 76.53640625 217.59246094 76.53640625 216.5390625 77.59375 C214.57194297 79.45797405 212.58419656 81.21380888 210.5234375 82.96875 C204.36912161 88.31733165 198.72787018 94.20413362 193 100 C180.33776642 112.81254839 180.33776642 112.81254839 174.10546875 118.1171875 C169.01559498 122.66880003 164.29726237 127.64328498 159.5 132.5 C147.39801899 144.7519613 147.39801899 144.7519613 143.03125 148.46875 C137.00641187 153.60334149 131.55997688 159.37402 126 165 C113.36670821 177.78326304 113.36670821 177.78326304 107.13671875 183.0859375 C101.86304929 187.81006553 96.97514105 192.96579848 92 198 C78.99390701 211.1604898 78.99390701 211.1604898 72.72558594 216.49267578 C69.30265388 219.48265633 66.19730196 222.8008234 63.05078125 226.07617188 C61.7360282 227.41980193 60.37183112 228.71469976 59 230 C58.34 230 57.68 230 57 230 C56.76925781 228.98164063 56.53851563 227.96328125 56.30078125 226.9140625 C54.59804984 219.4929248 52.7949001 212.12950319 50.6875 204.8125 C47.99244292 195.40580608 45.82398436 185.87823992 43.67456055 176.33520508 C42.18726639 169.8051839 40.57002002 163.35403161 38.73828125 156.9140625 C35.22538755 144.51384872 32.24958075 131.97615679 29.195755 119.45698929 C27.61374396 112.97652176 26.02323049 106.49813148 24.43359375 100.01953125 C24.16253752 98.91428132 24.16253752 98.91428132 23.8860054 97.78670311 C21.13260006 86.56241777 18.34644909 75.34663987 15.53515625 64.13671875 C15.35386862 63.41355217 15.17258099 62.69038559 14.98579979 61.94530487 C13.40242092 55.629753 11.81792694 49.31448362 10.22665405 43.00091553 C6.62412983 28.70708714 3.0667294 14.41966503 0 0 Z " fill="#FEFEFE" transform="translate(266,88)"/>
<path d="M0 0 C17.64150149 4.36174778 35.16965196 9.05011147 52.5246582 14.44433594 C59.14060665 16.48247029 65.79127945 18.2939789 72.5 20 C80.19002392 21.95689174 87.79457021 24.09128463 95.375 26.4375 C110.76239096 31.19829768 126.27507596 35.48285795 141.83935547 39.62524414 C152.13588546 42.36654797 162.34614129 45.28109388 172.52124023 48.44311523 C180.14162316 50.79033291 187.82072279 52.82430346 195.54711914 54.79003906 C202.9679271 56.69146515 210.30183623 58.82057118 217.61987305 61.08422852 C221.39539949 62.24760595 225.09691885 63.33381145 229 64 C227.44063866 67.9073652 225.00570768 69.99497724 221.875 72.75 C213.79079359 79.99366863 206.20529595 87.73958888 198.57958984 95.45800781 C190.23799041 103.879802 190.23799041 103.879802 186.08203125 107.41796875 C180.043714 112.5744852 174.57727426 118.35651729 169 124 C156.36670821 136.78326304 156.36670821 136.78326304 150.13671875 142.0859375 C144.86304929 146.81006553 139.97514105 151.96579848 135 157 C122.33776642 169.81254839 122.33776642 169.81254839 116.10546875 175.1171875 C111.01559498 179.66880003 106.29726237 184.64328498 101.5 189.5 C89.34471706 201.8059238 89.34471706 201.8059238 83.05566406 207.16259766 C80.42981825 209.50964226 77.95143453 211.99245619 75.4765625 214.49609375 C74.76031708 215.22060226 74.76031708 215.22060226 74.02960205 215.95974731 C72.05273286 217.96434822 70.07975819 219.97269636 68.11083984 221.98510742 C66.65371557 223.47224382 65.19058243 224.95325005 63.7265625 226.43359375 C62.86627441 227.31072021 62.00598633 228.18784668 61.11962891 229.09155273 C59 231 59 231 57 231 C56.84442627 230.30664551 56.68885254 229.61329102 56.52856445 228.89892578 C55.79448743 225.63989317 55.05349222 222.38246703 54.3125 219.125 C54.06822266 218.03574219 53.82394531 216.94648437 53.57226562 215.82421875 C52.13529092 209.53063334 50.54850396 203.30206049 48.78125 197.09375 C45.28630393 184.75071732 42.31652856 172.27131396 39.27203369 159.81149292 C37.59054153 152.93007932 35.89995092 146.05089834 34.20955658 139.1716671 C33.82163794 137.59295415 33.43380566 136.01421997 33.04605865 134.43546486 C29.11427566 118.42834117 25.13142754 102.43420886 21.12763596 86.44496155 C20.62594067 84.44125692 20.12447364 82.4374953 19.62307739 80.43371582 C16.56698883 68.22085745 13.50621135 56.00918312 10.4359436 43.79988098 C9.40218309 39.68792765 8.37002871 35.57557206 7.33807373 31.46316528 C6.65124127 28.72944509 5.96170554 25.99641729 5.27197266 23.26342773 C3.32896751 15.53731637 1.45249161 7.83707012 0 0 Z " fill="#FEFEFE" transform="translate(578,409)"/>
<path d="M0 0 C7.39869719 1.34947997 14.5846052 3.18229609 21.8125 5.25 C23.4521875 5.7140625 23.4521875 5.7140625 25.125 6.1875 C28.4179136 7.12068341 31.70921461 8.05934212 35 9 C35.92345215 9.26361328 36.8469043 9.52722656 37.79833984 9.79882812 C41.2243124 10.77713007 44.65003127 11.75629986 48.07495117 12.73828125 C54.58412881 14.60275279 61.10301749 16.43088663 67.625 18.25 C77.92868401 21.12514415 88.21609515 24.05511693 98.5 27 C109.63102603 30.18744725 120.76874744 33.347586 131.921875 36.45703125 C140.81259527 38.93897544 149.68667676 41.47774364 158.56030273 44.02001953 C166.19965234 46.20631028 173.84624126 48.36473435 181.5 50.5 C194.08261187 54.01050609 206.64259185 57.59895241 219.20019531 61.19775391 C222.46629203 62.13360966 225.73301462 63.067252 229 64 C225.12442694 68.76141834 220.95485835 73.15516592 216.625 77.5 C216.09624268 78.03326904 215.56748535 78.56653809 215.02270508 79.1159668 C212.23574401 81.89277654 209.39380533 84.54289664 206.3984375 87.09375 C200.27862355 92.39084273 194.68568385 98.24682075 189 104 C176.36670821 116.78326304 176.36670821 116.78326304 170.13671875 122.0859375 C164.86304929 126.81006553 159.97514105 131.96579848 155 137 C142.36670821 149.78326304 142.36670821 149.78326304 136.13671875 155.0859375 C130.86304929 159.81006553 125.97514105 164.96579848 121 170 C108.36670821 182.78326304 108.36670821 182.78326304 102.13671875 188.0859375 C96.86304929 192.81006553 91.97514105 197.96579848 87 203 C73.84916253 216.30695256 73.84916253 216.30695256 67.56933594 221.64892578 C65.02267174 223.84140239 62.75055003 226.27558079 60.4453125 228.71484375 C59 230 59 230 57 230 C56.72325439 228.85225098 56.44650879 227.70450195 56.16137695 226.52197266 C55.11142 222.17112109 54.05735938 217.82127156 53.00219727 213.47167969 C52.55027033 211.60638126 52.09938551 209.74082998 51.6496582 207.875 C49.17394661 197.60702073 46.59807295 187.38879845 43.72297668 177.2250061 C41.65065994 169.85763421 39.97185626 162.41855579 38.328125 154.9453125 C36.97776563 148.92871132 35.45951871 142.98531874 33.7734375 137.0546875 C30.22815454 124.52677619 27.22042493 111.86115978 24.13504028 99.2141304 C22.55614424 92.74695547 20.96900988 86.28179338 19.3828125 79.81640625 C19.11390324 78.7197442 19.11390324 78.7197442 18.83956146 77.60092735 C16.12866086 66.54802118 13.38575091 55.50344266 10.6171875 44.46484375 C10.44180073 43.76528061 10.26641396 43.06571747 10.08571243 42.34495544 C8.55926825 36.25714872 7.03149065 30.16967998 5.49737549 24.08380127 C4.56935011 20.40137381 3.64390788 16.71830496 2.71875 13.03515625 C2.44143036 11.93936752 2.16411072 10.8435788 1.87838745 9.71458435 C1.62912506 8.72088333 1.37986267 7.72718231 1.12304688 6.70336914 C0.90483276 5.83797012 0.68661865 4.97257111 0.46179199 4.08094788 C0 2 0 2 0 0 Z " fill="#FEFEFE" transform="translate(329,339)"/>
<path d="M0 0 C10.5256353 2.27466749 20.78456401 5.08709565 31.06469727 8.29125977 C37.83425095 10.38441488 44.63245574 12.25720917 51.5 14 C59.043122 15.92031045 66.50323987 18.00628729 73.9375 20.3125 C83.19144785 23.17989782 92.48545019 25.88237658 101.8125 28.5 C102.49431335 28.69145599 103.17612671 28.88291199 103.87860107 29.08016968 C114.14526953 31.95866776 124.43782433 34.73212347 134.74291992 37.4699707 C142.89632849 39.65579435 150.96043253 42.08480827 159.02172852 44.58642578 C165.57609356 46.60711199 172.13875396 48.31330095 178.80859375 49.9140625 C183.95302404 51.20048353 188.99990475 52.80215898 194.0625 54.375 C205.61382875 57.9621703 217.27230451 61.04717188 229 64 C227.65641368 67.07767309 226.29003846 68.83652142 223.6875 70.9375 C219.87435269 74.16559764 216.32930926 77.58251678 212.8125 81.125 C212.26142578 81.67937744 211.71035156 82.23375488 211.14257812 82.80493164 C209.4264096 84.53467745 207.71277411 86.26689335 206 88 C193.36670821 100.78326304 193.36670821 100.78326304 187.13671875 106.0859375 C181.86304929 110.81006553 176.97514105 115.96579848 172 121 C159.33776642 133.81254839 159.33776642 133.81254839 153.10546875 139.1171875 C148.01559498 143.66880003 143.29726237 148.64328498 138.5 153.5 C126.39801899 165.7519613 126.39801899 165.7519613 122.03125 169.46875 C116.00641187 174.60334149 110.55997688 180.37402 105 186 C92.36627874 198.7836976 92.36627874 198.7836976 87.9921875 202.50390625 C84.41650269 205.54558459 81.12035432 208.81850625 77.8203125 212.15234375 C77.27630798 212.70185699 76.73230347 213.25137024 76.17181396 213.8175354 C73.90814751 216.10897563 71.6482947 218.40410223 69.39257812 220.70336914 C67.7269587 222.39900186 66.05532413 224.08851301 64.3828125 225.77734375 C63.87138702 226.30222885 63.35996155 226.82711395 62.83303833 227.36790466 C61.59282171 228.61695159 60.30066105 229.81402517 59 231 C58.34 231 57.68 231 57 231 C56.65388672 229.36417969 56.65388672 229.36417969 56.30078125 227.6953125 C55.97163061 226.17181525 55.64218699 224.64838127 55.3125 223.125 C55.16361328 222.41730469 55.01472656 221.70960938 54.86132812 220.98046875 C53.90167679 216.57736261 52.79845797 212.23596486 51.55331421 207.90467262 C47.22098916 192.75647353 43.56658712 177.42249773 39.78245354 162.13067293 C38.7202977 157.84083862 37.65521094 153.55173204 36.5904541 149.26254272 C34.575874 141.14533083 32.56380207 133.02749951 30.55269289 124.90942705 C28.05678821 114.83492337 25.55772477 104.76120373 23.05859375 94.6875 C20.49962559 84.37234496 17.94088239 74.05713481 15.38439941 63.74136353 C13.25783239 55.16052011 11.13000861 46.5799898 9 38 C8.72758484 36.90265282 8.45516968 35.80530563 8.17449951 34.67470551 C7.48137295 31.88491046 6.78696033 29.09544042 6.09179688 26.30615234 C5.90644127 25.56006021 5.72108566 24.81396809 5.53011322 24.04526711 C4.01082536 17.96195266 2.37358923 11.91338721 0.69921875 5.87109375 C0 3 0 3 0 0 Z " fill="#FEFEFE" transform="translate(515,158)"/>
<path d="M0 0 C6.88254923 1.23944602 13.46369958 2.94864412 20.125 5.0625 C29.66703306 8.02726114 39.25308009 10.80884119 48.875 13.5 C49.90086212 13.78713867 49.90086212 13.78713867 50.94744873 14.08007812 C55.63066087 15.39021406 60.31525305 16.69536425 65 18 C69.25036645 19.18619115 73.50027457 20.37401456 77.75 21.5625 C78.74700928 21.8409375 79.74401855 22.119375 80.77124023 22.40625 C89.68593139 24.90055314 98.58136794 27.46070755 107.47827148 30.01757812 C115.40142628 32.28431176 123.34733673 34.44866134 131.3125 36.5625 C140.61759679 39.03217587 149.82666987 41.73284582 159.02075195 44.58618164 C164.32034913 46.21991985 169.60778435 47.70432446 175 49 C182.46690359 50.79574043 189.77323647 53.01151664 197.10961914 55.27758789 C207.03029974 58.3376532 217.0075175 61.18478047 227 64 C227 67.88309022 225.42128402 68.92998741 222.78369141 71.58184814 C222.17444824 72.17874451 221.56520508 72.77564087 220.9375 73.390625 C220.31278809 74.01346375 219.68807617 74.63630249 219.04443359 75.27801514 C217.71621399 76.59950111 216.38439617 77.91737872 215.04931641 79.23193359 C213.02914529 81.22129914 211.01950797 83.22080284 209.01171875 85.22265625 C203.498502 90.70179831 197.98979183 96.1100245 192.06640625 101.14746094 C186.81814252 105.85254425 181.95291721 110.98828615 177 116 C164.36670821 128.78326304 164.36670821 128.78326304 158.13671875 134.0859375 C152.86304929 138.81006553 147.97514105 143.96579848 143 149 C130.36670821 161.78326304 130.36670821 161.78326304 124.13671875 167.0859375 C118.86304929 171.81006553 113.97514105 176.96579848 109 182 C96.36230528 194.78771823 96.36230528 194.78771823 90.15869141 200.06835938 C84.77618838 204.88473168 79.774422 210.12579313 74.6875 215.25 C73.49698032 216.44554708 72.30622677 217.64086133 71.11523438 218.8359375 C68.9421587 221.01712344 66.77038259 223.19958377 64.6003418 225.38378906 C63.742229 226.24713867 62.88411621 227.11048828 62 228 C61.42870361 228.61327148 60.85740723 229.22654297 60.26879883 229.85839844 C59 231 59 231 57 231 C56.80336258 230.20092224 56.60672516 229.40184448 56.40412903 228.57855225 C44.49797266 180.17756497 44.49797266 180.17756497 32.49447632 131.80065918 C31.96437181 129.67350532 31.43507021 127.54615118 30.90664673 125.4185791 C28.34931843 115.12658276 25.76553083 104.85063236 22.83952332 94.65614319 C20.89960721 87.84369365 19.21928987 80.96549775 17.51756477 74.09067345 C17.02547206 72.10289293 16.53157636 70.11555901 16.0375824 68.12825012 C14.17351633 60.62835258 12.3178028 53.1263935 10.46486378 45.6237402 C9.54237276 41.8887383 8.61852287 38.15408326 7.69165039 34.42016602 C6.78275425 30.75850531 5.87722751 27.09602644 4.97403526 23.43295479 C4.63275635 22.05127373 4.29030297 20.66988218 3.94660378 19.28880119 C3.46745386 17.36252043 2.99303713 15.43506421 2.51879883 13.50756836 C2.24884598 12.4166539 1.97889313 11.32573944 1.70075989 10.20176697 C0.95943832 6.81467397 0.45007403 3.43690275 0 0 Z " fill="#FEFEFE" transform="translate(17,17)"/>
<path d="M0 0 C7.49646 1.38692313 14.83236351 3.18892422 22.1875 5.1875 C23.32098877 5.49357178 24.45447754 5.79964355 25.62231445 6.11499023 C33.97672093 8.3935706 42.25553396 10.87433154 50.52416992 13.4440918 C57.1402318 15.48248009 63.79110538 17.29393463 70.5 19 C78.19002392 20.95689174 85.79457021 23.09128463 93.375 25.4375 C108.76239096 30.19829768 124.27507596 34.48285795 139.83935547 38.62524414 C150.13812221 41.36714347 160.35066585 44.28211559 170.52783203 47.4453125 C177.14272801 49.48312539 183.79239599 51.29406914 190.5 53 C198.62099131 55.06872599 206.66783476 57.3167261 214.6875 59.75 C215.66203125 60.04390625 216.6365625 60.3378125 217.640625 60.640625 C218.54683594 60.9190625 219.45304688 61.1975 220.38671875 61.484375 C221.58107544 61.85127441 221.58107544 61.85127441 222.79956055 62.22558594 C224.97621512 62.99162924 226.9621042 63.92219118 229 65 C226.01669981 68.00831496 223.02990259 71.01310394 220.04003906 74.01489258 C219.02673848 75.03317292 218.01434288 76.05235474 217.00292969 77.07250977 C207.52061616 86.63462494 207.52061616 86.63462494 203.09375 90.40234375 C197.05441268 95.56752571 191.58184152 101.35189581 186 107 C173.36670821 119.78326304 173.36670821 119.78326304 167.13671875 125.0859375 C161.86304929 129.81006553 156.97514105 134.96579848 152 140 C139.36670821 152.78326304 139.36670821 152.78326304 133.13671875 158.0859375 C127.86304929 162.81006553 122.97514105 167.96579848 118 173 C105.36670821 185.78326304 105.36670821 185.78326304 99.13671875 191.0859375 C93.86304929 195.81006553 88.97514105 200.96579848 84 206 C75.66275333 214.43621907 67.36475428 222.68378572 58 230 C55.5152123 222.89493614 53.58649642 215.73921183 51.78515625 208.43359375 C51.48814316 207.24129654 51.19113007 206.04899933 50.88511658 204.8205719 C49.94090361 201.02703587 49.00160232 197.23230405 48.0625 193.4375 C47.43587598 190.91593382 46.80892576 188.39444867 46.18164062 185.87304688 C44.05530385 177.32222321 41.93265706 168.77048746 39.81689453 160.21704102 C38.09446493 153.26939047 36.3060942 146.34181342 34.453125 139.42793274 C28.30993323 116.50465655 22.63634674 93.46953974 16.99121094 70.41992188 C16.47782088 68.32375703 15.96442926 66.22759256 15.45100784 64.13143539 C15.11176231 62.74632859 14.77256691 61.3612095 14.43342209 59.97607803 C12.15665609 50.67951137 9.85748854 41.38882556 7.52734375 32.10546875 C7.2647023 31.05893127 7.00206085 30.0123938 6.73146057 28.93414307 C5.52404824 24.1274989 4.31285505 19.32183271 3.09790039 14.51708984 C2.67981891 12.8564532 2.26176676 11.19580918 1.84375 9.53515625 C1.65397079 8.78952927 1.46419159 8.04390228 1.2686615 7.27568054 C0 2.22613824 0 2.22613824 0 0 Z " fill="#FEFEFE" transform="translate(392,590)"/>
<path d="M0 0 C6.96606341 1.31886796 13.8301576 2.88919572 20.6875 4.6875 C21.68152832 4.94732666 22.67555664 5.20715332 23.69970703 5.47485352 C31.60619378 7.57067629 39.42445736 9.90623459 47.23779297 12.32299805 C61.67211858 16.77567424 76.24507271 20.74090476 90.84106445 24.62573242 C91.92476318 24.91424072 93.00846191 25.20274902 94.125 25.5 C95.20160889 25.78657471 96.27821777 26.07314941 97.38745117 26.3684082 C105.6582584 28.59063022 113.84147324 31.04781553 122.02001953 33.5859375 C127.31985524 35.21978398 132.60753238 36.70426392 138 38 C144.39362335 39.53787256 150.65523789 41.37072908 156.9375 43.3125 C168.16322763 46.78088327 179.45344295 49.97478044 190.77685547 53.10742188 C196.33289233 54.6460426 201.88521434 56.19790823 207.4375 57.75 C208.44925293 58.03166016 209.46100586 58.31332031 210.50341797 58.60351562 C216.6911219 60.33165957 222.85378673 62.12959651 229 64 C224.60514612 69.25739529 219.98296044 74.16979934 215.125 79 C214.45597656 79.67289062 213.78695312 80.34578125 213.09765625 81.0390625 C209.91281588 84.21776638 206.69779629 87.29886468 203.2734375 90.21875 C197.36890565 95.31319568 191.976697 100.95543009 186.5 106.5 C174.39801899 118.7519613 174.39801899 118.7519613 170.03125 122.46875 C164.00641187 127.60334149 158.55997688 133.37402 153 139 C140.36670821 151.78326304 140.36670821 151.78326304 134.13671875 157.0859375 C128.86304929 161.81006553 123.97514105 166.96579848 119 172 C106.36670821 184.78326304 106.36670821 184.78326304 100.13671875 190.0859375 C94.86304929 194.81006553 89.97514105 199.96579848 85 205 C71.56470908 218.59478279 71.56470908 218.59478279 65.57373047 223.63891602 C63.99981717 225.00015813 62.56459178 226.43613759 61.125 227.9375 C59 230 59 230 57 230 C56.85552775 229.41695728 56.71105551 228.83391457 56.56220531 228.23320389 C52.98712285 213.80547738 49.41151997 199.37787991 45.83539104 184.95041275 C44.10576 177.97237229 42.3762851 170.99429321 40.6472168 164.01611328 C32.83087901 132.47130094 25.00087611 100.93005676 17.10343933 69.40542603 C15.99590643 64.98422599 14.88944251 60.56275927 13.78369141 56.14111328 C13.31414536 54.26372971 13.31414536 54.26372971 12.83511353 52.34841919 C12.11600903 49.46514259 11.40152442 46.58081285 10.69140625 43.6953125 C8.68733427 35.57118601 6.60305515 27.48594879 4.3125 19.4375 C2.48377698 13.00543973 1.02412362 6.6147384 0 0 Z " fill="#FEFEFE" transform="translate(764,229)"/>
<path d="M0 0 C4.85363091 0.8483989 9.52528168 2.2524266 14.25 3.625 C22.03230877 5.86788878 29.82309008 8.07630192 37.625 10.25 C47.92877085 13.12482699 58.21609763 16.05511764 68.5 19 C79.63102603 22.18744725 90.76874744 25.347586 101.921875 28.45703125 C110.81259527 30.93897544 119.68667676 33.47774364 128.56030273 36.02001953 C137.22057816 38.49848708 145.89155277 40.93647075 154.56860352 43.35546875 C163.54196737 45.86117945 172.49568354 48.43351967 181.44873047 51.01074219 C187.35211887 52.7016501 193.26292452 54.35005209 199.19921875 55.921875 C200.36267822 56.22996094 201.5261377 56.53804688 202.72485352 56.85546875 C204.91519499 57.43171713 207.10699512 58.00246342 209.30053711 58.56640625 C215.75510052 60.26132273 221.86808028 62.36454319 228 65 C222.82127171 71.3234998 217.08950916 77.06283446 211.30566406 82.82470703 C209.63231271 84.49271066 207.96435883 86.16597673 206.296875 87.83984375 C197.4001299 96.74156151 197.4001299 96.74156151 193.0234375 100.46875 C187.00491982 105.6073124 181.55848721 111.37552735 176 117 C163.36670821 129.78326304 163.36670821 129.78326304 157.13671875 135.0859375 C151.86304929 139.81006553 146.97514105 144.96579848 142 150 C129.36524177 162.78474688 129.36524177 162.78474688 125.0625 166.4375 C118.66791273 171.88027239 112.90062608 178.03476853 107 184 C93.27678668 197.87346748 93.27678668 197.87346748 87.12792969 203.09033203 C84.17399796 205.74127902 81.39374412 208.55143685 78.6015625 211.37109375 C77.75220123 212.22871811 77.75220123 212.22871811 76.88568115 213.10366821 C74.5264832 215.49065417 72.17107443 217.88130761 69.81982422 220.27612305 C68.08470636 222.04125453 66.34357159 223.80026685 64.6015625 225.55859375 C64.06826324 226.10535263 63.53496399 226.65211151 62.98550415 227.21543884 C61.69447777 228.51528518 60.35155967 229.76321543 59 231 C58.34 231 57.68 231 57 231 C56.79225952 230.15651001 56.58451904 229.31302002 56.3704834 228.44396973 C54.37213325 220.3304884 52.37323138 212.21714321 50.37377167 204.10393524 C49.34687893 199.93703583 48.32016961 195.77009144 47.29394531 191.60302734 C42.20694434 170.9475595 37.090521 150.29990587 31.91847229 129.66555786 C27.4263888 111.73797079 27.4263888 111.73797079 25.3028717 103.16018677 C24.57986586 100.23990629 23.85365523 97.32042378 23.12768555 94.40087891 C22.7518367 92.88741758 22.37683232 91.37374628 22.00268555 89.85986328 C19.97927445 81.67613249 17.89394989 73.52019935 15.60546875 65.40625 C12.7255315 55.17825056 10.12738332 44.88172531 7.55078125 34.57373047 C6.74209361 31.34341785 5.92584122 28.11507295 5.109375 24.88671875 C4.58808231 22.80740678 4.06723262 20.72798368 3.546875 18.6484375 C3.18441681 17.22016129 3.18441681 17.22016129 2.81463623 15.76303101 C1.50989082 10.50821373 0.55068027 5.38767272 0 0 Z " fill="#FEFEFE" transform="translate(80,268)"/>
<path d="M0 0 C8.07258259 1.62691204 15.88957565 3.81843943 23.75 6.25 C39.34797593 11.07033218 55.06533278 15.42690854 70.84106445 19.62573242 C71.92476318 19.91424072 73.00846191 20.20274902 74.125 20.5 C75.20160889 20.78657471 76.27821777 21.07314941 77.38745117 21.3684082 C85.6582584 23.59063022 93.84147324 26.04781553 102.02001953 28.5859375 C108.57498029 30.60671703 115.13817138 32.31316113 121.80859375 33.9140625 C126.95302758 35.20048441 131.99988573 36.8022145 137.0625 38.375 C144.83069463 40.78652673 152.61639396 42.99797456 160.5 45 C169.14801359 47.20033874 177.67672569 49.67058178 186.19921875 52.31323242 C196.5580686 55.51317467 206.99998026 58.403349 217.44921875 61.29150391 C220.63788125 62.17717567 223.81982727 63.08436038 227 64 C227 68 227 68 225.70703125 69.46484375 C225.08183594 69.95082031 224.45664062 70.43679688 223.8125 70.9375 C219.92582114 74.14674716 216.35460726 77.54743992 212.8125 81.125 C212.26158691 81.67937744 211.71067383 82.23375488 211.14306641 82.80493164 C209.42656731 84.53451305 207.71285571 86.26681079 206 88 C193.36670821 100.78326304 193.36670821 100.78326304 187.13671875 106.0859375 C181.86304929 110.81006553 176.97514105 115.96579848 172 121 C159.36670821 133.78326304 159.36670821 133.78326304 153.13671875 139.0859375 C147.86304929 143.81006553 142.97514105 148.96579848 138 154 C125.36670821 166.78326304 125.36670821 166.78326304 119.13671875 172.0859375 C113.86304929 176.81006553 108.97514105 181.96579848 104 187 C91.34129376 199.80897918 91.34129376 199.80897918 85.10058594 205.11767578 C82.30868757 207.6194815 79.6747488 210.26980791 77.0390625 212.93359375 C76.51721375 213.46095123 75.99536499 213.98830872 75.45770264 214.53164673 C73.2896499 216.72746097 71.125435 218.92697974 68.96533203 221.13061523 C67.36921101 222.75674919 65.76707677 224.37675895 64.1640625 225.99609375 C63.42973495 226.75061073 63.42973495 226.75061073 62.68057251 227.52037048 C61.49116463 228.71861993 60.24975604 229.86483363 59 231 C58.34 231 57.68 231 57 231 C56.80336258 230.20092224 56.60672516 229.40184448 56.40412903 228.57855225 C46.75311426 189.36339101 37.08320708 150.1536065 27.24902344 110.98388672 C26.44593022 107.78343486 25.64686992 104.58203217 24.85253906 101.37939453 C23.15981238 94.5587981 21.43600975 87.75600644 19.5 81 C17.373382 73.57883648 15.49769052 66.09930333 13.64453125 58.60601807 C12.91800944 55.66848948 12.18942325 52.73147573 11.4609375 49.79443359 C10.01708118 43.96873079 8.57928181 38.14155206 7.14404297 32.3137207 C6.54219431 29.87263437 5.93897833 27.43188479 5.33447266 24.99145508 C4.45407445 21.43651025 3.57812285 17.8804961 2.703125 14.32421875 C2.43131409 13.23058517 2.15950317 12.1369516 1.87945557 11.01017761 C1.63209656 10.00094742 1.38473755 8.99171722 1.12988281 7.9519043 C0.91100403 7.0652861 0.69212524 6.17866791 0.46661377 5.2651825 C0 3 0 3 0 0 Z " fill="#FEFEFE" transform="translate(143,519)"/>
<path d="M0 0 C13.90811788 3.4975133 27.74052462 7.12150569 41.43847656 11.37329102 C55.80200314 15.82132689 70.3118689 19.75868305 84.84106445 23.62573242 C85.92476318 23.91424072 87.00846191 24.20274902 88.125 24.5 C89.20160889 24.78657471 90.27821777 25.07314941 91.38745117 25.3684082 C99.6582584 27.59063022 107.84147324 30.04781553 116.02001953 32.5859375 C122.57498029 34.60671703 129.13817138 36.31316113 135.80859375 37.9140625 C140.95302758 39.20048441 145.99988573 40.8022145 151.0625 42.375 C158.83068736 44.78652448 166.61636055 46.99811581 174.5 49 C183.30789506 51.23953729 191.99539036 53.76067893 200.67602539 56.44946289 C209.40242096 59.14795036 218.18429585 61.61172559 227 64 C227 68 227 68 224.4921875 70.6796875 C223.29466913 71.75401495 222.08811507 72.81831578 220.875 73.875 C212.88378205 81.0624667 205.31211204 88.62317709 197.76708984 96.27099609 C190.23244583 103.87375296 190.23244583 103.87375296 186.15234375 107.34765625 C180.09524885 112.53430715 174.60118692 118.33232075 169 124 C156.36670821 136.78326304 156.36670821 136.78326304 150.13671875 142.0859375 C144.86304929 146.81006553 139.97514105 151.96579848 135 157 C122.36670821 169.78326304 122.36670821 169.78326304 116.13671875 175.0859375 C110.86304929 179.81006553 105.97514105 184.96579848 101 190 C88.25444707 202.89685683 88.25444707 202.89685683 82.00683594 208.21142578 C76.99027001 212.68239439 72.37918508 217.60780283 67.68359375 222.41235352 C66.29600999 223.82994803 64.90201582 225.24125905 63.5078125 226.65234375 C62.68941895 227.48757568 61.87102539 228.32280762 61.02783203 229.18334961 C59 231 59 231 57 231 C56.73565155 229.93007813 56.4713031 228.86015625 56.19894409 227.7578125 C44.56188042 180.66098151 32.91763334 133.56585163 21.16851807 86.49682617 C20.2294481 82.73471501 19.29145077 78.97233915 18.35443115 75.2097168 C17.25112058 70.779811 16.1453564 66.35052461 15.03772354 61.92169762 C14.63830922 60.32321523 14.2396501 58.72454388 13.84188461 57.12565041 C11.40919994 47.35043434 8.82409605 37.6299031 6.0927887 27.93374634 C4.66427497 22.84024301 3.39660061 17.71207932 2.1875 12.5625 C1.97158203 11.66724609 1.75566406 10.77199219 1.53320312 9.84960938 C0 3.38095238 0 3.38095238 0 0 Z " fill="#FEFEFE" transform="translate(206,770)"/>
</svg>
