<?xml version="1.0" standalone="no"?>
<!DOCTYPE svg PUBLIC "-//W3C//DTD SVG 20010904//EN"
 "http://www.w3.org/TR/2001/REC-SVG-20010904/DTD/svg10.dtd">
<svg version="1.0" xmlns="http://www.w3.org/2000/svg"
 width="280pt" height="280pt" viewBox="0 0 280 280"
 preserveAspectRatio="xMidYMid meet">
  <g transform="translate(0,280) scale(0.1,-0.1)" stroke="none">
    <path fill="#1ABC9C" d="M0 2160 l0 -641 42 24 c24 14 117 63 208 109 91 47 242 125 335 173
      94 48 197 102 230 120 166 89 568 295 572 292 1 -1 4 -319 7 -707 6 -655 12
      -949 20 -957 2 -2 45 19 97 45 52 27 166 86 254 132 88 45 223 115 300 155
      329 172 438 229 582 302 l153 78 0 758 0 757 -1400 0 -1400 0 0 -640z"/>
    <path fill="#000000" d="M0 2160 l0 -640 1400 0 1400 0 0 640 -1400 0 -1400 0z"/>
    <path fill="#FF6EC7" d="M0 2160 l0 80 1400 0 1400 0 0 -80 -1400 0 -1400 0z"/>
  </g>
</svg>
